solid Exported from Blender-3.4.1
facet normal 0.000000 1.000000 0.000000
outer loop
vertex 4.000000 0.100000 4.000000
vertex -4.000000 0.100000 -4.000000
vertex -4.000000 0.100000 4.000000
endloop
endfacet
facet normal 0.000000 0.000000 -1.000000
outer loop
vertex -4.000000 0.100000 -4.000000
vertex 4.000000 -0.100000 -4.000000
vertex -4.000000 -0.100000 -4.000000
endloop
endfacet
facet normal 1.000000 0.000000 0.000000
outer loop
vertex 4.000000 0.100000 -4.000000
vertex 4.000000 -0.100000 4.000000
vertex 4.000000 -0.100000 -4.000000
endloop
endfacet
facet normal 0.000000 -1.000000 0.000000
outer loop
vertex -4.000000 -0.100000 4.000000
vertex 4.000000 -0.100000 -4.000000
vertex 4.000000 -0.100000 4.000000
endloop
endfacet
facet normal -1.000000 0.000000 0.000000
outer loop
vertex -4.000000 0.100000 4.000000
vertex -4.000000 -0.100000 -4.000000
vertex -4.000000 -0.100000 4.000000
endloop
endfacet
facet normal 0.000000 0.000000 1.000000
outer loop
vertex 4.000000 0.100000 4.000000
vertex -4.000000 -0.100000 4.000000
vertex 4.000000 -0.100000 4.000000
endloop
endfacet
facet normal 0.000000 1.000000 0.000000
outer loop
vertex 4.000000 0.100000 4.000000
vertex 4.000000 0.100000 -4.000000
vertex -4.000000 0.100000 -4.000000
endloop
endfacet
facet normal 0.000000 0.000000 -1.000000
outer loop
vertex -4.000000 0.100000 -4.000000
vertex 4.000000 0.100000 -4.000000
vertex 4.000000 -0.100000 -4.000000
endloop
endfacet
facet normal 1.000000 0.000000 0.000000
outer loop
vertex 4.000000 0.100000 -4.000000
vertex 4.000000 0.100000 4.000000
vertex 4.000000 -0.100000 4.000000
endloop
endfacet
facet normal 0.000000 -1.000000 0.000000
outer loop
vertex -4.000000 -0.100000 4.000000
vertex -4.000000 -0.100000 -4.000000
vertex 4.000000 -0.100000 -4.000000
endloop
endfacet
facet normal -1.000000 0.000000 0.000000
outer loop
vertex -4.000000 0.100000 4.000000
vertex -4.000000 0.100000 -4.000000
vertex -4.000000 -0.100000 -4.000000
endloop
endfacet
facet normal 0.000000 0.000000 1.000000
outer loop
vertex 4.000000 0.100000 4.000000
vertex -4.000000 0.100000 4.000000
vertex -4.000000 -0.100000 4.000000
endloop
endfacet
facet normal -0.098017 0.000000 0.995185
outer loop
vertex -2.800000 -0.099999 0.300000
vertex -2.800000 9.900001 0.300000
vertex -2.858527 9.900001 0.294236
endloop
endfacet
facet normal -0.098018 0.000000 0.995185
outer loop
vertex -2.800000 -0.099999 0.300000
vertex -2.858527 9.900001 0.294236
vertex -2.858527 -0.099999 0.294236
endloop
endfacet
facet normal -0.290284 0.000000 0.956940
outer loop
vertex -2.858527 -0.099999 0.294236
vertex -2.858527 9.900001 0.294236
vertex -2.914805 9.900001 0.277164
endloop
endfacet
facet normal -0.290284 0.000000 0.956940
outer loop
vertex -2.858527 -0.099999 0.294236
vertex -2.914805 9.900001 0.277164
vertex -2.914805 -0.099999 0.277164
endloop
endfacet
facet normal -0.471397 0.000000 0.881921
outer loop
vertex -2.914805 -0.099999 0.277164
vertex -2.914805 9.900001 0.277164
vertex -2.966671 9.900001 0.249441
endloop
endfacet
facet normal -0.471397 0.000000 0.881921
outer loop
vertex -2.914805 -0.099999 0.277164
vertex -2.966671 9.900001 0.249441
vertex -2.966671 -0.099999 0.249441
endloop
endfacet
facet normal -0.634393 0.000000 0.773010
outer loop
vertex -2.966671 -0.099999 0.249441
vertex -2.966671 9.900001 0.249441
vertex -3.012132 9.900001 0.212132
endloop
endfacet
facet normal -0.634394 0.000000 0.773010
outer loop
vertex -2.966671 -0.099999 0.249441
vertex -3.012132 9.900001 0.212132
vertex -3.012132 -0.099999 0.212132
endloop
endfacet
facet normal -0.773009 0.000000 0.634395
outer loop
vertex -3.012132 -0.099999 0.212132
vertex -3.012132 9.900001 0.212132
vertex -3.049441 9.900001 0.166671
endloop
endfacet
facet normal -0.773010 0.000000 0.634394
outer loop
vertex -3.012132 -0.099999 0.212132
vertex -3.049441 9.900001 0.166671
vertex -3.049441 -0.099999 0.166671
endloop
endfacet
facet normal -0.881922 0.000000 0.471395
outer loop
vertex -3.049441 -0.099999 0.166671
vertex -3.049441 9.900001 0.166671
vertex -3.077164 9.900001 0.114805
endloop
endfacet
facet normal -0.881922 0.000000 0.471395
outer loop
vertex -3.049441 -0.099999 0.166671
vertex -3.077164 9.900001 0.114805
vertex -3.077164 -0.099999 0.114805
endloop
endfacet
facet normal -0.956940 0.000000 0.290285
outer loop
vertex -3.077164 -0.099999 0.114805
vertex -3.077164 9.900001 0.114805
vertex -3.094235 9.900001 0.058527
endloop
endfacet
facet normal -0.956940 0.000000 0.290285
outer loop
vertex -3.077164 -0.099999 0.114805
vertex -3.094235 9.900001 0.058527
vertex -3.094235 -0.099999 0.058527
endloop
endfacet
facet normal -0.995185 0.000000 0.098018
outer loop
vertex -3.094235 -0.099999 0.058527
vertex -3.094235 9.900001 0.058527
vertex -3.100000 9.900001 0.000000
endloop
endfacet
facet normal -0.995185 0.000000 0.098018
outer loop
vertex -3.094235 -0.099999 0.058527
vertex -3.100000 9.900001 0.000000
vertex -3.100000 -0.099999 0.000000
endloop
endfacet
facet normal -0.995185 0.000000 -0.098018
outer loop
vertex -3.100000 -0.099999 0.000000
vertex -3.100000 9.900001 0.000000
vertex -3.094235 9.900001 -0.058527
endloop
endfacet
facet normal -0.995185 0.000000 -0.098018
outer loop
vertex -3.100000 -0.099999 0.000000
vertex -3.094235 9.900001 -0.058527
vertex -3.094235 -0.099999 -0.058527
endloop
endfacet
facet normal -0.956940 0.000000 -0.290285
outer loop
vertex -3.094235 -0.099999 -0.058527
vertex -3.094235 9.900001 -0.058527
vertex -3.077164 9.900001 -0.114805
endloop
endfacet
facet normal -0.956940 0.000000 -0.290285
outer loop
vertex -3.094235 -0.099999 -0.058527
vertex -3.077164 9.900001 -0.114805
vertex -3.077164 -0.099999 -0.114805
endloop
endfacet
facet normal -0.881922 0.000000 -0.471395
outer loop
vertex -3.077164 -0.099999 -0.114805
vertex -3.077164 9.900001 -0.114805
vertex -3.049441 9.900001 -0.166671
endloop
endfacet
facet normal -0.881922 0.000000 -0.471395
outer loop
vertex -3.077164 -0.099999 -0.114805
vertex -3.049441 9.900001 -0.166671
vertex -3.049441 -0.099999 -0.166671
endloop
endfacet
facet normal -0.773010 0.000000 -0.634394
outer loop
vertex -3.049441 -0.099999 -0.166671
vertex -3.049441 9.900001 -0.166671
vertex -3.012132 9.900001 -0.212132
endloop
endfacet
facet normal -0.773009 0.000000 -0.634395
outer loop
vertex -3.049441 -0.099999 -0.166671
vertex -3.012132 9.900001 -0.212132
vertex -3.012132 -0.099999 -0.212132
endloop
endfacet
facet normal -0.634394 0.000000 -0.773010
outer loop
vertex -3.012132 -0.099999 -0.212132
vertex -3.012132 9.900001 -0.212132
vertex -2.966671 9.900001 -0.249441
endloop
endfacet
facet normal -0.634393 0.000000 -0.773010
outer loop
vertex -3.012132 -0.099999 -0.212132
vertex -2.966671 9.900001 -0.249441
vertex -2.966671 -0.099999 -0.249441
endloop
endfacet
facet normal -0.471397 0.000000 -0.881921
outer loop
vertex -2.966671 -0.099999 -0.249441
vertex -2.966671 9.900001 -0.249441
vertex -2.914805 9.900001 -0.277164
endloop
endfacet
facet normal -0.471397 0.000000 -0.881921
outer loop
vertex -2.966671 -0.099999 -0.249441
vertex -2.914805 9.900001 -0.277164
vertex -2.914805 -0.099999 -0.277164
endloop
endfacet
facet normal -0.290284 0.000000 -0.956940
outer loop
vertex -2.914805 -0.099999 -0.277164
vertex -2.914805 9.900001 -0.277164
vertex -2.858527 9.900001 -0.294236
endloop
endfacet
facet normal -0.290284 0.000000 -0.956940
outer loop
vertex -2.914805 -0.099999 -0.277164
vertex -2.858527 9.900001 -0.294236
vertex -2.858527 -0.099999 -0.294236
endloop
endfacet
facet normal -0.098018 0.000000 -0.995185
outer loop
vertex -2.858527 -0.099999 -0.294236
vertex -2.858527 9.900001 -0.294236
vertex -2.800000 9.900001 -0.300000
endloop
endfacet
facet normal -0.098017 0.000000 -0.995185
outer loop
vertex -2.858527 -0.099999 -0.294236
vertex -2.800000 9.900001 -0.300000
vertex -2.800000 -0.099999 -0.300000
endloop
endfacet
facet normal 0.098017 0.000000 -0.995185
outer loop
vertex -2.800000 -0.099999 -0.300000
vertex -2.800000 9.900001 -0.300000
vertex -2.741473 9.900001 -0.294236
endloop
endfacet
facet normal 0.098018 0.000000 -0.995185
outer loop
vertex -2.800000 -0.099999 -0.300000
vertex -2.741473 9.900001 -0.294236
vertex -2.741473 -0.099999 -0.294236
endloop
endfacet
facet normal 0.290284 0.000000 -0.956940
outer loop
vertex -2.741473 -0.099999 -0.294236
vertex -2.741473 9.900001 -0.294236
vertex -2.685195 9.900001 -0.277164
endloop
endfacet
facet normal 0.290284 0.000000 -0.956940
outer loop
vertex -2.741473 -0.099999 -0.294236
vertex -2.685195 9.900001 -0.277164
vertex -2.685195 -0.099999 -0.277164
endloop
endfacet
facet normal 0.471397 0.000000 -0.881921
outer loop
vertex -2.685195 -0.099999 -0.277164
vertex -2.685195 9.900001 -0.277164
vertex -2.633329 9.900001 -0.249441
endloop
endfacet
facet normal 0.471397 0.000000 -0.881921
outer loop
vertex -2.685195 -0.099999 -0.277164
vertex -2.633329 9.900001 -0.249441
vertex -2.633329 -0.099999 -0.249441
endloop
endfacet
facet normal 0.634393 0.000000 -0.773010
outer loop
vertex -2.633329 -0.099999 -0.249441
vertex -2.633329 9.900001 -0.249441
vertex -2.587868 9.900001 -0.212132
endloop
endfacet
facet normal 0.634394 0.000000 -0.773010
outer loop
vertex -2.633329 -0.099999 -0.249441
vertex -2.587868 9.900001 -0.212132
vertex -2.587868 -0.099999 -0.212132
endloop
endfacet
facet normal 0.773009 0.000000 -0.634395
outer loop
vertex -2.587868 -0.099999 -0.212132
vertex -2.587868 9.900001 -0.212132
vertex -2.550559 9.900001 -0.166671
endloop
endfacet
facet normal 0.773010 0.000000 -0.634394
outer loop
vertex -2.587868 -0.099999 -0.212132
vertex -2.550559 9.900001 -0.166671
vertex -2.550559 -0.099999 -0.166671
endloop
endfacet
facet normal 0.881922 0.000000 -0.471395
outer loop
vertex -2.550559 -0.099999 -0.166671
vertex -2.550559 9.900001 -0.166671
vertex -2.522836 9.900001 -0.114805
endloop
endfacet
facet normal 0.881922 0.000000 -0.471395
outer loop
vertex -2.550559 -0.099999 -0.166671
vertex -2.522836 9.900001 -0.114805
vertex -2.522836 -0.099999 -0.114805
endloop
endfacet
facet normal 0.956940 0.000000 -0.290285
outer loop
vertex -2.522836 -0.099999 -0.114805
vertex -2.522836 9.900001 -0.114805
vertex -2.505764 9.900001 -0.058527
endloop
endfacet
facet normal 0.956940 0.000000 -0.290285
outer loop
vertex -2.522836 -0.099999 -0.114805
vertex -2.505764 9.900001 -0.058527
vertex -2.505764 -0.099999 -0.058527
endloop
endfacet
facet normal 0.995185 0.000000 -0.098018
outer loop
vertex -2.505764 -0.099999 -0.058527
vertex -2.505764 9.900001 -0.058527
vertex -2.500000 9.900001 0.000000
endloop
endfacet
facet normal 0.995185 0.000000 -0.098018
outer loop
vertex -2.505764 -0.099999 -0.058527
vertex -2.500000 9.900001 0.000000
vertex -2.500000 -0.099999 0.000000
endloop
endfacet
facet normal 0.995185 0.000000 0.098018
outer loop
vertex -2.500000 -0.099999 0.000000
vertex -2.500000 9.900001 0.000000
vertex -2.505764 9.900001 0.058527
endloop
endfacet
facet normal 0.995185 0.000000 0.098018
outer loop
vertex -2.500000 -0.099999 0.000000
vertex -2.505764 9.900001 0.058527
vertex -2.505764 -0.099999 0.058527
endloop
endfacet
facet normal 0.956940 0.000000 0.290285
outer loop
vertex -2.505764 -0.099999 0.058527
vertex -2.505764 9.900001 0.058527
vertex -2.522836 9.900001 0.114805
endloop
endfacet
facet normal 0.956940 0.000000 0.290285
outer loop
vertex -2.505764 -0.099999 0.058527
vertex -2.522836 9.900001 0.114805
vertex -2.522836 -0.099999 0.114805
endloop
endfacet
facet normal 0.881922 0.000000 0.471395
outer loop
vertex -2.522836 -0.099999 0.114805
vertex -2.522836 9.900001 0.114805
vertex -2.550559 9.900001 0.166671
endloop
endfacet
facet normal 0.881922 0.000000 0.471395
outer loop
vertex -2.522836 -0.099999 0.114805
vertex -2.550559 9.900001 0.166671
vertex -2.550559 -0.099999 0.166671
endloop
endfacet
facet normal 0.773010 0.000000 0.634394
outer loop
vertex -2.550559 -0.099999 0.166671
vertex -2.550559 9.900001 0.166671
vertex -2.587868 9.900001 0.212132
endloop
endfacet
facet normal 0.773009 0.000000 0.634395
outer loop
vertex -2.550559 -0.099999 0.166671
vertex -2.587868 9.900001 0.212132
vertex -2.587868 -0.099999 0.212132
endloop
endfacet
facet normal 0.634394 0.000000 0.773010
outer loop
vertex -2.587868 -0.099999 0.212132
vertex -2.587868 9.900001 0.212132
vertex -2.633329 9.900001 0.249441
endloop
endfacet
facet normal 0.634393 0.000000 0.773010
outer loop
vertex -2.587868 -0.099999 0.212132
vertex -2.633329 9.900001 0.249441
vertex -2.633329 -0.099999 0.249441
endloop
endfacet
facet normal 0.471397 0.000000 0.881921
outer loop
vertex -2.633329 -0.099999 0.249441
vertex -2.633329 9.900001 0.249441
vertex -2.685195 9.900001 0.277164
endloop
endfacet
facet normal 0.471397 0.000000 0.881921
outer loop
vertex -2.633329 -0.099999 0.249441
vertex -2.685195 9.900001 0.277164
vertex -2.685195 -0.099999 0.277164
endloop
endfacet
facet normal 0.000000 1.000000 -0.000177
outer loop
vertex -2.914805 9.900001 0.277164
vertex -2.858527 9.900001 0.294236
vertex -2.800000 9.900001 0.300000
endloop
endfacet
facet normal 0.000000 1.000000 -0.000177
outer loop
vertex -2.800000 9.900001 0.300000
vertex -2.741473 9.900001 0.294236
vertex -2.685195 9.900001 0.277164
endloop
endfacet
facet normal 0.000000 1.000000 -0.000088
outer loop
vertex -2.685195 9.900001 0.277164
vertex -2.633329 9.900001 0.249441
vertex -2.587868 9.900001 0.212132
endloop
endfacet
facet normal 0.000000 1.000000 -0.000088
outer loop
vertex -2.587868 9.900001 0.212132
vertex -2.550559 9.900001 0.166671
vertex -2.522836 9.900001 0.114805
endloop
endfacet
facet normal 0.000000 1.000000 0.000022
outer loop
vertex -2.522836 9.900001 0.114805
vertex -2.505764 9.900001 0.058527
vertex -2.500000 9.900001 0.000000
endloop
endfacet
facet normal 0.000000 1.000000 0.000000
outer loop
vertex -2.500000 9.900001 0.000000
vertex -2.505764 9.900001 -0.058527
vertex -2.522836 9.900001 -0.114805
endloop
endfacet
facet normal 0.000000 1.000000 0.000088
outer loop
vertex -2.522836 9.900001 -0.114805
vertex -2.550559 9.900001 -0.166671
vertex -2.587868 9.900001 -0.212132
endloop
endfacet
facet normal 0.000000 1.000000 0.000000
outer loop
vertex -2.587868 9.900001 -0.212132
vertex -2.633329 9.900001 -0.249441
vertex -2.685195 9.900001 -0.277164
endloop
endfacet
facet normal 0.000000 1.000000 0.000177
outer loop
vertex -2.685195 9.900001 -0.277164
vertex -2.741473 9.900001 -0.294236
vertex -2.800000 9.900001 -0.300000
endloop
endfacet
facet normal 0.000000 1.000000 0.000177
outer loop
vertex -2.800000 9.900001 -0.300000
vertex -2.858527 9.900001 -0.294236
vertex -2.914805 9.900001 -0.277164
endloop
endfacet
facet normal 0.000000 1.000000 0.000088
outer loop
vertex -2.914805 9.900001 -0.277164
vertex -2.966671 9.900001 -0.249441
vertex -3.012132 9.900001 -0.212132
endloop
endfacet
facet normal 0.000000 1.000000 0.000088
outer loop
vertex -3.012132 9.900001 -0.212132
vertex -3.049441 9.900001 -0.166671
vertex -3.077164 9.900001 -0.114805
endloop
endfacet
facet normal 0.000000 1.000000 -0.000022
outer loop
vertex -3.077164 9.900001 -0.114805
vertex -3.094235 9.900001 -0.058527
vertex -3.100000 9.900001 0.000000
endloop
endfacet
facet normal 0.000000 1.000000 0.000000
outer loop
vertex -3.100000 9.900001 0.000000
vertex -3.094235 9.900001 0.058527
vertex -3.077164 9.900001 0.114805
endloop
endfacet
facet normal 0.000000 1.000000 -0.000088
outer loop
vertex -3.077164 9.900001 0.114805
vertex -3.049441 9.900001 0.166671
vertex -3.012132 9.900001 0.212132
endloop
endfacet
facet normal 0.000000 1.000000 0.000000
outer loop
vertex -3.012132 9.900001 0.212132
vertex -2.966671 9.900001 0.249441
vertex -2.914805 9.900001 0.277164
endloop
endfacet
facet normal 0.000000 1.000000 0.000000
outer loop
vertex -2.914805 9.900001 0.277164
vertex -2.800000 9.900001 0.300000
vertex -2.685195 9.900001 0.277164
endloop
endfacet
facet normal 0.000000 1.000000 0.000000
outer loop
vertex -2.685195 9.900001 0.277164
vertex -2.587868 9.900001 0.212132
vertex -2.522836 9.900001 0.114805
endloop
endfacet
facet normal 0.000000 1.000000 0.000000
outer loop
vertex -2.522836 9.900001 0.114805
vertex -2.500000 9.900001 0.000000
vertex -2.522836 9.900001 -0.114805
endloop
endfacet
facet normal 0.000000 1.000000 0.000000
outer loop
vertex -2.522836 9.900001 -0.114805
vertex -2.587868 9.900001 -0.212132
vertex -2.685195 9.900001 -0.277164
endloop
endfacet
facet normal 0.000000 1.000000 0.000000
outer loop
vertex -2.685195 9.900001 -0.277164
vertex -2.800000 9.900001 -0.300000
vertex -2.914805 9.900001 -0.277164
endloop
endfacet
facet normal 0.000000 1.000000 0.000000
outer loop
vertex -2.914805 9.900001 -0.277164
vertex -3.012132 9.900001 -0.212132
vertex -3.077164 9.900001 -0.114805
endloop
endfacet
facet normal 0.000000 1.000000 0.000000
outer loop
vertex -3.077164 9.900001 -0.114805
vertex -3.100000 9.900001 0.000000
vertex -3.077164 9.900001 0.114805
endloop
endfacet
facet normal 0.000000 1.000000 0.000000
outer loop
vertex -3.077164 9.900001 0.114805
vertex -3.012132 9.900001 0.212132
vertex -2.914805 9.900001 0.277164
endloop
endfacet
facet normal 0.000000 1.000000 0.000000
outer loop
vertex -2.914805 9.900001 0.277164
vertex -2.685195 9.900001 0.277164
vertex -2.522836 9.900001 0.114805
endloop
endfacet
facet normal 0.000000 1.000000 0.000000
outer loop
vertex -2.522836 9.900001 0.114805
vertex -2.522836 9.900001 -0.114805
vertex -2.685195 9.900001 -0.277164
endloop
endfacet
facet normal 0.000000 1.000000 0.000000
outer loop
vertex -2.685195 9.900001 -0.277164
vertex -2.914805 9.900001 -0.277164
vertex -3.077164 9.900001 -0.114805
endloop
endfacet
facet normal 0.000000 1.000000 0.000000
outer loop
vertex -3.077164 9.900001 -0.114805
vertex -3.077164 9.900001 0.114805
vertex -2.914805 9.900001 0.277164
endloop
endfacet
facet normal 0.000000 1.000000 0.000000
outer loop
vertex -2.914805 9.900001 0.277164
vertex -2.522836 9.900001 0.114805
vertex -2.685195 9.900001 -0.277164
endloop
endfacet
facet normal 0.000000 1.000000 0.000000
outer loop
vertex -2.685195 9.900001 -0.277164
vertex -3.077164 9.900001 -0.114805
vertex -2.914805 9.900001 0.277164
endloop
endfacet
facet normal 0.290284 0.000000 0.956940
outer loop
vertex -2.685195 -0.099999 0.277164
vertex -2.685195 9.900001 0.277164
vertex -2.741473 9.900001 0.294236
endloop
endfacet
facet normal 0.290284 0.000000 0.956940
outer loop
vertex -2.685195 -0.099999 0.277164
vertex -2.741473 9.900001 0.294236
vertex -2.741473 -0.099999 0.294236
endloop
endfacet
facet normal 0.098018 0.000000 0.995185
outer loop
vertex -2.741473 -0.099999 0.294236
vertex -2.741473 9.900001 0.294236
vertex -2.800000 9.900001 0.300000
endloop
endfacet
facet normal 0.098017 0.000000 0.995185
outer loop
vertex -2.741473 -0.099999 0.294236
vertex -2.800000 9.900001 0.300000
vertex -2.800000 -0.099999 0.300000
endloop
endfacet
facet normal 0.000000 -1.000000 0.000000
outer loop
vertex -2.741473 -0.099999 0.294236
vertex -2.800000 -0.099999 0.300000
vertex -2.858527 -0.099999 0.294236
endloop
endfacet
facet normal 0.000000 -1.000000 0.000000
outer loop
vertex -2.858527 -0.099999 0.294236
vertex -2.914805 -0.099999 0.277164
vertex -2.966671 -0.099999 0.249441
endloop
endfacet
facet normal 0.000000 -1.000000 -0.000001
outer loop
vertex -2.966671 -0.099999 0.249441
vertex -3.012132 -0.099999 0.212132
vertex -3.049441 -0.099999 0.166671
endloop
endfacet
facet normal 0.000000 -1.000000 -0.000000
outer loop
vertex -3.049441 -0.099999 0.166671
vertex -3.077164 -0.099999 0.114805
vertex -3.094235 -0.099999 0.058527
endloop
endfacet
facet normal 0.000000 -1.000000 0.000000
outer loop
vertex -3.094235 -0.099999 0.058527
vertex -3.100000 -0.099999 0.000000
vertex -3.094235 -0.099999 -0.058527
endloop
endfacet
facet normal 0.000000 -1.000000 0.000001
outer loop
vertex -3.094235 -0.099999 -0.058527
vertex -3.077164 -0.099999 -0.114805
vertex -3.049441 -0.099999 -0.166671
endloop
endfacet
facet normal 0.000000 -1.000000 0.000001
outer loop
vertex -3.049441 -0.099999 -0.166671
vertex -3.012132 -0.099999 -0.212132
vertex -2.966671 -0.099999 -0.249441
endloop
endfacet
facet normal 0.000000 -1.000000 0.000000
outer loop
vertex -2.966671 -0.099999 -0.249441
vertex -2.914805 -0.099999 -0.277164
vertex -2.858527 -0.099999 -0.294236
endloop
endfacet
facet normal 0.000000 -1.000000 0.000000
outer loop
vertex -2.858527 -0.099999 -0.294236
vertex -2.800000 -0.099999 -0.300000
vertex -2.741473 -0.099999 -0.294236
endloop
endfacet
facet normal 0.000000 -1.000000 0.000000
outer loop
vertex -2.741473 -0.099999 -0.294236
vertex -2.685195 -0.099999 -0.277164
vertex -2.633329 -0.099999 -0.249441
endloop
endfacet
facet normal 0.000000 -1.000000 0.000001
outer loop
vertex -2.633329 -0.099999 -0.249441
vertex -2.587868 -0.099999 -0.212132
vertex -2.550559 -0.099999 -0.166671
endloop
endfacet
facet normal 0.000000 -1.000000 0.000000
outer loop
vertex -2.550559 -0.099999 -0.166671
vertex -2.522836 -0.099999 -0.114805
vertex -2.505764 -0.099999 -0.058527
endloop
endfacet
facet normal 0.000000 -1.000000 0.000000
outer loop
vertex -2.505764 -0.099999 -0.058527
vertex -2.500000 -0.099999 0.000000
vertex -2.505764 -0.099999 0.058527
endloop
endfacet
facet normal 0.000000 -1.000000 -0.000001
outer loop
vertex -2.505764 -0.099999 0.058527
vertex -2.522836 -0.099999 0.114805
vertex -2.550559 -0.099999 0.166671
endloop
endfacet
facet normal 0.000000 -1.000000 -0.000001
outer loop
vertex -2.550559 -0.099999 0.166671
vertex -2.587868 -0.099999 0.212132
vertex -2.633329 -0.099999 0.249441
endloop
endfacet
facet normal 0.000000 -1.000000 0.000000
outer loop
vertex -2.633329 -0.099999 0.249441
vertex -2.685195 -0.099999 0.277164
vertex -2.741473 -0.099999 0.294236
endloop
endfacet
facet normal 0.000000 -1.000000 0.000000
outer loop
vertex -2.741473 -0.099999 0.294236
vertex -2.858527 -0.099999 0.294236
vertex -2.966671 -0.099999 0.249441
endloop
endfacet
facet normal 0.000000 -1.000000 0.000000
outer loop
vertex -2.966671 -0.099999 0.249441
vertex -3.049441 -0.099999 0.166671
vertex -3.094235 -0.099999 0.058527
endloop
endfacet
facet normal 0.000000 -1.000000 0.000000
outer loop
vertex -3.094235 -0.099999 0.058527
vertex -3.094235 -0.099999 -0.058527
vertex -3.049441 -0.099999 -0.166671
endloop
endfacet
facet normal 0.000000 -1.000000 0.000000
outer loop
vertex -3.049441 -0.099999 -0.166671
vertex -2.966671 -0.099999 -0.249441
vertex -2.858527 -0.099999 -0.294236
endloop
endfacet
facet normal 0.000000 -1.000000 0.000000
outer loop
vertex -2.858527 -0.099999 -0.294236
vertex -2.741473 -0.099999 -0.294236
vertex -2.633329 -0.099999 -0.249441
endloop
endfacet
facet normal 0.000000 -1.000000 -0.000000
outer loop
vertex -2.633329 -0.099999 -0.249441
vertex -2.550559 -0.099999 -0.166671
vertex -2.505764 -0.099999 -0.058527
endloop
endfacet
facet normal 0.000000 -1.000000 0.000000
outer loop
vertex -2.505764 -0.099999 -0.058527
vertex -2.505764 -0.099999 0.058527
vertex -2.550559 -0.099999 0.166671
endloop
endfacet
facet normal 0.000000 -1.000000 0.000000
outer loop
vertex -2.550559 -0.099999 0.166671
vertex -2.633329 -0.099999 0.249441
vertex -2.741473 -0.099999 0.294236
endloop
endfacet
facet normal 0.000000 -1.000000 0.000000
outer loop
vertex -2.741473 -0.099999 0.294236
vertex -2.966671 -0.099999 0.249441
vertex -3.094235 -0.099999 0.058527
endloop
endfacet
facet normal 0.000000 -1.000000 0.000000
outer loop
vertex -3.094235 -0.099999 0.058527
vertex -3.049441 -0.099999 -0.166671
vertex -2.858527 -0.099999 -0.294236
endloop
endfacet
facet normal 0.000000 -1.000000 0.000000
outer loop
vertex -2.858527 -0.099999 -0.294236
vertex -2.633329 -0.099999 -0.249441
vertex -2.505764 -0.099999 -0.058527
endloop
endfacet
facet normal 0.000000 -1.000000 0.000000
outer loop
vertex -2.505764 -0.099999 -0.058527
vertex -2.550559 -0.099999 0.166671
vertex -2.741473 -0.099999 0.294236
endloop
endfacet
facet normal 0.000000 -1.000000 0.000000
outer loop
vertex -2.741473 -0.099999 0.294236
vertex -3.094235 -0.099999 0.058527
vertex -2.858527 -0.099999 -0.294236
endloop
endfacet
facet normal 0.000000 -1.000000 0.000000
outer loop
vertex -2.858527 -0.099999 -0.294236
vertex -2.505764 -0.099999 -0.058527
vertex -2.741473 -0.099999 0.294236
endloop
endfacet
facet normal 0.000000 -0.098019 0.995184
outer loop
vertex 0.815781 9.600000 0.200000
vertex -3.304218 9.600000 0.200000
vertex -3.304218 9.560982 0.196157
endloop
endfacet
facet normal 0.000000 -0.098015 0.995185
outer loop
vertex 0.815781 9.600000 0.200000
vertex -3.304218 9.560982 0.196157
vertex 0.815781 9.560983 0.196157
endloop
endfacet
facet normal 0.000000 -0.290294 0.956938
outer loop
vertex 0.815781 9.560983 0.196157
vertex -3.304218 9.560982 0.196157
vertex -3.304218 9.523463 0.184776
endloop
endfacet
facet normal 0.000000 -0.290294 0.956938
outer loop
vertex 0.815781 9.560983 0.196157
vertex -3.304218 9.523463 0.184776
vertex 0.815781 9.523464 0.184776
endloop
endfacet
facet normal 0.000000 -0.471384 0.881928
outer loop
vertex 0.815781 9.523464 0.184776
vertex -3.304218 9.523463 0.184776
vertex -3.304218 9.488886 0.166294
endloop
endfacet
facet normal 0.000000 -0.471384 0.881928
outer loop
vertex 0.815781 9.523464 0.184776
vertex -3.304218 9.488886 0.166294
vertex 0.815781 9.488887 0.166294
endloop
endfacet
facet normal 0.000000 -0.634403 0.773002
outer loop
vertex 0.815781 9.488887 0.166294
vertex -3.304218 9.488886 0.166294
vertex -3.304218 9.458579 0.141421
endloop
endfacet
facet normal 0.000000 -0.634404 0.773002
outer loop
vertex 0.815781 9.488887 0.166294
vertex -3.304218 9.458579 0.141421
vertex 0.815781 9.458579 0.141421
endloop
endfacet
facet normal 0.000000 -0.772978 0.634433
outer loop
vertex 0.815781 9.458579 0.141421
vertex -3.304218 9.458579 0.141421
vertex -3.304218 9.433706 0.111114
endloop
endfacet
facet normal 0.000000 -0.773024 0.634376
outer loop
vertex 0.815781 9.458579 0.141421
vertex -3.304218 9.433706 0.111114
vertex 0.815781 9.433706 0.111114
endloop
endfacet
facet normal 0.000000 -0.881933 0.471376
outer loop
vertex 0.815781 9.433706 0.111114
vertex -3.304218 9.433706 0.111114
vertex -3.304218 9.415224 0.076537
endloop
endfacet
facet normal 0.000000 -0.881913 0.471412
outer loop
vertex 0.815781 9.433706 0.111114
vertex -3.304218 9.415224 0.076537
vertex 0.815781 9.415225 0.076537
endloop
endfacet
facet normal 0.000000 -0.956954 0.290241
outer loop
vertex 0.815781 9.415225 0.076537
vertex -3.304218 9.415224 0.076537
vertex -3.304218 9.403843 0.039018
endloop
endfacet
facet normal 0.000000 -0.956927 0.290327
outer loop
vertex 0.815781 9.415225 0.076537
vertex -3.304218 9.403843 0.039018
vertex 0.815781 9.403844 0.039018
endloop
endfacet
facet normal 0.000000 -0.995186 0.098005
outer loop
vertex 0.815781 9.403844 0.039018
vertex -3.304218 9.403843 0.039018
vertex -3.304218 9.400001 0.000000
endloop
endfacet
facet normal 0.000000 -0.995186 0.098005
outer loop
vertex 0.815781 9.403844 0.039018
vertex -3.304218 9.400001 0.000000
vertex 0.815781 9.400001 -0.000000
endloop
endfacet
facet normal 0.000000 -0.995186 -0.098005
outer loop
vertex 0.815781 9.400001 -0.000000
vertex -3.304218 9.400001 0.000000
vertex -3.304218 9.403843 -0.039018
endloop
endfacet
facet normal 0.000000 -0.995186 -0.098005
outer loop
vertex 0.815781 9.400001 -0.000000
vertex -3.304218 9.403843 -0.039018
vertex 0.815781 9.403844 -0.039018
endloop
endfacet
facet normal 0.000000 -0.956927 -0.290328
outer loop
vertex 0.815781 9.403844 -0.039018
vertex -3.304218 9.403843 -0.039018
vertex -3.304218 9.415224 -0.076537
endloop
endfacet
facet normal 0.000000 -0.956954 -0.290241
outer loop
vertex 0.815781 9.403844 -0.039018
vertex -3.304218 9.415224 -0.076537
vertex 0.815781 9.415225 -0.076537
endloop
endfacet
facet normal 0.000000 -0.881913 -0.471412
outer loop
vertex 0.815781 9.415225 -0.076537
vertex -3.304218 9.415224 -0.076537
vertex -3.304218 9.433706 -0.111114
endloop
endfacet
facet normal 0.000000 -0.881933 -0.471376
outer loop
vertex 0.815781 9.415225 -0.076537
vertex -3.304218 9.433706 -0.111114
vertex 0.815781 9.433706 -0.111114
endloop
endfacet
facet normal 0.000000 -0.773024 -0.634376
outer loop
vertex 0.815781 9.433706 -0.111114
vertex -3.304218 9.433706 -0.111114
vertex -3.304218 9.458579 -0.141421
endloop
endfacet
facet normal 0.000000 -0.772978 -0.634433
outer loop
vertex 0.815781 9.433706 -0.111114
vertex -3.304218 9.458579 -0.141421
vertex 0.815781 9.458579 -0.141421
endloop
endfacet
facet normal 0.000000 -0.634427 -0.772983
outer loop
vertex 0.815781 9.458579 -0.141421
vertex -3.304218 9.458579 -0.141421
vertex -3.304218 9.488886 -0.166294
endloop
endfacet
facet normal 0.000000 -0.634380 -0.773021
outer loop
vertex 0.815781 9.458579 -0.141421
vertex -3.304218 9.488886 -0.166294
vertex 0.815781 9.488887 -0.166294
endloop
endfacet
facet normal 0.000000 -0.471384 -0.881928
outer loop
vertex 0.815781 9.488887 -0.166294
vertex -3.304218 9.488886 -0.166294
vertex -3.304218 9.523463 -0.184776
endloop
endfacet
facet normal 0.000000 -0.471384 -0.881928
outer loop
vertex 0.815781 9.488887 -0.166294
vertex -3.304218 9.523463 -0.184776
vertex 0.815781 9.523464 -0.184776
endloop
endfacet
facet normal 0.000000 -0.290294 -0.956938
outer loop
vertex 0.815781 9.523464 -0.184776
vertex -3.304218 9.523463 -0.184776
vertex -3.304218 9.560982 -0.196157
endloop
endfacet
facet normal 0.000000 -0.290294 -0.956938
outer loop
vertex 0.815781 9.523464 -0.184776
vertex -3.304218 9.560982 -0.196157
vertex 0.815781 9.560983 -0.196157
endloop
endfacet
facet normal 0.000000 -0.098010 -0.995185
outer loop
vertex 0.815781 9.560983 -0.196157
vertex -3.304218 9.560982 -0.196157
vertex -3.304218 9.600000 -0.200000
endloop
endfacet
facet normal 0.000000 -0.098024 -0.995184
outer loop
vertex 0.815781 9.560983 -0.196157
vertex -3.304218 9.600000 -0.200000
vertex 0.815781 9.600000 -0.200000
endloop
endfacet
facet normal 0.000000 0.098019 -0.995184
outer loop
vertex 0.815781 9.600000 -0.200000
vertex -3.304218 9.600000 -0.200000
vertex -3.304218 9.639018 -0.196157
endloop
endfacet
facet normal -0.000000 0.098010 -0.995185
outer loop
vertex 0.815781 9.600000 -0.200000
vertex -3.304218 9.639018 -0.196157
vertex 0.815781 9.639019 -0.196157
endloop
endfacet
facet normal -0.000000 0.290294 -0.956938
outer loop
vertex 0.815781 9.639019 -0.196157
vertex -3.304218 9.639018 -0.196157
vertex -3.304218 9.676537 -0.184776
endloop
endfacet
facet normal -0.000000 0.290294 -0.956938
outer loop
vertex 0.815781 9.639019 -0.196157
vertex -3.304218 9.676537 -0.184776
vertex 0.815781 9.676538 -0.184776
endloop
endfacet
facet normal -0.000000 0.471384 -0.881928
outer loop
vertex 0.815781 9.676538 -0.184776
vertex -3.304218 9.676537 -0.184776
vertex -3.304218 9.711114 -0.166294
endloop
endfacet
facet normal -0.000000 0.471384 -0.881928
outer loop
vertex 0.815781 9.676538 -0.184776
vertex -3.304218 9.711114 -0.166294
vertex 0.815781 9.711115 -0.166294
endloop
endfacet
facet normal -0.000000 0.634403 -0.773002
outer loop
vertex 0.815781 9.711115 -0.166294
vertex -3.304218 9.711114 -0.166294
vertex -3.304218 9.741422 -0.141421
endloop
endfacet
facet normal 0.000000 0.634404 -0.773002
outer loop
vertex 0.815781 9.711115 -0.166294
vertex -3.304218 9.741422 -0.141421
vertex 0.815781 9.741422 -0.141421
endloop
endfacet
facet normal 0.000000 0.773001 -0.634405
outer loop
vertex 0.815781 9.741422 -0.141421
vertex -3.304218 9.741422 -0.141421
vertex -3.304218 9.766294 -0.111114
endloop
endfacet
facet normal 0.000000 0.773001 -0.634405
outer loop
vertex 0.815781 9.741422 -0.141421
vertex -3.304218 9.766294 -0.111114
vertex 0.815781 9.766294 -0.111114
endloop
endfacet
facet normal 0.000000 0.881933 -0.471376
outer loop
vertex 0.815781 9.766294 -0.111114
vertex -3.304218 9.766294 -0.111114
vertex -3.304218 9.784776 -0.076537
endloop
endfacet
facet normal -0.000000 0.881913 -0.471412
outer loop
vertex 0.815781 9.766294 -0.111114
vertex -3.304218 9.784776 -0.076537
vertex 0.815781 9.784777 -0.076537
endloop
endfacet
facet normal -0.000000 0.956954 -0.290241
outer loop
vertex 0.815781 9.784777 -0.076537
vertex -3.304218 9.784776 -0.076537
vertex -3.304218 9.796157 -0.039018
endloop
endfacet
facet normal -0.000000 0.956927 -0.290327
outer loop
vertex 0.815781 9.784777 -0.076537
vertex -3.304218 9.796157 -0.039018
vertex 0.815781 9.796158 -0.039018
endloop
endfacet
facet normal -0.000000 0.995191 -0.097959
outer loop
vertex 0.815781 9.796158 -0.039018
vertex -3.304218 9.796157 -0.039018
vertex -3.304218 9.800000 0.000000
endloop
endfacet
facet normal 0.000000 0.995181 -0.098052
outer loop
vertex 0.815781 9.796158 -0.039018
vertex -3.304218 9.800000 0.000000
vertex 0.815781 9.800000 -0.000000
endloop
endfacet
facet normal 0.000000 0.995181 0.098052
outer loop
vertex 0.815781 9.800000 -0.000000
vertex -3.304218 9.800000 0.000000
vertex -3.304218 9.796157 0.039018
endloop
endfacet
facet normal -0.000000 0.995191 0.097959
outer loop
vertex 0.815781 9.800000 -0.000000
vertex -3.304218 9.796157 0.039018
vertex 0.815781 9.796158 0.039018
endloop
endfacet
facet normal -0.000000 0.956927 0.290328
outer loop
vertex 0.815781 9.796158 0.039018
vertex -3.304218 9.796157 0.039018
vertex -3.304218 9.784776 0.076537
endloop
endfacet
facet normal -0.000000 0.956954 0.290241
outer loop
vertex 0.815781 9.796158 0.039018
vertex -3.304218 9.784776 0.076537
vertex 0.815781 9.784777 0.076537
endloop
endfacet
facet normal -0.000000 0.881913 0.471412
outer loop
vertex 0.815781 9.784777 0.076537
vertex -3.304218 9.784776 0.076537
vertex -3.304218 9.766294 0.111114
endloop
endfacet
facet normal 0.000000 0.881933 0.471376
outer loop
vertex 0.815781 9.784777 0.076537
vertex -3.304218 9.766294 0.111114
vertex 0.815781 9.766294 0.111114
endloop
endfacet
facet normal 0.000000 0.773001 0.634405
outer loop
vertex 0.815781 9.766294 0.111114
vertex -3.304218 9.766294 0.111114
vertex -3.304218 9.741422 0.141421
endloop
endfacet
facet normal 0.000000 0.773001 0.634405
outer loop
vertex 0.815781 9.766294 0.111114
vertex -3.304218 9.741422 0.141421
vertex 0.815781 9.741422 0.141421
endloop
endfacet
facet normal 0.000000 0.634380 0.773021
outer loop
vertex 0.815781 9.741422 0.141421
vertex -3.304218 9.741422 0.141421
vertex -3.304218 9.711114 0.166294
endloop
endfacet
facet normal -0.000000 0.634427 0.772983
outer loop
vertex 0.815781 9.741422 0.141421
vertex -3.304218 9.711114 0.166294
vertex 0.815781 9.711115 0.166294
endloop
endfacet
facet normal -0.000000 0.471384 0.881928
outer loop
vertex 0.815781 9.711115 0.166294
vertex -3.304218 9.711114 0.166294
vertex -3.304218 9.676537 0.184776
endloop
endfacet
facet normal -0.000000 0.471384 0.881928
outer loop
vertex 0.815781 9.711115 0.166294
vertex -3.304218 9.676537 0.184776
vertex 0.815781 9.676538 0.184776
endloop
endfacet
facet normal -1.000000 0.000019 0.000000
outer loop
vertex -3.304218 9.523463 0.184776
vertex -3.304218 9.560982 0.196157
vertex -3.304218 9.600000 0.200000
endloop
endfacet
facet normal -1.000000 -0.000025 0.000000
outer loop
vertex -3.304218 9.600000 0.200000
vertex -3.304218 9.639018 0.196157
vertex -3.304218 9.676537 0.184776
endloop
endfacet
facet normal -1.000000 0.000000 0.000000
outer loop
vertex -3.304218 9.676537 0.184776
vertex -3.304218 9.711114 0.166294
vertex -3.304218 9.741422 0.141421
endloop
endfacet
facet normal -1.000000 -0.000050 0.000000
outer loop
vertex -3.304218 9.741422 0.141421
vertex -3.304218 9.766294 0.111114
vertex -3.304218 9.784776 0.076537
endloop
endfacet
facet normal -1.000000 0.000099 0.000000
outer loop
vertex -3.304218 9.784776 0.076537
vertex -3.304218 9.796157 0.039018
vertex -3.304218 9.800000 0.000000
endloop
endfacet
facet normal -1.000000 0.000099 0.000000
outer loop
vertex -3.304218 9.800000 0.000000
vertex -3.304218 9.796157 -0.039018
vertex -3.304218 9.784776 -0.076537
endloop
endfacet
facet normal -1.000000 -0.000050 0.000000
outer loop
vertex -3.304218 9.784776 -0.076537
vertex -3.304218 9.766294 -0.111114
vertex -3.304218 9.741422 -0.141421
endloop
endfacet
facet normal -1.000000 0.000000 0.000000
outer loop
vertex -3.304218 9.741422 -0.141421
vertex -3.304218 9.711114 -0.166294
vertex -3.304218 9.676537 -0.184776
endloop
endfacet
facet normal -1.000000 -0.000019 0.000000
outer loop
vertex -3.304218 9.676537 -0.184776
vertex -3.304218 9.639018 -0.196157
vertex -3.304218 9.600000 -0.200000
endloop
endfacet
facet normal -1.000000 0.000025 0.000000
outer loop
vertex -3.304218 9.600000 -0.200000
vertex -3.304218 9.560982 -0.196157
vertex -3.304218 9.523463 -0.184776
endloop
endfacet
facet normal -1.000000 0.000000 0.000000
outer loop
vertex -3.304218 9.523463 -0.184776
vertex -3.304218 9.488886 -0.166294
vertex -3.304218 9.458579 -0.141421
endloop
endfacet
facet normal -1.000000 0.000050 0.000000
outer loop
vertex -3.304218 9.458579 -0.141421
vertex -3.304218 9.433706 -0.111114
vertex -3.304218 9.415224 -0.076537
endloop
endfacet
facet normal -1.000000 -0.000099 0.000000
outer loop
vertex -3.304218 9.415224 -0.076537
vertex -3.304218 9.403843 -0.039018
vertex -3.304218 9.400001 0.000000
endloop
endfacet
facet normal -1.000000 -0.000099 0.000000
outer loop
vertex -3.304218 9.400001 0.000000
vertex -3.304218 9.403843 0.039018
vertex -3.304218 9.415224 0.076537
endloop
endfacet
facet normal -1.000000 0.000050 0.000000
outer loop
vertex -3.304218 9.415224 0.076537
vertex -3.304218 9.433706 0.111114
vertex -3.304218 9.458579 0.141421
endloop
endfacet
facet normal -1.000000 0.000000 0.000000
outer loop
vertex -3.304218 9.458579 0.141421
vertex -3.304218 9.488886 0.166294
vertex -3.304218 9.523463 0.184776
endloop
endfacet
facet normal -1.000000 0.000000 0.000000
outer loop
vertex -3.304218 9.523463 0.184776
vertex -3.304218 9.600000 0.200000
vertex -3.304218 9.676537 0.184776
endloop
endfacet
facet normal -1.000000 0.000013 0.000000
outer loop
vertex -3.304218 9.676537 0.184776
vertex -3.304218 9.741422 0.141421
vertex -3.304218 9.784776 0.076537
endloop
endfacet
facet normal -1.000000 0.000000 0.000000
outer loop
vertex -3.304218 9.784776 0.076537
vertex -3.304218 9.800000 0.000000
vertex -3.304218 9.784776 -0.076537
endloop
endfacet
facet normal -1.000000 0.000013 0.000000
outer loop
vertex -3.304218 9.784776 -0.076537
vertex -3.304218 9.741422 -0.141421
vertex -3.304218 9.676537 -0.184776
endloop
endfacet
facet normal -1.000000 0.000000 0.000000
outer loop
vertex -3.304218 9.676537 -0.184776
vertex -3.304218 9.600000 -0.200000
vertex -3.304218 9.523463 -0.184776
endloop
endfacet
facet normal -1.000000 -0.000013 0.000000
outer loop
vertex -3.304218 9.523463 -0.184776
vertex -3.304218 9.458579 -0.141421
vertex -3.304218 9.415224 -0.076537
endloop
endfacet
facet normal -1.000000 0.000000 0.000000
outer loop
vertex -3.304218 9.415224 -0.076537
vertex -3.304218 9.400001 0.000000
vertex -3.304218 9.415224 0.076537
endloop
endfacet
facet normal -1.000000 -0.000013 0.000000
outer loop
vertex -3.304218 9.415224 0.076537
vertex -3.304218 9.458579 0.141421
vertex -3.304218 9.523463 0.184776
endloop
endfacet
facet normal -1.000000 0.000000 0.000000
outer loop
vertex -3.304218 9.523463 0.184776
vertex -3.304218 9.676537 0.184776
vertex -3.304218 9.784776 0.076537
endloop
endfacet
facet normal -1.000000 0.000000 0.000000
outer loop
vertex -3.304218 9.784776 0.076537
vertex -3.304218 9.784776 -0.076537
vertex -3.304218 9.676537 -0.184776
endloop
endfacet
facet normal -1.000000 0.000000 0.000000
outer loop
vertex -3.304218 9.676537 -0.184776
vertex -3.304218 9.523463 -0.184776
vertex -3.304218 9.415224 -0.076537
endloop
endfacet
facet normal -1.000000 0.000000 0.000000
outer loop
vertex -3.304218 9.415224 -0.076537
vertex -3.304218 9.415224 0.076537
vertex -3.304218 9.523463 0.184776
endloop
endfacet
facet normal -1.000000 -0.000001 0.000000
outer loop
vertex -3.304218 9.523463 0.184776
vertex -3.304218 9.784776 0.076537
vertex -3.304218 9.676537 -0.184776
endloop
endfacet
facet normal -1.000000 0.000001 0.000000
outer loop
vertex -3.304218 9.676537 -0.184776
vertex -3.304218 9.415224 -0.076537
vertex -3.304218 9.523463 0.184776
endloop
endfacet
facet normal -0.000000 0.290294 0.956938
outer loop
vertex 0.815781 9.676538 0.184776
vertex -3.304218 9.676537 0.184776
vertex -3.304218 9.639018 0.196157
endloop
endfacet
facet normal -0.000000 0.290294 0.956938
outer loop
vertex 0.815781 9.676538 0.184776
vertex -3.304218 9.639018 0.196157
vertex 0.815781 9.639019 0.196157
endloop
endfacet
facet normal -0.000000 0.098015 0.995185
outer loop
vertex 0.815781 9.639019 0.196157
vertex -3.304218 9.639018 0.196157
vertex -3.304218 9.600000 0.200000
endloop
endfacet
facet normal 0.000000 0.098015 0.995185
outer loop
vertex 0.815781 9.639019 0.196157
vertex -3.304218 9.600000 0.200000
vertex 0.815781 9.600000 0.200000
endloop
endfacet
facet normal 1.000000 0.000000 0.000000
outer loop
vertex 0.815781 9.639019 0.196157
vertex 0.815781 9.600000 0.200000
vertex 0.815781 9.560983 0.196157
endloop
endfacet
facet normal 1.000000 0.000006 0.000000
outer loop
vertex 0.815781 9.560983 0.196157
vertex 0.815781 9.523464 0.184776
vertex 0.815781 9.488887 0.166294
endloop
endfacet
facet normal 1.000000 -0.000012 0.000000
outer loop
vertex 0.815781 9.488887 0.166294
vertex 0.815781 9.458579 0.141421
vertex 0.815781 9.433706 0.111114
endloop
endfacet
facet normal 1.000000 -0.000012 0.000000
outer loop
vertex 0.815781 9.433706 0.111114
vertex 0.815781 9.415225 0.076537
vertex 0.815781 9.403844 0.039018
endloop
endfacet
facet normal 1.000000 0.000000 0.000000
outer loop
vertex 0.815781 9.403844 0.039018
vertex 0.815781 9.400001 -0.000000
vertex 0.815781 9.403844 -0.039018
endloop
endfacet
facet normal 1.000000 -0.000012 0.000000
outer loop
vertex 0.815781 9.403844 -0.039018
vertex 0.815781 9.415225 -0.076537
vertex 0.815781 9.433706 -0.111114
endloop
endfacet
facet normal 1.000000 -0.000012 0.000000
outer loop
vertex 0.815781 9.433706 -0.111114
vertex 0.815781 9.458579 -0.141421
vertex 0.815781 9.488887 -0.166294
endloop
endfacet
facet normal 1.000000 0.000006 0.000000
outer loop
vertex 0.815781 9.488887 -0.166294
vertex 0.815781 9.523464 -0.184776
vertex 0.815781 9.560983 -0.196157
endloop
endfacet
facet normal 1.000000 0.000000 0.000000
outer loop
vertex 0.815781 9.560983 -0.196157
vertex 0.815781 9.600000 -0.200000
vertex 0.815781 9.639019 -0.196157
endloop
endfacet
facet normal 1.000000 -0.000006 0.000000
outer loop
vertex 0.815781 9.639019 -0.196157
vertex 0.815781 9.676538 -0.184776
vertex 0.815781 9.711115 -0.166294
endloop
endfacet
facet normal 1.000000 0.000012 0.000000
outer loop
vertex 0.815781 9.711115 -0.166294
vertex 0.815781 9.741422 -0.141421
vertex 0.815781 9.766294 -0.111114
endloop
endfacet
facet normal 1.000000 0.000012 0.000000
outer loop
vertex 0.815781 9.766294 -0.111114
vertex 0.815781 9.784777 -0.076537
vertex 0.815781 9.796158 -0.039018
endloop
endfacet
facet normal 1.000000 0.000000 0.000000
outer loop
vertex 0.815781 9.796158 -0.039018
vertex 0.815781 9.800000 -0.000000
vertex 0.815781 9.796158 0.039018
endloop
endfacet
facet normal 1.000000 0.000012 0.000000
outer loop
vertex 0.815781 9.796158 0.039018
vertex 0.815781 9.784777 0.076537
vertex 0.815781 9.766294 0.111114
endloop
endfacet
facet normal 1.000000 0.000012 0.000000
outer loop
vertex 0.815781 9.766294 0.111114
vertex 0.815781 9.741422 0.141421
vertex 0.815781 9.711115 0.166294
endloop
endfacet
facet normal 1.000000 -0.000006 0.000000
outer loop
vertex 0.815781 9.711115 0.166294
vertex 0.815781 9.676538 0.184776
vertex 0.815781 9.639019 0.196157
endloop
endfacet
facet normal 1.000000 0.000000 0.000000
outer loop
vertex 0.815781 9.639019 0.196157
vertex 0.815781 9.560983 0.196157
vertex 0.815781 9.488887 0.166294
endloop
endfacet
facet normal 1.000000 0.000000 0.000000
outer loop
vertex 0.815781 9.488887 0.166294
vertex 0.815781 9.433706 0.111114
vertex 0.815781 9.403844 0.039018
endloop
endfacet
facet normal 1.000000 -0.000003 0.000000
outer loop
vertex 0.815781 9.403844 0.039018
vertex 0.815781 9.403844 -0.039018
vertex 0.815781 9.433706 -0.111114
endloop
endfacet
facet normal 1.000000 -0.000002 0.000000
outer loop
vertex 0.815781 9.433706 -0.111114
vertex 0.815781 9.488887 -0.166294
vertex 0.815781 9.560983 -0.196157
endloop
endfacet
facet normal 1.000000 0.000000 0.000000
outer loop
vertex 0.815781 9.560983 -0.196157
vertex 0.815781 9.639019 -0.196157
vertex 0.815781 9.711115 -0.166294
endloop
endfacet
facet normal 1.000000 0.000000 0.000000
outer loop
vertex 0.815781 9.711115 -0.166294
vertex 0.815781 9.766294 -0.111114
vertex 0.815781 9.796158 -0.039018
endloop
endfacet
facet normal 1.000000 0.000003 0.000000
outer loop
vertex 0.815781 9.796158 -0.039018
vertex 0.815781 9.796158 0.039018
vertex 0.815781 9.766294 0.111114
endloop
endfacet
facet normal 1.000000 0.000002 0.000000
outer loop
vertex 0.815781 9.766294 0.111114
vertex 0.815781 9.711115 0.166294
vertex 0.815781 9.639019 0.196157
endloop
endfacet
facet normal 1.000000 0.000000 0.000000
outer loop
vertex 0.815781 9.639019 0.196157
vertex 0.815781 9.488887 0.166294
vertex 0.815781 9.403844 0.039018
endloop
endfacet
facet normal 1.000000 0.000001 0.000000
outer loop
vertex 0.815781 9.403844 0.039018
vertex 0.815781 9.433706 -0.111114
vertex 0.815781 9.560983 -0.196157
endloop
endfacet
facet normal 1.000000 0.000000 0.000000
outer loop
vertex 0.815781 9.560983 -0.196157
vertex 0.815781 9.711115 -0.166294
vertex 0.815781 9.796158 -0.039018
endloop
endfacet
facet normal 1.000000 -0.000001 0.000000
outer loop
vertex 0.815781 9.796158 -0.039018
vertex 0.815781 9.766294 0.111114
vertex 0.815781 9.639019 0.196157
endloop
endfacet
facet normal 1.000000 0.000000 0.000000
outer loop
vertex 0.815781 9.639019 0.196157
vertex 0.815781 9.403844 0.039018
vertex 0.815781 9.560983 -0.196157
endloop
endfacet
facet normal 1.000000 0.000000 0.000000
outer loop
vertex 0.815781 9.560983 -0.196157
vertex 0.815781 9.796158 -0.039018
vertex 0.815781 9.639019 0.196157
endloop
endfacet
facet normal 1.000000 0.000000 0.000000
outer loop
vertex 0.010000 7.414249 -0.010000
vertex 0.010000 9.414249 -0.010000
vertex 0.010000 9.414249 0.010000
endloop
endfacet
facet normal 1.000000 0.000000 0.000000
outer loop
vertex 0.010000 7.414249 -0.010000
vertex 0.010000 9.414249 0.010000
vertex 0.010000 7.414249 0.010000
endloop
endfacet
facet normal 0.000000 0.000000 1.000000
outer loop
vertex 0.010000 7.414249 0.010000
vertex 0.010000 9.414249 0.010000
vertex -0.010000 9.414249 0.010000
endloop
endfacet
facet normal 0.000000 0.000000 1.000000
outer loop
vertex 0.010000 7.414249 0.010000
vertex -0.010000 9.414249 0.010000
vertex -0.010000 7.414249 0.010000
endloop
endfacet
facet normal -1.000000 0.000000 0.000000
outer loop
vertex -0.010000 7.414249 0.010000
vertex -0.010000 9.414249 0.010000
vertex -0.010000 9.414249 -0.010000
endloop
endfacet
facet normal -1.000000 0.000000 0.000000
outer loop
vertex -0.010000 7.414249 0.010000
vertex -0.010000 9.414249 -0.010000
vertex -0.010000 7.414249 -0.010000
endloop
endfacet
facet normal 0.000000 0.000000 -1.000000
outer loop
vertex -0.010000 7.414249 -0.010000
vertex -0.010000 9.414249 -0.010000
vertex 0.010000 9.414249 -0.010000
endloop
endfacet
facet normal 0.000000 0.000000 -1.000000
outer loop
vertex -0.010000 7.414249 -0.010000
vertex 0.010000 9.414249 -0.010000
vertex 0.010000 7.414249 -0.010000
endloop
endfacet
facet normal 0.000000 -1.000000 0.000000
outer loop
vertex 0.010000 7.414249 0.010000
vertex -0.010000 7.414249 0.010000
vertex -0.010000 7.414249 -0.010000
endloop
endfacet
facet normal 0.000000 -1.000000 0.000000
outer loop
vertex 0.010000 7.414249 0.010000
vertex -0.010000 7.414249 -0.010000
vertex 0.010000 7.414249 -0.010000
endloop
endfacet
facet normal 0.000000 1.000000 0.000000
outer loop
vertex -0.010000 9.414249 0.010000
vertex 0.010000 9.414249 0.010000
vertex 0.010000 9.414249 -0.010000
endloop
endfacet
facet normal 0.000000 1.000000 0.000000
outer loop
vertex -0.010000 9.414249 0.010000
vertex 0.010000 9.414249 -0.010000
vertex -0.010000 9.414249 -0.010000
endloop
endfacet
facet normal -0.577347 0.577344 0.577360
outer loop
vertex -0.232764 7.922327 0.180000
vertex -0.180000 7.922327 0.232764
vertex -0.180000 7.975091 0.180000
endloop
endfacet
facet normal -0.672115 0.310699 0.672107
outer loop
vertex -0.180000 7.922327 0.232764
vertex -0.232764 7.922327 0.180000
vertex -0.288236 7.802327 0.180000
endloop
endfacet
facet normal -0.672110 0.310696 0.672114
outer loop
vertex -0.180000 7.922327 0.232764
vertex -0.288236 7.802327 0.180000
vertex -0.180000 7.802327 0.288237
endloop
endfacet
facet normal -0.707108 0.000000 0.707106
outer loop
vertex -0.180000 7.802327 0.288237
vertex -0.288236 7.802327 0.180000
vertex -0.288236 7.682327 0.180000
endloop
endfacet
facet normal -0.707108 0.000000 0.707106
outer loop
vertex -0.180000 7.802327 0.288237
vertex -0.288236 7.682327 0.180000
vertex -0.180000 7.682327 0.288237
endloop
endfacet
facet normal -0.871859 0.000000 0.489757
outer loop
vertex -0.288236 7.682327 0.180000
vertex -0.288236 7.802327 0.180000
vertex -0.300000 7.802327 0.159059
endloop
endfacet
facet normal -0.871859 0.000000 0.489756
outer loop
vertex -0.288236 7.682327 0.180000
vertex -0.300000 7.802327 0.159059
vertex -0.300000 7.682327 0.159059
endloop
endfacet
facet normal -0.944267 0.000000 0.329182
outer loop
vertex -0.300000 7.802327 0.159059
vertex -0.334533 7.802327 0.060000
vertex -0.334533 7.682327 0.060000
endloop
endfacet
facet normal -0.944267 0.000000 0.329182
outer loop
vertex -0.300000 7.802327 0.159059
vertex -0.334533 7.682327 0.060000
vertex -0.300000 7.682327 0.159059
endloop
endfacet
facet normal -0.896922 -0.312676 0.312675
outer loop
vertex -0.300000 7.682327 0.159059
vertex -0.334533 7.682327 0.060000
vertex -0.300000 7.583269 0.060000
endloop
endfacet
facet normal -0.944267 -0.329181 0.000000
outer loop
vertex -0.300000 7.583269 0.060000
vertex -0.334533 7.682327 0.060000
vertex -0.334533 7.682327 -0.060000
endloop
endfacet
facet normal -0.944267 -0.329181 0.000000
outer loop
vertex -0.300000 7.583269 0.060000
vertex -0.334533 7.682327 -0.060000
vertex -0.300000 7.583269 -0.060000
endloop
endfacet
facet normal -0.896922 -0.312676 -0.312675
outer loop
vertex -0.334533 7.682327 -0.060000
vertex -0.300000 7.682327 -0.159059
vertex -0.300000 7.583269 -0.060000
endloop
endfacet
facet normal -0.944267 0.000000 -0.329182
outer loop
vertex -0.334533 7.682327 -0.060000
vertex -0.334533 7.802327 -0.060000
vertex -0.300000 7.802327 -0.159059
endloop
endfacet
facet normal -0.944267 0.000000 -0.329182
outer loop
vertex -0.334533 7.682327 -0.060000
vertex -0.300000 7.802327 -0.159059
vertex -0.300000 7.682327 -0.159059
endloop
endfacet
facet normal -0.896923 0.312676 -0.312670
outer loop
vertex -0.300000 7.802327 -0.159059
vertex -0.334533 7.802327 -0.060000
vertex -0.300000 7.901386 -0.060000
endloop
endfacet
facet normal -0.944267 0.329181 0.000000
outer loop
vertex -0.334533 7.802327 -0.060000
vertex -0.334533 7.802327 0.060000
vertex -0.300000 7.901386 0.060000
endloop
endfacet
facet normal -0.944267 0.329181 0.000000
outer loop
vertex -0.334533 7.802327 -0.060000
vertex -0.300000 7.901386 0.060000
vertex -0.300000 7.901386 -0.060000
endloop
endfacet
facet normal -0.871860 0.489756 0.000000
outer loop
vertex -0.300000 7.901386 0.060000
vertex -0.288236 7.922327 0.060000
vertex -0.288236 7.922327 -0.060000
endloop
endfacet
facet normal -0.871860 0.489756 0.000000
outer loop
vertex -0.300000 7.901386 0.060000
vertex -0.288236 7.922327 -0.060000
vertex -0.300000 7.901386 -0.060000
endloop
endfacet
facet normal -0.707106 0.707107 0.000000
outer loop
vertex -0.288236 7.922327 -0.060000
vertex -0.288236 7.922327 0.060000
vertex -0.180000 8.030563 0.060000
endloop
endfacet
facet normal -0.707106 0.707107 0.000000
outer loop
vertex -0.288236 7.922327 -0.060000
vertex -0.180000 8.030563 0.060000
vertex -0.180000 8.030563 -0.060000
endloop
endfacet
facet normal -0.489759 0.871858 0.000000
outer loop
vertex -0.180000 8.030563 0.060000
vertex -0.159059 8.042327 0.060000
vertex -0.159059 8.042327 -0.060000
endloop
endfacet
facet normal -0.489759 0.871858 0.000000
outer loop
vertex -0.180000 8.030563 0.060000
vertex -0.159059 8.042327 -0.060000
vertex -0.180000 8.030563 -0.060000
endloop
endfacet
facet normal -0.329186 0.944265 0.000000
outer loop
vertex -0.159059 8.042327 -0.060000
vertex -0.159059 8.042327 0.060000
vertex -0.060000 8.076860 0.060000
endloop
endfacet
facet normal -0.329186 0.944265 0.000000
outer loop
vertex -0.159059 8.042327 -0.060000
vertex -0.060000 8.076860 0.060000
vertex -0.060000 8.076860 -0.060000
endloop
endfacet
facet normal -0.312680 0.896919 -0.312679
outer loop
vertex -0.060000 8.042327 -0.159059
vertex -0.159059 8.042327 -0.060000
vertex -0.060000 8.076860 -0.060000
endloop
endfacet
facet normal 0.000000 0.944267 -0.329181
outer loop
vertex 0.060000 8.042327 -0.159059
vertex -0.060000 8.042327 -0.159059
vertex -0.060000 8.076860 -0.060000
endloop
endfacet
facet normal 0.000000 0.944264 -0.329190
outer loop
vertex 0.060000 8.042327 -0.159059
vertex -0.060000 8.076860 -0.060000
vertex 0.060000 8.076860 -0.060000
endloop
endfacet
facet normal 0.000000 0.871886 -0.489709
outer loop
vertex -0.060000 8.030563 -0.180000
vertex -0.060000 8.042327 -0.159059
vertex 0.060000 8.042327 -0.159059
endloop
endfacet
facet normal 0.000000 0.871833 -0.489803
outer loop
vertex -0.060000 8.030563 -0.180000
vertex 0.060000 8.042327 -0.159059
vertex 0.060000 8.030563 -0.180000
endloop
endfacet
facet normal 0.000000 0.707108 -0.707105
outer loop
vertex 0.060000 7.922327 -0.288237
vertex -0.060000 7.922327 -0.288237
vertex -0.060000 8.030563 -0.180000
endloop
endfacet
facet normal 0.000000 0.707108 -0.707105
outer loop
vertex 0.060000 7.922327 -0.288237
vertex -0.060000 8.030563 -0.180000
vertex 0.060000 8.030563 -0.180000
endloop
endfacet
facet normal 0.000000 0.489759 -0.871858
outer loop
vertex -0.060000 7.901386 -0.300000
vertex -0.060000 7.922327 -0.288237
vertex 0.060000 7.922327 -0.288237
endloop
endfacet
facet normal 0.000000 0.489741 -0.871868
outer loop
vertex -0.060000 7.901386 -0.300000
vertex 0.060000 7.922327 -0.288237
vertex 0.060000 7.901386 -0.300000
endloop
endfacet
facet normal 0.000000 0.329183 -0.944266
outer loop
vertex 0.060000 7.802327 -0.334533
vertex -0.060000 7.802327 -0.334533
vertex -0.060000 7.901386 -0.300000
endloop
endfacet
facet normal 0.000000 0.329180 -0.944267
outer loop
vertex 0.060000 7.802327 -0.334533
vertex -0.060000 7.901386 -0.300000
vertex 0.060000 7.901386 -0.300000
endloop
endfacet
facet normal 0.000000 0.000000 -1.000000
outer loop
vertex -0.060000 7.682327 -0.334533
vertex -0.060000 7.802327 -0.334533
vertex 0.060000 7.802327 -0.334533
endloop
endfacet
facet normal 0.000000 0.000000 -1.000000
outer loop
vertex -0.060000 7.682327 -0.334533
vertex 0.060000 7.802327 -0.334533
vertex 0.060000 7.682327 -0.334533
endloop
endfacet
facet normal 0.000000 -0.329183 -0.944266
outer loop
vertex -0.060000 7.583269 -0.300000
vertex -0.060000 7.682327 -0.334533
vertex 0.060000 7.682327 -0.334533
endloop
endfacet
facet normal 0.000000 -0.329180 -0.944267
outer loop
vertex -0.060000 7.583269 -0.300000
vertex 0.060000 7.682327 -0.334533
vertex 0.060000 7.583269 -0.300000
endloop
endfacet
facet normal 0.000000 -0.489776 -0.871848
outer loop
vertex 0.060000 7.562327 -0.288237
vertex -0.060000 7.562327 -0.288237
vertex -0.060000 7.583269 -0.300000
endloop
endfacet
facet normal 0.000000 -0.489741 -0.871868
outer loop
vertex 0.060000 7.562327 -0.288237
vertex -0.060000 7.583269 -0.300000
vertex 0.060000 7.583269 -0.300000
endloop
endfacet
facet normal 0.000000 -0.707105 -0.707109
outer loop
vertex -0.060000 7.454091 -0.180000
vertex -0.060000 7.562327 -0.288237
vertex 0.060000 7.562327 -0.288237
endloop
endfacet
facet normal 0.000000 -0.707105 -0.707109
outer loop
vertex -0.060000 7.454091 -0.180000
vertex 0.060000 7.562327 -0.288237
vertex 0.060000 7.454091 -0.180000
endloop
endfacet
facet normal 0.000000 -0.871851 -0.489772
outer loop
vertex 0.060000 7.442327 -0.159059
vertex -0.060000 7.442327 -0.159059
vertex -0.060000 7.454091 -0.180000
endloop
endfacet
facet normal 0.000000 -0.871868 -0.489740
outer loop
vertex 0.060000 7.442327 -0.159059
vertex -0.060000 7.454091 -0.180000
vertex 0.060000 7.454091 -0.180000
endloop
endfacet
facet normal 0.000000 -0.944267 -0.329181
outer loop
vertex -0.060000 7.407794 -0.060000
vertex -0.060000 7.442327 -0.159059
vertex 0.060000 7.442327 -0.159059
endloop
endfacet
facet normal 0.000000 -0.944270 -0.329173
outer loop
vertex -0.060000 7.407794 -0.060000
vertex 0.060000 7.442327 -0.159059
vertex 0.060000 7.407794 -0.060000
endloop
endfacet
facet normal 0.000000 -1.000000 0.000000
outer loop
vertex 0.060000 7.407794 0.060000
vertex -0.060000 7.407794 0.060000
vertex -0.060000 7.407794 -0.060000
endloop
endfacet
facet normal 0.000000 -1.000000 0.000000
outer loop
vertex 0.060000 7.407794 0.060000
vertex -0.060000 7.407794 -0.060000
vertex 0.060000 7.407794 -0.060000
endloop
endfacet
facet normal 0.000000 -0.944267 0.329181
outer loop
vertex 0.060000 7.442327 0.159059
vertex -0.060000 7.442327 0.159059
vertex -0.060000 7.407794 0.060000
endloop
endfacet
facet normal 0.000000 -0.944270 0.329173
outer loop
vertex 0.060000 7.442327 0.159059
vertex -0.060000 7.407794 0.060000
vertex 0.060000 7.407794 0.060000
endloop
endfacet
facet normal 0.000000 -0.871851 0.489772
outer loop
vertex -0.060000 7.454091 0.180000
vertex -0.060000 7.442327 0.159059
vertex 0.060000 7.442327 0.159059
endloop
endfacet
facet normal 0.000000 -0.871868 0.489740
outer loop
vertex -0.060000 7.454091 0.180000
vertex 0.060000 7.442327 0.159059
vertex 0.060000 7.454091 0.180000
endloop
endfacet
facet normal 0.000000 -0.707105 0.707109
outer loop
vertex 0.060000 7.562327 0.288237
vertex -0.060000 7.562327 0.288237
vertex -0.060000 7.454091 0.180000
endloop
endfacet
facet normal 0.000000 -0.707105 0.707109
outer loop
vertex 0.060000 7.562327 0.288237
vertex -0.060000 7.454091 0.180000
vertex 0.060000 7.454091 0.180000
endloop
endfacet
facet normal 0.000000 -0.489776 0.871848
outer loop
vertex -0.060000 7.583269 0.300000
vertex -0.060000 7.562327 0.288237
vertex 0.060000 7.562327 0.288237
endloop
endfacet
facet normal 0.000000 -0.489741 0.871868
outer loop
vertex -0.060000 7.583269 0.300000
vertex 0.060000 7.562327 0.288237
vertex 0.060000 7.583269 0.300000
endloop
endfacet
facet normal 0.000000 -0.329183 0.944266
outer loop
vertex 0.060000 7.682327 0.334533
vertex -0.060000 7.682327 0.334533
vertex -0.060000 7.583269 0.300000
endloop
endfacet
facet normal 0.000000 -0.329180 0.944267
outer loop
vertex 0.060000 7.682327 0.334533
vertex -0.060000 7.583269 0.300000
vertex 0.060000 7.583269 0.300000
endloop
endfacet
facet normal 0.000000 0.000000 1.000000
outer loop
vertex 0.060000 7.802327 0.334533
vertex -0.060000 7.802327 0.334533
vertex -0.060000 7.682327 0.334533
endloop
endfacet
facet normal 0.000000 0.000000 1.000000
outer loop
vertex 0.060000 7.802327 0.334533
vertex -0.060000 7.682327 0.334533
vertex 0.060000 7.682327 0.334533
endloop
endfacet
facet normal 0.000000 0.329183 0.944266
outer loop
vertex -0.060000 7.901386 0.300000
vertex -0.060000 7.802327 0.334533
vertex 0.060000 7.802327 0.334533
endloop
endfacet
facet normal 0.000000 0.329180 0.944267
outer loop
vertex -0.060000 7.901386 0.300000
vertex 0.060000 7.802327 0.334533
vertex 0.060000 7.901386 0.300000
endloop
endfacet
facet normal 0.000000 0.489759 0.871858
outer loop
vertex 0.060000 7.922327 0.288237
vertex -0.060000 7.922327 0.288237
vertex -0.060000 7.901386 0.300000
endloop
endfacet
facet normal 0.000000 0.489741 0.871868
outer loop
vertex 0.060000 7.922327 0.288237
vertex -0.060000 7.901386 0.300000
vertex 0.060000 7.901386 0.300000
endloop
endfacet
facet normal 0.000000 0.707108 0.707105
outer loop
vertex -0.060000 8.030563 0.180000
vertex -0.060000 7.922327 0.288237
vertex 0.060000 7.922327 0.288237
endloop
endfacet
facet normal 0.000000 0.707108 0.707105
outer loop
vertex -0.060000 8.030563 0.180000
vertex 0.060000 7.922327 0.288237
vertex 0.060000 8.030563 0.180000
endloop
endfacet
facet normal 0.000000 0.871886 0.489709
outer loop
vertex 0.060000 8.042327 0.159059
vertex -0.060000 8.042327 0.159059
vertex -0.060000 8.030563 0.180000
endloop
endfacet
facet normal 0.000000 0.871833 0.489803
outer loop
vertex 0.060000 8.042327 0.159059
vertex -0.060000 8.030563 0.180000
vertex 0.060000 8.030563 0.180000
endloop
endfacet
facet normal 0.000000 0.944267 0.329181
outer loop
vertex -0.060000 8.076860 0.060000
vertex -0.060000 8.042327 0.159059
vertex 0.060000 8.042327 0.159059
endloop
endfacet
facet normal 0.000000 0.944264 0.329190
outer loop
vertex -0.060000 8.076860 0.060000
vertex 0.060000 8.042327 0.159059
vertex 0.060000 8.076860 0.060000
endloop
endfacet
facet normal 0.312680 0.896919 0.312679
outer loop
vertex 0.060000 8.042327 0.159059
vertex 0.159059 8.042327 0.060000
vertex 0.060000 8.076860 0.060000
endloop
endfacet
facet normal 0.329186 0.944265 0.000000
outer loop
vertex 0.060000 8.076860 0.060000
vertex 0.159059 8.042327 0.060000
vertex 0.159059 8.042327 -0.060000
endloop
endfacet
facet normal 0.329186 0.944265 0.000000
outer loop
vertex 0.060000 8.076860 0.060000
vertex 0.159059 8.042327 -0.060000
vertex 0.060000 8.076860 -0.060000
endloop
endfacet
facet normal 0.489759 0.871858 0.000000
outer loop
vertex 0.159059 8.042327 -0.060000
vertex 0.159059 8.042327 0.060000
vertex 0.180000 8.030563 0.060000
endloop
endfacet
facet normal 0.489759 0.871858 0.000000
outer loop
vertex 0.159059 8.042327 -0.060000
vertex 0.180000 8.030563 0.060000
vertex 0.180000 8.030563 -0.060000
endloop
endfacet
facet normal 0.707106 0.707107 0.000000
outer loop
vertex 0.180000 8.030563 0.060000
vertex 0.288236 7.922327 0.060000
vertex 0.288236 7.922327 -0.060000
endloop
endfacet
facet normal 0.707106 0.707107 0.000000
outer loop
vertex 0.180000 8.030563 0.060000
vertex 0.288236 7.922327 -0.060000
vertex 0.180000 8.030563 -0.060000
endloop
endfacet
facet normal 0.871860 0.489756 0.000000
outer loop
vertex 0.288236 7.922327 -0.060000
vertex 0.288236 7.922327 0.060000
vertex 0.300000 7.901386 0.060000
endloop
endfacet
facet normal 0.871860 0.489756 0.000000
outer loop
vertex 0.288236 7.922327 -0.060000
vertex 0.300000 7.901386 0.060000
vertex 0.300000 7.901386 -0.060000
endloop
endfacet
facet normal 0.808647 0.373813 0.454262
outer loop
vertex 0.232764 7.922327 0.180000
vertex 0.288236 7.802327 0.180000
vertex 0.300000 7.802327 0.159059
endloop
endfacet
facet normal 0.828982 0.395466 0.395468
outer loop
vertex 0.232764 7.922327 0.180000
vertex 0.300000 7.802327 0.159059
vertex 0.300000 7.901386 0.060000
endloop
endfacet
facet normal 0.808662 0.454253 0.373792
outer loop
vertex 0.288236 7.922327 0.060000
vertex 0.232764 7.922327 0.180000
vertex 0.300000 7.901386 0.060000
endloop
endfacet
facet normal 0.871859 0.000000 0.489757
outer loop
vertex 0.300000 7.802327 0.159059
vertex 0.288236 7.802327 0.180000
vertex 0.288236 7.682327 0.180000
endloop
endfacet
facet normal 0.871859 0.000000 0.489756
outer loop
vertex 0.300000 7.802327 0.159059
vertex 0.288236 7.682327 0.180000
vertex 0.300000 7.682327 0.159059
endloop
endfacet
facet normal 0.837008 -0.386924 0.386921
outer loop
vertex 0.288236 7.682327 0.180000
vertex 0.232764 7.562327 0.180000
vertex 0.288236 7.562327 0.060000
endloop
endfacet
facet normal 0.782996 -0.439837 0.439842
outer loop
vertex 0.288236 7.682327 0.180000
vertex 0.288236 7.562327 0.060000
vertex 0.300000 7.583269 0.060000
endloop
endfacet
facet normal 0.782996 -0.439840 0.439837
outer loop
vertex 0.300000 7.682327 0.159059
vertex 0.288236 7.682327 0.180000
vertex 0.300000 7.583269 0.060000
endloop
endfacet
facet normal 0.672112 -0.310697 0.672110
outer loop
vertex 0.232764 7.562327 0.180000
vertex 0.288236 7.682327 0.180000
vertex 0.180000 7.682327 0.288237
endloop
endfacet
facet normal 0.672112 -0.310697 0.672111
outer loop
vertex 0.232764 7.562327 0.180000
vertex 0.180000 7.682327 0.288237
vertex 0.180000 7.562327 0.232764
endloop
endfacet
facet normal 0.577347 -0.577344 0.577360
outer loop
vertex 0.232764 7.562327 0.180000
vertex 0.180000 7.562327 0.232764
vertex 0.180000 7.509563 0.180000
endloop
endfacet
facet normal 0.871860 -0.489756 0.000000
outer loop
vertex 0.300000 7.583269 0.060000
vertex 0.288236 7.562327 0.060000
vertex 0.288236 7.562327 -0.060000
endloop
endfacet
facet normal 0.871860 -0.489756 0.000000
outer loop
vertex 0.300000 7.583269 0.060000
vertex 0.288236 7.562327 -0.060000
vertex 0.300000 7.583269 -0.060000
endloop
endfacet
facet normal 0.707108 -0.707106 0.000000
outer loop
vertex 0.288236 7.562327 -0.060000
vertex 0.288236 7.562327 0.060000
vertex 0.180000 7.454091 0.060000
endloop
endfacet
facet normal 0.707108 -0.707106 0.000000
outer loop
vertex 0.288236 7.562327 -0.060000
vertex 0.180000 7.454091 0.060000
vertex 0.180000 7.454091 -0.060000
endloop
endfacet
facet normal 0.672113 -0.672111 -0.310694
outer loop
vertex 0.232764 7.562327 -0.180000
vertex 0.288236 7.562327 -0.060000
vertex 0.180000 7.454091 -0.060000
endloop
endfacet
facet normal 0.672115 -0.672111 -0.310690
outer loop
vertex 0.232764 7.562327 -0.180000
vertex 0.180000 7.454091 -0.060000
vertex 0.180000 7.509563 -0.180000
endloop
endfacet
facet normal 0.489759 -0.871858 0.000000
outer loop
vertex 0.180000 7.454091 0.060000
vertex 0.159059 7.442327 0.060000
vertex 0.159059 7.442327 -0.060000
endloop
endfacet
facet normal 0.489759 -0.871858 0.000000
outer loop
vertex 0.180000 7.454091 0.060000
vertex 0.159059 7.442327 -0.060000
vertex 0.180000 7.454091 -0.060000
endloop
endfacet
facet normal 0.808657 -0.373818 -0.454239
outer loop
vertex 0.232764 7.562327 -0.180000
vertex 0.288236 7.682327 -0.180000
vertex 0.300000 7.682327 -0.159059
endloop
endfacet
facet normal 0.828982 -0.395466 -0.395468
outer loop
vertex 0.232764 7.562327 -0.180000
vertex 0.300000 7.682327 -0.159059
vertex 0.300000 7.583269 -0.060000
endloop
endfacet
facet normal 0.808650 -0.454246 -0.373825
outer loop
vertex 0.288236 7.562327 -0.060000
vertex 0.232764 7.562327 -0.180000
vertex 0.300000 7.583269 -0.060000
endloop
endfacet
facet normal 0.871859 0.000000 -0.489757
outer loop
vertex 0.288236 7.682327 -0.180000
vertex 0.288236 7.802327 -0.180000
vertex 0.300000 7.802327 -0.159059
endloop
endfacet
facet normal 0.871859 0.000000 -0.489756
outer loop
vertex 0.288236 7.682327 -0.180000
vertex 0.300000 7.802327 -0.159059
vertex 0.300000 7.682327 -0.159059
endloop
endfacet
facet normal 0.707108 0.000000 -0.707106
outer loop
vertex 0.180000 7.802327 -0.288237
vertex 0.288236 7.802327 -0.180000
vertex 0.288236 7.682327 -0.180000
endloop
endfacet
facet normal 0.707108 0.000000 -0.707106
outer loop
vertex 0.180000 7.802327 -0.288237
vertex 0.288236 7.682327 -0.180000
vertex 0.180000 7.682327 -0.288237
endloop
endfacet
facet normal 0.489758 0.000000 -0.871858
outer loop
vertex 0.159059 7.682327 -0.300000
vertex 0.159059 7.802327 -0.300000
vertex 0.180000 7.802327 -0.288237
endloop
endfacet
facet normal 0.489754 0.000000 -0.871861
outer loop
vertex 0.159059 7.682327 -0.300000
vertex 0.180000 7.802327 -0.288237
vertex 0.180000 7.682327 -0.288237
endloop
endfacet
facet normal 0.944267 0.000000 -0.329182
outer loop
vertex 0.300000 7.802327 -0.159059
vertex 0.334533 7.802327 -0.060000
vertex 0.334533 7.682327 -0.060000
endloop
endfacet
facet normal 0.944267 0.000000 -0.329182
outer loop
vertex 0.300000 7.802327 -0.159059
vertex 0.334533 7.682327 -0.060000
vertex 0.300000 7.682327 -0.159059
endloop
endfacet
facet normal 0.896923 0.312676 -0.312670
outer loop
vertex 0.334533 7.802327 -0.060000
vertex 0.300000 7.802327 -0.159059
vertex 0.300000 7.901386 -0.060000
endloop
endfacet
facet normal 1.000000 0.000000 0.000000
outer loop
vertex 0.334533 7.802327 -0.060000
vertex 0.334533 7.802327 0.060000
vertex 0.334533 7.682327 0.060000
endloop
endfacet
facet normal 1.000000 0.000000 0.000000
outer loop
vertex 0.334533 7.802327 -0.060000
vertex 0.334533 7.682327 0.060000
vertex 0.334533 7.682327 -0.060000
endloop
endfacet
facet normal 0.672111 -0.310697 -0.672112
outer loop
vertex 0.180000 7.682327 -0.288237
vertex 0.288236 7.682327 -0.180000
vertex 0.232764 7.562327 -0.180000
endloop
endfacet
facet normal 0.672112 -0.310697 -0.672111
outer loop
vertex 0.180000 7.682327 -0.288237
vertex 0.232764 7.562327 -0.180000
vertex 0.180000 7.562327 -0.232764
endloop
endfacet
facet normal 0.896922 -0.312676 -0.312675
outer loop
vertex 0.300000 7.682327 -0.159059
vertex 0.334533 7.682327 -0.060000
vertex 0.300000 7.583269 -0.060000
endloop
endfacet
facet normal 0.944267 -0.329181 0.000000
outer loop
vertex 0.334533 7.682327 -0.060000
vertex 0.334533 7.682327 0.060000
vertex 0.300000 7.583269 0.060000
endloop
endfacet
facet normal 0.944267 -0.329181 0.000000
outer loop
vertex 0.334533 7.682327 -0.060000
vertex 0.300000 7.583269 0.060000
vertex 0.300000 7.583269 -0.060000
endloop
endfacet
facet normal 0.896922 -0.312676 0.312675
outer loop
vertex 0.334533 7.682327 0.060000
vertex 0.300000 7.682327 0.159059
vertex 0.300000 7.583269 0.060000
endloop
endfacet
facet normal 0.707108 0.000000 0.707106
outer loop
vertex 0.288236 7.682327 0.180000
vertex 0.288236 7.802327 0.180000
vertex 0.180000 7.802327 0.288237
endloop
endfacet
facet normal 0.707108 0.000000 0.707106
outer loop
vertex 0.288236 7.682327 0.180000
vertex 0.180000 7.802327 0.288237
vertex 0.180000 7.682327 0.288237
endloop
endfacet
facet normal 0.489758 0.000000 0.871858
outer loop
vertex 0.180000 7.802327 0.288237
vertex 0.159059 7.802327 0.300000
vertex 0.159059 7.682327 0.300000
endloop
endfacet
facet normal 0.489754 0.000000 0.871861
outer loop
vertex 0.180000 7.802327 0.288237
vertex 0.159059 7.682327 0.300000
vertex 0.180000 7.682327 0.288237
endloop
endfacet
facet normal 0.944267 0.000000 0.329182
outer loop
vertex 0.334533 7.682327 0.060000
vertex 0.334533 7.802327 0.060000
vertex 0.300000 7.802327 0.159059
endloop
endfacet
facet normal 0.944267 0.000000 0.329182
outer loop
vertex 0.334533 7.682327 0.060000
vertex 0.300000 7.802327 0.159059
vertex 0.300000 7.682327 0.159059
endloop
endfacet
facet normal 0.672115 0.310699 0.672107
outer loop
vertex 0.288236 7.802327 0.180000
vertex 0.232764 7.922327 0.180000
vertex 0.180000 7.922327 0.232764
endloop
endfacet
facet normal 0.672110 0.310696 0.672114
outer loop
vertex 0.288236 7.802327 0.180000
vertex 0.180000 7.922327 0.232764
vertex 0.180000 7.802327 0.288237
endloop
endfacet
facet normal 0.577347 0.577344 0.577360
outer loop
vertex 0.180000 7.922327 0.232764
vertex 0.232764 7.922327 0.180000
vertex 0.180000 7.975091 0.180000
endloop
endfacet
facet normal 0.837007 0.386923 -0.386924
outer loop
vertex 0.288236 7.802327 -0.180000
vertex 0.232764 7.922327 -0.180000
vertex 0.288236 7.922327 -0.060000
endloop
endfacet
facet normal 0.782997 0.439838 -0.439838
outer loop
vertex 0.288236 7.802327 -0.180000
vertex 0.288236 7.922327 -0.060000
vertex 0.300000 7.901386 -0.060000
endloop
endfacet
facet normal 0.782996 0.439840 -0.439837
outer loop
vertex 0.300000 7.802327 -0.159059
vertex 0.288236 7.802327 -0.180000
vertex 0.300000 7.901386 -0.060000
endloop
endfacet
facet normal 0.944267 0.329181 0.000000
outer loop
vertex 0.300000 7.901386 0.060000
vertex 0.334533 7.802327 0.060000
vertex 0.334533 7.802327 -0.060000
endloop
endfacet
facet normal 0.944267 0.329181 0.000000
outer loop
vertex 0.300000 7.901386 0.060000
vertex 0.334533 7.802327 -0.060000
vertex 0.300000 7.901386 -0.060000
endloop
endfacet
facet normal 0.672113 0.672110 0.310695
outer loop
vertex 0.180000 7.975091 0.180000
vertex 0.232764 7.922327 0.180000
vertex 0.288236 7.922327 0.060000
endloop
endfacet
facet normal 0.672111 0.672112 0.310695
outer loop
vertex 0.180000 7.975091 0.180000
vertex 0.288236 7.922327 0.060000
vertex 0.180000 8.030563 0.060000
endloop
endfacet
facet normal 0.672111 0.672112 -0.310698
outer loop
vertex 0.180000 8.030563 -0.060000
vertex 0.288236 7.922327 -0.060000
vertex 0.232764 7.922327 -0.180000
endloop
endfacet
facet normal 0.672115 0.672111 -0.310690
outer loop
vertex 0.180000 8.030563 -0.060000
vertex 0.232764 7.922327 -0.180000
vertex 0.180000 7.975091 -0.180000
endloop
endfacet
facet normal 0.577347 0.577344 -0.577360
outer loop
vertex 0.232764 7.922327 -0.180000
vertex 0.180000 7.922327 -0.232764
vertex 0.180000 7.975091 -0.180000
endloop
endfacet
facet normal 0.312680 0.312680 0.896918
outer loop
vertex 0.060000 7.802327 0.334533
vertex 0.159059 7.802327 0.300000
vertex 0.060000 7.901386 0.300000
endloop
endfacet
facet normal -0.329179 0.000000 0.944267
outer loop
vertex -0.060000 7.802327 0.334533
vertex -0.159059 7.802327 0.300000
vertex -0.159059 7.682327 0.300000
endloop
endfacet
facet normal -0.329180 0.000000 0.944267
outer loop
vertex -0.060000 7.802327 0.334533
vertex -0.159059 7.682327 0.300000
vertex -0.060000 7.682327 0.334533
endloop
endfacet
facet normal 0.329179 0.000000 0.944267
outer loop
vertex 0.159059 7.682327 0.300000
vertex 0.159059 7.802327 0.300000
vertex 0.060000 7.802327 0.334533
endloop
endfacet
facet normal 0.329180 0.000000 0.944267
outer loop
vertex 0.159059 7.682327 0.300000
vertex 0.060000 7.802327 0.334533
vertex 0.060000 7.682327 0.334533
endloop
endfacet
facet normal -0.312677 -0.312677 0.896921
outer loop
vertex -0.060000 7.682327 0.334533
vertex -0.159059 7.682327 0.300000
vertex -0.060000 7.583269 0.300000
endloop
endfacet
facet normal 0.312677 -0.312677 0.896921
outer loop
vertex 0.159059 7.682327 0.300000
vertex 0.060000 7.682327 0.334533
vertex 0.060000 7.583269 0.300000
endloop
endfacet
facet normal -0.310696 -0.672106 0.672117
outer loop
vertex -0.060000 7.562327 0.288237
vertex -0.180000 7.562327 0.232764
vertex -0.180000 7.509563 0.180000
endloop
endfacet
facet normal -0.310697 -0.672113 0.672110
outer loop
vertex -0.060000 7.562327 0.288237
vertex -0.180000 7.509563 0.180000
vertex -0.060000 7.454091 0.180000
endloop
endfacet
facet normal -0.577347 -0.577344 0.577360
outer loop
vertex -0.180000 7.562327 0.232764
vertex -0.232764 7.562327 0.180000
vertex -0.180000 7.509563 0.180000
endloop
endfacet
facet normal -0.672112 -0.672109 0.310701
outer loop
vertex -0.180000 7.509563 0.180000
vertex -0.232764 7.562327 0.180000
vertex -0.288236 7.562327 0.060000
endloop
endfacet
facet normal -0.672114 -0.672112 0.310689
outer loop
vertex -0.180000 7.509563 0.180000
vertex -0.288236 7.562327 0.060000
vertex -0.180000 7.454091 0.060000
endloop
endfacet
facet normal -0.707108 -0.707106 0.000000
outer loop
vertex -0.180000 7.454091 0.060000
vertex -0.288236 7.562327 0.060000
vertex -0.288236 7.562327 -0.060000
endloop
endfacet
facet normal -0.707108 -0.707106 0.000000
outer loop
vertex -0.180000 7.454091 0.060000
vertex -0.288236 7.562327 -0.060000
vertex -0.180000 7.454091 -0.060000
endloop
endfacet
facet normal -0.672113 -0.672111 -0.310694
outer loop
vertex -0.180000 7.454091 -0.060000
vertex -0.288236 7.562327 -0.060000
vertex -0.232764 7.562327 -0.180000
endloop
endfacet
facet normal -0.672115 -0.672111 -0.310690
outer loop
vertex -0.180000 7.454091 -0.060000
vertex -0.232764 7.562327 -0.180000
vertex -0.180000 7.509563 -0.180000
endloop
endfacet
facet normal -0.577347 -0.577344 -0.577360
outer loop
vertex -0.232764 7.562327 -0.180000
vertex -0.180000 7.562327 -0.232764
vertex -0.180000 7.509563 -0.180000
endloop
endfacet
facet normal -0.672112 -0.310697 -0.672110
outer loop
vertex -0.232764 7.562327 -0.180000
vertex -0.288236 7.682327 -0.180000
vertex -0.180000 7.682327 -0.288237
endloop
endfacet
facet normal -0.672112 -0.310697 -0.672111
outer loop
vertex -0.232764 7.562327 -0.180000
vertex -0.180000 7.682327 -0.288237
vertex -0.180000 7.562327 -0.232764
endloop
endfacet
facet normal -0.707108 0.000000 -0.707106
outer loop
vertex -0.288236 7.682327 -0.180000
vertex -0.288236 7.802327 -0.180000
vertex -0.180000 7.802327 -0.288237
endloop
endfacet
facet normal -0.707108 0.000000 -0.707106
outer loop
vertex -0.288236 7.682327 -0.180000
vertex -0.180000 7.802327 -0.288237
vertex -0.180000 7.682327 -0.288237
endloop
endfacet
facet normal -0.672115 0.310699 -0.672107
outer loop
vertex -0.288236 7.802327 -0.180000
vertex -0.232764 7.922327 -0.180000
vertex -0.180000 7.922327 -0.232764
endloop
endfacet
facet normal -0.672110 0.310696 -0.672114
outer loop
vertex -0.288236 7.802327 -0.180000
vertex -0.180000 7.922327 -0.232764
vertex -0.180000 7.802327 -0.288237
endloop
endfacet
facet normal -0.577347 0.577344 -0.577360
outer loop
vertex -0.180000 7.922327 -0.232764
vertex -0.232764 7.922327 -0.180000
vertex -0.180000 7.975091 -0.180000
endloop
endfacet
facet normal -0.489758 0.000000 -0.871858
outer loop
vertex -0.180000 7.802327 -0.288237
vertex -0.159059 7.802327 -0.300000
vertex -0.159059 7.682327 -0.300000
endloop
endfacet
facet normal -0.489754 0.000000 -0.871861
outer loop
vertex -0.180000 7.802327 -0.288237
vertex -0.159059 7.682327 -0.300000
vertex -0.180000 7.682327 -0.288237
endloop
endfacet
facet normal -0.489759 -0.871858 0.000000
outer loop
vertex -0.159059 7.442327 -0.060000
vertex -0.159059 7.442327 0.060000
vertex -0.180000 7.454091 0.060000
endloop
endfacet
facet normal -0.489759 -0.871858 0.000000
outer loop
vertex -0.159059 7.442327 -0.060000
vertex -0.180000 7.454091 0.060000
vertex -0.180000 7.454091 -0.060000
endloop
endfacet
facet normal 0.310697 -0.672110 0.672113
outer loop
vertex 0.180000 7.562327 0.232764
vertex 0.060000 7.562327 0.288237
vertex 0.060000 7.454091 0.180000
endloop
endfacet
facet normal 0.310697 -0.672112 0.672111
outer loop
vertex 0.180000 7.562327 0.232764
vertex 0.060000 7.454091 0.180000
vertex 0.180000 7.509563 0.180000
endloop
endfacet
facet normal -0.439833 -0.782981 0.439873
outer loop
vertex -0.180000 7.454091 0.060000
vertex -0.159059 7.442327 0.060000
vertex -0.060000 7.442327 0.159059
endloop
endfacet
facet normal -0.439845 -0.783002 0.439823
outer loop
vertex -0.180000 7.454091 0.060000
vertex -0.060000 7.442327 0.159059
vertex -0.060000 7.454091 0.180000
endloop
endfacet
facet normal -0.386923 -0.837006 0.386927
outer loop
vertex -0.180000 7.509563 0.180000
vertex -0.180000 7.454091 0.060000
vertex -0.060000 7.454091 0.180000
endloop
endfacet
facet normal 0.439833 -0.782981 0.439873
outer loop
vertex 0.060000 7.454091 0.180000
vertex 0.060000 7.442327 0.159059
vertex 0.159059 7.442327 0.060000
endloop
endfacet
facet normal 0.439847 -0.783005 0.439815
outer loop
vertex 0.060000 7.454091 0.180000
vertex 0.159059 7.442327 0.060000
vertex 0.180000 7.454091 0.060000
endloop
endfacet
facet normal 0.386923 -0.837006 0.386927
outer loop
vertex 0.180000 7.509563 0.180000
vertex 0.060000 7.454091 0.180000
vertex 0.180000 7.454091 0.060000
endloop
endfacet
facet normal 0.312674 -0.896924 0.312670
outer loop
vertex 0.159059 7.442327 0.060000
vertex 0.060000 7.442327 0.159059
vertex 0.060000 7.407794 0.060000
endloop
endfacet
facet normal -0.329178 -0.944268 0.000000
outer loop
vertex -0.060000 7.407794 0.060000
vertex -0.159059 7.442327 0.060000
vertex -0.159059 7.442327 -0.060000
endloop
endfacet
facet normal -0.329178 -0.944268 0.000000
outer loop
vertex -0.060000 7.407794 0.060000
vertex -0.159059 7.442327 -0.060000
vertex -0.060000 7.407794 -0.060000
endloop
endfacet
facet normal 0.329178 -0.944268 0.000000
outer loop
vertex 0.159059 7.442327 -0.060000
vertex 0.159059 7.442327 0.060000
vertex 0.060000 7.407794 0.060000
endloop
endfacet
facet normal 0.329178 -0.944268 0.000000
outer loop
vertex 0.159059 7.442327 -0.060000
vertex 0.060000 7.407794 0.060000
vertex 0.060000 7.407794 -0.060000
endloop
endfacet
facet normal -0.312674 -0.896924 -0.312670
outer loop
vertex -0.159059 7.442327 -0.060000
vertex -0.060000 7.442327 -0.159059
vertex -0.060000 7.407794 -0.060000
endloop
endfacet
facet normal 0.312674 -0.896924 -0.312670
outer loop
vertex 0.060000 7.442327 -0.159059
vertex 0.159059 7.442327 -0.060000
vertex 0.060000 7.407794 -0.060000
endloop
endfacet
facet normal -0.454254 -0.808654 -0.373808
outer loop
vertex -0.159059 7.442327 -0.060000
vertex -0.180000 7.454091 -0.060000
vertex -0.180000 7.509563 -0.180000
endloop
endfacet
facet normal -0.384726 -0.832254 -0.399172
outer loop
vertex -0.159059 7.442327 -0.060000
vertex -0.180000 7.509563 -0.180000
vertex -0.060000 7.454091 -0.180000
endloop
endfacet
facet normal -0.439833 -0.782981 -0.439873
outer loop
vertex -0.060000 7.442327 -0.159059
vertex -0.159059 7.442327 -0.060000
vertex -0.060000 7.454091 -0.180000
endloop
endfacet
facet normal 0.439833 -0.782981 -0.439873
outer loop
vertex 0.159059 7.442327 -0.060000
vertex 0.060000 7.442327 -0.159059
vertex 0.060000 7.454091 -0.180000
endloop
endfacet
facet normal 0.384726 -0.832254 -0.399172
outer loop
vertex 0.159059 7.442327 -0.060000
vertex 0.060000 7.454091 -0.180000
vertex 0.180000 7.509563 -0.180000
endloop
endfacet
facet normal 0.454254 -0.808654 -0.373808
outer loop
vertex 0.180000 7.454091 -0.060000
vertex 0.159059 7.442327 -0.060000
vertex 0.180000 7.509563 -0.180000
endloop
endfacet
facet normal 0.310697 -0.672110 -0.672113
outer loop
vertex 0.060000 7.454091 -0.180000
vertex 0.060000 7.562327 -0.288237
vertex 0.180000 7.562327 -0.232764
endloop
endfacet
facet normal 0.310697 -0.672112 -0.672111
outer loop
vertex 0.060000 7.454091 -0.180000
vertex 0.180000 7.562327 -0.232764
vertex 0.180000 7.509563 -0.180000
endloop
endfacet
facet normal -0.454252 -0.373817 -0.808651
outer loop
vertex -0.180000 7.562327 -0.232764
vertex -0.180000 7.682327 -0.288237
vertex -0.159059 7.682327 -0.300000
endloop
endfacet
facet normal -0.395464 -0.395464 -0.828985
outer loop
vertex -0.180000 7.562327 -0.232764
vertex -0.159059 7.682327 -0.300000
vertex -0.060000 7.583269 -0.300000
endloop
endfacet
facet normal -0.373829 -0.454267 -0.808637
outer loop
vertex -0.060000 7.562327 -0.288237
vertex -0.180000 7.562327 -0.232764
vertex -0.060000 7.583269 -0.300000
endloop
endfacet
facet normal 0.439840 -0.439842 -0.782994
outer loop
vertex 0.060000 7.583269 -0.300000
vertex 0.159059 7.682327 -0.300000
vertex 0.180000 7.682327 -0.288237
endloop
endfacet
facet normal 0.399170 -0.384724 -0.832257
outer loop
vertex 0.060000 7.583269 -0.300000
vertex 0.180000 7.682327 -0.288237
vertex 0.180000 7.562327 -0.232764
endloop
endfacet
facet normal 0.373829 -0.454267 -0.808637
outer loop
vertex 0.060000 7.562327 -0.288237
vertex 0.060000 7.583269 -0.300000
vertex 0.180000 7.562327 -0.232764
endloop
endfacet
facet normal -0.312677 -0.312677 -0.896921
outer loop
vertex -0.159059 7.682327 -0.300000
vertex -0.060000 7.682327 -0.334533
vertex -0.060000 7.583269 -0.300000
endloop
endfacet
facet normal 0.312677 -0.312677 -0.896921
outer loop
vertex 0.060000 7.682327 -0.334533
vertex 0.159059 7.682327 -0.300000
vertex 0.060000 7.583269 -0.300000
endloop
endfacet
facet normal -0.329179 0.000000 -0.944267
outer loop
vertex -0.159059 7.682327 -0.300000
vertex -0.159059 7.802327 -0.300000
vertex -0.060000 7.802327 -0.334533
endloop
endfacet
facet normal -0.329180 0.000000 -0.944267
outer loop
vertex -0.159059 7.682327 -0.300000
vertex -0.060000 7.802327 -0.334533
vertex -0.060000 7.682327 -0.334533
endloop
endfacet
facet normal 0.329179 0.000000 -0.944267
outer loop
vertex 0.060000 7.802327 -0.334533
vertex 0.159059 7.802327 -0.300000
vertex 0.159059 7.682327 -0.300000
endloop
endfacet
facet normal 0.329180 0.000000 -0.944267
outer loop
vertex 0.060000 7.802327 -0.334533
vertex 0.159059 7.682327 -0.300000
vertex 0.060000 7.682327 -0.334533
endloop
endfacet
facet normal 0.312680 0.312680 -0.896918
outer loop
vertex 0.159059 7.802327 -0.300000
vertex 0.060000 7.802327 -0.334533
vertex 0.060000 7.901386 -0.300000
endloop
endfacet
facet normal -0.386923 0.386923 -0.837007
outer loop
vertex -0.180000 7.802327 -0.288237
vertex -0.180000 7.922327 -0.232764
vertex -0.060000 7.922327 -0.288237
endloop
endfacet
facet normal -0.439827 0.439828 -0.783009
outer loop
vertex -0.180000 7.802327 -0.288237
vertex -0.060000 7.922327 -0.288237
vertex -0.060000 7.901386 -0.300000
endloop
endfacet
facet normal -0.439844 0.439846 -0.782990
outer loop
vertex -0.159059 7.802327 -0.300000
vertex -0.180000 7.802327 -0.288237
vertex -0.060000 7.901386 -0.300000
endloop
endfacet
facet normal 0.373818 0.454252 -0.808650
outer loop
vertex 0.060000 7.901386 -0.300000
vertex 0.060000 7.922327 -0.288237
vertex 0.180000 7.922327 -0.232764
endloop
endfacet
facet normal 0.399170 0.384724 -0.832257
outer loop
vertex 0.060000 7.901386 -0.300000
vertex 0.180000 7.922327 -0.232764
vertex 0.180000 7.802327 -0.288237
endloop
endfacet
facet normal 0.439844 0.439846 -0.782990
outer loop
vertex 0.159059 7.802327 -0.300000
vertex 0.060000 7.901386 -0.300000
vertex 0.180000 7.802327 -0.288237
endloop
endfacet
facet normal -0.310696 0.672106 -0.672117
outer loop
vertex -0.060000 7.922327 -0.288237
vertex -0.180000 7.922327 -0.232764
vertex -0.180000 7.975091 -0.180000
endloop
endfacet
facet normal -0.310695 0.672113 -0.672110
outer loop
vertex -0.060000 7.922327 -0.288237
vertex -0.180000 7.975091 -0.180000
vertex -0.060000 8.030563 -0.180000
endloop
endfacet
facet normal 0.310697 0.672113 -0.672110
outer loop
vertex 0.180000 7.922327 -0.232764
vertex 0.060000 7.922327 -0.288237
vertex 0.060000 8.030563 -0.180000
endloop
endfacet
facet normal 0.310692 0.672107 -0.672118
outer loop
vertex 0.180000 7.922327 -0.232764
vertex 0.060000 8.030563 -0.180000
vertex 0.180000 7.975091 -0.180000
endloop
endfacet
facet normal 0.312680 0.896919 -0.312679
outer loop
vertex 0.159059 8.042327 -0.060000
vertex 0.060000 8.042327 -0.159059
vertex 0.060000 8.076860 -0.060000
endloop
endfacet
facet normal 0.000000 1.000000 0.000000
outer loop
vertex -0.060000 8.076860 -0.060000
vertex -0.060000 8.076860 0.060000
vertex 0.060000 8.076860 0.060000
endloop
endfacet
facet normal 0.000000 1.000000 0.000000
outer loop
vertex -0.060000 8.076860 -0.060000
vertex 0.060000 8.076860 0.060000
vertex 0.060000 8.076860 -0.060000
endloop
endfacet
facet normal -0.454251 0.808648 0.373824
outer loop
vertex -0.159059 8.042327 0.060000
vertex -0.180000 8.030563 0.060000
vertex -0.180000 7.975091 0.180000
endloop
endfacet
facet normal -0.384723 0.832256 0.399172
outer loop
vertex -0.159059 8.042327 0.060000
vertex -0.180000 7.975091 0.180000
vertex -0.060000 8.030563 0.180000
endloop
endfacet
facet normal -0.439851 0.783012 0.439800
outer loop
vertex -0.060000 8.042327 0.159059
vertex -0.159059 8.042327 0.060000
vertex -0.060000 8.030563 0.180000
endloop
endfacet
facet normal -0.871859 0.000000 -0.489757
outer loop
vertex -0.300000 7.802327 -0.159059
vertex -0.288236 7.802327 -0.180000
vertex -0.288236 7.682327 -0.180000
endloop
endfacet
facet normal -0.871859 0.000000 -0.489756
outer loop
vertex -0.300000 7.802327 -0.159059
vertex -0.288236 7.682327 -0.180000
vertex -0.300000 7.682327 -0.159059
endloop
endfacet
facet normal -0.871860 -0.489756 0.000000
outer loop
vertex -0.288236 7.562327 -0.060000
vertex -0.288236 7.562327 0.060000
vertex -0.300000 7.583269 0.060000
endloop
endfacet
facet normal -0.871860 -0.489756 0.000000
outer loop
vertex -0.288236 7.562327 -0.060000
vertex -0.300000 7.583269 0.060000
vertex -0.300000 7.583269 -0.060000
endloop
endfacet
facet normal -1.000000 0.000000 0.000000
outer loop
vertex -0.334533 7.682327 0.060000
vertex -0.334533 7.802327 0.060000
vertex -0.334533 7.802327 -0.060000
endloop
endfacet
facet normal -1.000000 0.000000 0.000000
outer loop
vertex -0.334533 7.682327 0.060000
vertex -0.334533 7.802327 -0.060000
vertex -0.334533 7.682327 -0.060000
endloop
endfacet
facet normal -0.489758 0.000000 0.871858
outer loop
vertex -0.159059 7.682327 0.300000
vertex -0.159059 7.802327 0.300000
vertex -0.180000 7.802327 0.288237
endloop
endfacet
facet normal -0.489754 0.000000 0.871861
outer loop
vertex -0.159059 7.682327 0.300000
vertex -0.180000 7.802327 0.288237
vertex -0.180000 7.682327 0.288237
endloop
endfacet
facet normal -0.837007 0.386923 0.386924
outer loop
vertex -0.288236 7.802327 0.180000
vertex -0.232764 7.922327 0.180000
vertex -0.288236 7.922327 0.060000
endloop
endfacet
facet normal -0.782997 0.439838 0.439838
outer loop
vertex -0.288236 7.802327 0.180000
vertex -0.288236 7.922327 0.060000
vertex -0.300000 7.901386 0.060000
endloop
endfacet
facet normal -0.782996 0.439840 0.439837
outer loop
vertex -0.300000 7.802327 0.159059
vertex -0.288236 7.802327 0.180000
vertex -0.300000 7.901386 0.060000
endloop
endfacet
facet normal -0.454252 0.373817 0.808651
outer loop
vertex -0.180000 7.922327 0.232764
vertex -0.180000 7.802327 0.288237
vertex -0.159059 7.802327 0.300000
endloop
endfacet
facet normal -0.395461 0.395462 0.828988
outer loop
vertex -0.180000 7.922327 0.232764
vertex -0.159059 7.802327 0.300000
vertex -0.060000 7.901386 0.300000
endloop
endfacet
facet normal -0.373818 0.454252 0.808650
outer loop
vertex -0.060000 7.922327 0.288237
vertex -0.180000 7.922327 0.232764
vertex -0.060000 7.901386 0.300000
endloop
endfacet
facet normal -0.672111 -0.310697 0.672112
outer loop
vertex -0.180000 7.682327 0.288237
vertex -0.288236 7.682327 0.180000
vertex -0.232764 7.562327 0.180000
endloop
endfacet
facet normal -0.672112 -0.310697 0.672111
outer loop
vertex -0.180000 7.682327 0.288237
vertex -0.232764 7.562327 0.180000
vertex -0.180000 7.562327 0.232764
endloop
endfacet
facet normal -0.672113 0.672110 0.310695
outer loop
vertex -0.288236 7.922327 0.060000
vertex -0.232764 7.922327 0.180000
vertex -0.180000 7.975091 0.180000
endloop
endfacet
facet normal -0.672111 0.672112 0.310695
outer loop
vertex -0.288236 7.922327 0.060000
vertex -0.180000 7.975091 0.180000
vertex -0.180000 8.030563 0.060000
endloop
endfacet
facet normal -0.896923 0.312676 0.312670
outer loop
vertex -0.334533 7.802327 0.060000
vertex -0.300000 7.802327 0.159059
vertex -0.300000 7.901386 0.060000
endloop
endfacet
facet normal -0.808657 -0.373818 0.454239
outer loop
vertex -0.232764 7.562327 0.180000
vertex -0.288236 7.682327 0.180000
vertex -0.300000 7.682327 0.159059
endloop
endfacet
facet normal -0.828982 -0.395466 0.395468
outer loop
vertex -0.232764 7.562327 0.180000
vertex -0.300000 7.682327 0.159059
vertex -0.300000 7.583269 0.060000
endloop
endfacet
facet normal -0.808650 -0.454246 0.373825
outer loop
vertex -0.288236 7.562327 0.060000
vertex -0.232764 7.562327 0.180000
vertex -0.300000 7.583269 0.060000
endloop
endfacet
facet normal -0.672110 0.672111 -0.310701
outer loop
vertex -0.232764 7.922327 -0.180000
vertex -0.288236 7.922327 -0.060000
vertex -0.180000 8.030563 -0.060000
endloop
endfacet
facet normal -0.672115 0.672111 -0.310690
outer loop
vertex -0.232764 7.922327 -0.180000
vertex -0.180000 8.030563 -0.060000
vertex -0.180000 7.975091 -0.180000
endloop
endfacet
facet normal -0.808647 0.373813 -0.454262
outer loop
vertex -0.232764 7.922327 -0.180000
vertex -0.288236 7.802327 -0.180000
vertex -0.300000 7.802327 -0.159059
endloop
endfacet
facet normal -0.828982 0.395466 -0.395468
outer loop
vertex -0.232764 7.922327 -0.180000
vertex -0.300000 7.802327 -0.159059
vertex -0.300000 7.901386 -0.060000
endloop
endfacet
facet normal -0.808662 0.454253 -0.373792
outer loop
vertex -0.288236 7.922327 -0.060000
vertex -0.232764 7.922327 -0.180000
vertex -0.300000 7.901386 -0.060000
endloop
endfacet
facet normal -0.837008 -0.386924 -0.386921
outer loop
vertex -0.288236 7.682327 -0.180000
vertex -0.232764 7.562327 -0.180000
vertex -0.288236 7.562327 -0.060000
endloop
endfacet
facet normal -0.782996 -0.439837 -0.439842
outer loop
vertex -0.288236 7.682327 -0.180000
vertex -0.288236 7.562327 -0.060000
vertex -0.300000 7.583269 -0.060000
endloop
endfacet
facet normal -0.782996 -0.439840 -0.439837
outer loop
vertex -0.300000 7.682327 -0.159059
vertex -0.288236 7.682327 -0.180000
vertex -0.300000 7.583269 -0.060000
endloop
endfacet
facet normal -0.310696 0.672106 0.672117
outer loop
vertex -0.180000 7.975091 0.180000
vertex -0.180000 7.922327 0.232764
vertex -0.060000 7.922327 0.288237
endloop
endfacet
facet normal -0.310695 0.672113 0.672110
outer loop
vertex -0.180000 7.975091 0.180000
vertex -0.060000 7.922327 0.288237
vertex -0.060000 8.030563 0.180000
endloop
endfacet
facet normal -0.312680 0.312680 0.896918
outer loop
vertex -0.159059 7.802327 0.300000
vertex -0.060000 7.802327 0.334533
vertex -0.060000 7.901386 0.300000
endloop
endfacet
facet normal -0.386923 -0.386923 0.837007
outer loop
vertex -0.180000 7.682327 0.288237
vertex -0.180000 7.562327 0.232764
vertex -0.060000 7.562327 0.288237
endloop
endfacet
facet normal -0.439840 -0.439841 0.782995
outer loop
vertex -0.180000 7.682327 0.288237
vertex -0.060000 7.562327 0.288237
vertex -0.060000 7.583269 0.300000
endloop
endfacet
facet normal -0.439844 -0.439846 0.782990
outer loop
vertex -0.159059 7.682327 0.300000
vertex -0.180000 7.682327 0.288237
vertex -0.060000 7.583269 0.300000
endloop
endfacet
facet normal -0.312680 0.896919 0.312679
outer loop
vertex -0.159059 8.042327 0.060000
vertex -0.060000 8.042327 0.159059
vertex -0.060000 8.076860 0.060000
endloop
endfacet
facet normal -0.312674 -0.896924 0.312670
outer loop
vertex -0.060000 7.442327 0.159059
vertex -0.159059 7.442327 0.060000
vertex -0.060000 7.407794 0.060000
endloop
endfacet
facet normal -0.439851 0.783012 -0.439800
outer loop
vertex -0.180000 8.030563 -0.060000
vertex -0.159059 8.042327 -0.060000
vertex -0.060000 8.042327 -0.159059
endloop
endfacet
facet normal -0.439831 0.782976 -0.439883
outer loop
vertex -0.180000 8.030563 -0.060000
vertex -0.060000 8.042327 -0.159059
vertex -0.060000 8.030563 -0.180000
endloop
endfacet
facet normal -0.386922 0.837011 -0.386916
outer loop
vertex -0.180000 7.975091 -0.180000
vertex -0.180000 8.030563 -0.060000
vertex -0.060000 8.030563 -0.180000
endloop
endfacet
facet normal -0.312680 0.312680 -0.896918
outer loop
vertex -0.060000 7.802327 -0.334533
vertex -0.159059 7.802327 -0.300000
vertex -0.060000 7.901386 -0.300000
endloop
endfacet
facet normal -0.310696 -0.672106 -0.672117
outer loop
vertex -0.180000 7.509563 -0.180000
vertex -0.180000 7.562327 -0.232764
vertex -0.060000 7.562327 -0.288237
endloop
endfacet
facet normal -0.310698 -0.672113 -0.672110
outer loop
vertex -0.180000 7.509563 -0.180000
vertex -0.060000 7.562327 -0.288237
vertex -0.060000 7.454091 -0.180000
endloop
endfacet
facet normal 0.310697 0.672113 0.672110
outer loop
vertex 0.060000 8.030563 0.180000
vertex 0.060000 7.922327 0.288237
vertex 0.180000 7.922327 0.232764
endloop
endfacet
facet normal 0.310692 0.672107 0.672118
outer loop
vertex 0.060000 8.030563 0.180000
vertex 0.180000 7.922327 0.232764
vertex 0.180000 7.975091 0.180000
endloop
endfacet
facet normal 0.439828 0.439830 0.783007
outer loop
vertex 0.060000 7.922327 0.288237
vertex 0.060000 7.901386 0.300000
vertex 0.159059 7.802327 0.300000
endloop
endfacet
facet normal 0.439834 0.439834 0.783002
outer loop
vertex 0.060000 7.922327 0.288237
vertex 0.159059 7.802327 0.300000
vertex 0.180000 7.802327 0.288237
endloop
endfacet
facet normal 0.386923 0.386923 0.837007
outer loop
vertex 0.180000 7.922327 0.232764
vertex 0.060000 7.922327 0.288237
vertex 0.180000 7.802327 0.288237
endloop
endfacet
facet normal 0.439828 -0.439830 0.783007
outer loop
vertex 0.159059 7.682327 0.300000
vertex 0.060000 7.583269 0.300000
vertex 0.060000 7.562327 0.288237
endloop
endfacet
facet normal 0.384728 -0.399175 0.832252
outer loop
vertex 0.159059 7.682327 0.300000
vertex 0.060000 7.562327 0.288237
vertex 0.180000 7.562327 0.232764
endloop
endfacet
facet normal 0.454252 -0.373817 0.808651
outer loop
vertex 0.180000 7.682327 0.288237
vertex 0.159059 7.682327 0.300000
vertex 0.180000 7.562327 0.232764
endloop
endfacet
facet normal 0.373823 0.808674 0.454205
outer loop
vertex 0.060000 8.042327 0.159059
vertex 0.060000 8.030563 0.180000
vertex 0.180000 7.975091 0.180000
endloop
endfacet
facet normal 0.399169 0.832251 0.384736
outer loop
vertex 0.060000 8.042327 0.159059
vertex 0.180000 7.975091 0.180000
vertex 0.180000 8.030563 0.060000
endloop
endfacet
facet normal 0.439851 0.783012 0.439800
outer loop
vertex 0.159059 8.042327 0.060000
vertex 0.060000 8.042327 0.159059
vertex 0.180000 8.030563 0.060000
endloop
endfacet
facet normal 0.896923 0.312676 0.312670
outer loop
vertex 0.300000 7.802327 0.159059
vertex 0.334533 7.802327 0.060000
vertex 0.300000 7.901386 0.060000
endloop
endfacet
facet normal 0.672112 -0.672109 0.310701
outer loop
vertex 0.288236 7.562327 0.060000
vertex 0.232764 7.562327 0.180000
vertex 0.180000 7.509563 0.180000
endloop
endfacet
facet normal 0.672114 -0.672112 0.310689
outer loop
vertex 0.288236 7.562327 0.060000
vertex 0.180000 7.509563 0.180000
vertex 0.180000 7.454091 0.060000
endloop
endfacet
facet normal 0.439853 0.783015 -0.439791
outer loop
vertex 0.060000 8.042327 -0.159059
vertex 0.159059 8.042327 -0.060000
vertex 0.180000 8.030563 -0.060000
endloop
endfacet
facet normal 0.399169 0.832251 -0.384736
outer loop
vertex 0.060000 8.042327 -0.159059
vertex 0.180000 8.030563 -0.060000
vertex 0.180000 7.975091 -0.180000
endloop
endfacet
facet normal 0.373823 0.808674 -0.454205
outer loop
vertex 0.060000 8.030563 -0.180000
vertex 0.060000 8.042327 -0.159059
vertex 0.180000 7.975091 -0.180000
endloop
endfacet
facet normal 0.672115 0.310699 -0.672107
outer loop
vertex 0.180000 7.922327 -0.232764
vertex 0.232764 7.922327 -0.180000
vertex 0.288236 7.802327 -0.180000
endloop
endfacet
facet normal 0.672110 0.310696 -0.672114
outer loop
vertex 0.180000 7.922327 -0.232764
vertex 0.288236 7.802327 -0.180000
vertex 0.180000 7.802327 -0.288237
endloop
endfacet
facet normal 0.577347 -0.577344 -0.577360
outer loop
vertex 0.180000 7.562327 -0.232764
vertex 0.232764 7.562327 -0.180000
vertex 0.180000 7.509563 -0.180000
endloop
endfacet
endsolid Exported from Blender-3.4.1
