solid Exported from Blender-3.4.1
facet normal -0.577347 0.577344 0.577360
outer loop
vertex -0.232764 7.922327 0.180000
vertex -0.180000 7.922327 0.232764
vertex -0.180000 7.975091 0.180000
endloop
endfacet
facet normal -0.672115 0.310699 0.672107
outer loop
vertex -0.180000 7.922327 0.232764
vertex -0.232764 7.922327 0.180000
vertex -0.288236 7.802327 0.180000
endloop
endfacet
facet normal -0.672110 0.310696 0.672114
outer loop
vertex -0.180000 7.922327 0.232764
vertex -0.288236 7.802327 0.180000
vertex -0.180000 7.802327 0.288237
endloop
endfacet
facet normal -0.707108 0.000000 0.707106
outer loop
vertex -0.180000 7.802327 0.288237
vertex -0.288236 7.802327 0.180000
vertex -0.288236 7.682327 0.180000
endloop
endfacet
facet normal -0.707108 0.000000 0.707106
outer loop
vertex -0.180000 7.802327 0.288237
vertex -0.288236 7.682327 0.180000
vertex -0.180000 7.682327 0.288237
endloop
endfacet
facet normal -0.871859 0.000000 0.489757
outer loop
vertex -0.288236 7.682327 0.180000
vertex -0.288236 7.802327 0.180000
vertex -0.300000 7.802327 0.159059
endloop
endfacet
facet normal -0.871859 0.000000 0.489756
outer loop
vertex -0.288236 7.682327 0.180000
vertex -0.300000 7.802327 0.159059
vertex -0.300000 7.682327 0.159059
endloop
endfacet
facet normal -0.944267 0.000000 0.329182
outer loop
vertex -0.300000 7.802327 0.159059
vertex -0.334533 7.802327 0.060000
vertex -0.334533 7.682327 0.060000
endloop
endfacet
facet normal -0.944267 0.000000 0.329182
outer loop
vertex -0.300000 7.802327 0.159059
vertex -0.334533 7.682327 0.060000
vertex -0.300000 7.682327 0.159059
endloop
endfacet
facet normal -0.896922 -0.312676 0.312675
outer loop
vertex -0.300000 7.682327 0.159059
vertex -0.334533 7.682327 0.060000
vertex -0.300000 7.583269 0.060000
endloop
endfacet
facet normal -0.944267 -0.329181 0.000000
outer loop
vertex -0.300000 7.583269 0.060000
vertex -0.334533 7.682327 0.060000
vertex -0.334533 7.682327 -0.060000
endloop
endfacet
facet normal -0.944267 -0.329181 0.000000
outer loop
vertex -0.300000 7.583269 0.060000
vertex -0.334533 7.682327 -0.060000
vertex -0.300000 7.583269 -0.060000
endloop
endfacet
facet normal -0.896922 -0.312676 -0.312675
outer loop
vertex -0.334533 7.682327 -0.060000
vertex -0.300000 7.682327 -0.159059
vertex -0.300000 7.583269 -0.060000
endloop
endfacet
facet normal -0.944267 0.000000 -0.329182
outer loop
vertex -0.334533 7.682327 -0.060000
vertex -0.334533 7.802327 -0.060000
vertex -0.300000 7.802327 -0.159059
endloop
endfacet
facet normal -0.944267 0.000000 -0.329182
outer loop
vertex -0.334533 7.682327 -0.060000
vertex -0.300000 7.802327 -0.159059
vertex -0.300000 7.682327 -0.159059
endloop
endfacet
facet normal -0.896923 0.312676 -0.312670
outer loop
vertex -0.300000 7.802327 -0.159059
vertex -0.334533 7.802327 -0.060000
vertex -0.300000 7.901386 -0.060000
endloop
endfacet
facet normal -0.944267 0.329181 0.000000
outer loop
vertex -0.334533 7.802327 -0.060000
vertex -0.334533 7.802327 0.060000
vertex -0.300000 7.901386 0.060000
endloop
endfacet
facet normal -0.944267 0.329181 0.000000
outer loop
vertex -0.334533 7.802327 -0.060000
vertex -0.300000 7.901386 0.060000
vertex -0.300000 7.901386 -0.060000
endloop
endfacet
facet normal -0.871860 0.489756 0.000000
outer loop
vertex -0.300000 7.901386 0.060000
vertex -0.288236 7.922327 0.060000
vertex -0.288236 7.922327 -0.060000
endloop
endfacet
facet normal -0.871860 0.489756 0.000000
outer loop
vertex -0.300000 7.901386 0.060000
vertex -0.288236 7.922327 -0.060000
vertex -0.300000 7.901386 -0.060000
endloop
endfacet
facet normal -0.707106 0.707107 0.000000
outer loop
vertex -0.288236 7.922327 -0.060000
vertex -0.288236 7.922327 0.060000
vertex -0.180000 8.030563 0.060000
endloop
endfacet
facet normal -0.707106 0.707107 0.000000
outer loop
vertex -0.288236 7.922327 -0.060000
vertex -0.180000 8.030563 0.060000
vertex -0.180000 8.030563 -0.060000
endloop
endfacet
facet normal -0.489759 0.871858 0.000000
outer loop
vertex -0.180000 8.030563 0.060000
vertex -0.159059 8.042327 0.060000
vertex -0.159059 8.042327 -0.060000
endloop
endfacet
facet normal -0.489759 0.871858 0.000000
outer loop
vertex -0.180000 8.030563 0.060000
vertex -0.159059 8.042327 -0.060000
vertex -0.180000 8.030563 -0.060000
endloop
endfacet
facet normal -0.329186 0.944265 0.000000
outer loop
vertex -0.159059 8.042327 -0.060000
vertex -0.159059 8.042327 0.060000
vertex -0.060000 8.076860 0.060000
endloop
endfacet
facet normal -0.329186 0.944265 0.000000
outer loop
vertex -0.159059 8.042327 -0.060000
vertex -0.060000 8.076860 0.060000
vertex -0.060000 8.076860 -0.060000
endloop
endfacet
facet normal -0.312680 0.896919 -0.312679
outer loop
vertex -0.060000 8.042327 -0.159059
vertex -0.159059 8.042327 -0.060000
vertex -0.060000 8.076860 -0.060000
endloop
endfacet
facet normal 0.000000 0.944267 -0.329181
outer loop
vertex 0.060000 8.042327 -0.159059
vertex -0.060000 8.042327 -0.159059
vertex -0.060000 8.076860 -0.060000
endloop
endfacet
facet normal 0.000000 0.944264 -0.329190
outer loop
vertex 0.060000 8.042327 -0.159059
vertex -0.060000 8.076860 -0.060000
vertex 0.060000 8.076860 -0.060000
endloop
endfacet
facet normal 0.000000 0.871886 -0.489709
outer loop
vertex -0.060000 8.030563 -0.180000
vertex -0.060000 8.042327 -0.159059
vertex 0.060000 8.042327 -0.159059
endloop
endfacet
facet normal 0.000000 0.871833 -0.489803
outer loop
vertex -0.060000 8.030563 -0.180000
vertex 0.060000 8.042327 -0.159059
vertex 0.060000 8.030563 -0.180000
endloop
endfacet
facet normal 0.000000 0.707108 -0.707105
outer loop
vertex 0.060000 7.922327 -0.288237
vertex -0.060000 7.922327 -0.288237
vertex -0.060000 8.030563 -0.180000
endloop
endfacet
facet normal 0.000000 0.707108 -0.707105
outer loop
vertex 0.060000 7.922327 -0.288237
vertex -0.060000 8.030563 -0.180000
vertex 0.060000 8.030563 -0.180000
endloop
endfacet
facet normal 0.000000 0.489759 -0.871858
outer loop
vertex -0.060000 7.901386 -0.300000
vertex -0.060000 7.922327 -0.288237
vertex 0.060000 7.922327 -0.288237
endloop
endfacet
facet normal 0.000000 0.489741 -0.871868
outer loop
vertex -0.060000 7.901386 -0.300000
vertex 0.060000 7.922327 -0.288237
vertex 0.060000 7.901386 -0.300000
endloop
endfacet
facet normal 0.000000 0.329183 -0.944266
outer loop
vertex 0.060000 7.802327 -0.334533
vertex -0.060000 7.802327 -0.334533
vertex -0.060000 7.901386 -0.300000
endloop
endfacet
facet normal 0.000000 0.329180 -0.944267
outer loop
vertex 0.060000 7.802327 -0.334533
vertex -0.060000 7.901386 -0.300000
vertex 0.060000 7.901386 -0.300000
endloop
endfacet
facet normal 0.000000 0.000000 -1.000000
outer loop
vertex -0.060000 7.682327 -0.334533
vertex -0.060000 7.802327 -0.334533
vertex 0.060000 7.802327 -0.334533
endloop
endfacet
facet normal 0.000000 0.000000 -1.000000
outer loop
vertex -0.060000 7.682327 -0.334533
vertex 0.060000 7.802327 -0.334533
vertex 0.060000 7.682327 -0.334533
endloop
endfacet
facet normal 0.000000 -0.329183 -0.944266
outer loop
vertex -0.060000 7.583269 -0.300000
vertex -0.060000 7.682327 -0.334533
vertex 0.060000 7.682327 -0.334533
endloop
endfacet
facet normal 0.000000 -0.329180 -0.944267
outer loop
vertex -0.060000 7.583269 -0.300000
vertex 0.060000 7.682327 -0.334533
vertex 0.060000 7.583269 -0.300000
endloop
endfacet
facet normal 0.000000 -0.489776 -0.871848
outer loop
vertex 0.060000 7.562327 -0.288237
vertex -0.060000 7.562327 -0.288237
vertex -0.060000 7.583269 -0.300000
endloop
endfacet
facet normal 0.000000 -0.489741 -0.871868
outer loop
vertex 0.060000 7.562327 -0.288237
vertex -0.060000 7.583269 -0.300000
vertex 0.060000 7.583269 -0.300000
endloop
endfacet
facet normal 0.000000 -0.707105 -0.707109
outer loop
vertex -0.060000 7.454091 -0.180000
vertex -0.060000 7.562327 -0.288237
vertex 0.060000 7.562327 -0.288237
endloop
endfacet
facet normal 0.000000 -0.707105 -0.707109
outer loop
vertex -0.060000 7.454091 -0.180000
vertex 0.060000 7.562327 -0.288237
vertex 0.060000 7.454091 -0.180000
endloop
endfacet
facet normal 0.000000 -0.871851 -0.489772
outer loop
vertex 0.060000 7.442327 -0.159059
vertex -0.060000 7.442327 -0.159059
vertex -0.060000 7.454091 -0.180000
endloop
endfacet
facet normal 0.000000 -0.871868 -0.489740
outer loop
vertex 0.060000 7.442327 -0.159059
vertex -0.060000 7.454091 -0.180000
vertex 0.060000 7.454091 -0.180000
endloop
endfacet
facet normal 0.000000 -0.944267 -0.329181
outer loop
vertex -0.060000 7.407794 -0.060000
vertex -0.060000 7.442327 -0.159059
vertex 0.060000 7.442327 -0.159059
endloop
endfacet
facet normal 0.000000 -0.944270 -0.329173
outer loop
vertex -0.060000 7.407794 -0.060000
vertex 0.060000 7.442327 -0.159059
vertex 0.060000 7.407794 -0.060000
endloop
endfacet
facet normal 0.000000 -1.000000 0.000000
outer loop
vertex 0.060000 7.407794 0.060000
vertex -0.060000 7.407794 0.060000
vertex -0.060000 7.407794 -0.060000
endloop
endfacet
facet normal 0.000000 -1.000000 0.000000
outer loop
vertex 0.060000 7.407794 0.060000
vertex -0.060000 7.407794 -0.060000
vertex 0.060000 7.407794 -0.060000
endloop
endfacet
facet normal 0.000000 -0.944267 0.329181
outer loop
vertex 0.060000 7.442327 0.159059
vertex -0.060000 7.442327 0.159059
vertex -0.060000 7.407794 0.060000
endloop
endfacet
facet normal 0.000000 -0.944270 0.329173
outer loop
vertex 0.060000 7.442327 0.159059
vertex -0.060000 7.407794 0.060000
vertex 0.060000 7.407794 0.060000
endloop
endfacet
facet normal 0.000000 -0.871851 0.489772
outer loop
vertex -0.060000 7.454091 0.180000
vertex -0.060000 7.442327 0.159059
vertex 0.060000 7.442327 0.159059
endloop
endfacet
facet normal 0.000000 -0.871868 0.489740
outer loop
vertex -0.060000 7.454091 0.180000
vertex 0.060000 7.442327 0.159059
vertex 0.060000 7.454091 0.180000
endloop
endfacet
facet normal 0.000000 -0.707105 0.707109
outer loop
vertex 0.060000 7.562327 0.288237
vertex -0.060000 7.562327 0.288237
vertex -0.060000 7.454091 0.180000
endloop
endfacet
facet normal 0.000000 -0.707105 0.707109
outer loop
vertex 0.060000 7.562327 0.288237
vertex -0.060000 7.454091 0.180000
vertex 0.060000 7.454091 0.180000
endloop
endfacet
facet normal 0.000000 -0.489776 0.871848
outer loop
vertex -0.060000 7.583269 0.300000
vertex -0.060000 7.562327 0.288237
vertex 0.060000 7.562327 0.288237
endloop
endfacet
facet normal 0.000000 -0.489741 0.871868
outer loop
vertex -0.060000 7.583269 0.300000
vertex 0.060000 7.562327 0.288237
vertex 0.060000 7.583269 0.300000
endloop
endfacet
facet normal 0.000000 -0.329183 0.944266
outer loop
vertex 0.060000 7.682327 0.334533
vertex -0.060000 7.682327 0.334533
vertex -0.060000 7.583269 0.300000
endloop
endfacet
facet normal 0.000000 -0.329180 0.944267
outer loop
vertex 0.060000 7.682327 0.334533
vertex -0.060000 7.583269 0.300000
vertex 0.060000 7.583269 0.300000
endloop
endfacet
facet normal 0.000000 0.000000 1.000000
outer loop
vertex 0.060000 7.802327 0.334533
vertex -0.060000 7.802327 0.334533
vertex -0.060000 7.682327 0.334533
endloop
endfacet
facet normal 0.000000 0.000000 1.000000
outer loop
vertex 0.060000 7.802327 0.334533
vertex -0.060000 7.682327 0.334533
vertex 0.060000 7.682327 0.334533
endloop
endfacet
facet normal 0.000000 0.329183 0.944266
outer loop
vertex -0.060000 7.901386 0.300000
vertex -0.060000 7.802327 0.334533
vertex 0.060000 7.802327 0.334533
endloop
endfacet
facet normal 0.000000 0.329180 0.944267
outer loop
vertex -0.060000 7.901386 0.300000
vertex 0.060000 7.802327 0.334533
vertex 0.060000 7.901386 0.300000
endloop
endfacet
facet normal 0.000000 0.489759 0.871858
outer loop
vertex 0.060000 7.922327 0.288237
vertex -0.060000 7.922327 0.288237
vertex -0.060000 7.901386 0.300000
endloop
endfacet
facet normal 0.000000 0.489741 0.871868
outer loop
vertex 0.060000 7.922327 0.288237
vertex -0.060000 7.901386 0.300000
vertex 0.060000 7.901386 0.300000
endloop
endfacet
facet normal 0.000000 0.707108 0.707105
outer loop
vertex -0.060000 8.030563 0.180000
vertex -0.060000 7.922327 0.288237
vertex 0.060000 7.922327 0.288237
endloop
endfacet
facet normal 0.000000 0.707108 0.707105
outer loop
vertex -0.060000 8.030563 0.180000
vertex 0.060000 7.922327 0.288237
vertex 0.060000 8.030563 0.180000
endloop
endfacet
facet normal 0.000000 0.871886 0.489709
outer loop
vertex 0.060000 8.042327 0.159059
vertex -0.060000 8.042327 0.159059
vertex -0.060000 8.030563 0.180000
endloop
endfacet
facet normal 0.000000 0.871833 0.489803
outer loop
vertex 0.060000 8.042327 0.159059
vertex -0.060000 8.030563 0.180000
vertex 0.060000 8.030563 0.180000
endloop
endfacet
facet normal 0.000000 0.944267 0.329181
outer loop
vertex -0.060000 8.076860 0.060000
vertex -0.060000 8.042327 0.159059
vertex 0.060000 8.042327 0.159059
endloop
endfacet
facet normal 0.000000 0.944264 0.329190
outer loop
vertex -0.060000 8.076860 0.060000
vertex 0.060000 8.042327 0.159059
vertex 0.060000 8.076860 0.060000
endloop
endfacet
facet normal 0.312680 0.896919 0.312679
outer loop
vertex 0.060000 8.042327 0.159059
vertex 0.159059 8.042327 0.060000
vertex 0.060000 8.076860 0.060000
endloop
endfacet
facet normal 0.329186 0.944265 0.000000
outer loop
vertex 0.060000 8.076860 0.060000
vertex 0.159059 8.042327 0.060000
vertex 0.159059 8.042327 -0.060000
endloop
endfacet
facet normal 0.329186 0.944265 0.000000
outer loop
vertex 0.060000 8.076860 0.060000
vertex 0.159059 8.042327 -0.060000
vertex 0.060000 8.076860 -0.060000
endloop
endfacet
facet normal 0.489759 0.871858 0.000000
outer loop
vertex 0.159059 8.042327 -0.060000
vertex 0.159059 8.042327 0.060000
vertex 0.180000 8.030563 0.060000
endloop
endfacet
facet normal 0.489759 0.871858 0.000000
outer loop
vertex 0.159059 8.042327 -0.060000
vertex 0.180000 8.030563 0.060000
vertex 0.180000 8.030563 -0.060000
endloop
endfacet
facet normal 0.707106 0.707107 0.000000
outer loop
vertex 0.180000 8.030563 0.060000
vertex 0.288236 7.922327 0.060000
vertex 0.288236 7.922327 -0.060000
endloop
endfacet
facet normal 0.707106 0.707107 0.000000
outer loop
vertex 0.180000 8.030563 0.060000
vertex 0.288236 7.922327 -0.060000
vertex 0.180000 8.030563 -0.060000
endloop
endfacet
facet normal 0.871860 0.489756 0.000000
outer loop
vertex 0.288236 7.922327 -0.060000
vertex 0.288236 7.922327 0.060000
vertex 0.300000 7.901386 0.060000
endloop
endfacet
facet normal 0.871860 0.489756 0.000000
outer loop
vertex 0.288236 7.922327 -0.060000
vertex 0.300000 7.901386 0.060000
vertex 0.300000 7.901386 -0.060000
endloop
endfacet
facet normal 0.808647 0.373813 0.454262
outer loop
vertex 0.232764 7.922327 0.180000
vertex 0.288236 7.802327 0.180000
vertex 0.300000 7.802327 0.159059
endloop
endfacet
facet normal 0.828982 0.395466 0.395468
outer loop
vertex 0.232764 7.922327 0.180000
vertex 0.300000 7.802327 0.159059
vertex 0.300000 7.901386 0.060000
endloop
endfacet
facet normal 0.808662 0.454253 0.373792
outer loop
vertex 0.288236 7.922327 0.060000
vertex 0.232764 7.922327 0.180000
vertex 0.300000 7.901386 0.060000
endloop
endfacet
facet normal 0.871859 0.000000 0.489757
outer loop
vertex 0.300000 7.802327 0.159059
vertex 0.288236 7.802327 0.180000
vertex 0.288236 7.682327 0.180000
endloop
endfacet
facet normal 0.871859 0.000000 0.489756
outer loop
vertex 0.300000 7.802327 0.159059
vertex 0.288236 7.682327 0.180000
vertex 0.300000 7.682327 0.159059
endloop
endfacet
facet normal 0.837008 -0.386924 0.386921
outer loop
vertex 0.288236 7.682327 0.180000
vertex 0.232764 7.562327 0.180000
vertex 0.288236 7.562327 0.060000
endloop
endfacet
facet normal 0.782996 -0.439837 0.439842
outer loop
vertex 0.288236 7.682327 0.180000
vertex 0.288236 7.562327 0.060000
vertex 0.300000 7.583269 0.060000
endloop
endfacet
facet normal 0.782996 -0.439840 0.439837
outer loop
vertex 0.300000 7.682327 0.159059
vertex 0.288236 7.682327 0.180000
vertex 0.300000 7.583269 0.060000
endloop
endfacet
facet normal 0.672112 -0.310697 0.672110
outer loop
vertex 0.232764 7.562327 0.180000
vertex 0.288236 7.682327 0.180000
vertex 0.180000 7.682327 0.288237
endloop
endfacet
facet normal 0.672112 -0.310697 0.672111
outer loop
vertex 0.232764 7.562327 0.180000
vertex 0.180000 7.682327 0.288237
vertex 0.180000 7.562327 0.232764
endloop
endfacet
facet normal 0.577347 -0.577344 0.577360
outer loop
vertex 0.232764 7.562327 0.180000
vertex 0.180000 7.562327 0.232764
vertex 0.180000 7.509563 0.180000
endloop
endfacet
facet normal 0.871860 -0.489756 0.000000
outer loop
vertex 0.300000 7.583269 0.060000
vertex 0.288236 7.562327 0.060000
vertex 0.288236 7.562327 -0.060000
endloop
endfacet
facet normal 0.871860 -0.489756 0.000000
outer loop
vertex 0.300000 7.583269 0.060000
vertex 0.288236 7.562327 -0.060000
vertex 0.300000 7.583269 -0.060000
endloop
endfacet
facet normal 0.707108 -0.707106 0.000000
outer loop
vertex 0.288236 7.562327 -0.060000
vertex 0.288236 7.562327 0.060000
vertex 0.180000 7.454091 0.060000
endloop
endfacet
facet normal 0.707108 -0.707106 0.000000
outer loop
vertex 0.288236 7.562327 -0.060000
vertex 0.180000 7.454091 0.060000
vertex 0.180000 7.454091 -0.060000
endloop
endfacet
facet normal 0.672113 -0.672111 -0.310694
outer loop
vertex 0.232764 7.562327 -0.180000
vertex 0.288236 7.562327 -0.060000
vertex 0.180000 7.454091 -0.060000
endloop
endfacet
facet normal 0.672115 -0.672111 -0.310690
outer loop
vertex 0.232764 7.562327 -0.180000
vertex 0.180000 7.454091 -0.060000
vertex 0.180000 7.509563 -0.180000
endloop
endfacet
facet normal 0.489759 -0.871858 0.000000
outer loop
vertex 0.180000 7.454091 0.060000
vertex 0.159059 7.442327 0.060000
vertex 0.159059 7.442327 -0.060000
endloop
endfacet
facet normal 0.489759 -0.871858 0.000000
outer loop
vertex 0.180000 7.454091 0.060000
vertex 0.159059 7.442327 -0.060000
vertex 0.180000 7.454091 -0.060000
endloop
endfacet
facet normal 0.808657 -0.373818 -0.454239
outer loop
vertex 0.232764 7.562327 -0.180000
vertex 0.288236 7.682327 -0.180000
vertex 0.300000 7.682327 -0.159059
endloop
endfacet
facet normal 0.828982 -0.395466 -0.395468
outer loop
vertex 0.232764 7.562327 -0.180000
vertex 0.300000 7.682327 -0.159059
vertex 0.300000 7.583269 -0.060000
endloop
endfacet
facet normal 0.808650 -0.454246 -0.373825
outer loop
vertex 0.288236 7.562327 -0.060000
vertex 0.232764 7.562327 -0.180000
vertex 0.300000 7.583269 -0.060000
endloop
endfacet
facet normal 0.871859 0.000000 -0.489757
outer loop
vertex 0.288236 7.682327 -0.180000
vertex 0.288236 7.802327 -0.180000
vertex 0.300000 7.802327 -0.159059
endloop
endfacet
facet normal 0.871859 0.000000 -0.489756
outer loop
vertex 0.288236 7.682327 -0.180000
vertex 0.300000 7.802327 -0.159059
vertex 0.300000 7.682327 -0.159059
endloop
endfacet
facet normal 0.707108 0.000000 -0.707106
outer loop
vertex 0.180000 7.802327 -0.288237
vertex 0.288236 7.802327 -0.180000
vertex 0.288236 7.682327 -0.180000
endloop
endfacet
facet normal 0.707108 0.000000 -0.707106
outer loop
vertex 0.180000 7.802327 -0.288237
vertex 0.288236 7.682327 -0.180000
vertex 0.180000 7.682327 -0.288237
endloop
endfacet
facet normal 0.489758 0.000000 -0.871858
outer loop
vertex 0.159059 7.682327 -0.300000
vertex 0.159059 7.802327 -0.300000
vertex 0.180000 7.802327 -0.288237
endloop
endfacet
facet normal 0.489754 0.000000 -0.871861
outer loop
vertex 0.159059 7.682327 -0.300000
vertex 0.180000 7.802327 -0.288237
vertex 0.180000 7.682327 -0.288237
endloop
endfacet
facet normal 0.944267 0.000000 -0.329182
outer loop
vertex 0.300000 7.802327 -0.159059
vertex 0.334533 7.802327 -0.060000
vertex 0.334533 7.682327 -0.060000
endloop
endfacet
facet normal 0.944267 0.000000 -0.329182
outer loop
vertex 0.300000 7.802327 -0.159059
vertex 0.334533 7.682327 -0.060000
vertex 0.300000 7.682327 -0.159059
endloop
endfacet
facet normal 0.896923 0.312676 -0.312670
outer loop
vertex 0.334533 7.802327 -0.060000
vertex 0.300000 7.802327 -0.159059
vertex 0.300000 7.901386 -0.060000
endloop
endfacet
facet normal 1.000000 0.000000 0.000000
outer loop
vertex 0.334533 7.802327 -0.060000
vertex 0.334533 7.802327 0.060000
vertex 0.334533 7.682327 0.060000
endloop
endfacet
facet normal 1.000000 0.000000 0.000000
outer loop
vertex 0.334533 7.802327 -0.060000
vertex 0.334533 7.682327 0.060000
vertex 0.334533 7.682327 -0.060000
endloop
endfacet
facet normal 0.672111 -0.310697 -0.672112
outer loop
vertex 0.180000 7.682327 -0.288237
vertex 0.288236 7.682327 -0.180000
vertex 0.232764 7.562327 -0.180000
endloop
endfacet
facet normal 0.672112 -0.310697 -0.672111
outer loop
vertex 0.180000 7.682327 -0.288237
vertex 0.232764 7.562327 -0.180000
vertex 0.180000 7.562327 -0.232764
endloop
endfacet
facet normal 0.896922 -0.312676 -0.312675
outer loop
vertex 0.300000 7.682327 -0.159059
vertex 0.334533 7.682327 -0.060000
vertex 0.300000 7.583269 -0.060000
endloop
endfacet
facet normal 0.944267 -0.329181 0.000000
outer loop
vertex 0.334533 7.682327 -0.060000
vertex 0.334533 7.682327 0.060000
vertex 0.300000 7.583269 0.060000
endloop
endfacet
facet normal 0.944267 -0.329181 0.000000
outer loop
vertex 0.334533 7.682327 -0.060000
vertex 0.300000 7.583269 0.060000
vertex 0.300000 7.583269 -0.060000
endloop
endfacet
facet normal 0.896922 -0.312676 0.312675
outer loop
vertex 0.334533 7.682327 0.060000
vertex 0.300000 7.682327 0.159059
vertex 0.300000 7.583269 0.060000
endloop
endfacet
facet normal 0.707108 0.000000 0.707106
outer loop
vertex 0.288236 7.682327 0.180000
vertex 0.288236 7.802327 0.180000
vertex 0.180000 7.802327 0.288237
endloop
endfacet
facet normal 0.707108 0.000000 0.707106
outer loop
vertex 0.288236 7.682327 0.180000
vertex 0.180000 7.802327 0.288237
vertex 0.180000 7.682327 0.288237
endloop
endfacet
facet normal 0.489758 0.000000 0.871858
outer loop
vertex 0.180000 7.802327 0.288237
vertex 0.159059 7.802327 0.300000
vertex 0.159059 7.682327 0.300000
endloop
endfacet
facet normal 0.489754 0.000000 0.871861
outer loop
vertex 0.180000 7.802327 0.288237
vertex 0.159059 7.682327 0.300000
vertex 0.180000 7.682327 0.288237
endloop
endfacet
facet normal 0.944267 0.000000 0.329182
outer loop
vertex 0.334533 7.682327 0.060000
vertex 0.334533 7.802327 0.060000
vertex 0.300000 7.802327 0.159059
endloop
endfacet
facet normal 0.944267 0.000000 0.329182
outer loop
vertex 0.334533 7.682327 0.060000
vertex 0.300000 7.802327 0.159059
vertex 0.300000 7.682327 0.159059
endloop
endfacet
facet normal 0.672115 0.310699 0.672107
outer loop
vertex 0.288236 7.802327 0.180000
vertex 0.232764 7.922327 0.180000
vertex 0.180000 7.922327 0.232764
endloop
endfacet
facet normal 0.672110 0.310696 0.672114
outer loop
vertex 0.288236 7.802327 0.180000
vertex 0.180000 7.922327 0.232764
vertex 0.180000 7.802327 0.288237
endloop
endfacet
facet normal 0.577347 0.577344 0.577360
outer loop
vertex 0.180000 7.922327 0.232764
vertex 0.232764 7.922327 0.180000
vertex 0.180000 7.975091 0.180000
endloop
endfacet
facet normal 0.837007 0.386923 -0.386924
outer loop
vertex 0.288236 7.802327 -0.180000
vertex 0.232764 7.922327 -0.180000
vertex 0.288236 7.922327 -0.060000
endloop
endfacet
facet normal 0.782997 0.439838 -0.439838
outer loop
vertex 0.288236 7.802327 -0.180000
vertex 0.288236 7.922327 -0.060000
vertex 0.300000 7.901386 -0.060000
endloop
endfacet
facet normal 0.782996 0.439840 -0.439837
outer loop
vertex 0.300000 7.802327 -0.159059
vertex 0.288236 7.802327 -0.180000
vertex 0.300000 7.901386 -0.060000
endloop
endfacet
facet normal 0.944267 0.329181 0.000000
outer loop
vertex 0.300000 7.901386 0.060000
vertex 0.334533 7.802327 0.060000
vertex 0.334533 7.802327 -0.060000
endloop
endfacet
facet normal 0.944267 0.329181 0.000000
outer loop
vertex 0.300000 7.901386 0.060000
vertex 0.334533 7.802327 -0.060000
vertex 0.300000 7.901386 -0.060000
endloop
endfacet
facet normal 0.672113 0.672110 0.310695
outer loop
vertex 0.180000 7.975091 0.180000
vertex 0.232764 7.922327 0.180000
vertex 0.288236 7.922327 0.060000
endloop
endfacet
facet normal 0.672111 0.672112 0.310695
outer loop
vertex 0.180000 7.975091 0.180000
vertex 0.288236 7.922327 0.060000
vertex 0.180000 8.030563 0.060000
endloop
endfacet
facet normal 0.672111 0.672112 -0.310698
outer loop
vertex 0.180000 8.030563 -0.060000
vertex 0.288236 7.922327 -0.060000
vertex 0.232764 7.922327 -0.180000
endloop
endfacet
facet normal 0.672115 0.672111 -0.310690
outer loop
vertex 0.180000 8.030563 -0.060000
vertex 0.232764 7.922327 -0.180000
vertex 0.180000 7.975091 -0.180000
endloop
endfacet
facet normal 0.577347 0.577344 -0.577360
outer loop
vertex 0.232764 7.922327 -0.180000
vertex 0.180000 7.922327 -0.232764
vertex 0.180000 7.975091 -0.180000
endloop
endfacet
facet normal 0.312680 0.312680 0.896918
outer loop
vertex 0.060000 7.802327 0.334533
vertex 0.159059 7.802327 0.300000
vertex 0.060000 7.901386 0.300000
endloop
endfacet
facet normal -0.329179 0.000000 0.944267
outer loop
vertex -0.060000 7.802327 0.334533
vertex -0.159059 7.802327 0.300000
vertex -0.159059 7.682327 0.300000
endloop
endfacet
facet normal -0.329180 0.000000 0.944267
outer loop
vertex -0.060000 7.802327 0.334533
vertex -0.159059 7.682327 0.300000
vertex -0.060000 7.682327 0.334533
endloop
endfacet
facet normal 0.329179 0.000000 0.944267
outer loop
vertex 0.159059 7.682327 0.300000
vertex 0.159059 7.802327 0.300000
vertex 0.060000 7.802327 0.334533
endloop
endfacet
facet normal 0.329180 0.000000 0.944267
outer loop
vertex 0.159059 7.682327 0.300000
vertex 0.060000 7.802327 0.334533
vertex 0.060000 7.682327 0.334533
endloop
endfacet
facet normal -0.312677 -0.312677 0.896921
outer loop
vertex -0.060000 7.682327 0.334533
vertex -0.159059 7.682327 0.300000
vertex -0.060000 7.583269 0.300000
endloop
endfacet
facet normal 0.312677 -0.312677 0.896921
outer loop
vertex 0.159059 7.682327 0.300000
vertex 0.060000 7.682327 0.334533
vertex 0.060000 7.583269 0.300000
endloop
endfacet
facet normal -0.310696 -0.672106 0.672117
outer loop
vertex -0.060000 7.562327 0.288237
vertex -0.180000 7.562327 0.232764
vertex -0.180000 7.509563 0.180000
endloop
endfacet
facet normal -0.310697 -0.672113 0.672110
outer loop
vertex -0.060000 7.562327 0.288237
vertex -0.180000 7.509563 0.180000
vertex -0.060000 7.454091 0.180000
endloop
endfacet
facet normal -0.577347 -0.577344 0.577360
outer loop
vertex -0.180000 7.562327 0.232764
vertex -0.232764 7.562327 0.180000
vertex -0.180000 7.509563 0.180000
endloop
endfacet
facet normal -0.672112 -0.672109 0.310701
outer loop
vertex -0.180000 7.509563 0.180000
vertex -0.232764 7.562327 0.180000
vertex -0.288236 7.562327 0.060000
endloop
endfacet
facet normal -0.672114 -0.672112 0.310689
outer loop
vertex -0.180000 7.509563 0.180000
vertex -0.288236 7.562327 0.060000
vertex -0.180000 7.454091 0.060000
endloop
endfacet
facet normal -0.707108 -0.707106 0.000000
outer loop
vertex -0.180000 7.454091 0.060000
vertex -0.288236 7.562327 0.060000
vertex -0.288236 7.562327 -0.060000
endloop
endfacet
facet normal -0.707108 -0.707106 0.000000
outer loop
vertex -0.180000 7.454091 0.060000
vertex -0.288236 7.562327 -0.060000
vertex -0.180000 7.454091 -0.060000
endloop
endfacet
facet normal -0.672113 -0.672111 -0.310694
outer loop
vertex -0.180000 7.454091 -0.060000
vertex -0.288236 7.562327 -0.060000
vertex -0.232764 7.562327 -0.180000
endloop
endfacet
facet normal -0.672115 -0.672111 -0.310690
outer loop
vertex -0.180000 7.454091 -0.060000
vertex -0.232764 7.562327 -0.180000
vertex -0.180000 7.509563 -0.180000
endloop
endfacet
facet normal -0.577347 -0.577344 -0.577360
outer loop
vertex -0.232764 7.562327 -0.180000
vertex -0.180000 7.562327 -0.232764
vertex -0.180000 7.509563 -0.180000
endloop
endfacet
facet normal -0.672112 -0.310697 -0.672110
outer loop
vertex -0.232764 7.562327 -0.180000
vertex -0.288236 7.682327 -0.180000
vertex -0.180000 7.682327 -0.288237
endloop
endfacet
facet normal -0.672112 -0.310697 -0.672111
outer loop
vertex -0.232764 7.562327 -0.180000
vertex -0.180000 7.682327 -0.288237
vertex -0.180000 7.562327 -0.232764
endloop
endfacet
facet normal -0.707108 0.000000 -0.707106
outer loop
vertex -0.288236 7.682327 -0.180000
vertex -0.288236 7.802327 -0.180000
vertex -0.180000 7.802327 -0.288237
endloop
endfacet
facet normal -0.707108 0.000000 -0.707106
outer loop
vertex -0.288236 7.682327 -0.180000
vertex -0.180000 7.802327 -0.288237
vertex -0.180000 7.682327 -0.288237
endloop
endfacet
facet normal -0.672115 0.310699 -0.672107
outer loop
vertex -0.288236 7.802327 -0.180000
vertex -0.232764 7.922327 -0.180000
vertex -0.180000 7.922327 -0.232764
endloop
endfacet
facet normal -0.672110 0.310696 -0.672114
outer loop
vertex -0.288236 7.802327 -0.180000
vertex -0.180000 7.922327 -0.232764
vertex -0.180000 7.802327 -0.288237
endloop
endfacet
facet normal -0.577347 0.577344 -0.577360
outer loop
vertex -0.180000 7.922327 -0.232764
vertex -0.232764 7.922327 -0.180000
vertex -0.180000 7.975091 -0.180000
endloop
endfacet
facet normal -0.489758 0.000000 -0.871858
outer loop
vertex -0.180000 7.802327 -0.288237
vertex -0.159059 7.802327 -0.300000
vertex -0.159059 7.682327 -0.300000
endloop
endfacet
facet normal -0.489754 0.000000 -0.871861
outer loop
vertex -0.180000 7.802327 -0.288237
vertex -0.159059 7.682327 -0.300000
vertex -0.180000 7.682327 -0.288237
endloop
endfacet
facet normal -0.489759 -0.871858 0.000000
outer loop
vertex -0.159059 7.442327 -0.060000
vertex -0.159059 7.442327 0.060000
vertex -0.180000 7.454091 0.060000
endloop
endfacet
facet normal -0.489759 -0.871858 0.000000
outer loop
vertex -0.159059 7.442327 -0.060000
vertex -0.180000 7.454091 0.060000
vertex -0.180000 7.454091 -0.060000
endloop
endfacet
facet normal 0.310697 -0.672110 0.672113
outer loop
vertex 0.180000 7.562327 0.232764
vertex 0.060000 7.562327 0.288237
vertex 0.060000 7.454091 0.180000
endloop
endfacet
facet normal 0.310697 -0.672112 0.672111
outer loop
vertex 0.180000 7.562327 0.232764
vertex 0.060000 7.454091 0.180000
vertex 0.180000 7.509563 0.180000
endloop
endfacet
facet normal -0.439833 -0.782981 0.439873
outer loop
vertex -0.180000 7.454091 0.060000
vertex -0.159059 7.442327 0.060000
vertex -0.060000 7.442327 0.159059
endloop
endfacet
facet normal -0.439845 -0.783002 0.439823
outer loop
vertex -0.180000 7.454091 0.060000
vertex -0.060000 7.442327 0.159059
vertex -0.060000 7.454091 0.180000
endloop
endfacet
facet normal -0.386923 -0.837006 0.386927
outer loop
vertex -0.180000 7.509563 0.180000
vertex -0.180000 7.454091 0.060000
vertex -0.060000 7.454091 0.180000
endloop
endfacet
facet normal 0.439833 -0.782981 0.439873
outer loop
vertex 0.060000 7.454091 0.180000
vertex 0.060000 7.442327 0.159059
vertex 0.159059 7.442327 0.060000
endloop
endfacet
facet normal 0.439847 -0.783005 0.439815
outer loop
vertex 0.060000 7.454091 0.180000
vertex 0.159059 7.442327 0.060000
vertex 0.180000 7.454091 0.060000
endloop
endfacet
facet normal 0.386923 -0.837006 0.386927
outer loop
vertex 0.180000 7.509563 0.180000
vertex 0.060000 7.454091 0.180000
vertex 0.180000 7.454091 0.060000
endloop
endfacet
facet normal 0.312674 -0.896924 0.312670
outer loop
vertex 0.159059 7.442327 0.060000
vertex 0.060000 7.442327 0.159059
vertex 0.060000 7.407794 0.060000
endloop
endfacet
facet normal -0.329178 -0.944268 0.000000
outer loop
vertex -0.060000 7.407794 0.060000
vertex -0.159059 7.442327 0.060000
vertex -0.159059 7.442327 -0.060000
endloop
endfacet
facet normal -0.329178 -0.944268 0.000000
outer loop
vertex -0.060000 7.407794 0.060000
vertex -0.159059 7.442327 -0.060000
vertex -0.060000 7.407794 -0.060000
endloop
endfacet
facet normal 0.329178 -0.944268 0.000000
outer loop
vertex 0.159059 7.442327 -0.060000
vertex 0.159059 7.442327 0.060000
vertex 0.060000 7.407794 0.060000
endloop
endfacet
facet normal 0.329178 -0.944268 0.000000
outer loop
vertex 0.159059 7.442327 -0.060000
vertex 0.060000 7.407794 0.060000
vertex 0.060000 7.407794 -0.060000
endloop
endfacet
facet normal -0.312674 -0.896924 -0.312670
outer loop
vertex -0.159059 7.442327 -0.060000
vertex -0.060000 7.442327 -0.159059
vertex -0.060000 7.407794 -0.060000
endloop
endfacet
facet normal 0.312674 -0.896924 -0.312670
outer loop
vertex 0.060000 7.442327 -0.159059
vertex 0.159059 7.442327 -0.060000
vertex 0.060000 7.407794 -0.060000
endloop
endfacet
facet normal -0.454254 -0.808654 -0.373808
outer loop
vertex -0.159059 7.442327 -0.060000
vertex -0.180000 7.454091 -0.060000
vertex -0.180000 7.509563 -0.180000
endloop
endfacet
facet normal -0.384726 -0.832254 -0.399172
outer loop
vertex -0.159059 7.442327 -0.060000
vertex -0.180000 7.509563 -0.180000
vertex -0.060000 7.454091 -0.180000
endloop
endfacet
facet normal -0.439833 -0.782981 -0.439873
outer loop
vertex -0.060000 7.442327 -0.159059
vertex -0.159059 7.442327 -0.060000
vertex -0.060000 7.454091 -0.180000
endloop
endfacet
facet normal 0.439833 -0.782981 -0.439873
outer loop
vertex 0.159059 7.442327 -0.060000
vertex 0.060000 7.442327 -0.159059
vertex 0.060000 7.454091 -0.180000
endloop
endfacet
facet normal 0.384726 -0.832254 -0.399172
outer loop
vertex 0.159059 7.442327 -0.060000
vertex 0.060000 7.454091 -0.180000
vertex 0.180000 7.509563 -0.180000
endloop
endfacet
facet normal 0.454254 -0.808654 -0.373808
outer loop
vertex 0.180000 7.454091 -0.060000
vertex 0.159059 7.442327 -0.060000
vertex 0.180000 7.509563 -0.180000
endloop
endfacet
facet normal 0.310697 -0.672110 -0.672113
outer loop
vertex 0.060000 7.454091 -0.180000
vertex 0.060000 7.562327 -0.288237
vertex 0.180000 7.562327 -0.232764
endloop
endfacet
facet normal 0.310697 -0.672112 -0.672111
outer loop
vertex 0.060000 7.454091 -0.180000
vertex 0.180000 7.562327 -0.232764
vertex 0.180000 7.509563 -0.180000
endloop
endfacet
facet normal -0.454252 -0.373817 -0.808651
outer loop
vertex -0.180000 7.562327 -0.232764
vertex -0.180000 7.682327 -0.288237
vertex -0.159059 7.682327 -0.300000
endloop
endfacet
facet normal -0.395464 -0.395464 -0.828985
outer loop
vertex -0.180000 7.562327 -0.232764
vertex -0.159059 7.682327 -0.300000
vertex -0.060000 7.583269 -0.300000
endloop
endfacet
facet normal -0.373829 -0.454267 -0.808637
outer loop
vertex -0.060000 7.562327 -0.288237
vertex -0.180000 7.562327 -0.232764
vertex -0.060000 7.583269 -0.300000
endloop
endfacet
facet normal 0.439840 -0.439842 -0.782994
outer loop
vertex 0.060000 7.583269 -0.300000
vertex 0.159059 7.682327 -0.300000
vertex 0.180000 7.682327 -0.288237
endloop
endfacet
facet normal 0.399170 -0.384724 -0.832257
outer loop
vertex 0.060000 7.583269 -0.300000
vertex 0.180000 7.682327 -0.288237
vertex 0.180000 7.562327 -0.232764
endloop
endfacet
facet normal 0.373829 -0.454267 -0.808637
outer loop
vertex 0.060000 7.562327 -0.288237
vertex 0.060000 7.583269 -0.300000
vertex 0.180000 7.562327 -0.232764
endloop
endfacet
facet normal -0.312677 -0.312677 -0.896921
outer loop
vertex -0.159059 7.682327 -0.300000
vertex -0.060000 7.682327 -0.334533
vertex -0.060000 7.583269 -0.300000
endloop
endfacet
facet normal 0.312677 -0.312677 -0.896921
outer loop
vertex 0.060000 7.682327 -0.334533
vertex 0.159059 7.682327 -0.300000
vertex 0.060000 7.583269 -0.300000
endloop
endfacet
facet normal -0.329179 0.000000 -0.944267
outer loop
vertex -0.159059 7.682327 -0.300000
vertex -0.159059 7.802327 -0.300000
vertex -0.060000 7.802327 -0.334533
endloop
endfacet
facet normal -0.329180 0.000000 -0.944267
outer loop
vertex -0.159059 7.682327 -0.300000
vertex -0.060000 7.802327 -0.334533
vertex -0.060000 7.682327 -0.334533
endloop
endfacet
facet normal 0.329179 0.000000 -0.944267
outer loop
vertex 0.060000 7.802327 -0.334533
vertex 0.159059 7.802327 -0.300000
vertex 0.159059 7.682327 -0.300000
endloop
endfacet
facet normal 0.329180 0.000000 -0.944267
outer loop
vertex 0.060000 7.802327 -0.334533
vertex 0.159059 7.682327 -0.300000
vertex 0.060000 7.682327 -0.334533
endloop
endfacet
facet normal 0.312680 0.312680 -0.896918
outer loop
vertex 0.159059 7.802327 -0.300000
vertex 0.060000 7.802327 -0.334533
vertex 0.060000 7.901386 -0.300000
endloop
endfacet
facet normal -0.386923 0.386923 -0.837007
outer loop
vertex -0.180000 7.802327 -0.288237
vertex -0.180000 7.922327 -0.232764
vertex -0.060000 7.922327 -0.288237
endloop
endfacet
facet normal -0.439827 0.439828 -0.783009
outer loop
vertex -0.180000 7.802327 -0.288237
vertex -0.060000 7.922327 -0.288237
vertex -0.060000 7.901386 -0.300000
endloop
endfacet
facet normal -0.439844 0.439846 -0.782990
outer loop
vertex -0.159059 7.802327 -0.300000
vertex -0.180000 7.802327 -0.288237
vertex -0.060000 7.901386 -0.300000
endloop
endfacet
facet normal 0.373818 0.454252 -0.808650
outer loop
vertex 0.060000 7.901386 -0.300000
vertex 0.060000 7.922327 -0.288237
vertex 0.180000 7.922327 -0.232764
endloop
endfacet
facet normal 0.399170 0.384724 -0.832257
outer loop
vertex 0.060000 7.901386 -0.300000
vertex 0.180000 7.922327 -0.232764
vertex 0.180000 7.802327 -0.288237
endloop
endfacet
facet normal 0.439844 0.439846 -0.782990
outer loop
vertex 0.159059 7.802327 -0.300000
vertex 0.060000 7.901386 -0.300000
vertex 0.180000 7.802327 -0.288237
endloop
endfacet
facet normal -0.310696 0.672106 -0.672117
outer loop
vertex -0.060000 7.922327 -0.288237
vertex -0.180000 7.922327 -0.232764
vertex -0.180000 7.975091 -0.180000
endloop
endfacet
facet normal -0.310695 0.672113 -0.672110
outer loop
vertex -0.060000 7.922327 -0.288237
vertex -0.180000 7.975091 -0.180000
vertex -0.060000 8.030563 -0.180000
endloop
endfacet
facet normal 0.310697 0.672113 -0.672110
outer loop
vertex 0.180000 7.922327 -0.232764
vertex 0.060000 7.922327 -0.288237
vertex 0.060000 8.030563 -0.180000
endloop
endfacet
facet normal 0.310692 0.672107 -0.672118
outer loop
vertex 0.180000 7.922327 -0.232764
vertex 0.060000 8.030563 -0.180000
vertex 0.180000 7.975091 -0.180000
endloop
endfacet
facet normal 0.312680 0.896919 -0.312679
outer loop
vertex 0.159059 8.042327 -0.060000
vertex 0.060000 8.042327 -0.159059
vertex 0.060000 8.076860 -0.060000
endloop
endfacet
facet normal 0.000000 1.000000 0.000000
outer loop
vertex -0.060000 8.076860 -0.060000
vertex -0.060000 8.076860 0.060000
vertex 0.060000 8.076860 0.060000
endloop
endfacet
facet normal 0.000000 1.000000 0.000000
outer loop
vertex -0.060000 8.076860 -0.060000
vertex 0.060000 8.076860 0.060000
vertex 0.060000 8.076860 -0.060000
endloop
endfacet
facet normal -0.454251 0.808648 0.373824
outer loop
vertex -0.159059 8.042327 0.060000
vertex -0.180000 8.030563 0.060000
vertex -0.180000 7.975091 0.180000
endloop
endfacet
facet normal -0.384723 0.832256 0.399172
outer loop
vertex -0.159059 8.042327 0.060000
vertex -0.180000 7.975091 0.180000
vertex -0.060000 8.030563 0.180000
endloop
endfacet
facet normal -0.439851 0.783012 0.439800
outer loop
vertex -0.060000 8.042327 0.159059
vertex -0.159059 8.042327 0.060000
vertex -0.060000 8.030563 0.180000
endloop
endfacet
facet normal -0.871859 0.000000 -0.489757
outer loop
vertex -0.300000 7.802327 -0.159059
vertex -0.288236 7.802327 -0.180000
vertex -0.288236 7.682327 -0.180000
endloop
endfacet
facet normal -0.871859 0.000000 -0.489756
outer loop
vertex -0.300000 7.802327 -0.159059
vertex -0.288236 7.682327 -0.180000
vertex -0.300000 7.682327 -0.159059
endloop
endfacet
facet normal -0.871860 -0.489756 0.000000
outer loop
vertex -0.288236 7.562327 -0.060000
vertex -0.288236 7.562327 0.060000
vertex -0.300000 7.583269 0.060000
endloop
endfacet
facet normal -0.871860 -0.489756 0.000000
outer loop
vertex -0.288236 7.562327 -0.060000
vertex -0.300000 7.583269 0.060000
vertex -0.300000 7.583269 -0.060000
endloop
endfacet
facet normal -1.000000 0.000000 0.000000
outer loop
vertex -0.334533 7.682327 0.060000
vertex -0.334533 7.802327 0.060000
vertex -0.334533 7.802327 -0.060000
endloop
endfacet
facet normal -1.000000 0.000000 0.000000
outer loop
vertex -0.334533 7.682327 0.060000
vertex -0.334533 7.802327 -0.060000
vertex -0.334533 7.682327 -0.060000
endloop
endfacet
facet normal -0.489758 0.000000 0.871858
outer loop
vertex -0.159059 7.682327 0.300000
vertex -0.159059 7.802327 0.300000
vertex -0.180000 7.802327 0.288237
endloop
endfacet
facet normal -0.489754 0.000000 0.871861
outer loop
vertex -0.159059 7.682327 0.300000
vertex -0.180000 7.802327 0.288237
vertex -0.180000 7.682327 0.288237
endloop
endfacet
facet normal -0.837007 0.386923 0.386924
outer loop
vertex -0.288236 7.802327 0.180000
vertex -0.232764 7.922327 0.180000
vertex -0.288236 7.922327 0.060000
endloop
endfacet
facet normal -0.782997 0.439838 0.439838
outer loop
vertex -0.288236 7.802327 0.180000
vertex -0.288236 7.922327 0.060000
vertex -0.300000 7.901386 0.060000
endloop
endfacet
facet normal -0.782996 0.439840 0.439837
outer loop
vertex -0.300000 7.802327 0.159059
vertex -0.288236 7.802327 0.180000
vertex -0.300000 7.901386 0.060000
endloop
endfacet
facet normal -0.454252 0.373817 0.808651
outer loop
vertex -0.180000 7.922327 0.232764
vertex -0.180000 7.802327 0.288237
vertex -0.159059 7.802327 0.300000
endloop
endfacet
facet normal -0.395461 0.395462 0.828988
outer loop
vertex -0.180000 7.922327 0.232764
vertex -0.159059 7.802327 0.300000
vertex -0.060000 7.901386 0.300000
endloop
endfacet
facet normal -0.373818 0.454252 0.808650
outer loop
vertex -0.060000 7.922327 0.288237
vertex -0.180000 7.922327 0.232764
vertex -0.060000 7.901386 0.300000
endloop
endfacet
facet normal -0.672111 -0.310697 0.672112
outer loop
vertex -0.180000 7.682327 0.288237
vertex -0.288236 7.682327 0.180000
vertex -0.232764 7.562327 0.180000
endloop
endfacet
facet normal -0.672112 -0.310697 0.672111
outer loop
vertex -0.180000 7.682327 0.288237
vertex -0.232764 7.562327 0.180000
vertex -0.180000 7.562327 0.232764
endloop
endfacet
facet normal -0.672113 0.672110 0.310695
outer loop
vertex -0.288236 7.922327 0.060000
vertex -0.232764 7.922327 0.180000
vertex -0.180000 7.975091 0.180000
endloop
endfacet
facet normal -0.672111 0.672112 0.310695
outer loop
vertex -0.288236 7.922327 0.060000
vertex -0.180000 7.975091 0.180000
vertex -0.180000 8.030563 0.060000
endloop
endfacet
facet normal -0.896923 0.312676 0.312670
outer loop
vertex -0.334533 7.802327 0.060000
vertex -0.300000 7.802327 0.159059
vertex -0.300000 7.901386 0.060000
endloop
endfacet
facet normal -0.808657 -0.373818 0.454239
outer loop
vertex -0.232764 7.562327 0.180000
vertex -0.288236 7.682327 0.180000
vertex -0.300000 7.682327 0.159059
endloop
endfacet
facet normal -0.828982 -0.395466 0.395468
outer loop
vertex -0.232764 7.562327 0.180000
vertex -0.300000 7.682327 0.159059
vertex -0.300000 7.583269 0.060000
endloop
endfacet
facet normal -0.808650 -0.454246 0.373825
outer loop
vertex -0.288236 7.562327 0.060000
vertex -0.232764 7.562327 0.180000
vertex -0.300000 7.583269 0.060000
endloop
endfacet
facet normal -0.672110 0.672111 -0.310701
outer loop
vertex -0.232764 7.922327 -0.180000
vertex -0.288236 7.922327 -0.060000
vertex -0.180000 8.030563 -0.060000
endloop
endfacet
facet normal -0.672115 0.672111 -0.310690
outer loop
vertex -0.232764 7.922327 -0.180000
vertex -0.180000 8.030563 -0.060000
vertex -0.180000 7.975091 -0.180000
endloop
endfacet
facet normal -0.808647 0.373813 -0.454262
outer loop
vertex -0.232764 7.922327 -0.180000
vertex -0.288236 7.802327 -0.180000
vertex -0.300000 7.802327 -0.159059
endloop
endfacet
facet normal -0.828982 0.395466 -0.395468
outer loop
vertex -0.232764 7.922327 -0.180000
vertex -0.300000 7.802327 -0.159059
vertex -0.300000 7.901386 -0.060000
endloop
endfacet
facet normal -0.808662 0.454253 -0.373792
outer loop
vertex -0.288236 7.922327 -0.060000
vertex -0.232764 7.922327 -0.180000
vertex -0.300000 7.901386 -0.060000
endloop
endfacet
facet normal -0.837008 -0.386924 -0.386921
outer loop
vertex -0.288236 7.682327 -0.180000
vertex -0.232764 7.562327 -0.180000
vertex -0.288236 7.562327 -0.060000
endloop
endfacet
facet normal -0.782996 -0.439837 -0.439842
outer loop
vertex -0.288236 7.682327 -0.180000
vertex -0.288236 7.562327 -0.060000
vertex -0.300000 7.583269 -0.060000
endloop
endfacet
facet normal -0.782996 -0.439840 -0.439837
outer loop
vertex -0.300000 7.682327 -0.159059
vertex -0.288236 7.682327 -0.180000
vertex -0.300000 7.583269 -0.060000
endloop
endfacet
facet normal -0.310696 0.672106 0.672117
outer loop
vertex -0.180000 7.975091 0.180000
vertex -0.180000 7.922327 0.232764
vertex -0.060000 7.922327 0.288237
endloop
endfacet
facet normal -0.310695 0.672113 0.672110
outer loop
vertex -0.180000 7.975091 0.180000
vertex -0.060000 7.922327 0.288237
vertex -0.060000 8.030563 0.180000
endloop
endfacet
facet normal -0.312680 0.312680 0.896918
outer loop
vertex -0.159059 7.802327 0.300000
vertex -0.060000 7.802327 0.334533
vertex -0.060000 7.901386 0.300000
endloop
endfacet
facet normal -0.386923 -0.386923 0.837007
outer loop
vertex -0.180000 7.682327 0.288237
vertex -0.180000 7.562327 0.232764
vertex -0.060000 7.562327 0.288237
endloop
endfacet
facet normal -0.439840 -0.439841 0.782995
outer loop
vertex -0.180000 7.682327 0.288237
vertex -0.060000 7.562327 0.288237
vertex -0.060000 7.583269 0.300000
endloop
endfacet
facet normal -0.439844 -0.439846 0.782990
outer loop
vertex -0.159059 7.682327 0.300000
vertex -0.180000 7.682327 0.288237
vertex -0.060000 7.583269 0.300000
endloop
endfacet
facet normal -0.312680 0.896919 0.312679
outer loop
vertex -0.159059 8.042327 0.060000
vertex -0.060000 8.042327 0.159059
vertex -0.060000 8.076860 0.060000
endloop
endfacet
facet normal -0.312674 -0.896924 0.312670
outer loop
vertex -0.060000 7.442327 0.159059
vertex -0.159059 7.442327 0.060000
vertex -0.060000 7.407794 0.060000
endloop
endfacet
facet normal -0.439851 0.783012 -0.439800
outer loop
vertex -0.180000 8.030563 -0.060000
vertex -0.159059 8.042327 -0.060000
vertex -0.060000 8.042327 -0.159059
endloop
endfacet
facet normal -0.439831 0.782976 -0.439883
outer loop
vertex -0.180000 8.030563 -0.060000
vertex -0.060000 8.042327 -0.159059
vertex -0.060000 8.030563 -0.180000
endloop
endfacet
facet normal -0.386922 0.837011 -0.386916
outer loop
vertex -0.180000 7.975091 -0.180000
vertex -0.180000 8.030563 -0.060000
vertex -0.060000 8.030563 -0.180000
endloop
endfacet
facet normal -0.312680 0.312680 -0.896918
outer loop
vertex -0.060000 7.802327 -0.334533
vertex -0.159059 7.802327 -0.300000
vertex -0.060000 7.901386 -0.300000
endloop
endfacet
facet normal -0.310696 -0.672106 -0.672117
outer loop
vertex -0.180000 7.509563 -0.180000
vertex -0.180000 7.562327 -0.232764
vertex -0.060000 7.562327 -0.288237
endloop
endfacet
facet normal -0.310698 -0.672113 -0.672110
outer loop
vertex -0.180000 7.509563 -0.180000
vertex -0.060000 7.562327 -0.288237
vertex -0.060000 7.454091 -0.180000
endloop
endfacet
facet normal 0.310697 0.672113 0.672110
outer loop
vertex 0.060000 8.030563 0.180000
vertex 0.060000 7.922327 0.288237
vertex 0.180000 7.922327 0.232764
endloop
endfacet
facet normal 0.310692 0.672107 0.672118
outer loop
vertex 0.060000 8.030563 0.180000
vertex 0.180000 7.922327 0.232764
vertex 0.180000 7.975091 0.180000
endloop
endfacet
facet normal 0.439828 0.439830 0.783007
outer loop
vertex 0.060000 7.922327 0.288237
vertex 0.060000 7.901386 0.300000
vertex 0.159059 7.802327 0.300000
endloop
endfacet
facet normal 0.439834 0.439834 0.783002
outer loop
vertex 0.060000 7.922327 0.288237
vertex 0.159059 7.802327 0.300000
vertex 0.180000 7.802327 0.288237
endloop
endfacet
facet normal 0.386923 0.386923 0.837007
outer loop
vertex 0.180000 7.922327 0.232764
vertex 0.060000 7.922327 0.288237
vertex 0.180000 7.802327 0.288237
endloop
endfacet
facet normal 0.439828 -0.439830 0.783007
outer loop
vertex 0.159059 7.682327 0.300000
vertex 0.060000 7.583269 0.300000
vertex 0.060000 7.562327 0.288237
endloop
endfacet
facet normal 0.384728 -0.399175 0.832252
outer loop
vertex 0.159059 7.682327 0.300000
vertex 0.060000 7.562327 0.288237
vertex 0.180000 7.562327 0.232764
endloop
endfacet
facet normal 0.454252 -0.373817 0.808651
outer loop
vertex 0.180000 7.682327 0.288237
vertex 0.159059 7.682327 0.300000
vertex 0.180000 7.562327 0.232764
endloop
endfacet
facet normal 0.373823 0.808674 0.454205
outer loop
vertex 0.060000 8.042327 0.159059
vertex 0.060000 8.030563 0.180000
vertex 0.180000 7.975091 0.180000
endloop
endfacet
facet normal 0.399169 0.832251 0.384736
outer loop
vertex 0.060000 8.042327 0.159059
vertex 0.180000 7.975091 0.180000
vertex 0.180000 8.030563 0.060000
endloop
endfacet
facet normal 0.439851 0.783012 0.439800
outer loop
vertex 0.159059 8.042327 0.060000
vertex 0.060000 8.042327 0.159059
vertex 0.180000 8.030563 0.060000
endloop
endfacet
facet normal 0.896923 0.312676 0.312670
outer loop
vertex 0.300000 7.802327 0.159059
vertex 0.334533 7.802327 0.060000
vertex 0.300000 7.901386 0.060000
endloop
endfacet
facet normal 0.672112 -0.672109 0.310701
outer loop
vertex 0.288236 7.562327 0.060000
vertex 0.232764 7.562327 0.180000
vertex 0.180000 7.509563 0.180000
endloop
endfacet
facet normal 0.672114 -0.672112 0.310689
outer loop
vertex 0.288236 7.562327 0.060000
vertex 0.180000 7.509563 0.180000
vertex 0.180000 7.454091 0.060000
endloop
endfacet
facet normal 0.439853 0.783015 -0.439791
outer loop
vertex 0.060000 8.042327 -0.159059
vertex 0.159059 8.042327 -0.060000
vertex 0.180000 8.030563 -0.060000
endloop
endfacet
facet normal 0.399169 0.832251 -0.384736
outer loop
vertex 0.060000 8.042327 -0.159059
vertex 0.180000 8.030563 -0.060000
vertex 0.180000 7.975091 -0.180000
endloop
endfacet
facet normal 0.373823 0.808674 -0.454205
outer loop
vertex 0.060000 8.030563 -0.180000
vertex 0.060000 8.042327 -0.159059
vertex 0.180000 7.975091 -0.180000
endloop
endfacet
facet normal 0.672115 0.310699 -0.672107
outer loop
vertex 0.180000 7.922327 -0.232764
vertex 0.232764 7.922327 -0.180000
vertex 0.288236 7.802327 -0.180000
endloop
endfacet
facet normal 0.672110 0.310696 -0.672114
outer loop
vertex 0.180000 7.922327 -0.232764
vertex 0.288236 7.802327 -0.180000
vertex 0.180000 7.802327 -0.288237
endloop
endfacet
facet normal 0.577347 -0.577344 -0.577360
outer loop
vertex 0.180000 7.562327 -0.232764
vertex 0.232764 7.562327 -0.180000
vertex 0.180000 7.509563 -0.180000
endloop
endfacet
endsolid Exported from Blender-3.4.1
