solid Exported from Blender-3.4.1
facet normal 0.000000 0.000000 1.000000
outer loop
vertex 4.000000 4.000000 0.100000
vertex -4.000000 4.000000 0.100000
vertex -4.000000 -4.000000 0.100000
endloop
endfacet
facet normal 0.000000 0.000000 1.000000
outer loop
vertex 4.000000 4.000000 0.100000
vertex -4.000000 -4.000000 0.100000
vertex 4.000000 -4.000000 0.100000
endloop
endfacet
facet normal 0.000000 -1.000000 0.000000
outer loop
vertex 4.000000 -4.000000 -0.100000
vertex 4.000000 -4.000000 0.100000
vertex -4.000000 -4.000000 0.100000
endloop
endfacet
facet normal 0.000000 -1.000000 0.000000
outer loop
vertex 4.000000 -4.000000 -0.100000
vertex -4.000000 -4.000000 0.100000
vertex -4.000000 -4.000000 -0.100000
endloop
endfacet
facet normal -1.000000 0.000000 0.000000
outer loop
vertex -4.000000 -4.000000 -0.100000
vertex -4.000000 -4.000000 0.100000
vertex -4.000000 4.000000 0.100000
endloop
endfacet
facet normal -1.000000 0.000000 0.000000
outer loop
vertex -4.000000 -4.000000 -0.100000
vertex -4.000000 4.000000 0.100000
vertex -4.000000 4.000000 -0.100000
endloop
endfacet
facet normal 0.000000 0.000000 -1.000000
outer loop
vertex -4.000000 4.000000 -0.100000
vertex 4.000000 4.000000 -0.100000
vertex 4.000000 -4.000000 -0.100000
endloop
endfacet
facet normal 0.000000 0.000000 -1.000000
outer loop
vertex -4.000000 4.000000 -0.100000
vertex 4.000000 -4.000000 -0.100000
vertex -4.000000 -4.000000 -0.100000
endloop
endfacet
facet normal 1.000000 0.000000 0.000000
outer loop
vertex 4.000000 4.000000 -0.100000
vertex 4.000000 4.000000 0.100000
vertex 4.000000 -4.000000 0.100000
endloop
endfacet
facet normal 1.000000 0.000000 0.000000
outer loop
vertex 4.000000 4.000000 -0.100000
vertex 4.000000 -4.000000 0.100000
vertex 4.000000 -4.000000 -0.100000
endloop
endfacet
facet normal 0.000000 1.000000 0.000000
outer loop
vertex -4.000000 4.000000 -0.100000
vertex -4.000000 4.000000 0.100000
vertex 4.000000 4.000000 0.100000
endloop
endfacet
facet normal 0.000000 1.000000 0.000000
outer loop
vertex -4.000000 4.000000 -0.100000
vertex 4.000000 4.000000 0.100000
vertex 4.000000 4.000000 -0.100000
endloop
endfacet
facet normal 0.098017 0.995185 0.000000
outer loop
vertex 2.800000 0.300000 -0.099999
vertex 2.800000 0.300000 9.900001
vertex 2.858527 0.294236 9.900001
endloop
endfacet
facet normal 0.098017 0.995185 0.000000
outer loop
vertex 2.800000 0.300000 -0.099999
vertex 2.858527 0.294236 9.900001
vertex 2.858527 0.294236 -0.099999
endloop
endfacet
facet normal 0.290287 0.956940 0.000000
outer loop
vertex 2.858527 0.294236 -0.099999
vertex 2.858527 0.294236 9.900001
vertex 2.914805 0.277164 9.900001
endloop
endfacet
facet normal 0.290283 0.956941 0.000000
outer loop
vertex 2.858527 0.294236 -0.099999
vertex 2.914805 0.277164 9.900001
vertex 2.914805 0.277164 -0.099999
endloop
endfacet
facet normal 0.471396 0.881922 0.000000
outer loop
vertex 2.914805 0.277164 -0.099999
vertex 2.914805 0.277164 9.900001
vertex 2.966671 0.249441 9.900001
endloop
endfacet
facet normal 0.471396 0.881922 0.000000
outer loop
vertex 2.914805 0.277164 -0.099999
vertex 2.966671 0.249441 9.900001
vertex 2.966671 0.249441 -0.099999
endloop
endfacet
facet normal 0.634397 0.773007 0.000000
outer loop
vertex 2.966671 0.249441 -0.099999
vertex 2.966671 0.249441 9.900001
vertex 3.012132 0.212132 9.900001
endloop
endfacet
facet normal 0.634391 0.773013 0.000000
outer loop
vertex 2.966671 0.249441 -0.099999
vertex 3.012132 0.212132 9.900001
vertex 3.012132 0.212132 -0.099999
endloop
endfacet
facet normal 0.773007 0.634398 0.000000
outer loop
vertex 3.012132 0.212132 -0.099999
vertex 3.012132 0.212132 9.900001
vertex 3.049441 0.166671 9.900001
endloop
endfacet
facet normal 0.773013 0.634390 0.000000
outer loop
vertex 3.012132 0.212132 -0.099999
vertex 3.049441 0.166671 9.900001
vertex 3.049441 0.166671 -0.099999
endloop
endfacet
facet normal 0.881922 0.471396 0.000000
outer loop
vertex 3.049441 0.166671 -0.099999
vertex 3.049441 0.166671 9.900001
vertex 3.077164 0.114805 9.900001
endloop
endfacet
facet normal 0.881922 0.471396 0.000000
outer loop
vertex 3.049441 0.166671 -0.099999
vertex 3.077164 0.114805 9.900001
vertex 3.077164 0.114805 -0.099999
endloop
endfacet
facet normal 0.956941 0.290282 0.000000
outer loop
vertex 3.077164 0.114805 -0.099999
vertex 3.077164 0.114805 9.900001
vertex 3.094235 0.058527 9.900001
endloop
endfacet
facet normal 0.956939 0.290288 0.000000
outer loop
vertex 3.077164 0.114805 -0.099999
vertex 3.094235 0.058527 9.900001
vertex 3.094235 0.058527 -0.099999
endloop
endfacet
facet normal 0.995185 0.098017 0.000000
outer loop
vertex 3.094235 0.058527 -0.099999
vertex 3.094235 0.058527 9.900001
vertex 3.100000 0.000000 9.900001
endloop
endfacet
facet normal 0.995184 0.098023 0.000000
outer loop
vertex 3.094235 0.058527 -0.099999
vertex 3.100000 0.000000 9.900001
vertex 3.100000 0.000000 -0.099999
endloop
endfacet
facet normal 0.995184 -0.098023 0.000000
outer loop
vertex 3.100000 0.000000 -0.099999
vertex 3.100000 0.000000 9.900001
vertex 3.094235 -0.058527 9.900001
endloop
endfacet
facet normal 0.995185 -0.098017 0.000000
outer loop
vertex 3.100000 0.000000 -0.099999
vertex 3.094235 -0.058527 9.900001
vertex 3.094235 -0.058527 -0.099999
endloop
endfacet
facet normal 0.956939 -0.290288 0.000000
outer loop
vertex 3.094235 -0.058527 -0.099999
vertex 3.094235 -0.058527 9.900001
vertex 3.077164 -0.114805 9.900001
endloop
endfacet
facet normal 0.956941 -0.290282 0.000000
outer loop
vertex 3.094235 -0.058527 -0.099999
vertex 3.077164 -0.114805 9.900001
vertex 3.077164 -0.114805 -0.099999
endloop
endfacet
facet normal 0.881922 -0.471396 0.000000
outer loop
vertex 3.077164 -0.114805 -0.099999
vertex 3.077164 -0.114805 9.900001
vertex 3.049441 -0.166671 9.900001
endloop
endfacet
facet normal 0.881922 -0.471396 0.000000
outer loop
vertex 3.077164 -0.114805 -0.099999
vertex 3.049441 -0.166671 9.900001
vertex 3.049441 -0.166671 -0.099999
endloop
endfacet
facet normal 0.773013 -0.634390 0.000000
outer loop
vertex 3.049441 -0.166671 -0.099999
vertex 3.049441 -0.166671 9.900001
vertex 3.012132 -0.212132 9.900001
endloop
endfacet
facet normal 0.773007 -0.634398 0.000000
outer loop
vertex 3.049441 -0.166671 -0.099999
vertex 3.012132 -0.212132 9.900001
vertex 3.012132 -0.212132 -0.099999
endloop
endfacet
facet normal 0.634391 -0.773013 0.000000
outer loop
vertex 3.012132 -0.212132 -0.099999
vertex 3.012132 -0.212132 9.900001
vertex 2.966671 -0.249441 9.900001
endloop
endfacet
facet normal 0.634397 -0.773007 0.000000
outer loop
vertex 3.012132 -0.212132 -0.099999
vertex 2.966671 -0.249441 9.900001
vertex 2.966671 -0.249441 -0.099999
endloop
endfacet
facet normal 0.471396 -0.881922 0.000000
outer loop
vertex 2.966671 -0.249441 -0.099999
vertex 2.966671 -0.249441 9.900001
vertex 2.914805 -0.277164 9.900001
endloop
endfacet
facet normal 0.471396 -0.881922 0.000000
outer loop
vertex 2.966671 -0.249441 -0.099999
vertex 2.914805 -0.277164 9.900001
vertex 2.914805 -0.277164 -0.099999
endloop
endfacet
facet normal 0.290283 -0.956941 0.000000
outer loop
vertex 2.914805 -0.277164 -0.099999
vertex 2.914805 -0.277164 9.900001
vertex 2.858527 -0.294236 9.900001
endloop
endfacet
facet normal 0.290287 -0.956940 0.000000
outer loop
vertex 2.914805 -0.277164 -0.099999
vertex 2.858527 -0.294236 9.900001
vertex 2.858527 -0.294236 -0.099999
endloop
endfacet
facet normal 0.098017 -0.995185 0.000000
outer loop
vertex 2.858527 -0.294236 -0.099999
vertex 2.858527 -0.294236 9.900001
vertex 2.800000 -0.300000 9.900001
endloop
endfacet
facet normal 0.098017 -0.995185 0.000000
outer loop
vertex 2.858527 -0.294236 -0.099999
vertex 2.800000 -0.300000 9.900001
vertex 2.800000 -0.300000 -0.099999
endloop
endfacet
facet normal -0.098017 -0.995185 0.000000
outer loop
vertex 2.800000 -0.300000 -0.099999
vertex 2.800000 -0.300000 9.900001
vertex 2.741473 -0.294236 9.900001
endloop
endfacet
facet normal -0.098017 -0.995185 0.000000
outer loop
vertex 2.800000 -0.300000 -0.099999
vertex 2.741473 -0.294236 9.900001
vertex 2.741473 -0.294236 -0.099999
endloop
endfacet
facet normal -0.290285 -0.956940 0.000000
outer loop
vertex 2.741473 -0.294236 -0.099999
vertex 2.741473 -0.294236 9.900001
vertex 2.685195 -0.277164 9.900001
endloop
endfacet
facet normal -0.290283 -0.956941 0.000000
outer loop
vertex 2.741473 -0.294236 -0.099999
vertex 2.685195 -0.277164 9.900001
vertex 2.685195 -0.277164 -0.099999
endloop
endfacet
facet normal -0.471396 -0.881922 0.000000
outer loop
vertex 2.685195 -0.277164 -0.099999
vertex 2.685195 -0.277164 9.900001
vertex 2.633329 -0.249441 9.900001
endloop
endfacet
facet normal -0.471399 -0.881920 0.000000
outer loop
vertex 2.685195 -0.277164 -0.099999
vertex 2.633329 -0.249441 9.900001
vertex 2.633329 -0.249441 -0.099999
endloop
endfacet
facet normal -0.634394 -0.773010 0.000000
outer loop
vertex 2.633329 -0.249441 -0.099999
vertex 2.633329 -0.249441 9.900001
vertex 2.587868 -0.212132 9.900001
endloop
endfacet
facet normal -0.634391 -0.773013 0.000000
outer loop
vertex 2.633329 -0.249441 -0.099999
vertex 2.587868 -0.212132 9.900001
vertex 2.587868 -0.212132 -0.099999
endloop
endfacet
facet normal -0.773010 -0.634394 0.000000
outer loop
vertex 2.587868 -0.212132 -0.099999
vertex 2.587868 -0.212132 9.900001
vertex 2.550559 -0.166671 9.900001
endloop
endfacet
facet normal -0.773010 -0.634394 0.000000
outer loop
vertex 2.587868 -0.212132 -0.099999
vertex 2.550559 -0.166671 9.900001
vertex 2.550559 -0.166671 -0.099999
endloop
endfacet
facet normal -0.881922 -0.471396 0.000000
outer loop
vertex 2.550559 -0.166671 -0.099999
vertex 2.550559 -0.166671 9.900001
vertex 2.522836 -0.114805 9.900001
endloop
endfacet
facet normal -0.881924 -0.471391 0.000000
outer loop
vertex 2.550559 -0.166671 -0.099999
vertex 2.522836 -0.114805 9.900001
vertex 2.522836 -0.114805 -0.099999
endloop
endfacet
facet normal -0.956939 -0.290288 0.000000
outer loop
vertex 2.522836 -0.114805 -0.099999
vertex 2.522836 -0.114805 9.900001
vertex 2.505764 -0.058527 9.900001
endloop
endfacet
facet normal -0.956939 -0.290288 0.000000
outer loop
vertex 2.522836 -0.114805 -0.099999
vertex 2.505764 -0.058527 9.900001
vertex 2.505764 -0.058527 -0.099999
endloop
endfacet
facet normal -0.995185 -0.098017 0.000000
outer loop
vertex 2.505764 -0.058527 -0.099999
vertex 2.505764 -0.058527 9.900001
vertex 2.500000 0.000000 9.900001
endloop
endfacet
facet normal -0.995185 -0.098017 0.000000
outer loop
vertex 2.505764 -0.058527 -0.099999
vertex 2.500000 0.000000 9.900001
vertex 2.500000 0.000000 -0.099999
endloop
endfacet
facet normal -0.995185 0.098017 0.000000
outer loop
vertex 2.500000 0.000000 -0.099999
vertex 2.500000 0.000000 9.900001
vertex 2.505764 0.058527 9.900001
endloop
endfacet
facet normal -0.995185 0.098017 0.000000
outer loop
vertex 2.500000 0.000000 -0.099999
vertex 2.505764 0.058527 9.900001
vertex 2.505764 0.058527 -0.099999
endloop
endfacet
facet normal -0.956939 0.290288 0.000000
outer loop
vertex 2.505764 0.058527 -0.099999
vertex 2.505764 0.058527 9.900001
vertex 2.522836 0.114805 9.900001
endloop
endfacet
facet normal -0.956939 0.290288 0.000000
outer loop
vertex 2.505764 0.058527 -0.099999
vertex 2.522836 0.114805 9.900001
vertex 2.522836 0.114805 -0.099999
endloop
endfacet
facet normal -0.881924 0.471391 0.000000
outer loop
vertex 2.522836 0.114805 -0.099999
vertex 2.522836 0.114805 9.900001
vertex 2.550559 0.166671 9.900001
endloop
endfacet
facet normal -0.881922 0.471396 0.000000
outer loop
vertex 2.522836 0.114805 -0.099999
vertex 2.550559 0.166671 9.900001
vertex 2.550559 0.166671 -0.099999
endloop
endfacet
facet normal -0.773010 0.634394 0.000000
outer loop
vertex 2.550559 0.166671 -0.099999
vertex 2.550559 0.166671 9.900001
vertex 2.587868 0.212132 9.900001
endloop
endfacet
facet normal -0.773010 0.634394 0.000000
outer loop
vertex 2.550559 0.166671 -0.099999
vertex 2.587868 0.212132 9.900001
vertex 2.587868 0.212132 -0.099999
endloop
endfacet
facet normal -0.634391 0.773013 0.000000
outer loop
vertex 2.587868 0.212132 -0.099999
vertex 2.587868 0.212132 9.900001
vertex 2.633329 0.249441 9.900001
endloop
endfacet
facet normal -0.634394 0.773010 0.000000
outer loop
vertex 2.587868 0.212132 -0.099999
vertex 2.633329 0.249441 9.900001
vertex 2.633329 0.249441 -0.099999
endloop
endfacet
facet normal -0.471399 0.881920 0.000000
outer loop
vertex 2.633329 0.249441 -0.099999
vertex 2.633329 0.249441 9.900001
vertex 2.685195 0.277164 9.900001
endloop
endfacet
facet normal -0.471396 0.881922 0.000000
outer loop
vertex 2.633329 0.249441 -0.099999
vertex 2.685195 0.277164 9.900001
vertex 2.685195 0.277164 -0.099999
endloop
endfacet
facet normal 0.000011 0.000000 1.000000
outer loop
vertex 2.914805 0.277164 9.900001
vertex 2.858527 0.294236 9.900001
vertex 2.800000 0.300000 9.900001
endloop
endfacet
facet normal 0.000000 0.000000 1.000000
outer loop
vertex 2.800000 0.300000 9.900001
vertex 2.741473 0.294236 9.900001
vertex 2.685195 0.277164 9.900001
endloop
endfacet
facet normal 0.000088 0.000000 1.000000
outer loop
vertex 2.685195 0.277164 9.900001
vertex 2.633329 0.249441 9.900001
vertex 2.587868 0.212132 9.900001
endloop
endfacet
facet normal 0.000000 0.000000 1.000000
outer loop
vertex 2.587868 0.212132 9.900001
vertex 2.550559 0.166671 9.900001
vertex 2.522836 0.114805 9.900001
endloop
endfacet
facet normal 0.000177 0.000000 1.000000
outer loop
vertex 2.522836 0.114805 9.900001
vertex 2.505764 0.058527 9.900001
vertex 2.500000 0.000000 9.900001
endloop
endfacet
facet normal 0.000177 0.000000 1.000000
outer loop
vertex 2.500000 0.000000 9.900001
vertex 2.505764 -0.058527 9.900001
vertex 2.522836 -0.114805 9.900001
endloop
endfacet
facet normal 0.000000 0.000000 1.000000
outer loop
vertex 2.522836 -0.114805 9.900001
vertex 2.550559 -0.166671 9.900001
vertex 2.587868 -0.212132 9.900001
endloop
endfacet
facet normal 0.000088 0.000000 1.000000
outer loop
vertex 2.587868 -0.212132 9.900001
vertex 2.633329 -0.249441 9.900001
vertex 2.685195 -0.277164 9.900001
endloop
endfacet
facet normal -0.000011 0.000000 1.000000
outer loop
vertex 2.685195 -0.277164 9.900001
vertex 2.741473 -0.294236 9.900001
vertex 2.800000 -0.300000 9.900001
endloop
endfacet
facet normal 0.000000 0.000000 1.000000
outer loop
vertex 2.800000 -0.300000 9.900001
vertex 2.858527 -0.294236 9.900001
vertex 2.914805 -0.277164 9.900001
endloop
endfacet
facet normal -0.000088 0.000000 1.000000
outer loop
vertex 2.914805 -0.277164 9.900001
vertex 2.966671 -0.249441 9.900001
vertex 3.012132 -0.212132 9.900001
endloop
endfacet
facet normal 0.000000 0.000000 1.000000
outer loop
vertex 3.012132 -0.212132 9.900001
vertex 3.049441 -0.166671 9.900001
vertex 3.077164 -0.114805 9.900001
endloop
endfacet
facet normal -0.000177 0.000000 1.000000
outer loop
vertex 3.077164 -0.114805 9.900001
vertex 3.094235 -0.058527 9.900001
vertex 3.100000 0.000000 9.900001
endloop
endfacet
facet normal -0.000177 0.000000 1.000000
outer loop
vertex 3.100000 0.000000 9.900001
vertex 3.094235 0.058527 9.900001
vertex 3.077164 0.114805 9.900001
endloop
endfacet
facet normal 0.000000 0.000000 1.000000
outer loop
vertex 3.077164 0.114805 9.900001
vertex 3.049441 0.166671 9.900001
vertex 3.012132 0.212132 9.900001
endloop
endfacet
facet normal -0.000088 0.000000 1.000000
outer loop
vertex 3.012132 0.212132 9.900001
vertex 2.966671 0.249441 9.900001
vertex 2.914805 0.277164 9.900001
endloop
endfacet
facet normal 0.000000 0.000000 1.000000
outer loop
vertex 2.914805 0.277164 9.900001
vertex 2.800000 0.300000 9.900001
vertex 2.685195 0.277164 9.900001
endloop
endfacet
facet normal 0.000000 0.000000 1.000000
outer loop
vertex 2.685195 0.277164 9.900001
vertex 2.587868 0.212132 9.900001
vertex 2.522836 0.114805 9.900001
endloop
endfacet
facet normal 0.000000 0.000000 1.000000
outer loop
vertex 2.522836 0.114805 9.900001
vertex 2.500000 0.000000 9.900001
vertex 2.522836 -0.114805 9.900001
endloop
endfacet
facet normal 0.000000 0.000000 1.000000
outer loop
vertex 2.522836 -0.114805 9.900001
vertex 2.587868 -0.212132 9.900001
vertex 2.685195 -0.277164 9.900001
endloop
endfacet
facet normal 0.000000 0.000000 1.000000
outer loop
vertex 2.685195 -0.277164 9.900001
vertex 2.800000 -0.300000 9.900001
vertex 2.914805 -0.277164 9.900001
endloop
endfacet
facet normal 0.000000 0.000000 1.000000
outer loop
vertex 2.914805 -0.277164 9.900001
vertex 3.012132 -0.212132 9.900001
vertex 3.077164 -0.114805 9.900001
endloop
endfacet
facet normal 0.000000 0.000000 1.000000
outer loop
vertex 3.077164 -0.114805 9.900001
vertex 3.100000 0.000000 9.900001
vertex 3.077164 0.114805 9.900001
endloop
endfacet
facet normal 0.000000 0.000000 1.000000
outer loop
vertex 3.077164 0.114805 9.900001
vertex 3.012132 0.212132 9.900001
vertex 2.914805 0.277164 9.900001
endloop
endfacet
facet normal 0.000000 0.000000 1.000000
outer loop
vertex 2.914805 0.277164 9.900001
vertex 2.685195 0.277164 9.900001
vertex 2.522836 0.114805 9.900001
endloop
endfacet
facet normal -0.000006 0.000000 1.000000
outer loop
vertex 2.522836 0.114805 9.900001
vertex 2.522836 -0.114805 9.900001
vertex 2.685195 -0.277164 9.900001
endloop
endfacet
facet normal 0.000000 0.000000 1.000000
outer loop
vertex 2.685195 -0.277164 9.900001
vertex 2.914805 -0.277164 9.900001
vertex 3.077164 -0.114805 9.900001
endloop
endfacet
facet normal 0.000006 0.000000 1.000000
outer loop
vertex 3.077164 -0.114805 9.900001
vertex 3.077164 0.114805 9.900001
vertex 2.914805 0.277164 9.900001
endloop
endfacet
facet normal -0.000003 0.000000 1.000000
outer loop
vertex 2.914805 0.277164 9.900001
vertex 2.522836 0.114805 9.900001
vertex 2.685195 -0.277164 9.900001
endloop
endfacet
facet normal 0.000003 0.000000 1.000000
outer loop
vertex 2.685195 -0.277164 9.900001
vertex 3.077164 -0.114805 9.900001
vertex 2.914805 0.277164 9.900001
endloop
endfacet
facet normal -0.290283 0.956941 0.000000
outer loop
vertex 2.685195 0.277164 -0.099999
vertex 2.685195 0.277164 9.900001
vertex 2.741473 0.294236 9.900001
endloop
endfacet
facet normal -0.290285 0.956940 0.000000
outer loop
vertex 2.685195 0.277164 -0.099999
vertex 2.741473 0.294236 9.900001
vertex 2.741473 0.294236 -0.099999
endloop
endfacet
facet normal -0.098017 0.995185 0.000000
outer loop
vertex 2.741473 0.294236 -0.099999
vertex 2.741473 0.294236 9.900001
vertex 2.800000 0.300000 9.900001
endloop
endfacet
facet normal -0.098017 0.995185 0.000000
outer loop
vertex 2.741473 0.294236 -0.099999
vertex 2.800000 0.300000 9.900001
vertex 2.800000 0.300000 -0.099999
endloop
endfacet
facet normal 0.000000 0.000000 -1.000000
outer loop
vertex 2.741473 0.294236 -0.099999
vertex 2.800000 0.300000 -0.099999
vertex 2.858527 0.294236 -0.099999
endloop
endfacet
facet normal -0.000001 0.000000 -1.000000
outer loop
vertex 2.858527 0.294236 -0.099999
vertex 2.914805 0.277164 -0.099999
vertex 2.966671 0.249441 -0.099999
endloop
endfacet
facet normal 0.000000 0.000000 -1.000000
outer loop
vertex 2.966671 0.249441 -0.099999
vertex 3.012132 0.212132 -0.099999
vertex 3.049441 0.166671 -0.099999
endloop
endfacet
facet normal 0.000003 0.000000 -1.000000
outer loop
vertex 3.049441 0.166671 -0.099999
vertex 3.077164 0.114805 -0.099999
vertex 3.094235 0.058527 -0.099999
endloop
endfacet
facet normal 0.000000 0.000000 -1.000000
outer loop
vertex 3.094235 0.058527 -0.099999
vertex 3.100000 0.000000 -0.099999
vertex 3.094235 -0.058527 -0.099999
endloop
endfacet
facet normal 0.000003 0.000000 -1.000000
outer loop
vertex 3.094235 -0.058527 -0.099999
vertex 3.077164 -0.114805 -0.099999
vertex 3.049441 -0.166671 -0.099999
endloop
endfacet
facet normal 0.000000 0.000000 -1.000000
outer loop
vertex 3.049441 -0.166671 -0.099999
vertex 3.012132 -0.212132 -0.099999
vertex 2.966671 -0.249441 -0.099999
endloop
endfacet
facet normal -0.000000 0.000000 -1.000000
outer loop
vertex 2.966671 -0.249441 -0.099999
vertex 2.914805 -0.277164 -0.099999
vertex 2.858527 -0.294236 -0.099999
endloop
endfacet
facet normal 0.000000 0.000000 -1.000000
outer loop
vertex 2.858527 -0.294236 -0.099999
vertex 2.800000 -0.300000 -0.099999
vertex 2.741473 -0.294236 -0.099999
endloop
endfacet
facet normal 0.000001 0.000000 -1.000000
outer loop
vertex 2.741473 -0.294236 -0.099999
vertex 2.685195 -0.277164 -0.099999
vertex 2.633329 -0.249441 -0.099999
endloop
endfacet
facet normal 0.000000 0.000000 -1.000000
outer loop
vertex 2.633329 -0.249441 -0.099999
vertex 2.587868 -0.212132 -0.099999
vertex 2.550559 -0.166671 -0.099999
endloop
endfacet
facet normal -0.000003 0.000000 -1.000000
outer loop
vertex 2.550559 -0.166671 -0.099999
vertex 2.522836 -0.114805 -0.099999
vertex 2.505764 -0.058527 -0.099999
endloop
endfacet
facet normal 0.000000 0.000000 -1.000000
outer loop
vertex 2.505764 -0.058527 -0.099999
vertex 2.500000 0.000000 -0.099999
vertex 2.505764 0.058527 -0.099999
endloop
endfacet
facet normal -0.000003 0.000000 -1.000000
outer loop
vertex 2.505764 0.058527 -0.099999
vertex 2.522836 0.114805 -0.099999
vertex 2.550559 0.166671 -0.099999
endloop
endfacet
facet normal 0.000000 0.000000 -1.000000
outer loop
vertex 2.550559 0.166671 -0.099999
vertex 2.587868 0.212132 -0.099999
vertex 2.633329 0.249441 -0.099999
endloop
endfacet
facet normal 0.000000 0.000000 -1.000000
outer loop
vertex 2.633329 0.249441 -0.099999
vertex 2.685195 0.277164 -0.099999
vertex 2.741473 0.294236 -0.099999
endloop
endfacet
facet normal 0.000000 0.000000 -1.000000
outer loop
vertex 2.741473 0.294236 -0.099999
vertex 2.858527 0.294236 -0.099999
vertex 2.966671 0.249441 -0.099999
endloop
endfacet
facet normal 0.000000 0.000000 -1.000000
outer loop
vertex 2.966671 0.249441 -0.099999
vertex 3.049441 0.166671 -0.099999
vertex 3.094235 0.058527 -0.099999
endloop
endfacet
facet normal -0.000000 0.000000 -1.000000
outer loop
vertex 3.094235 0.058527 -0.099999
vertex 3.094235 -0.058527 -0.099999
vertex 3.049441 -0.166671 -0.099999
endloop
endfacet
facet normal 0.000000 0.000000 -1.000000
outer loop
vertex 3.049441 -0.166671 -0.099999
vertex 2.966671 -0.249441 -0.099999
vertex 2.858527 -0.294236 -0.099999
endloop
endfacet
facet normal 0.000000 0.000000 -1.000000
outer loop
vertex 2.858527 -0.294236 -0.099999
vertex 2.741473 -0.294236 -0.099999
vertex 2.633329 -0.249441 -0.099999
endloop
endfacet
facet normal 0.000000 0.000000 -1.000000
outer loop
vertex 2.633329 -0.249441 -0.099999
vertex 2.550559 -0.166671 -0.099999
vertex 2.505764 -0.058527 -0.099999
endloop
endfacet
facet normal 0.000000 0.000000 -1.000000
outer loop
vertex 2.505764 -0.058527 -0.099999
vertex 2.505764 0.058527 -0.099999
vertex 2.550559 0.166671 -0.099999
endloop
endfacet
facet normal 0.000000 0.000000 -1.000000
outer loop
vertex 2.550559 0.166671 -0.099999
vertex 2.633329 0.249441 -0.099999
vertex 2.741473 0.294236 -0.099999
endloop
endfacet
facet normal 0.000000 0.000000 -1.000000
outer loop
vertex 2.741473 0.294236 -0.099999
vertex 2.966671 0.249441 -0.099999
vertex 3.094235 0.058527 -0.099999
endloop
endfacet
facet normal 0.000000 0.000000 -1.000000
outer loop
vertex 3.094235 0.058527 -0.099999
vertex 3.049441 -0.166671 -0.099999
vertex 2.858527 -0.294236 -0.099999
endloop
endfacet
facet normal 0.000000 0.000000 -1.000000
outer loop
vertex 2.858527 -0.294236 -0.099999
vertex 2.633329 -0.249441 -0.099999
vertex 2.505764 -0.058527 -0.099999
endloop
endfacet
facet normal 0.000000 0.000000 -1.000000
outer loop
vertex 2.505764 -0.058527 -0.099999
vertex 2.550559 0.166671 -0.099999
vertex 2.741473 0.294236 -0.099999
endloop
endfacet
facet normal -0.000000 0.000000 -1.000000
outer loop
vertex 2.741473 0.294236 -0.099999
vertex 3.094235 0.058527 -0.099999
vertex 2.858527 -0.294236 -0.099999
endloop
endfacet
facet normal 0.000000 0.000000 -1.000000
outer loop
vertex 2.858527 -0.294236 -0.099999
vertex 2.505764 -0.058527 -0.099999
vertex 2.741473 0.294236 -0.099999
endloop
endfacet
facet normal 0.000000 0.995185 -0.098016
outer loop
vertex -0.815781 0.200000 9.600000
vertex 3.304218 0.200000 9.600000
vertex 3.304218 0.196157 9.560982
endloop
endfacet
facet normal -0.000000 0.995185 -0.098019
outer loop
vertex -0.815781 0.200000 9.600000
vertex 3.304218 0.196157 9.560982
vertex -0.815781 0.196157 9.560983
endloop
endfacet
facet normal 0.000000 0.956940 -0.290285
outer loop
vertex -0.815781 0.196157 9.560983
vertex 3.304218 0.196157 9.560982
vertex 3.304218 0.184776 9.523463
endloop
endfacet
facet normal 0.000000 0.956940 -0.290286
outer loop
vertex -0.815781 0.196157 9.560983
vertex 3.304218 0.184776 9.523463
vertex -0.815781 0.184776 9.523464
endloop
endfacet
facet normal -0.000000 0.881921 -0.471397
outer loop
vertex -0.815781 0.184776 9.523464
vertex 3.304218 0.184776 9.523463
vertex 3.304218 0.166294 9.488886
endloop
endfacet
facet normal -0.000000 0.881921 -0.471397
outer loop
vertex -0.815781 0.184776 9.523464
vertex 3.304218 0.166294 9.488886
vertex -0.815781 0.166294 9.488887
endloop
endfacet
facet normal -0.000000 0.773006 -0.634399
outer loop
vertex -0.815781 0.166294 9.488887
vertex 3.304218 0.166294 9.488886
vertex 3.304218 0.141421 9.458579
endloop
endfacet
facet normal 0.000000 0.773015 -0.634388
outer loop
vertex -0.815781 0.166294 9.488887
vertex 3.304218 0.141421 9.458579
vertex -0.815781 0.141421 9.458579
endloop
endfacet
facet normal 0.000000 0.634396 -0.773008
outer loop
vertex -0.815781 0.141421 9.458579
vertex 3.304218 0.141421 9.458579
vertex 3.304218 0.111114 9.433706
endloop
endfacet
facet normal 0.000000 0.634397 -0.773008
outer loop
vertex -0.815781 0.141421 9.458579
vertex 3.304218 0.111114 9.433706
vertex -0.815781 0.111114 9.433706
endloop
endfacet
facet normal 0.000000 0.471401 -0.881919
outer loop
vertex -0.815781 0.111114 9.433706
vertex 3.304218 0.111114 9.433706
vertex 3.304218 0.076537 9.415224
endloop
endfacet
facet normal 0.000000 0.471382 -0.881929
outer loop
vertex -0.815781 0.111114 9.433706
vertex 3.304218 0.076537 9.415224
vertex -0.815781 0.076537 9.415225
endloop
endfacet
facet normal -0.000000 0.290285 -0.956940
outer loop
vertex -0.815781 0.076537 9.415225
vertex 3.304218 0.076537 9.415224
vertex 3.304218 0.039018 9.403843
endloop
endfacet
facet normal 0.000000 0.290285 -0.956940
outer loop
vertex -0.815781 0.076537 9.415225
vertex 3.304218 0.039018 9.403843
vertex -0.815781 0.039018 9.403844
endloop
endfacet
facet normal 0.000000 0.098002 -0.995186
outer loop
vertex -0.815781 0.039018 9.403844
vertex 3.304218 0.039018 9.403843
vertex 3.304218 0.000000 9.400001
endloop
endfacet
facet normal 0.000000 0.098026 -0.995184
outer loop
vertex -0.815781 0.039018 9.403844
vertex 3.304218 0.000000 9.400001
vertex -0.815781 -0.000000 9.400001
endloop
endfacet
facet normal 0.000000 -0.098002 -0.995186
outer loop
vertex -0.815781 -0.000000 9.400001
vertex 3.304218 0.000000 9.400001
vertex 3.304218 -0.039018 9.403843
endloop
endfacet
facet normal 0.000000 -0.098026 -0.995184
outer loop
vertex -0.815781 -0.000000 9.400001
vertex 3.304218 -0.039018 9.403843
vertex -0.815781 -0.039018 9.403844
endloop
endfacet
facet normal -0.000000 -0.290285 -0.956940
outer loop
vertex -0.815781 -0.039018 9.403844
vertex 3.304218 -0.039018 9.403843
vertex 3.304218 -0.076537 9.415224
endloop
endfacet
facet normal 0.000000 -0.290285 -0.956940
outer loop
vertex -0.815781 -0.039018 9.403844
vertex 3.304218 -0.076537 9.415224
vertex -0.815781 -0.076537 9.415225
endloop
endfacet
facet normal 0.000000 -0.471401 -0.881919
outer loop
vertex -0.815781 -0.076537 9.415225
vertex 3.304218 -0.076537 9.415224
vertex 3.304218 -0.111114 9.433706
endloop
endfacet
facet normal 0.000000 -0.471382 -0.881929
outer loop
vertex -0.815781 -0.076537 9.415225
vertex 3.304218 -0.111114 9.433706
vertex -0.815781 -0.111114 9.433706
endloop
endfacet
facet normal 0.000000 -0.634397 -0.773008
outer loop
vertex -0.815781 -0.111114 9.433706
vertex 3.304218 -0.111114 9.433706
vertex 3.304218 -0.141421 9.458579
endloop
endfacet
facet normal 0.000000 -0.634396 -0.773008
outer loop
vertex -0.815781 -0.111114 9.433706
vertex 3.304218 -0.141421 9.458579
vertex -0.815781 -0.141421 9.458579
endloop
endfacet
facet normal 0.000000 -0.773005 -0.634400
outer loop
vertex -0.815781 -0.141421 9.458579
vertex 3.304218 -0.141421 9.458579
vertex 3.304218 -0.166294 9.488886
endloop
endfacet
facet normal -0.000000 -0.773016 -0.634387
outer loop
vertex -0.815781 -0.141421 9.458579
vertex 3.304218 -0.166294 9.488886
vertex -0.815781 -0.166294 9.488887
endloop
endfacet
facet normal -0.000000 -0.881921 -0.471397
outer loop
vertex -0.815781 -0.166294 9.488887
vertex 3.304218 -0.166294 9.488886
vertex 3.304218 -0.184776 9.523463
endloop
endfacet
facet normal -0.000000 -0.881921 -0.471397
outer loop
vertex -0.815781 -0.166294 9.488887
vertex 3.304218 -0.184776 9.523463
vertex -0.815781 -0.184776 9.523464
endloop
endfacet
facet normal 0.000000 -0.956940 -0.290286
outer loop
vertex -0.815781 -0.184776 9.523464
vertex 3.304218 -0.184776 9.523463
vertex 3.304218 -0.196157 9.560982
endloop
endfacet
facet normal 0.000000 -0.956940 -0.290285
outer loop
vertex -0.815781 -0.184776 9.523464
vertex 3.304218 -0.196157 9.560982
vertex -0.815781 -0.196157 9.560983
endloop
endfacet
facet normal -0.000000 -0.995185 -0.098016
outer loop
vertex -0.815781 -0.196157 9.560983
vertex 3.304218 -0.196157 9.560982
vertex 3.304218 -0.200000 9.600000
endloop
endfacet
facet normal 0.000000 -0.995185 -0.098018
outer loop
vertex -0.815781 -0.196157 9.560983
vertex 3.304218 -0.200000 9.600000
vertex -0.815781 -0.200000 9.600000
endloop
endfacet
facet normal 0.000000 -0.995185 0.098018
outer loop
vertex -0.815781 -0.200000 9.600000
vertex 3.304218 -0.200000 9.600000
vertex 3.304218 -0.196157 9.639018
endloop
endfacet
facet normal 0.000000 -0.995185 0.098016
outer loop
vertex -0.815781 -0.200000 9.600000
vertex 3.304218 -0.196157 9.639018
vertex -0.815781 -0.196157 9.639019
endloop
endfacet
facet normal 0.000000 -0.956940 0.290285
outer loop
vertex -0.815781 -0.196157 9.639019
vertex 3.304218 -0.196157 9.639018
vertex 3.304218 -0.184776 9.676537
endloop
endfacet
facet normal 0.000000 -0.956940 0.290286
outer loop
vertex -0.815781 -0.196157 9.639019
vertex 3.304218 -0.184776 9.676537
vertex -0.815781 -0.184776 9.676538
endloop
endfacet
facet normal 0.000000 -0.881921 0.471397
outer loop
vertex -0.815781 -0.184776 9.676538
vertex 3.304218 -0.184776 9.676537
vertex 3.304218 -0.166294 9.711114
endloop
endfacet
facet normal 0.000000 -0.881921 0.471397
outer loop
vertex -0.815781 -0.184776 9.676538
vertex 3.304218 -0.166294 9.711114
vertex -0.815781 -0.166294 9.711115
endloop
endfacet
facet normal 0.000000 -0.773016 0.634387
outer loop
vertex -0.815781 -0.166294 9.711115
vertex 3.304218 -0.166294 9.711114
vertex 3.304218 -0.141421 9.741422
endloop
endfacet
facet normal 0.000000 -0.773005 0.634400
outer loop
vertex -0.815781 -0.166294 9.711115
vertex 3.304218 -0.141421 9.741422
vertex -0.815781 -0.141421 9.741422
endloop
endfacet
facet normal 0.000000 -0.634396 0.773008
outer loop
vertex -0.815781 -0.141421 9.741422
vertex 3.304218 -0.141421 9.741422
vertex 3.304218 -0.111114 9.766294
endloop
endfacet
facet normal 0.000000 -0.634397 0.773008
outer loop
vertex -0.815781 -0.141421 9.741422
vertex 3.304218 -0.111114 9.766294
vertex -0.815781 -0.111114 9.766294
endloop
endfacet
facet normal 0.000000 -0.471382 0.881929
outer loop
vertex -0.815781 -0.111114 9.766294
vertex 3.304218 -0.111114 9.766294
vertex 3.304218 -0.076537 9.784776
endloop
endfacet
facet normal 0.000000 -0.471401 0.881919
outer loop
vertex -0.815781 -0.111114 9.766294
vertex 3.304218 -0.076537 9.784776
vertex -0.815781 -0.076537 9.784777
endloop
endfacet
facet normal 0.000000 -0.290285 0.956940
outer loop
vertex -0.815781 -0.076537 9.784777
vertex 3.304218 -0.076537 9.784776
vertex 3.304218 -0.039018 9.796157
endloop
endfacet
facet normal 0.000000 -0.290285 0.956940
outer loop
vertex -0.815781 -0.076537 9.784777
vertex 3.304218 -0.039018 9.796157
vertex -0.815781 -0.039018 9.796158
endloop
endfacet
facet normal 0.000000 -0.098026 0.995184
outer loop
vertex -0.815781 -0.039018 9.796158
vertex 3.304218 -0.039018 9.796157
vertex 3.304218 0.000000 9.800000
endloop
endfacet
facet normal 0.000000 -0.098002 0.995186
outer loop
vertex -0.815781 -0.039018 9.796158
vertex 3.304218 0.000000 9.800000
vertex -0.815781 -0.000000 9.800000
endloop
endfacet
facet normal 0.000000 0.098026 0.995184
outer loop
vertex -0.815781 -0.000000 9.800000
vertex 3.304218 0.000000 9.800000
vertex 3.304218 0.039018 9.796157
endloop
endfacet
facet normal 0.000000 0.098002 0.995186
outer loop
vertex -0.815781 -0.000000 9.800000
vertex 3.304218 0.039018 9.796157
vertex -0.815781 0.039018 9.796158
endloop
endfacet
facet normal 0.000000 0.290285 0.956940
outer loop
vertex -0.815781 0.039018 9.796158
vertex 3.304218 0.039018 9.796157
vertex 3.304218 0.076537 9.784776
endloop
endfacet
facet normal 0.000000 0.290285 0.956940
outer loop
vertex -0.815781 0.039018 9.796158
vertex 3.304218 0.076537 9.784776
vertex -0.815781 0.076537 9.784777
endloop
endfacet
facet normal 0.000000 0.471382 0.881929
outer loop
vertex -0.815781 0.076537 9.784777
vertex 3.304218 0.076537 9.784776
vertex 3.304218 0.111114 9.766294
endloop
endfacet
facet normal 0.000000 0.471401 0.881919
outer loop
vertex -0.815781 0.076537 9.784777
vertex 3.304218 0.111114 9.766294
vertex -0.815781 0.111114 9.766294
endloop
endfacet
facet normal 0.000000 0.634397 0.773008
outer loop
vertex -0.815781 0.111114 9.766294
vertex 3.304218 0.111114 9.766294
vertex 3.304218 0.141421 9.741422
endloop
endfacet
facet normal 0.000000 0.634396 0.773008
outer loop
vertex -0.815781 0.111114 9.766294
vertex 3.304218 0.141421 9.741422
vertex -0.815781 0.141421 9.741422
endloop
endfacet
facet normal 0.000000 0.773015 0.634388
outer loop
vertex -0.815781 0.141421 9.741422
vertex 3.304218 0.141421 9.741422
vertex 3.304218 0.166294 9.711114
endloop
endfacet
facet normal 0.000000 0.773006 0.634399
outer loop
vertex -0.815781 0.141421 9.741422
vertex 3.304218 0.166294 9.711114
vertex -0.815781 0.166294 9.711115
endloop
endfacet
facet normal 0.000000 0.881921 0.471397
outer loop
vertex -0.815781 0.166294 9.711115
vertex 3.304218 0.166294 9.711114
vertex 3.304218 0.184776 9.676537
endloop
endfacet
facet normal 0.000000 0.881921 0.471397
outer loop
vertex -0.815781 0.166294 9.711115
vertex 3.304218 0.184776 9.676537
vertex -0.815781 0.184776 9.676538
endloop
endfacet
facet normal 1.000000 0.000000 0.000000
outer loop
vertex 3.304218 0.184776 9.523463
vertex 3.304218 0.196157 9.560982
vertex 3.304218 0.200000 9.600000
endloop
endfacet
facet normal 1.000000 0.000099 0.000000
outer loop
vertex 3.304218 0.200000 9.600000
vertex 3.304218 0.196157 9.639018
vertex 3.304218 0.184776 9.676537
endloop
endfacet
facet normal 1.000000 0.000000 0.000000
outer loop
vertex 3.304218 0.184776 9.676537
vertex 3.304218 0.166294 9.711114
vertex 3.304218 0.141421 9.741422
endloop
endfacet
facet normal 1.000000 0.000000 0.000000
outer loop
vertex 3.304218 0.141421 9.741422
vertex 3.304218 0.111114 9.766294
vertex 3.304218 0.076537 9.784776
endloop
endfacet
facet normal 1.000000 -0.000025 0.000000
outer loop
vertex 3.304218 0.076537 9.784776
vertex 3.304218 0.039018 9.796157
vertex 3.304218 0.000000 9.800000
endloop
endfacet
facet normal 1.000000 0.000025 0.000000
outer loop
vertex 3.304218 0.000000 9.800000
vertex 3.304218 -0.039018 9.796157
vertex 3.304218 -0.076537 9.784776
endloop
endfacet
facet normal 1.000000 0.000000 0.000000
outer loop
vertex 3.304218 -0.076537 9.784776
vertex 3.304218 -0.111114 9.766294
vertex 3.304218 -0.141421 9.741422
endloop
endfacet
facet normal 1.000000 0.000000 0.000000
outer loop
vertex 3.304218 -0.141421 9.741422
vertex 3.304218 -0.166294 9.711114
vertex 3.304218 -0.184776 9.676537
endloop
endfacet
facet normal 1.000000 -0.000099 0.000000
outer loop
vertex 3.304218 -0.184776 9.676537
vertex 3.304218 -0.196157 9.639018
vertex 3.304218 -0.200000 9.600000
endloop
endfacet
facet normal 1.000000 0.000000 0.000000
outer loop
vertex 3.304218 -0.200000 9.600000
vertex 3.304218 -0.196157 9.560982
vertex 3.304218 -0.184776 9.523463
endloop
endfacet
facet normal 1.000000 -0.000050 0.000000
outer loop
vertex 3.304218 -0.184776 9.523463
vertex 3.304218 -0.166294 9.488886
vertex 3.304218 -0.141421 9.458579
endloop
endfacet
facet normal 1.000000 0.000050 0.000000
outer loop
vertex 3.304218 -0.141421 9.458579
vertex 3.304218 -0.111114 9.433706
vertex 3.304218 -0.076537 9.415224
endloop
endfacet
facet normal 1.000000 0.000000 0.000000
outer loop
vertex 3.304218 -0.076537 9.415224
vertex 3.304218 -0.039018 9.403843
vertex 3.304218 0.000000 9.400001
endloop
endfacet
facet normal 1.000000 0.000000 0.000000
outer loop
vertex 3.304218 0.000000 9.400001
vertex 3.304218 0.039018 9.403843
vertex 3.304218 0.076537 9.415224
endloop
endfacet
facet normal 1.000000 -0.000050 0.000000
outer loop
vertex 3.304218 0.076537 9.415224
vertex 3.304218 0.111114 9.433706
vertex 3.304218 0.141421 9.458579
endloop
endfacet
facet normal 1.000000 0.000050 0.000000
outer loop
vertex 3.304218 0.141421 9.458579
vertex 3.304218 0.166294 9.488886
vertex 3.304218 0.184776 9.523463
endloop
endfacet
facet normal 1.000000 -0.000026 0.000000
outer loop
vertex 3.304218 0.184776 9.523463
vertex 3.304218 0.200000 9.600000
vertex 3.304218 0.184776 9.676537
endloop
endfacet
facet normal 1.000000 0.000013 0.000000
outer loop
vertex 3.304218 0.184776 9.676537
vertex 3.304218 0.141421 9.741422
vertex 3.304218 0.076537 9.784776
endloop
endfacet
facet normal 1.000000 0.000000 0.000000
outer loop
vertex 3.304218 0.076537 9.784776
vertex 3.304218 0.000000 9.800000
vertex 3.304218 -0.076537 9.784776
endloop
endfacet
facet normal 1.000000 -0.000013 0.000000
outer loop
vertex 3.304218 -0.076537 9.784776
vertex 3.304218 -0.141421 9.741422
vertex 3.304218 -0.184776 9.676537
endloop
endfacet
facet normal 1.000000 0.000026 0.000000
outer loop
vertex 3.304218 -0.184776 9.676537
vertex 3.304218 -0.200000 9.600000
vertex 3.304218 -0.184776 9.523463
endloop
endfacet
facet normal 1.000000 -0.000013 0.000000
outer loop
vertex 3.304218 -0.184776 9.523463
vertex 3.304218 -0.141421 9.458579
vertex 3.304218 -0.076537 9.415224
endloop
endfacet
facet normal 1.000000 0.000000 0.000000
outer loop
vertex 3.304218 -0.076537 9.415224
vertex 3.304218 0.000000 9.400001
vertex 3.304218 0.076537 9.415224
endloop
endfacet
facet normal 1.000000 0.000013 0.000000
outer loop
vertex 3.304218 0.076537 9.415224
vertex 3.304218 0.141421 9.458579
vertex 3.304218 0.184776 9.523463
endloop
endfacet
facet normal 1.000000 0.000000 0.000000
outer loop
vertex 3.304218 0.184776 9.523463
vertex 3.304218 0.184776 9.676537
vertex 3.304218 0.076537 9.784776
endloop
endfacet
facet normal 1.000000 0.000000 0.000000
outer loop
vertex 3.304218 0.076537 9.784776
vertex 3.304218 -0.076537 9.784776
vertex 3.304218 -0.184776 9.676537
endloop
endfacet
facet normal 1.000000 0.000000 0.000000
outer loop
vertex 3.304218 -0.184776 9.676537
vertex 3.304218 -0.184776 9.523463
vertex 3.304218 -0.076537 9.415224
endloop
endfacet
facet normal 1.000000 0.000000 0.000000
outer loop
vertex 3.304218 -0.076537 9.415224
vertex 3.304218 0.076537 9.415224
vertex 3.304218 0.184776 9.523463
endloop
endfacet
facet normal 1.000000 0.000000 0.000000
outer loop
vertex 3.304218 0.184776 9.523463
vertex 3.304218 0.076537 9.784776
vertex 3.304218 -0.184776 9.676537
endloop
endfacet
facet normal 1.000000 0.000000 0.000000
outer loop
vertex 3.304218 -0.184776 9.676537
vertex 3.304218 -0.076537 9.415224
vertex 3.304218 0.184776 9.523463
endloop
endfacet
facet normal 0.000000 0.956940 0.290286
outer loop
vertex -0.815781 0.184776 9.676538
vertex 3.304218 0.184776 9.676537
vertex 3.304218 0.196157 9.639018
endloop
endfacet
facet normal 0.000000 0.956940 0.290285
outer loop
vertex -0.815781 0.184776 9.676538
vertex 3.304218 0.196157 9.639018
vertex -0.815781 0.196157 9.639019
endloop
endfacet
facet normal 0.000000 0.995185 0.098019
outer loop
vertex -0.815781 0.196157 9.639019
vertex 3.304218 0.196157 9.639018
vertex 3.304218 0.200000 9.600000
endloop
endfacet
facet normal 0.000000 0.995185 0.098016
outer loop
vertex -0.815781 0.196157 9.639019
vertex 3.304218 0.200000 9.600000
vertex -0.815781 0.200000 9.600000
endloop
endfacet
facet normal -1.000000 -0.000025 0.000000
outer loop
vertex -0.815781 0.196157 9.639019
vertex -0.815781 0.200000 9.600000
vertex -0.815781 0.196157 9.560983
endloop
endfacet
facet normal -1.000000 0.000000 0.000000
outer loop
vertex -0.815781 0.196157 9.560983
vertex -0.815781 0.184776 9.523464
vertex -0.815781 0.166294 9.488887
endloop
endfacet
facet normal -1.000000 0.000000 0.000000
outer loop
vertex -0.815781 0.166294 9.488887
vertex -0.815781 0.141421 9.458579
vertex -0.815781 0.111114 9.433706
endloop
endfacet
facet normal -1.000000 0.000006 0.000000
outer loop
vertex -0.815781 0.111114 9.433706
vertex -0.815781 0.076537 9.415225
vertex -0.815781 0.039018 9.403844
endloop
endfacet
facet normal -1.000000 0.000000 0.000000
outer loop
vertex -0.815781 0.039018 9.403844
vertex -0.815781 -0.000000 9.400001
vertex -0.815781 -0.039018 9.403844
endloop
endfacet
facet normal -1.000000 -0.000006 0.000000
outer loop
vertex -0.815781 -0.039018 9.403844
vertex -0.815781 -0.076537 9.415225
vertex -0.815781 -0.111114 9.433706
endloop
endfacet
facet normal -1.000000 0.000000 0.000000
outer loop
vertex -0.815781 -0.111114 9.433706
vertex -0.815781 -0.141421 9.458579
vertex -0.815781 -0.166294 9.488887
endloop
endfacet
facet normal -1.000000 0.000000 0.000000
outer loop
vertex -0.815781 -0.166294 9.488887
vertex -0.815781 -0.184776 9.523464
vertex -0.815781 -0.196157 9.560983
endloop
endfacet
facet normal -1.000000 0.000025 0.000000
outer loop
vertex -0.815781 -0.196157 9.560983
vertex -0.815781 -0.200000 9.600000
vertex -0.815781 -0.196157 9.639019
endloop
endfacet
facet normal -1.000000 0.000000 0.000000
outer loop
vertex -0.815781 -0.196157 9.639019
vertex -0.815781 -0.184776 9.676538
vertex -0.815781 -0.166294 9.711115
endloop
endfacet
facet normal -1.000000 0.000000 0.000000
outer loop
vertex -0.815781 -0.166294 9.711115
vertex -0.815781 -0.141421 9.741422
vertex -0.815781 -0.111114 9.766294
endloop
endfacet
facet normal -1.000000 0.000006 0.000000
outer loop
vertex -0.815781 -0.111114 9.766294
vertex -0.815781 -0.076537 9.784777
vertex -0.815781 -0.039018 9.796158
endloop
endfacet
facet normal -1.000000 0.000000 0.000000
outer loop
vertex -0.815781 -0.039018 9.796158
vertex -0.815781 -0.000000 9.800000
vertex -0.815781 0.039018 9.796158
endloop
endfacet
facet normal -1.000000 -0.000006 0.000000
outer loop
vertex -0.815781 0.039018 9.796158
vertex -0.815781 0.076537 9.784777
vertex -0.815781 0.111114 9.766294
endloop
endfacet
facet normal -1.000000 0.000000 0.000000
outer loop
vertex -0.815781 0.111114 9.766294
vertex -0.815781 0.141421 9.741422
vertex -0.815781 0.166294 9.711115
endloop
endfacet
facet normal -1.000000 0.000000 0.000000
outer loop
vertex -0.815781 0.166294 9.711115
vertex -0.815781 0.184776 9.676538
vertex -0.815781 0.196157 9.639019
endloop
endfacet
facet normal -1.000000 0.000000 0.000000
outer loop
vertex -0.815781 0.196157 9.639019
vertex -0.815781 0.196157 9.560983
vertex -0.815781 0.166294 9.488887
endloop
endfacet
facet normal -1.000000 0.000000 0.000000
outer loop
vertex -0.815781 0.166294 9.488887
vertex -0.815781 0.111114 9.433706
vertex -0.815781 0.039018 9.403844
endloop
endfacet
facet normal -1.000000 0.000000 0.000000
outer loop
vertex -0.815781 0.039018 9.403844
vertex -0.815781 -0.039018 9.403844
vertex -0.815781 -0.111114 9.433706
endloop
endfacet
facet normal -1.000000 -0.000003 0.000000
outer loop
vertex -0.815781 -0.111114 9.433706
vertex -0.815781 -0.166294 9.488887
vertex -0.815781 -0.196157 9.560983
endloop
endfacet
facet normal -1.000000 0.000000 0.000000
outer loop
vertex -0.815781 -0.196157 9.560983
vertex -0.815781 -0.196157 9.639019
vertex -0.815781 -0.166294 9.711115
endloop
endfacet
facet normal -1.000000 -0.000002 0.000000
outer loop
vertex -0.815781 -0.166294 9.711115
vertex -0.815781 -0.111114 9.766294
vertex -0.815781 -0.039018 9.796158
endloop
endfacet
facet normal -1.000000 0.000000 0.000000
outer loop
vertex -0.815781 -0.039018 9.796158
vertex -0.815781 0.039018 9.796158
vertex -0.815781 0.111114 9.766294
endloop
endfacet
facet normal -1.000000 0.000000 0.000000
outer loop
vertex -0.815781 0.111114 9.766294
vertex -0.815781 0.166294 9.711115
vertex -0.815781 0.196157 9.639019
endloop
endfacet
facet normal -1.000000 0.000001 0.000000
outer loop
vertex -0.815781 0.196157 9.639019
vertex -0.815781 0.166294 9.488887
vertex -0.815781 0.039018 9.403844
endloop
endfacet
facet normal -1.000000 0.000001 0.000000
outer loop
vertex -0.815781 0.039018 9.403844
vertex -0.815781 -0.111114 9.433706
vertex -0.815781 -0.196157 9.560983
endloop
endfacet
facet normal -1.000000 -0.000001 0.000000
outer loop
vertex -0.815781 -0.196157 9.560983
vertex -0.815781 -0.166294 9.711115
vertex -0.815781 -0.039018 9.796158
endloop
endfacet
facet normal -1.000000 0.000000 0.000000
outer loop
vertex -0.815781 -0.039018 9.796158
vertex -0.815781 0.111114 9.766294
vertex -0.815781 0.196157 9.639019
endloop
endfacet
facet normal -1.000000 0.000000 0.000000
outer loop
vertex -0.815781 0.196157 9.639019
vertex -0.815781 0.039018 9.403844
vertex -0.815781 -0.196157 9.560983
endloop
endfacet
facet normal -1.000000 0.000000 0.000000
outer loop
vertex -0.815781 -0.196157 9.560983
vertex -0.815781 -0.039018 9.796158
vertex -0.815781 0.196157 9.639019
endloop
endfacet
facet normal -1.000000 0.000000 0.000000
outer loop
vertex -0.010000 -0.010000 7.414249
vertex -0.010000 -0.010000 9.414249
vertex -0.010000 0.010000 9.414249
endloop
endfacet
facet normal -1.000000 0.000000 0.000000
outer loop
vertex -0.010000 -0.010000 7.414249
vertex -0.010000 0.010000 9.414249
vertex -0.010000 0.010000 7.414249
endloop
endfacet
facet normal 0.000000 1.000000 0.000000
outer loop
vertex -0.010000 0.010000 7.414249
vertex -0.010000 0.010000 9.414249
vertex 0.010000 0.010000 9.414249
endloop
endfacet
facet normal 0.000000 1.000000 0.000000
outer loop
vertex -0.010000 0.010000 7.414249
vertex 0.010000 0.010000 9.414249
vertex 0.010000 0.010000 7.414249
endloop
endfacet
facet normal 1.000000 0.000000 0.000000
outer loop
vertex 0.010000 0.010000 7.414249
vertex 0.010000 0.010000 9.414249
vertex 0.010000 -0.010000 9.414249
endloop
endfacet
facet normal 1.000000 0.000000 0.000000
outer loop
vertex 0.010000 0.010000 7.414249
vertex 0.010000 -0.010000 9.414249
vertex 0.010000 -0.010000 7.414249
endloop
endfacet
facet normal 0.000000 -1.000000 0.000000
outer loop
vertex 0.010000 -0.010000 7.414249
vertex 0.010000 -0.010000 9.414249
vertex -0.010000 -0.010000 9.414249
endloop
endfacet
facet normal 0.000000 -1.000000 0.000000
outer loop
vertex 0.010000 -0.010000 7.414249
vertex -0.010000 -0.010000 9.414249
vertex -0.010000 -0.010000 7.414249
endloop
endfacet
facet normal 0.000000 0.000000 -1.000000
outer loop
vertex -0.010000 0.010000 7.414249
vertex 0.010000 0.010000 7.414249
vertex 0.010000 -0.010000 7.414249
endloop
endfacet
facet normal 0.000000 0.000000 -1.000000
outer loop
vertex -0.010000 0.010000 7.414249
vertex 0.010000 -0.010000 7.414249
vertex -0.010000 -0.010000 7.414249
endloop
endfacet
facet normal 0.000000 0.000000 1.000000
outer loop
vertex 0.010000 0.010000 9.414249
vertex -0.010000 0.010000 9.414249
vertex -0.010000 -0.010000 9.414249
endloop
endfacet
facet normal 0.000000 0.000000 1.000000
outer loop
vertex 0.010000 0.010000 9.414249
vertex -0.010000 -0.010000 9.414249
vertex 0.010000 -0.010000 9.414249
endloop
endfacet
facet normal 0.577360 0.577347 0.577344
outer loop
vertex 0.232764 0.180000 7.922327
vertex 0.180000 0.232764 7.922327
vertex 0.180000 0.180000 7.975091
endloop
endfacet
facet normal 0.672111 0.672112 0.310697
outer loop
vertex 0.180000 0.232764 7.922327
vertex 0.232764 0.180000 7.922327
vertex 0.288236 0.180000 7.802327
endloop
endfacet
facet normal 0.672110 0.672112 0.310698
outer loop
vertex 0.180000 0.232764 7.922327
vertex 0.288236 0.180000 7.802327
vertex 0.180000 0.288237 7.802327
endloop
endfacet
facet normal 0.707106 0.707108 0.000000
outer loop
vertex 0.180000 0.288237 7.802327
vertex 0.288236 0.180000 7.802327
vertex 0.288236 0.180000 7.682327
endloop
endfacet
facet normal 0.707106 0.707108 0.000000
outer loop
vertex 0.180000 0.288237 7.802327
vertex 0.288236 0.180000 7.682327
vertex 0.180000 0.288237 7.682327
endloop
endfacet
facet normal 0.871859 0.489756 0.000000
outer loop
vertex 0.288236 0.180000 7.682327
vertex 0.288236 0.180000 7.802327
vertex 0.300000 0.159059 7.802327
endloop
endfacet
facet normal 0.871859 0.489756 0.000000
outer loop
vertex 0.288236 0.180000 7.682327
vertex 0.300000 0.159059 7.802327
vertex 0.300000 0.159059 7.682327
endloop
endfacet
facet normal 0.944266 0.329183 0.000000
outer loop
vertex 0.300000 0.159059 7.802327
vertex 0.334533 0.060000 7.802327
vertex 0.334533 0.060000 7.682327
endloop
endfacet
facet normal 0.944267 0.329179 0.000000
outer loop
vertex 0.300000 0.159059 7.802327
vertex 0.334533 0.060000 7.682327
vertex 0.300000 0.159059 7.682327
endloop
endfacet
facet normal 0.896921 0.312676 -0.312677
outer loop
vertex 0.300000 0.159059 7.682327
vertex 0.334533 0.060000 7.682327
vertex 0.300000 0.060000 7.583269
endloop
endfacet
facet normal 0.944266 0.000000 -0.329183
outer loop
vertex 0.300000 0.060000 7.583269
vertex 0.334533 0.060000 7.682327
vertex 0.334533 -0.060000 7.682327
endloop
endfacet
facet normal 0.944267 0.000000 -0.329180
outer loop
vertex 0.300000 0.060000 7.583269
vertex 0.334533 -0.060000 7.682327
vertex 0.300000 -0.060000 7.583269
endloop
endfacet
facet normal 0.896921 -0.312676 -0.312677
outer loop
vertex 0.334533 -0.060000 7.682327
vertex 0.300000 -0.159059 7.682327
vertex 0.300000 -0.060000 7.583269
endloop
endfacet
facet normal 0.944266 -0.329183 0.000000
outer loop
vertex 0.334533 -0.060000 7.682327
vertex 0.334533 -0.060000 7.802327
vertex 0.300000 -0.159059 7.802327
endloop
endfacet
facet normal 0.944267 -0.329179 0.000000
outer loop
vertex 0.334533 -0.060000 7.682327
vertex 0.300000 -0.159059 7.802327
vertex 0.300000 -0.159059 7.682327
endloop
endfacet
facet normal 0.896921 -0.312676 0.312677
outer loop
vertex 0.300000 -0.159059 7.802327
vertex 0.334533 -0.060000 7.802327
vertex 0.300000 -0.060000 7.901386
endloop
endfacet
facet normal 0.944266 0.000000 0.329183
outer loop
vertex 0.334533 -0.060000 7.802327
vertex 0.334533 0.060000 7.802327
vertex 0.300000 0.060000 7.901386
endloop
endfacet
facet normal 0.944267 0.000000 0.329180
outer loop
vertex 0.334533 -0.060000 7.802327
vertex 0.300000 0.060000 7.901386
vertex 0.300000 -0.060000 7.901386
endloop
endfacet
facet normal 0.871858 0.000000 0.489759
outer loop
vertex 0.300000 0.060000 7.901386
vertex 0.288236 0.060000 7.922327
vertex 0.288236 -0.060000 7.922327
endloop
endfacet
facet normal 0.871868 0.000000 0.489741
outer loop
vertex 0.300000 0.060000 7.901386
vertex 0.288236 -0.060000 7.922327
vertex 0.300000 -0.060000 7.901386
endloop
endfacet
facet normal 0.707105 0.000000 0.707108
outer loop
vertex 0.288236 -0.060000 7.922327
vertex 0.288236 0.060000 7.922327
vertex 0.180000 0.060000 8.030563
endloop
endfacet
facet normal 0.707105 0.000000 0.707108
outer loop
vertex 0.288236 -0.060000 7.922327
vertex 0.180000 0.060000 8.030563
vertex 0.180000 -0.060000 8.030563
endloop
endfacet
facet normal 0.489709 0.000000 0.871886
outer loop
vertex 0.180000 0.060000 8.030563
vertex 0.159059 0.060000 8.042327
vertex 0.159059 -0.060000 8.042327
endloop
endfacet
facet normal 0.489803 0.000000 0.871833
outer loop
vertex 0.180000 0.060000 8.030563
vertex 0.159059 -0.060000 8.042327
vertex 0.180000 -0.060000 8.030563
endloop
endfacet
facet normal 0.329181 0.000000 0.944267
outer loop
vertex 0.159059 -0.060000 8.042327
vertex 0.159059 0.060000 8.042327
vertex 0.060000 0.060000 8.076860
endloop
endfacet
facet normal 0.329190 0.000000 0.944264
outer loop
vertex 0.159059 -0.060000 8.042327
vertex 0.060000 0.060000 8.076860
vertex 0.060000 -0.060000 8.076860
endloop
endfacet
facet normal 0.312679 -0.312680 0.896918
outer loop
vertex 0.060000 -0.159059 8.042327
vertex 0.159059 -0.060000 8.042327
vertex 0.060000 -0.060000 8.076860
endloop
endfacet
facet normal 0.000000 -0.329186 0.944265
outer loop
vertex -0.060000 -0.159059 8.042327
vertex 0.060000 -0.159059 8.042327
vertex 0.060000 -0.060000 8.076860
endloop
endfacet
facet normal 0.000000 -0.329186 0.944265
outer loop
vertex -0.060000 -0.159059 8.042327
vertex 0.060000 -0.060000 8.076860
vertex -0.060000 -0.060000 8.076860
endloop
endfacet
facet normal 0.000000 -0.489759 0.871858
outer loop
vertex 0.060000 -0.180000 8.030563
vertex 0.060000 -0.159059 8.042327
vertex -0.060000 -0.159059 8.042327
endloop
endfacet
facet normal 0.000000 -0.489759 0.871858
outer loop
vertex 0.060000 -0.180000 8.030563
vertex -0.060000 -0.159059 8.042327
vertex -0.060000 -0.180000 8.030563
endloop
endfacet
facet normal 0.000000 -0.707106 0.707107
outer loop
vertex -0.060000 -0.288237 7.922327
vertex 0.060000 -0.288237 7.922327
vertex 0.060000 -0.180000 8.030563
endloop
endfacet
facet normal 0.000000 -0.707106 0.707107
outer loop
vertex -0.060000 -0.288237 7.922327
vertex 0.060000 -0.180000 8.030563
vertex -0.060000 -0.180000 8.030563
endloop
endfacet
facet normal 0.000000 -0.871859 0.489758
outer loop
vertex 0.060000 -0.300000 7.901386
vertex 0.060000 -0.288237 7.922327
vertex -0.060000 -0.288237 7.922327
endloop
endfacet
facet normal 0.000000 -0.871860 0.489756
outer loop
vertex 0.060000 -0.300000 7.901386
vertex -0.060000 -0.288237 7.922327
vertex -0.060000 -0.300000 7.901386
endloop
endfacet
facet normal 0.000000 -0.944267 0.329181
outer loop
vertex -0.060000 -0.334533 7.802327
vertex 0.060000 -0.334533 7.802327
vertex 0.060000 -0.300000 7.901386
endloop
endfacet
facet normal 0.000000 -0.944267 0.329181
outer loop
vertex -0.060000 -0.334533 7.802327
vertex 0.060000 -0.300000 7.901386
vertex -0.060000 -0.300000 7.901386
endloop
endfacet
facet normal 0.000000 -1.000000 0.000000
outer loop
vertex 0.060000 -0.334533 7.682327
vertex 0.060000 -0.334533 7.802327
vertex -0.060000 -0.334533 7.802327
endloop
endfacet
facet normal 0.000000 -1.000000 0.000000
outer loop
vertex 0.060000 -0.334533 7.682327
vertex -0.060000 -0.334533 7.802327
vertex -0.060000 -0.334533 7.682327
endloop
endfacet
facet normal 0.000000 -0.944267 -0.329181
outer loop
vertex 0.060000 -0.300000 7.583269
vertex 0.060000 -0.334533 7.682327
vertex -0.060000 -0.334533 7.682327
endloop
endfacet
facet normal 0.000000 -0.944267 -0.329181
outer loop
vertex 0.060000 -0.300000 7.583269
vertex -0.060000 -0.334533 7.682327
vertex -0.060000 -0.300000 7.583269
endloop
endfacet
facet normal 0.000000 -0.871859 -0.489758
outer loop
vertex -0.060000 -0.288237 7.562327
vertex 0.060000 -0.288237 7.562327
vertex 0.060000 -0.300000 7.583269
endloop
endfacet
facet normal 0.000000 -0.871860 -0.489756
outer loop
vertex -0.060000 -0.288237 7.562327
vertex 0.060000 -0.300000 7.583269
vertex -0.060000 -0.300000 7.583269
endloop
endfacet
facet normal 0.000000 -0.707108 -0.707106
outer loop
vertex 0.060000 -0.180000 7.454091
vertex 0.060000 -0.288237 7.562327
vertex -0.060000 -0.288237 7.562327
endloop
endfacet
facet normal 0.000000 -0.707108 -0.707106
outer loop
vertex 0.060000 -0.180000 7.454091
vertex -0.060000 -0.288237 7.562327
vertex -0.060000 -0.180000 7.454091
endloop
endfacet
facet normal 0.000000 -0.489759 -0.871858
outer loop
vertex -0.060000 -0.159059 7.442327
vertex 0.060000 -0.159059 7.442327
vertex 0.060000 -0.180000 7.454091
endloop
endfacet
facet normal 0.000000 -0.489759 -0.871858
outer loop
vertex -0.060000 -0.159059 7.442327
vertex 0.060000 -0.180000 7.454091
vertex -0.060000 -0.180000 7.454091
endloop
endfacet
facet normal 0.000000 -0.329178 -0.944268
outer loop
vertex 0.060000 -0.060000 7.407794
vertex 0.060000 -0.159059 7.442327
vertex -0.060000 -0.159059 7.442327
endloop
endfacet
facet normal 0.000000 -0.329178 -0.944268
outer loop
vertex 0.060000 -0.060000 7.407794
vertex -0.060000 -0.159059 7.442327
vertex -0.060000 -0.060000 7.407794
endloop
endfacet
facet normal 0.000000 0.000000 -1.000000
outer loop
vertex -0.060000 0.060000 7.407794
vertex 0.060000 0.060000 7.407794
vertex 0.060000 -0.060000 7.407794
endloop
endfacet
facet normal 0.000000 0.000000 -1.000000
outer loop
vertex -0.060000 0.060000 7.407794
vertex 0.060000 -0.060000 7.407794
vertex -0.060000 -0.060000 7.407794
endloop
endfacet
facet normal 0.000000 0.329178 -0.944268
outer loop
vertex -0.060000 0.159059 7.442327
vertex 0.060000 0.159059 7.442327
vertex 0.060000 0.060000 7.407794
endloop
endfacet
facet normal 0.000000 0.329178 -0.944268
outer loop
vertex -0.060000 0.159059 7.442327
vertex 0.060000 0.060000 7.407794
vertex -0.060000 0.060000 7.407794
endloop
endfacet
facet normal 0.000000 0.489759 -0.871858
outer loop
vertex 0.060000 0.180000 7.454091
vertex 0.060000 0.159059 7.442327
vertex -0.060000 0.159059 7.442327
endloop
endfacet
facet normal 0.000000 0.489759 -0.871858
outer loop
vertex 0.060000 0.180000 7.454091
vertex -0.060000 0.159059 7.442327
vertex -0.060000 0.180000 7.454091
endloop
endfacet
facet normal 0.000000 0.707108 -0.707106
outer loop
vertex -0.060000 0.288237 7.562327
vertex 0.060000 0.288237 7.562327
vertex 0.060000 0.180000 7.454091
endloop
endfacet
facet normal 0.000000 0.707108 -0.707106
outer loop
vertex -0.060000 0.288237 7.562327
vertex 0.060000 0.180000 7.454091
vertex -0.060000 0.180000 7.454091
endloop
endfacet
facet normal 0.000000 0.871859 -0.489758
outer loop
vertex 0.060000 0.300000 7.583269
vertex 0.060000 0.288237 7.562327
vertex -0.060000 0.288237 7.562327
endloop
endfacet
facet normal 0.000000 0.871860 -0.489756
outer loop
vertex 0.060000 0.300000 7.583269
vertex -0.060000 0.288237 7.562327
vertex -0.060000 0.300000 7.583269
endloop
endfacet
facet normal 0.000000 0.944267 -0.329181
outer loop
vertex -0.060000 0.334533 7.682327
vertex 0.060000 0.334533 7.682327
vertex 0.060000 0.300000 7.583269
endloop
endfacet
facet normal 0.000000 0.944267 -0.329181
outer loop
vertex -0.060000 0.334533 7.682327
vertex 0.060000 0.300000 7.583269
vertex -0.060000 0.300000 7.583269
endloop
endfacet
facet normal 0.000000 1.000000 0.000000
outer loop
vertex -0.060000 0.334533 7.802327
vertex 0.060000 0.334533 7.802327
vertex 0.060000 0.334533 7.682327
endloop
endfacet
facet normal 0.000000 1.000000 0.000000
outer loop
vertex -0.060000 0.334533 7.802327
vertex 0.060000 0.334533 7.682327
vertex -0.060000 0.334533 7.682327
endloop
endfacet
facet normal 0.000000 0.944267 0.329181
outer loop
vertex 0.060000 0.300000 7.901386
vertex 0.060000 0.334533 7.802327
vertex -0.060000 0.334533 7.802327
endloop
endfacet
facet normal 0.000000 0.944267 0.329181
outer loop
vertex 0.060000 0.300000 7.901386
vertex -0.060000 0.334533 7.802327
vertex -0.060000 0.300000 7.901386
endloop
endfacet
facet normal 0.000000 0.871859 0.489758
outer loop
vertex -0.060000 0.288237 7.922327
vertex 0.060000 0.288237 7.922327
vertex 0.060000 0.300000 7.901386
endloop
endfacet
facet normal 0.000000 0.871860 0.489756
outer loop
vertex -0.060000 0.288237 7.922327
vertex 0.060000 0.300000 7.901386
vertex -0.060000 0.300000 7.901386
endloop
endfacet
facet normal 0.000000 0.707106 0.707107
outer loop
vertex 0.060000 0.180000 8.030563
vertex 0.060000 0.288237 7.922327
vertex -0.060000 0.288237 7.922327
endloop
endfacet
facet normal 0.000000 0.707106 0.707107
outer loop
vertex 0.060000 0.180000 8.030563
vertex -0.060000 0.288237 7.922327
vertex -0.060000 0.180000 8.030563
endloop
endfacet
facet normal 0.000000 0.489759 0.871858
outer loop
vertex -0.060000 0.159059 8.042327
vertex 0.060000 0.159059 8.042327
vertex 0.060000 0.180000 8.030563
endloop
endfacet
facet normal 0.000000 0.489759 0.871858
outer loop
vertex -0.060000 0.159059 8.042327
vertex 0.060000 0.180000 8.030563
vertex -0.060000 0.180000 8.030563
endloop
endfacet
facet normal 0.000000 0.329186 0.944265
outer loop
vertex 0.060000 0.060000 8.076860
vertex 0.060000 0.159059 8.042327
vertex -0.060000 0.159059 8.042327
endloop
endfacet
facet normal 0.000000 0.329186 0.944265
outer loop
vertex 0.060000 0.060000 8.076860
vertex -0.060000 0.159059 8.042327
vertex -0.060000 0.060000 8.076860
endloop
endfacet
facet normal -0.312679 0.312680 0.896918
outer loop
vertex -0.060000 0.159059 8.042327
vertex -0.159059 0.060000 8.042327
vertex -0.060000 0.060000 8.076860
endloop
endfacet
facet normal -0.329181 0.000000 0.944267
outer loop
vertex -0.060000 0.060000 8.076860
vertex -0.159059 0.060000 8.042327
vertex -0.159059 -0.060000 8.042327
endloop
endfacet
facet normal -0.329190 0.000000 0.944264
outer loop
vertex -0.060000 0.060000 8.076860
vertex -0.159059 -0.060000 8.042327
vertex -0.060000 -0.060000 8.076860
endloop
endfacet
facet normal -0.489709 0.000000 0.871886
outer loop
vertex -0.159059 -0.060000 8.042327
vertex -0.159059 0.060000 8.042327
vertex -0.180000 0.060000 8.030563
endloop
endfacet
facet normal -0.489803 0.000000 0.871833
outer loop
vertex -0.159059 -0.060000 8.042327
vertex -0.180000 0.060000 8.030563
vertex -0.180000 -0.060000 8.030563
endloop
endfacet
facet normal -0.707105 0.000000 0.707108
outer loop
vertex -0.180000 0.060000 8.030563
vertex -0.288236 0.060000 7.922327
vertex -0.288236 -0.060000 7.922327
endloop
endfacet
facet normal -0.707105 0.000000 0.707108
outer loop
vertex -0.180000 0.060000 8.030563
vertex -0.288236 -0.060000 7.922327
vertex -0.180000 -0.060000 8.030563
endloop
endfacet
facet normal -0.871858 0.000000 0.489759
outer loop
vertex -0.288236 -0.060000 7.922327
vertex -0.288236 0.060000 7.922327
vertex -0.300000 0.060000 7.901386
endloop
endfacet
facet normal -0.871868 0.000000 0.489741
outer loop
vertex -0.288236 -0.060000 7.922327
vertex -0.300000 0.060000 7.901386
vertex -0.300000 -0.060000 7.901386
endloop
endfacet
facet normal -0.808651 0.454252 0.373817
outer loop
vertex -0.232764 0.180000 7.922327
vertex -0.288236 0.180000 7.802327
vertex -0.300000 0.159059 7.802327
endloop
endfacet
facet normal -0.828988 0.395461 0.395462
outer loop
vertex -0.232764 0.180000 7.922327
vertex -0.300000 0.159059 7.802327
vertex -0.300000 0.060000 7.901386
endloop
endfacet
facet normal -0.808650 0.373817 0.454253
outer loop
vertex -0.288236 0.060000 7.922327
vertex -0.232764 0.180000 7.922327
vertex -0.300000 0.060000 7.901386
endloop
endfacet
facet normal -0.871859 0.489756 0.000000
outer loop
vertex -0.300000 0.159059 7.802327
vertex -0.288236 0.180000 7.802327
vertex -0.288236 0.180000 7.682327
endloop
endfacet
facet normal -0.871859 0.489756 0.000000
outer loop
vertex -0.300000 0.159059 7.802327
vertex -0.288236 0.180000 7.682327
vertex -0.300000 0.159059 7.682327
endloop
endfacet
facet normal -0.837005 0.386925 -0.386925
outer loop
vertex -0.288236 0.180000 7.682327
vertex -0.232764 0.180000 7.562327
vertex -0.288236 0.060000 7.562327
endloop
endfacet
facet normal -0.783010 0.439826 -0.439828
outer loop
vertex -0.288236 0.180000 7.682327
vertex -0.288236 0.060000 7.562327
vertex -0.300000 0.060000 7.583269
endloop
endfacet
facet normal -0.782989 0.439846 -0.439845
outer loop
vertex -0.300000 0.159059 7.682327
vertex -0.288236 0.180000 7.682327
vertex -0.300000 0.060000 7.583269
endloop
endfacet
facet normal -0.672114 0.672109 -0.310696
outer loop
vertex -0.232764 0.180000 7.562327
vertex -0.288236 0.180000 7.682327
vertex -0.180000 0.288237 7.682327
endloop
endfacet
facet normal -0.672107 0.672115 -0.310699
outer loop
vertex -0.232764 0.180000 7.562327
vertex -0.180000 0.288237 7.682327
vertex -0.180000 0.232764 7.562327
endloop
endfacet
facet normal -0.577360 0.577347 -0.577344
outer loop
vertex -0.232764 0.180000 7.562327
vertex -0.180000 0.232764 7.562327
vertex -0.180000 0.180000 7.509563
endloop
endfacet
facet normal -0.871848 0.000000 -0.489776
outer loop
vertex -0.300000 0.060000 7.583269
vertex -0.288236 0.060000 7.562327
vertex -0.288236 -0.060000 7.562327
endloop
endfacet
facet normal -0.871868 0.000000 -0.489741
outer loop
vertex -0.300000 0.060000 7.583269
vertex -0.288236 -0.060000 7.562327
vertex -0.300000 -0.060000 7.583269
endloop
endfacet
facet normal -0.707109 0.000000 -0.707105
outer loop
vertex -0.288236 -0.060000 7.562327
vertex -0.288236 0.060000 7.562327
vertex -0.180000 0.060000 7.454091
endloop
endfacet
facet normal -0.707109 0.000000 -0.707105
outer loop
vertex -0.288236 -0.060000 7.562327
vertex -0.180000 0.060000 7.454091
vertex -0.180000 -0.060000 7.454091
endloop
endfacet
facet normal -0.672113 -0.310697 -0.672110
outer loop
vertex -0.232764 -0.180000 7.562327
vertex -0.288236 -0.060000 7.562327
vertex -0.180000 -0.060000 7.454091
endloop
endfacet
facet normal -0.672118 -0.310694 -0.672106
outer loop
vertex -0.232764 -0.180000 7.562327
vertex -0.180000 -0.060000 7.454091
vertex -0.180000 -0.180000 7.509563
endloop
endfacet
facet normal -0.489772 0.000000 -0.871851
outer loop
vertex -0.180000 0.060000 7.454091
vertex -0.159059 0.060000 7.442327
vertex -0.159059 -0.060000 7.442327
endloop
endfacet
facet normal -0.489740 0.000000 -0.871868
outer loop
vertex -0.180000 0.060000 7.454091
vertex -0.159059 -0.060000 7.442327
vertex -0.180000 -0.060000 7.454091
endloop
endfacet
facet normal -0.808651 -0.454252 -0.373817
outer loop
vertex -0.232764 -0.180000 7.562327
vertex -0.288236 -0.180000 7.682327
vertex -0.300000 -0.159059 7.682327
endloop
endfacet
facet normal -0.828985 -0.395464 -0.395464
outer loop
vertex -0.232764 -0.180000 7.562327
vertex -0.300000 -0.159059 7.682327
vertex -0.300000 -0.060000 7.583269
endloop
endfacet
facet normal -0.808637 -0.373829 -0.454267
outer loop
vertex -0.288236 -0.060000 7.562327
vertex -0.232764 -0.180000 7.562327
vertex -0.300000 -0.060000 7.583269
endloop
endfacet
facet normal -0.871859 -0.489756 0.000000
outer loop
vertex -0.288236 -0.180000 7.682327
vertex -0.288236 -0.180000 7.802327
vertex -0.300000 -0.159059 7.802327
endloop
endfacet
facet normal -0.871859 -0.489756 0.000000
outer loop
vertex -0.288236 -0.180000 7.682327
vertex -0.300000 -0.159059 7.802327
vertex -0.300000 -0.159059 7.682327
endloop
endfacet
facet normal -0.707106 -0.707108 0.000000
outer loop
vertex -0.180000 -0.288237 7.802327
vertex -0.288236 -0.180000 7.802327
vertex -0.288236 -0.180000 7.682327
endloop
endfacet
facet normal -0.707106 -0.707108 0.000000
outer loop
vertex -0.180000 -0.288237 7.802327
vertex -0.288236 -0.180000 7.682327
vertex -0.180000 -0.288237 7.682327
endloop
endfacet
facet normal -0.489756 -0.871859 0.000000
outer loop
vertex -0.159059 -0.300000 7.682327
vertex -0.159059 -0.300000 7.802327
vertex -0.180000 -0.288237 7.802327
endloop
endfacet
facet normal -0.489757 -0.871859 0.000000
outer loop
vertex -0.159059 -0.300000 7.682327
vertex -0.180000 -0.288237 7.802327
vertex -0.180000 -0.288237 7.682327
endloop
endfacet
facet normal -0.944266 -0.329183 0.000000
outer loop
vertex -0.300000 -0.159059 7.802327
vertex -0.334533 -0.060000 7.802327
vertex -0.334533 -0.060000 7.682327
endloop
endfacet
facet normal -0.944267 -0.329179 0.000000
outer loop
vertex -0.300000 -0.159059 7.802327
vertex -0.334533 -0.060000 7.682327
vertex -0.300000 -0.159059 7.682327
endloop
endfacet
facet normal -0.896921 -0.312676 0.312677
outer loop
vertex -0.334533 -0.060000 7.802327
vertex -0.300000 -0.159059 7.802327
vertex -0.300000 -0.060000 7.901386
endloop
endfacet
facet normal -1.000000 0.000000 0.000000
outer loop
vertex -0.334533 -0.060000 7.802327
vertex -0.334533 0.060000 7.802327
vertex -0.334533 0.060000 7.682327
endloop
endfacet
facet normal -1.000000 0.000000 0.000000
outer loop
vertex -0.334533 -0.060000 7.802327
vertex -0.334533 0.060000 7.682327
vertex -0.334533 -0.060000 7.682327
endloop
endfacet
facet normal -0.672114 -0.672109 -0.310696
outer loop
vertex -0.180000 -0.288237 7.682327
vertex -0.288236 -0.180000 7.682327
vertex -0.232764 -0.180000 7.562327
endloop
endfacet
facet normal -0.672107 -0.672115 -0.310699
outer loop
vertex -0.180000 -0.288237 7.682327
vertex -0.232764 -0.180000 7.562327
vertex -0.180000 -0.232764 7.562327
endloop
endfacet
facet normal -0.896921 -0.312676 -0.312677
outer loop
vertex -0.300000 -0.159059 7.682327
vertex -0.334533 -0.060000 7.682327
vertex -0.300000 -0.060000 7.583269
endloop
endfacet
facet normal -0.944266 0.000000 -0.329183
outer loop
vertex -0.334533 -0.060000 7.682327
vertex -0.334533 0.060000 7.682327
vertex -0.300000 0.060000 7.583269
endloop
endfacet
facet normal -0.944267 0.000000 -0.329180
outer loop
vertex -0.334533 -0.060000 7.682327
vertex -0.300000 0.060000 7.583269
vertex -0.300000 -0.060000 7.583269
endloop
endfacet
facet normal -0.896921 0.312676 -0.312677
outer loop
vertex -0.334533 0.060000 7.682327
vertex -0.300000 0.159059 7.682327
vertex -0.300000 0.060000 7.583269
endloop
endfacet
facet normal -0.707106 0.707108 0.000000
outer loop
vertex -0.288236 0.180000 7.682327
vertex -0.288236 0.180000 7.802327
vertex -0.180000 0.288237 7.802327
endloop
endfacet
facet normal -0.707106 0.707108 0.000000
outer loop
vertex -0.288236 0.180000 7.682327
vertex -0.180000 0.288237 7.802327
vertex -0.180000 0.288237 7.682327
endloop
endfacet
facet normal -0.489756 0.871859 0.000000
outer loop
vertex -0.180000 0.288237 7.802327
vertex -0.159059 0.300000 7.802327
vertex -0.159059 0.300000 7.682327
endloop
endfacet
facet normal -0.489757 0.871859 0.000000
outer loop
vertex -0.180000 0.288237 7.802327
vertex -0.159059 0.300000 7.682327
vertex -0.180000 0.288237 7.682327
endloop
endfacet
facet normal -0.944266 0.329183 0.000000
outer loop
vertex -0.334533 0.060000 7.682327
vertex -0.334533 0.060000 7.802327
vertex -0.300000 0.159059 7.802327
endloop
endfacet
facet normal -0.944267 0.329179 0.000000
outer loop
vertex -0.334533 0.060000 7.682327
vertex -0.300000 0.159059 7.802327
vertex -0.300000 0.159059 7.682327
endloop
endfacet
facet normal -0.672111 0.672112 0.310697
outer loop
vertex -0.288236 0.180000 7.802327
vertex -0.232764 0.180000 7.922327
vertex -0.180000 0.232764 7.922327
endloop
endfacet
facet normal -0.672112 0.672111 0.310697
outer loop
vertex -0.288236 0.180000 7.802327
vertex -0.180000 0.232764 7.922327
vertex -0.180000 0.288237 7.802327
endloop
endfacet
facet normal -0.577360 0.577347 0.577344
outer loop
vertex -0.180000 0.232764 7.922327
vertex -0.232764 0.180000 7.922327
vertex -0.180000 0.180000 7.975091
endloop
endfacet
facet normal -0.837007 -0.386923 0.386923
outer loop
vertex -0.288236 -0.180000 7.802327
vertex -0.232764 -0.180000 7.922327
vertex -0.288236 -0.060000 7.922327
endloop
endfacet
facet normal -0.783010 -0.439826 0.439828
outer loop
vertex -0.288236 -0.180000 7.802327
vertex -0.288236 -0.060000 7.922327
vertex -0.300000 -0.060000 7.901386
endloop
endfacet
facet normal -0.782989 -0.439846 0.439845
outer loop
vertex -0.300000 -0.159059 7.802327
vertex -0.288236 -0.180000 7.802327
vertex -0.300000 -0.060000 7.901386
endloop
endfacet
facet normal -0.944266 0.000000 0.329183
outer loop
vertex -0.300000 0.060000 7.901386
vertex -0.334533 0.060000 7.802327
vertex -0.334533 -0.060000 7.802327
endloop
endfacet
facet normal -0.944267 0.000000 0.329180
outer loop
vertex -0.300000 0.060000 7.901386
vertex -0.334533 -0.060000 7.802327
vertex -0.300000 -0.060000 7.901386
endloop
endfacet
facet normal -0.672117 0.310696 0.672106
outer loop
vertex -0.180000 0.180000 7.975091
vertex -0.232764 0.180000 7.922327
vertex -0.288236 0.060000 7.922327
endloop
endfacet
facet normal -0.672110 0.310695 0.672113
outer loop
vertex -0.180000 0.180000 7.975091
vertex -0.288236 0.060000 7.922327
vertex -0.180000 0.060000 8.030563
endloop
endfacet
facet normal -0.672110 -0.310697 0.672113
outer loop
vertex -0.180000 -0.060000 8.030563
vertex -0.288236 -0.060000 7.922327
vertex -0.232764 -0.180000 7.922327
endloop
endfacet
facet normal -0.672118 -0.310692 0.672107
outer loop
vertex -0.180000 -0.060000 8.030563
vertex -0.232764 -0.180000 7.922327
vertex -0.180000 -0.180000 7.975091
endloop
endfacet
facet normal -0.577360 -0.577347 0.577344
outer loop
vertex -0.232764 -0.180000 7.922327
vertex -0.180000 -0.232764 7.922327
vertex -0.180000 -0.180000 7.975091
endloop
endfacet
facet normal -0.312670 0.896923 0.312676
outer loop
vertex -0.060000 0.334533 7.802327
vertex -0.159059 0.300000 7.802327
vertex -0.060000 0.300000 7.901386
endloop
endfacet
facet normal 0.329182 0.944267 0.000000
outer loop
vertex 0.060000 0.334533 7.802327
vertex 0.159059 0.300000 7.802327
vertex 0.159059 0.300000 7.682327
endloop
endfacet
facet normal 0.329182 0.944267 0.000000
outer loop
vertex 0.060000 0.334533 7.802327
vertex 0.159059 0.300000 7.682327
vertex 0.060000 0.334533 7.682327
endloop
endfacet
facet normal -0.329182 0.944267 0.000000
outer loop
vertex -0.159059 0.300000 7.682327
vertex -0.159059 0.300000 7.802327
vertex -0.060000 0.334533 7.802327
endloop
endfacet
facet normal -0.329182 0.944267 0.000000
outer loop
vertex -0.159059 0.300000 7.682327
vertex -0.060000 0.334533 7.802327
vertex -0.060000 0.334533 7.682327
endloop
endfacet
facet normal 0.312675 0.896921 -0.312676
outer loop
vertex 0.060000 0.334533 7.682327
vertex 0.159059 0.300000 7.682327
vertex 0.060000 0.300000 7.583269
endloop
endfacet
facet normal -0.312675 0.896921 -0.312676
outer loop
vertex -0.159059 0.300000 7.682327
vertex -0.060000 0.334533 7.682327
vertex -0.060000 0.300000 7.583269
endloop
endfacet
facet normal 0.310695 0.672113 -0.672110
outer loop
vertex 0.060000 0.288237 7.562327
vertex 0.180000 0.232764 7.562327
vertex 0.180000 0.180000 7.509563
endloop
endfacet
facet normal 0.310695 0.672113 -0.672111
outer loop
vertex 0.060000 0.288237 7.562327
vertex 0.180000 0.180000 7.509563
vertex 0.060000 0.180000 7.454091
endloop
endfacet
facet normal 0.577360 0.577347 -0.577344
outer loop
vertex 0.180000 0.232764 7.562327
vertex 0.232764 0.180000 7.562327
vertex 0.180000 0.180000 7.509563
endloop
endfacet
facet normal 0.672117 0.310696 -0.672106
outer loop
vertex 0.180000 0.180000 7.509563
vertex 0.232764 0.180000 7.562327
vertex 0.288236 0.060000 7.562327
endloop
endfacet
facet normal 0.672113 0.310696 -0.672110
outer loop
vertex 0.180000 0.180000 7.509563
vertex 0.288236 0.060000 7.562327
vertex 0.180000 0.060000 7.454091
endloop
endfacet
facet normal 0.707109 0.000000 -0.707105
outer loop
vertex 0.180000 0.060000 7.454091
vertex 0.288236 0.060000 7.562327
vertex 0.288236 -0.060000 7.562327
endloop
endfacet
facet normal 0.707109 0.000000 -0.707105
outer loop
vertex 0.180000 0.060000 7.454091
vertex 0.288236 -0.060000 7.562327
vertex 0.180000 -0.060000 7.454091
endloop
endfacet
facet normal 0.672113 -0.310697 -0.672110
outer loop
vertex 0.180000 -0.060000 7.454091
vertex 0.288236 -0.060000 7.562327
vertex 0.232764 -0.180000 7.562327
endloop
endfacet
facet normal 0.672118 -0.310694 -0.672106
outer loop
vertex 0.180000 -0.060000 7.454091
vertex 0.232764 -0.180000 7.562327
vertex 0.180000 -0.180000 7.509563
endloop
endfacet
facet normal 0.577360 -0.577347 -0.577344
outer loop
vertex 0.232764 -0.180000 7.562327
vertex 0.180000 -0.232764 7.562327
vertex 0.180000 -0.180000 7.509563
endloop
endfacet
facet normal 0.672114 -0.672109 -0.310696
outer loop
vertex 0.232764 -0.180000 7.562327
vertex 0.288236 -0.180000 7.682327
vertex 0.180000 -0.288237 7.682327
endloop
endfacet
facet normal 0.672107 -0.672115 -0.310699
outer loop
vertex 0.232764 -0.180000 7.562327
vertex 0.180000 -0.288237 7.682327
vertex 0.180000 -0.232764 7.562327
endloop
endfacet
facet normal 0.707106 -0.707108 0.000000
outer loop
vertex 0.288236 -0.180000 7.682327
vertex 0.288236 -0.180000 7.802327
vertex 0.180000 -0.288237 7.802327
endloop
endfacet
facet normal 0.707106 -0.707108 0.000000
outer loop
vertex 0.288236 -0.180000 7.682327
vertex 0.180000 -0.288237 7.802327
vertex 0.180000 -0.288237 7.682327
endloop
endfacet
facet normal 0.672111 -0.672112 0.310697
outer loop
vertex 0.288236 -0.180000 7.802327
vertex 0.232764 -0.180000 7.922327
vertex 0.180000 -0.232764 7.922327
endloop
endfacet
facet normal 0.672112 -0.672111 0.310697
outer loop
vertex 0.288236 -0.180000 7.802327
vertex 0.180000 -0.232764 7.922327
vertex 0.180000 -0.288237 7.802327
endloop
endfacet
facet normal 0.577360 -0.577347 0.577344
outer loop
vertex 0.180000 -0.232764 7.922327
vertex 0.232764 -0.180000 7.922327
vertex 0.180000 -0.180000 7.975091
endloop
endfacet
facet normal 0.489756 -0.871859 0.000000
outer loop
vertex 0.180000 -0.288237 7.802327
vertex 0.159059 -0.300000 7.802327
vertex 0.159059 -0.300000 7.682327
endloop
endfacet
facet normal 0.489757 -0.871859 0.000000
outer loop
vertex 0.180000 -0.288237 7.802327
vertex 0.159059 -0.300000 7.682327
vertex 0.180000 -0.288237 7.682327
endloop
endfacet
facet normal 0.489772 0.000000 -0.871851
outer loop
vertex 0.159059 -0.060000 7.442327
vertex 0.159059 0.060000 7.442327
vertex 0.180000 0.060000 7.454091
endloop
endfacet
facet normal 0.489740 0.000000 -0.871868
outer loop
vertex 0.159059 -0.060000 7.442327
vertex 0.180000 0.060000 7.454091
vertex 0.180000 -0.060000 7.454091
endloop
endfacet
facet normal -0.310700 0.672111 -0.672110
outer loop
vertex -0.180000 0.232764 7.562327
vertex -0.060000 0.288237 7.562327
vertex -0.060000 0.180000 7.454091
endloop
endfacet
facet normal -0.310690 0.672115 -0.672111
outer loop
vertex -0.180000 0.232764 7.562327
vertex -0.060000 0.180000 7.454091
vertex -0.180000 0.180000 7.509563
endloop
endfacet
facet normal 0.439837 0.439842 -0.782996
outer loop
vertex 0.180000 0.060000 7.454091
vertex 0.159059 0.060000 7.442327
vertex 0.060000 0.159059 7.442327
endloop
endfacet
facet normal 0.439845 0.439840 -0.782992
outer loop
vertex 0.180000 0.060000 7.454091
vertex 0.060000 0.159059 7.442327
vertex 0.060000 0.180000 7.454091
endloop
endfacet
facet normal 0.386921 0.386923 -0.837008
outer loop
vertex 0.180000 0.180000 7.509563
vertex 0.180000 0.060000 7.454091
vertex 0.060000 0.180000 7.454091
endloop
endfacet
facet normal -0.439873 0.439833 -0.782981
outer loop
vertex -0.060000 0.180000 7.454091
vertex -0.060000 0.159059 7.442327
vertex -0.159059 0.060000 7.442327
endloop
endfacet
facet normal -0.439823 0.439845 -0.783002
outer loop
vertex -0.060000 0.180000 7.454091
vertex -0.159059 0.060000 7.442327
vertex -0.180000 0.060000 7.454091
endloop
endfacet
facet normal -0.386921 0.386923 -0.837008
outer loop
vertex -0.180000 0.180000 7.509563
vertex -0.060000 0.180000 7.454091
vertex -0.180000 0.060000 7.454091
endloop
endfacet
facet normal -0.312670 0.312674 -0.896924
outer loop
vertex -0.159059 0.060000 7.442327
vertex -0.060000 0.159059 7.442327
vertex -0.060000 0.060000 7.407794
endloop
endfacet
facet normal 0.329181 0.000000 -0.944267
outer loop
vertex 0.060000 0.060000 7.407794
vertex 0.159059 0.060000 7.442327
vertex 0.159059 -0.060000 7.442327
endloop
endfacet
facet normal 0.329173 0.000000 -0.944270
outer loop
vertex 0.060000 0.060000 7.407794
vertex 0.159059 -0.060000 7.442327
vertex 0.060000 -0.060000 7.407794
endloop
endfacet
facet normal -0.329181 0.000000 -0.944267
outer loop
vertex -0.159059 -0.060000 7.442327
vertex -0.159059 0.060000 7.442327
vertex -0.060000 0.060000 7.407794
endloop
endfacet
facet normal -0.329173 0.000000 -0.944270
outer loop
vertex -0.159059 -0.060000 7.442327
vertex -0.060000 0.060000 7.407794
vertex -0.060000 -0.060000 7.407794
endloop
endfacet
facet normal 0.312670 -0.312674 -0.896924
outer loop
vertex 0.159059 -0.060000 7.442327
vertex 0.060000 -0.159059 7.442327
vertex 0.060000 -0.060000 7.407794
endloop
endfacet
facet normal -0.312670 -0.312674 -0.896924
outer loop
vertex -0.060000 -0.159059 7.442327
vertex -0.159059 -0.060000 7.442327
vertex -0.060000 -0.060000 7.407794
endloop
endfacet
facet normal 0.454235 -0.373819 -0.808659
outer loop
vertex 0.159059 -0.060000 7.442327
vertex 0.180000 -0.060000 7.454091
vertex 0.180000 -0.180000 7.509563
endloop
endfacet
facet normal 0.384724 -0.399173 -0.832255
outer loop
vertex 0.159059 -0.060000 7.442327
vertex 0.180000 -0.180000 7.509563
vertex 0.060000 -0.180000 7.454091
endloop
endfacet
facet normal 0.439873 -0.439833 -0.782981
outer loop
vertex 0.060000 -0.159059 7.442327
vertex 0.159059 -0.060000 7.442327
vertex 0.060000 -0.180000 7.454091
endloop
endfacet
facet normal -0.439864 -0.439835 -0.782985
outer loop
vertex -0.159059 -0.060000 7.442327
vertex -0.060000 -0.159059 7.442327
vertex -0.060000 -0.180000 7.454091
endloop
endfacet
facet normal -0.384724 -0.399173 -0.832255
outer loop
vertex -0.159059 -0.060000 7.442327
vertex -0.060000 -0.180000 7.454091
vertex -0.180000 -0.180000 7.509563
endloop
endfacet
facet normal -0.454235 -0.373819 -0.808659
outer loop
vertex -0.180000 -0.060000 7.454091
vertex -0.159059 -0.060000 7.442327
vertex -0.180000 -0.180000 7.509563
endloop
endfacet
facet normal -0.310697 -0.672112 -0.672111
outer loop
vertex -0.060000 -0.180000 7.454091
vertex -0.060000 -0.288237 7.562327
vertex -0.180000 -0.232764 7.562327
endloop
endfacet
facet normal -0.310690 -0.672115 -0.672111
outer loop
vertex -0.060000 -0.180000 7.454091
vertex -0.180000 -0.232764 7.562327
vertex -0.180000 -0.180000 7.509563
endloop
endfacet
facet normal 0.454239 -0.808657 -0.373819
outer loop
vertex 0.180000 -0.232764 7.562327
vertex 0.180000 -0.288237 7.682327
vertex 0.159059 -0.300000 7.682327
endloop
endfacet
facet normal 0.395468 -0.828982 -0.395466
outer loop
vertex 0.180000 -0.232764 7.562327
vertex 0.159059 -0.300000 7.682327
vertex 0.060000 -0.300000 7.583269
endloop
endfacet
facet normal 0.373825 -0.808650 -0.454246
outer loop
vertex 0.060000 -0.288237 7.562327
vertex 0.180000 -0.232764 7.562327
vertex 0.060000 -0.300000 7.583269
endloop
endfacet
facet normal -0.439838 -0.782997 -0.439839
outer loop
vertex -0.060000 -0.300000 7.583269
vertex -0.159059 -0.300000 7.682327
vertex -0.180000 -0.288237 7.682327
endloop
endfacet
facet normal -0.399172 -0.832254 -0.384727
outer loop
vertex -0.060000 -0.300000 7.583269
vertex -0.180000 -0.288237 7.682327
vertex -0.180000 -0.232764 7.562327
endloop
endfacet
facet normal -0.373825 -0.808650 -0.454246
outer loop
vertex -0.060000 -0.288237 7.562327
vertex -0.060000 -0.300000 7.583269
vertex -0.180000 -0.232764 7.562327
endloop
endfacet
facet normal 0.312675 -0.896921 -0.312676
outer loop
vertex 0.159059 -0.300000 7.682327
vertex 0.060000 -0.334533 7.682327
vertex 0.060000 -0.300000 7.583269
endloop
endfacet
facet normal -0.312675 -0.896921 -0.312676
outer loop
vertex -0.060000 -0.334533 7.682327
vertex -0.159059 -0.300000 7.682327
vertex -0.060000 -0.300000 7.583269
endloop
endfacet
facet normal 0.329182 -0.944267 0.000000
outer loop
vertex 0.159059 -0.300000 7.682327
vertex 0.159059 -0.300000 7.802327
vertex 0.060000 -0.334533 7.802327
endloop
endfacet
facet normal 0.329182 -0.944267 0.000000
outer loop
vertex 0.159059 -0.300000 7.682327
vertex 0.060000 -0.334533 7.802327
vertex 0.060000 -0.334533 7.682327
endloop
endfacet
facet normal -0.329182 -0.944267 0.000000
outer loop
vertex -0.060000 -0.334533 7.802327
vertex -0.159059 -0.300000 7.802327
vertex -0.159059 -0.300000 7.682327
endloop
endfacet
facet normal -0.329182 -0.944267 0.000000
outer loop
vertex -0.060000 -0.334533 7.802327
vertex -0.159059 -0.300000 7.682327
vertex -0.060000 -0.334533 7.682327
endloop
endfacet
facet normal -0.312670 -0.896923 0.312676
outer loop
vertex -0.159059 -0.300000 7.802327
vertex -0.060000 -0.334533 7.802327
vertex -0.060000 -0.300000 7.901386
endloop
endfacet
facet normal 0.386924 -0.837007 0.386923
outer loop
vertex 0.180000 -0.288237 7.802327
vertex 0.180000 -0.232764 7.922327
vertex 0.060000 -0.288237 7.922327
endloop
endfacet
facet normal 0.439838 -0.782997 0.439838
outer loop
vertex 0.180000 -0.288237 7.802327
vertex 0.060000 -0.288237 7.922327
vertex 0.060000 -0.300000 7.901386
endloop
endfacet
facet normal 0.439837 -0.782996 0.439840
outer loop
vertex 0.159059 -0.300000 7.802327
vertex 0.180000 -0.288237 7.802327
vertex 0.060000 -0.300000 7.901386
endloop
endfacet
facet normal -0.373792 -0.808662 0.454253
outer loop
vertex -0.060000 -0.300000 7.901386
vertex -0.060000 -0.288237 7.922327
vertex -0.180000 -0.232764 7.922327
endloop
endfacet
facet normal -0.399178 -0.832252 0.384726
outer loop
vertex -0.060000 -0.300000 7.901386
vertex -0.180000 -0.232764 7.922327
vertex -0.180000 -0.288237 7.802327
endloop
endfacet
facet normal -0.439837 -0.782996 0.439840
outer loop
vertex -0.159059 -0.300000 7.802327
vertex -0.060000 -0.300000 7.901386
vertex -0.180000 -0.288237 7.802327
endloop
endfacet
facet normal 0.310695 -0.672113 0.672110
outer loop
vertex 0.060000 -0.288237 7.922327
vertex 0.180000 -0.232764 7.922327
vertex 0.180000 -0.180000 7.975091
endloop
endfacet
facet normal 0.310695 -0.672111 0.672112
outer loop
vertex 0.060000 -0.288237 7.922327
vertex 0.180000 -0.180000 7.975091
vertex 0.060000 -0.180000 8.030563
endloop
endfacet
facet normal -0.310701 -0.672110 0.672111
outer loop
vertex -0.180000 -0.232764 7.922327
vertex -0.060000 -0.288237 7.922327
vertex -0.060000 -0.180000 8.030563
endloop
endfacet
facet normal -0.310690 -0.672115 0.672111
outer loop
vertex -0.180000 -0.232764 7.922327
vertex -0.060000 -0.180000 8.030563
vertex -0.180000 -0.180000 7.975091
endloop
endfacet
facet normal -0.312679 -0.312680 0.896918
outer loop
vertex -0.159059 -0.060000 8.042327
vertex -0.060000 -0.159059 8.042327
vertex -0.060000 -0.060000 8.076860
endloop
endfacet
facet normal 0.000000 0.000000 1.000000
outer loop
vertex 0.060000 -0.060000 8.076860
vertex 0.060000 0.060000 8.076860
vertex -0.060000 0.060000 8.076860
endloop
endfacet
facet normal 0.000000 0.000000 1.000000
outer loop
vertex 0.060000 -0.060000 8.076860
vertex -0.060000 0.060000 8.076860
vertex -0.060000 -0.060000 8.076860
endloop
endfacet
facet normal 0.454205 0.373823 0.808674
outer loop
vertex 0.159059 0.060000 8.042327
vertex 0.180000 0.060000 8.030563
vertex 0.180000 0.180000 7.975091
endloop
endfacet
facet normal 0.384736 0.399169 0.832251
outer loop
vertex 0.159059 0.060000 8.042327
vertex 0.180000 0.180000 7.975091
vertex 0.060000 0.180000 8.030563
endloop
endfacet
facet normal 0.439800 0.439851 0.783012
outer loop
vertex 0.060000 0.159059 8.042327
vertex 0.159059 0.060000 8.042327
vertex 0.060000 0.180000 8.030563
endloop
endfacet
facet normal 0.871859 -0.489756 0.000000
outer loop
vertex 0.300000 -0.159059 7.802327
vertex 0.288236 -0.180000 7.802327
vertex 0.288236 -0.180000 7.682327
endloop
endfacet
facet normal 0.871859 -0.489756 0.000000
outer loop
vertex 0.300000 -0.159059 7.802327
vertex 0.288236 -0.180000 7.682327
vertex 0.300000 -0.159059 7.682327
endloop
endfacet
facet normal 0.871848 0.000000 -0.489776
outer loop
vertex 0.288236 -0.060000 7.562327
vertex 0.288236 0.060000 7.562327
vertex 0.300000 0.060000 7.583269
endloop
endfacet
facet normal 0.871868 0.000000 -0.489741
outer loop
vertex 0.288236 -0.060000 7.562327
vertex 0.300000 0.060000 7.583269
vertex 0.300000 -0.060000 7.583269
endloop
endfacet
facet normal 1.000000 0.000000 0.000000
outer loop
vertex 0.334533 0.060000 7.682327
vertex 0.334533 0.060000 7.802327
vertex 0.334533 -0.060000 7.802327
endloop
endfacet
facet normal 1.000000 0.000000 0.000000
outer loop
vertex 0.334533 0.060000 7.682327
vertex 0.334533 -0.060000 7.802327
vertex 0.334533 -0.060000 7.682327
endloop
endfacet
facet normal 0.489756 0.871859 0.000000
outer loop
vertex 0.159059 0.300000 7.682327
vertex 0.159059 0.300000 7.802327
vertex 0.180000 0.288237 7.802327
endloop
endfacet
facet normal 0.489757 0.871859 0.000000
outer loop
vertex 0.159059 0.300000 7.682327
vertex 0.180000 0.288237 7.802327
vertex 0.180000 0.288237 7.682327
endloop
endfacet
facet normal 0.837007 0.386923 0.386923
outer loop
vertex 0.288236 0.180000 7.802327
vertex 0.232764 0.180000 7.922327
vertex 0.288236 0.060000 7.922327
endloop
endfacet
facet normal 0.783010 0.439826 0.439828
outer loop
vertex 0.288236 0.180000 7.802327
vertex 0.288236 0.060000 7.922327
vertex 0.300000 0.060000 7.901386
endloop
endfacet
facet normal 0.782989 0.439846 0.439845
outer loop
vertex 0.300000 0.159059 7.802327
vertex 0.288236 0.180000 7.802327
vertex 0.300000 0.060000 7.901386
endloop
endfacet
facet normal 0.454262 0.808646 0.373814
outer loop
vertex 0.180000 0.232764 7.922327
vertex 0.180000 0.288237 7.802327
vertex 0.159059 0.300000 7.802327
endloop
endfacet
facet normal 0.395468 0.828982 0.395466
outer loop
vertex 0.180000 0.232764 7.922327
vertex 0.159059 0.300000 7.802327
vertex 0.060000 0.300000 7.901386
endloop
endfacet
facet normal 0.373792 0.808662 0.454253
outer loop
vertex 0.060000 0.288237 7.922327
vertex 0.180000 0.232764 7.922327
vertex 0.060000 0.300000 7.901386
endloop
endfacet
facet normal 0.672114 0.672109 -0.310696
outer loop
vertex 0.180000 0.288237 7.682327
vertex 0.288236 0.180000 7.682327
vertex 0.232764 0.180000 7.562327
endloop
endfacet
facet normal 0.672107 0.672115 -0.310699
outer loop
vertex 0.180000 0.288237 7.682327
vertex 0.232764 0.180000 7.562327
vertex 0.180000 0.232764 7.562327
endloop
endfacet
facet normal 0.672117 0.310696 0.672106
outer loop
vertex 0.288236 0.060000 7.922327
vertex 0.232764 0.180000 7.922327
vertex 0.180000 0.180000 7.975091
endloop
endfacet
facet normal 0.672110 0.310695 0.672113
outer loop
vertex 0.288236 0.060000 7.922327
vertex 0.180000 0.180000 7.975091
vertex 0.180000 0.060000 8.030563
endloop
endfacet
facet normal 0.896921 0.312676 0.312677
outer loop
vertex 0.334533 0.060000 7.802327
vertex 0.300000 0.159059 7.802327
vertex 0.300000 0.060000 7.901386
endloop
endfacet
facet normal 0.808651 0.454252 -0.373817
outer loop
vertex 0.232764 0.180000 7.562327
vertex 0.288236 0.180000 7.682327
vertex 0.300000 0.159059 7.682327
endloop
endfacet
facet normal 0.828985 0.395464 -0.395464
outer loop
vertex 0.232764 0.180000 7.562327
vertex 0.300000 0.159059 7.682327
vertex 0.300000 0.060000 7.583269
endloop
endfacet
facet normal 0.808637 0.373829 -0.454267
outer loop
vertex 0.288236 0.060000 7.562327
vertex 0.232764 0.180000 7.562327
vertex 0.300000 0.060000 7.583269
endloop
endfacet
facet normal 0.672110 -0.310697 0.672113
outer loop
vertex 0.232764 -0.180000 7.922327
vertex 0.288236 -0.060000 7.922327
vertex 0.180000 -0.060000 8.030563
endloop
endfacet
facet normal 0.672118 -0.310692 0.672107
outer loop
vertex 0.232764 -0.180000 7.922327
vertex 0.180000 -0.060000 8.030563
vertex 0.180000 -0.180000 7.975091
endloop
endfacet
facet normal 0.808651 -0.454252 0.373817
outer loop
vertex 0.232764 -0.180000 7.922327
vertex 0.288236 -0.180000 7.802327
vertex 0.300000 -0.159059 7.802327
endloop
endfacet
facet normal 0.828988 -0.395461 0.395462
outer loop
vertex 0.232764 -0.180000 7.922327
vertex 0.300000 -0.159059 7.802327
vertex 0.300000 -0.060000 7.901386
endloop
endfacet
facet normal 0.808650 -0.373817 0.454253
outer loop
vertex 0.288236 -0.060000 7.922327
vertex 0.232764 -0.180000 7.922327
vertex 0.300000 -0.060000 7.901386
endloop
endfacet
facet normal 0.837005 -0.386925 -0.386925
outer loop
vertex 0.288236 -0.180000 7.682327
vertex 0.232764 -0.180000 7.562327
vertex 0.288236 -0.060000 7.562327
endloop
endfacet
facet normal 0.783010 -0.439826 -0.439828
outer loop
vertex 0.288236 -0.180000 7.682327
vertex 0.288236 -0.060000 7.562327
vertex 0.300000 -0.060000 7.583269
endloop
endfacet
facet normal 0.782989 -0.439846 -0.439845
outer loop
vertex 0.300000 -0.159059 7.682327
vertex 0.288236 -0.180000 7.682327
vertex 0.300000 -0.060000 7.583269
endloop
endfacet
facet normal 0.310695 0.672113 0.672110
outer loop
vertex 0.180000 0.180000 7.975091
vertex 0.180000 0.232764 7.922327
vertex 0.060000 0.288237 7.922327
endloop
endfacet
facet normal 0.310695 0.672111 0.672112
outer loop
vertex 0.180000 0.180000 7.975091
vertex 0.060000 0.288237 7.922327
vertex 0.060000 0.180000 8.030563
endloop
endfacet
facet normal 0.312670 0.896923 0.312676
outer loop
vertex 0.159059 0.300000 7.802327
vertex 0.060000 0.334533 7.802327
vertex 0.060000 0.300000 7.901386
endloop
endfacet
facet normal 0.386924 0.837007 -0.386923
outer loop
vertex 0.180000 0.288237 7.682327
vertex 0.180000 0.232764 7.562327
vertex 0.060000 0.288237 7.562327
endloop
endfacet
facet normal 0.439842 0.782995 -0.439837
outer loop
vertex 0.180000 0.288237 7.682327
vertex 0.060000 0.288237 7.562327
vertex 0.060000 0.300000 7.583269
endloop
endfacet
facet normal 0.439837 0.782996 -0.439840
outer loop
vertex 0.159059 0.300000 7.682327
vertex 0.180000 0.288237 7.682327
vertex 0.060000 0.300000 7.583269
endloop
endfacet
facet normal 0.312679 0.312680 0.896918
outer loop
vertex 0.159059 0.060000 8.042327
vertex 0.060000 0.159059 8.042327
vertex 0.060000 0.060000 8.076860
endloop
endfacet
facet normal 0.312670 0.312674 -0.896924
outer loop
vertex 0.060000 0.159059 7.442327
vertex 0.159059 0.060000 7.442327
vertex 0.060000 0.060000 7.407794
endloop
endfacet
facet normal 0.439800 -0.439851 0.783012
outer loop
vertex 0.180000 -0.060000 8.030563
vertex 0.159059 -0.060000 8.042327
vertex 0.060000 -0.159059 8.042327
endloop
endfacet
facet normal 0.439875 -0.439833 0.782980
outer loop
vertex 0.180000 -0.060000 8.030563
vertex 0.060000 -0.159059 8.042327
vertex 0.060000 -0.180000 8.030563
endloop
endfacet
facet normal 0.386916 -0.386922 0.837011
outer loop
vertex 0.180000 -0.180000 7.975091
vertex 0.180000 -0.060000 8.030563
vertex 0.060000 -0.180000 8.030563
endloop
endfacet
facet normal 0.312670 -0.896923 0.312676
outer loop
vertex 0.060000 -0.334533 7.802327
vertex 0.159059 -0.300000 7.802327
vertex 0.060000 -0.300000 7.901386
endloop
endfacet
facet normal 0.310695 -0.672113 -0.672110
outer loop
vertex 0.180000 -0.180000 7.509563
vertex 0.180000 -0.232764 7.562327
vertex 0.060000 -0.288237 7.562327
endloop
endfacet
facet normal 0.310695 -0.672113 -0.672111
outer loop
vertex 0.180000 -0.180000 7.509563
vertex 0.060000 -0.288237 7.562327
vertex 0.060000 -0.180000 7.454091
endloop
endfacet
facet normal -0.310698 0.672110 0.672112
outer loop
vertex -0.060000 0.180000 8.030563
vertex -0.060000 0.288237 7.922327
vertex -0.180000 0.232764 7.922327
endloop
endfacet
facet normal -0.310690 0.672115 0.672111
outer loop
vertex -0.060000 0.180000 8.030563
vertex -0.180000 0.232764 7.922327
vertex -0.180000 0.180000 7.975091
endloop
endfacet
facet normal -0.439837 0.782998 0.439838
outer loop
vertex -0.060000 0.288237 7.922327
vertex -0.060000 0.300000 7.901386
vertex -0.159059 0.300000 7.802327
endloop
endfacet
facet normal -0.439839 0.782996 0.439839
outer loop
vertex -0.060000 0.288237 7.922327
vertex -0.159059 0.300000 7.802327
vertex -0.180000 0.288237 7.802327
endloop
endfacet
facet normal -0.386924 0.837007 0.386923
outer loop
vertex -0.180000 0.232764 7.922327
vertex -0.060000 0.288237 7.922327
vertex -0.180000 0.288237 7.802327
endloop
endfacet
facet normal -0.439842 0.782996 -0.439837
outer loop
vertex -0.159059 0.300000 7.682327
vertex -0.060000 0.300000 7.583269
vertex -0.060000 0.288237 7.562327
endloop
endfacet
facet normal -0.384730 0.832253 -0.399172
outer loop
vertex -0.159059 0.300000 7.682327
vertex -0.060000 0.288237 7.562327
vertex -0.180000 0.232764 7.562327
endloop
endfacet
facet normal -0.454236 0.808659 -0.373820
outer loop
vertex -0.180000 0.288237 7.682327
vertex -0.159059 0.300000 7.682327
vertex -0.180000 0.232764 7.562327
endloop
endfacet
facet normal -0.373825 0.454251 0.808648
outer loop
vertex -0.060000 0.159059 8.042327
vertex -0.060000 0.180000 8.030563
vertex -0.180000 0.180000 7.975091
endloop
endfacet
facet normal -0.399172 0.384723 0.832256
outer loop
vertex -0.060000 0.159059 8.042327
vertex -0.180000 0.180000 7.975091
vertex -0.180000 0.060000 8.030563
endloop
endfacet
facet normal -0.439800 0.439851 0.783012
outer loop
vertex -0.159059 0.060000 8.042327
vertex -0.060000 0.159059 8.042327
vertex -0.180000 0.060000 8.030563
endloop
endfacet
facet normal -0.896921 0.312676 0.312677
outer loop
vertex -0.300000 0.159059 7.802327
vertex -0.334533 0.060000 7.802327
vertex -0.300000 0.060000 7.901386
endloop
endfacet
facet normal -0.672117 0.310696 -0.672106
outer loop
vertex -0.288236 0.060000 7.562327
vertex -0.232764 0.180000 7.562327
vertex -0.180000 0.180000 7.509563
endloop
endfacet
facet normal -0.672113 0.310696 -0.672110
outer loop
vertex -0.288236 0.060000 7.562327
vertex -0.180000 0.180000 7.509563
vertex -0.180000 0.060000 7.454091
endloop
endfacet
facet normal -0.439800 -0.439851 0.783012
outer loop
vertex -0.060000 -0.159059 8.042327
vertex -0.159059 -0.060000 8.042327
vertex -0.180000 -0.060000 8.030563
endloop
endfacet
facet normal -0.399172 -0.384723 0.832256
outer loop
vertex -0.060000 -0.159059 8.042327
vertex -0.180000 -0.060000 8.030563
vertex -0.180000 -0.180000 7.975091
endloop
endfacet
facet normal -0.373825 -0.454251 0.808648
outer loop
vertex -0.060000 -0.180000 8.030563
vertex -0.060000 -0.159059 8.042327
vertex -0.180000 -0.180000 7.975091
endloop
endfacet
facet normal -0.672111 -0.672112 0.310697
outer loop
vertex -0.180000 -0.232764 7.922327
vertex -0.232764 -0.180000 7.922327
vertex -0.288236 -0.180000 7.802327
endloop
endfacet
facet normal -0.672110 -0.672112 0.310698
outer loop
vertex -0.180000 -0.232764 7.922327
vertex -0.288236 -0.180000 7.802327
vertex -0.180000 -0.288237 7.802327
endloop
endfacet
facet normal -0.577360 -0.577347 -0.577344
outer loop
vertex -0.180000 -0.232764 7.562327
vertex -0.232764 -0.180000 7.562327
vertex -0.180000 -0.180000 7.509563
endloop
endfacet
endsolid Exported from Blender-3.4.1
