solid 0
facet normal 0 64 0
outer loop
vertex 4 0.1 -4
vertex -4 0.1 -4
vertex -4 0.1 4
endloop
endfacet
facet normal 0 64 -0
outer loop
vertex 4 0.1 -4
vertex -4 0.1 4
vertex 4 0.1 4
endloop
endfacet
facet normal 0 -0 1.6
outer loop
vertex 4 -0.1 4
vertex 4 0.1 4
vertex -4 0.1 4
endloop
endfacet
facet normal 0 0 1.6
outer loop
vertex 4 -0.1 4
vertex -4 0.1 4
vertex -4 -0.1 4
endloop
endfacet
facet normal -1.6 0 0
outer loop
vertex -4 -0.1 4
vertex -4 0.1 4
vertex -4 0.1 -4
endloop
endfacet
facet normal -1.6 0 0
outer loop
vertex -4 -0.1 4
vertex -4 0.1 -4
vertex -4 -0.1 -4
endloop
endfacet
facet normal 0 -64 0
outer loop
vertex -4 -0.1 -4
vertex 4 -0.1 -4
vertex 4 -0.1 4
endloop
endfacet
facet normal 0 -64 0
outer loop
vertex -4 -0.1 -4
vertex 4 -0.1 4
vertex -4 -0.1 4
endloop
endfacet
facet normal 1.6 0 0
outer loop
vertex 4 -0.1 -4
vertex 4 0.1 -4
vertex 4 0.1 4
endloop
endfacet
facet normal 1.6 0 0
outer loop
vertex 4 -0.1 -4
vertex 4 0.1 4
vertex 4 -0.1 4
endloop
endfacet
facet normal 0 0 -1.6
outer loop
vertex -4 -0.1 -4
vertex -4 0.1 -4
vertex 4 0.1 -4
endloop
endfacet
facet normal 0 0 -1.6
outer loop
vertex -4 -0.1 -4
vertex 4 0.1 -4
vertex 4 -0.1 -4
endloop
endfacet
facet normal 0.0576442 0 -0.58527
outer loop
vertex 2.8 -0.0999994 -0.3
vertex 2.8 9.9 -0.3
vertex 2.85853 9.9 -0.294236
endloop
endfacet
facet normal 0.0576442 0 -0.58527
outer loop
vertex 2.8 -0.0999994 -0.3
vertex 2.85853 9.9 -0.294236
vertex 2.85853 -0.0999994 -0.294236
endloop
endfacet
facet normal 0.170717 0 -0.56278
outer loop
vertex 2.85853 -0.0999994 -0.294236
vertex 2.85853 9.9 -0.294236
vertex 2.9148 9.9 -0.277164
endloop
endfacet
facet normal 0.170717 0 -0.56278
outer loop
vertex 2.85853 -0.0999994 -0.294236
vertex 2.9148 9.9 -0.277164
vertex 2.9148 -0.0999994 -0.277164
endloop
endfacet
facet normal 0.27723 0 -0.518661
outer loop
vertex 2.9148 -0.0999994 -0.277164
vertex 2.9148 9.9 -0.277164
vertex 2.96667 9.9 -0.249441
endloop
endfacet
facet normal 0.27723 0 -0.518661
outer loop
vertex 2.9148 -0.0999994 -0.277164
vertex 2.96667 9.9 -0.249441
vertex 2.96667 -0.0999994 -0.249441
endloop
endfacet
facet normal 0.373089 0 -0.454609
outer loop
vertex 2.96667 -0.0999994 -0.249441
vertex 2.96667 9.9 -0.249441
vertex 3.01213 9.9 -0.212132
endloop
endfacet
facet normal 0.373089 0 -0.454609
outer loop
vertex 2.96667 -0.0999994 -0.249441
vertex 3.01213 9.9 -0.212132
vertex 3.01213 -0.0999994 -0.212132
endloop
endfacet
facet normal 0.45461 0 -0.373089
outer loop
vertex 3.01213 -0.0999994 -0.212132
vertex 3.01213 9.9 -0.212132
vertex 3.04944 9.9 -0.166671
endloop
endfacet
facet normal 0.45461 0 -0.373089
outer loop
vertex 3.01213 -0.0999994 -0.212132
vertex 3.04944 9.9 -0.166671
vertex 3.04944 -0.0999994 -0.166671
endloop
endfacet
facet normal 0.51866 0 -0.277228
outer loop
vertex 3.04944 -0.0999994 -0.166671
vertex 3.04944 9.9 -0.166671
vertex 3.07716 9.9 -0.114805
endloop
endfacet
facet normal 0.51866 0 -0.277228
outer loop
vertex 3.04944 -0.0999994 -0.166671
vertex 3.07716 9.9 -0.114805
vertex 3.07716 -0.0999994 -0.114805
endloop
endfacet
facet normal 0.562779 0 -0.170717
outer loop
vertex 3.07716 -0.0999994 -0.114805
vertex 3.07716 9.9 -0.114805
vertex 3.09424 9.9 -0.0585271
endloop
endfacet
facet normal 0.562779 0 -0.170717
outer loop
vertex 3.07716 -0.0999994 -0.114805
vertex 3.09424 9.9 -0.0585271
vertex 3.09424 -0.0999994 -0.0585271
endloop
endfacet
facet normal 0.585271 0 -0.0576448
outer loop
vertex 3.09424 -0.0999994 -0.0585271
vertex 3.09424 9.9 -0.0585271
vertex 3.1 9.9 0
endloop
endfacet
facet normal 0.585271 0 -0.0576448
outer loop
vertex 3.09424 -0.0999994 -0.0585271
vertex 3.1 9.9 0
vertex 3.1 -0.0999994 0
endloop
endfacet
facet normal 0.585271 -0 0.0576448
outer loop
vertex 3.1 -0.0999994 0
vertex 3.1 9.9 0
vertex 3.09424 9.9 0.0585271
endloop
endfacet
facet normal 0.585271 0 0.0576448
outer loop
vertex 3.1 -0.0999994 0
vertex 3.09424 9.9 0.0585271
vertex 3.09424 -0.0999994 0.0585271
endloop
endfacet
facet normal 0.562779 -0 0.170717
outer loop
vertex 3.09424 -0.0999994 0.0585271
vertex 3.09424 9.9 0.0585271
vertex 3.07716 9.9 0.114805
endloop
endfacet
facet normal 0.562779 0 0.170717
outer loop
vertex 3.09424 -0.0999994 0.0585271
vertex 3.07716 9.9 0.114805
vertex 3.07716 -0.0999994 0.114805
endloop
endfacet
facet normal 0.51866 -0 0.277228
outer loop
vertex 3.07716 -0.0999994 0.114805
vertex 3.07716 9.9 0.114805
vertex 3.04944 9.9 0.166671
endloop
endfacet
facet normal 0.51866 0 0.277228
outer loop
vertex 3.07716 -0.0999994 0.114805
vertex 3.04944 9.9 0.166671
vertex 3.04944 -0.0999994 0.166671
endloop
endfacet
facet normal 0.45461 -0 0.373089
outer loop
vertex 3.04944 -0.0999994 0.166671
vertex 3.04944 9.9 0.166671
vertex 3.01213 9.9 0.212132
endloop
endfacet
facet normal 0.45461 0 0.373089
outer loop
vertex 3.04944 -0.0999994 0.166671
vertex 3.01213 9.9 0.212132
vertex 3.01213 -0.0999994 0.212132
endloop
endfacet
facet normal 0.373089 -0 0.454609
outer loop
vertex 3.01213 -0.0999994 0.212132
vertex 3.01213 9.9 0.212132
vertex 2.96667 9.9 0.249441
endloop
endfacet
facet normal 0.373089 0 0.454609
outer loop
vertex 3.01213 -0.0999994 0.212132
vertex 2.96667 9.9 0.249441
vertex 2.96667 -0.0999994 0.249441
endloop
endfacet
facet normal 0.27723 -0 0.518661
outer loop
vertex 2.96667 -0.0999994 0.249441
vertex 2.96667 9.9 0.249441
vertex 2.9148 9.9 0.277164
endloop
endfacet
facet normal 0.27723 0 0.518661
outer loop
vertex 2.96667 -0.0999994 0.249441
vertex 2.9148 9.9 0.277164
vertex 2.9148 -0.0999994 0.277164
endloop
endfacet
facet normal 0.170717 -0 0.56278
outer loop
vertex 2.9148 -0.0999994 0.277164
vertex 2.9148 9.9 0.277164
vertex 2.85853 9.9 0.294236
endloop
endfacet
facet normal 0.170717 0 0.56278
outer loop
vertex 2.9148 -0.0999994 0.277164
vertex 2.85853 9.9 0.294236
vertex 2.85853 -0.0999994 0.294236
endloop
endfacet
facet normal 0.0576442 -0 0.58527
outer loop
vertex 2.85853 -0.0999994 0.294236
vertex 2.85853 9.9 0.294236
vertex 2.8 9.9 0.3
endloop
endfacet
facet normal 0.0576442 0 0.58527
outer loop
vertex 2.85853 -0.0999994 0.294236
vertex 2.8 9.9 0.3
vertex 2.8 -0.0999994 0.3
endloop
endfacet
facet normal -0.0576442 0 0.58527
outer loop
vertex 2.8 -0.0999994 0.3
vertex 2.8 9.9 0.3
vertex 2.74147 9.9 0.294236
endloop
endfacet
facet normal -0.0576442 0 0.58527
outer loop
vertex 2.8 -0.0999994 0.3
vertex 2.74147 9.9 0.294236
vertex 2.74147 -0.0999994 0.294236
endloop
endfacet
facet normal -0.170717 0 0.56278
outer loop
vertex 2.74147 -0.0999994 0.294236
vertex 2.74147 9.9 0.294236
vertex 2.68519 9.9 0.277164
endloop
endfacet
facet normal -0.170717 0 0.56278
outer loop
vertex 2.74147 -0.0999994 0.294236
vertex 2.68519 9.9 0.277164
vertex 2.68519 -0.0999994 0.277164
endloop
endfacet
facet normal -0.27723 0 0.518661
outer loop
vertex 2.68519 -0.0999994 0.277164
vertex 2.68519 9.9 0.277164
vertex 2.63333 9.9 0.249441
endloop
endfacet
facet normal -0.27723 0 0.518661
outer loop
vertex 2.68519 -0.0999994 0.277164
vertex 2.63333 9.9 0.249441
vertex 2.63333 -0.0999994 0.249441
endloop
endfacet
facet normal -0.373089 0 0.454609
outer loop
vertex 2.63333 -0.0999994 0.249441
vertex 2.63333 9.9 0.249441
vertex 2.58787 9.9 0.212132
endloop
endfacet
facet normal -0.373089 0 0.454609
outer loop
vertex 2.63333 -0.0999994 0.249441
vertex 2.58787 9.9 0.212132
vertex 2.58787 -0.0999994 0.212132
endloop
endfacet
facet normal -0.45461 0 0.373089
outer loop
vertex 2.58787 -0.0999994 0.212132
vertex 2.58787 9.9 0.212132
vertex 2.55056 9.9 0.166671
endloop
endfacet
facet normal -0.45461 0 0.373089
outer loop
vertex 2.58787 -0.0999994 0.212132
vertex 2.55056 9.9 0.166671
vertex 2.55056 -0.0999994 0.166671
endloop
endfacet
facet normal -0.51866 0 0.277228
outer loop
vertex 2.55056 -0.0999994 0.166671
vertex 2.55056 9.9 0.166671
vertex 2.52284 9.9 0.114805
endloop
endfacet
facet normal -0.51866 0 0.277228
outer loop
vertex 2.55056 -0.0999994 0.166671
vertex 2.52284 9.9 0.114805
vertex 2.52284 -0.0999994 0.114805
endloop
endfacet
facet normal -0.562779 0 0.170717
outer loop
vertex 2.52284 -0.0999994 0.114805
vertex 2.52284 9.9 0.114805
vertex 2.50576 9.9 0.0585271
endloop
endfacet
facet normal -0.562779 0 0.170717
outer loop
vertex 2.52284 -0.0999994 0.114805
vertex 2.50576 9.9 0.0585271
vertex 2.50576 -0.0999994 0.0585271
endloop
endfacet
facet normal -0.585271 0 0.0576448
outer loop
vertex 2.50576 -0.0999994 0.0585271
vertex 2.50576 9.9 0.0585271
vertex 2.5 9.9 0
endloop
endfacet
facet normal -0.585271 0 0.0576448
outer loop
vertex 2.50576 -0.0999994 0.0585271
vertex 2.5 9.9 0
vertex 2.5 -0.0999994 0
endloop
endfacet
facet normal -0.585271 0 -0.0576448
outer loop
vertex 2.5 -0.0999994 0
vertex 2.5 9.9 0
vertex 2.50576 9.9 -0.0585271
endloop
endfacet
facet normal -0.585271 0 -0.0576448
outer loop
vertex 2.5 -0.0999994 0
vertex 2.50576 9.9 -0.0585271
vertex 2.50576 -0.0999994 -0.0585271
endloop
endfacet
facet normal -0.562779 0 -0.170717
outer loop
vertex 2.50576 -0.0999994 -0.0585271
vertex 2.50576 9.9 -0.0585271
vertex 2.52284 9.9 -0.114805
endloop
endfacet
facet normal -0.562779 0 -0.170717
outer loop
vertex 2.50576 -0.0999994 -0.0585271
vertex 2.52284 9.9 -0.114805
vertex 2.52284 -0.0999994 -0.114805
endloop
endfacet
facet normal -0.51866 0 -0.277228
outer loop
vertex 2.52284 -0.0999994 -0.114805
vertex 2.52284 9.9 -0.114805
vertex 2.55056 9.9 -0.166671
endloop
endfacet
facet normal -0.51866 0 -0.277228
outer loop
vertex 2.52284 -0.0999994 -0.114805
vertex 2.55056 9.9 -0.166671
vertex 2.55056 -0.0999994 -0.166671
endloop
endfacet
facet normal -0.45461 0 -0.373089
outer loop
vertex 2.55056 -0.0999994 -0.166671
vertex 2.55056 9.9 -0.166671
vertex 2.58787 9.9 -0.212132
endloop
endfacet
facet normal -0.45461 0 -0.373089
outer loop
vertex 2.55056 -0.0999994 -0.166671
vertex 2.58787 9.9 -0.212132
vertex 2.58787 -0.0999994 -0.212132
endloop
endfacet
facet normal -0.373089 0 -0.454609
outer loop
vertex 2.58787 -0.0999994 -0.212132
vertex 2.58787 9.9 -0.212132
vertex 2.63333 9.9 -0.249441
endloop
endfacet
facet normal -0.373089 0 -0.454609
outer loop
vertex 2.58787 -0.0999994 -0.212132
vertex 2.63333 9.9 -0.249441
vertex 2.63333 -0.0999994 -0.249441
endloop
endfacet
facet normal -0.27723 0 -0.518661
outer loop
vertex 2.63333 -0.0999994 -0.249441
vertex 2.63333 9.9 -0.249441
vertex 2.68519 9.9 -0.277164
endloop
endfacet
facet normal -0.27723 0 -0.518661
outer loop
vertex 2.63333 -0.0999994 -0.249441
vertex 2.68519 9.9 -0.277164
vertex 2.68519 -0.0999994 -0.277164
endloop
endfacet
facet normal 0 0.000674746 0
outer loop
vertex 2.9148 9.9 -0.277164
vertex 2.85853 9.9 -0.294236
vertex 2.8 9.9 -0.3
endloop
endfacet
facet normal 0 0.000674746 0
outer loop
vertex 2.8 9.9 -0.3
vertex 2.74147 9.9 -0.294236
vertex 2.68519 9.9 -0.277164
endloop
endfacet
facet normal 0 0.000674751 0
outer loop
vertex 2.68519 9.9 -0.277164
vertex 2.63333 9.9 -0.249441
vertex 2.58787 9.9 -0.212132
endloop
endfacet
facet normal 0 0.00067476 0
outer loop
vertex 2.58787 9.9 -0.212132
vertex 2.55056 9.9 -0.166671
vertex 2.52284 9.9 -0.114805
endloop
endfacet
facet normal 0 0.000674745 0
outer loop
vertex 2.52284 9.9 -0.114805
vertex 2.50576 9.9 -0.0585271
vertex 2.5 9.9 0
endloop
endfacet
facet normal 0 0.000674745 0
outer loop
vertex 2.5 9.9 0
vertex 2.50576 9.9 0.0585271
vertex 2.52284 9.9 0.114805
endloop
endfacet
facet normal 0 0.00067476 0
outer loop
vertex 2.52284 9.9 0.114805
vertex 2.55056 9.9 0.166671
vertex 2.58787 9.9 0.212132
endloop
endfacet
facet normal 0 0.000674751 0
outer loop
vertex 2.58787 9.9 0.212132
vertex 2.63333 9.9 0.249441
vertex 2.68519 9.9 0.277164
endloop
endfacet
facet normal 0 0.000674746 0
outer loop
vertex 2.68519 9.9 0.277164
vertex 2.74147 9.9 0.294236
vertex 2.8 9.9 0.3
endloop
endfacet
facet normal 0 0.000674746 0
outer loop
vertex 2.8 9.9 0.3
vertex 2.85853 9.9 0.294236
vertex 2.9148 9.9 0.277164
endloop
endfacet
facet normal 0 0.000674751 0
outer loop
vertex 2.9148 9.9 0.277164
vertex 2.96667 9.9 0.249441
vertex 3.01213 9.9 0.212132
endloop
endfacet
facet normal 0 0.00067476 0
outer loop
vertex 3.01213 9.9 0.212132
vertex 3.04944 9.9 0.166671
vertex 3.07716 9.9 0.114805
endloop
endfacet
facet normal 0 0.000674745 0
outer loop
vertex 3.07716 9.9 0.114805
vertex 3.09424 9.9 0.0585271
vertex 3.1 9.9 0
endloop
endfacet
facet normal 0 0.000674745 0
outer loop
vertex 3.1 9.9 0
vertex 3.09424 9.9 -0.0585271
vertex 3.07716 9.9 -0.114805
endloop
endfacet
facet normal 0 0.00067476 0
outer loop
vertex 3.07716 9.9 -0.114805
vertex 3.04944 9.9 -0.166671
vertex 3.01213 9.9 -0.212132
endloop
endfacet
facet normal 0 0.000674751 0
outer loop
vertex 3.01213 9.9 -0.212132
vertex 2.96667 9.9 -0.249441
vertex 2.9148 9.9 -0.277164
endloop
endfacet
facet normal 0 0.00524341 0
outer loop
vertex 2.9148 9.9 -0.277164
vertex 2.8 9.9 -0.3
vertex 2.68519 9.9 -0.277164
endloop
endfacet
facet normal 0 0.00524341 0
outer loop
vertex 2.68519 9.9 -0.277164
vertex 2.58787 9.9 -0.212132
vertex 2.52284 9.9 -0.114805
endloop
endfacet
facet normal 0 0.00524342 -0
outer loop
vertex 2.52284 9.9 -0.114805
vertex 2.5 9.9 0
vertex 2.52284 9.9 0.114805
endloop
endfacet
facet normal 0 0.00524341 0
outer loop
vertex 2.52284 9.9 0.114805
vertex 2.58787 9.9 0.212132
vertex 2.68519 9.9 0.277164
endloop
endfacet
facet normal 0 0.00524341 0
outer loop
vertex 2.68519 9.9 0.277164
vertex 2.8 9.9 0.3
vertex 2.9148 9.9 0.277164
endloop
endfacet
facet normal 0 0.00524341 0
outer loop
vertex 2.9148 9.9 0.277164
vertex 3.01213 9.9 0.212132
vertex 3.07716 9.9 0.114805
endloop
endfacet
facet normal 0 0.00524342 0
outer loop
vertex 3.07716 9.9 0.114805
vertex 3.1 9.9 0
vertex 3.07716 9.9 -0.114805
endloop
endfacet
facet normal 0 0.00524341 0
outer loop
vertex 3.07716 9.9 -0.114805
vertex 3.01213 9.9 -0.212132
vertex 2.9148 9.9 -0.277164
endloop
endfacet
facet normal 0 0.0372792 0
outer loop
vertex 2.9148 9.9 -0.277164
vertex 2.68519 9.9 -0.277164
vertex 2.52284 9.9 -0.114805
endloop
endfacet
facet normal 0 0.0372792 0
outer loop
vertex 2.52284 9.9 -0.114805
vertex 2.52284 9.9 0.114805
vertex 2.68519 9.9 0.277164
endloop
endfacet
facet normal -0 0.0372792 0
outer loop
vertex 2.68519 9.9 0.277164
vertex 2.9148 9.9 0.277164
vertex 3.07716 9.9 0.114805
endloop
endfacet
facet normal 0 0.0372792 0
outer loop
vertex 3.07716 9.9 0.114805
vertex 3.07716 9.9 -0.114805
vertex 2.9148 9.9 -0.277164
endloop
endfacet
facet normal 0 0.18 0
outer loop
vertex 2.9148 9.9 -0.277164
vertex 2.52284 9.9 -0.114805
vertex 2.68519 9.9 0.277164
endloop
endfacet
facet normal 0 0.18 0
outer loop
vertex 2.68519 9.9 0.277164
vertex 3.07716 9.9 0.114805
vertex 2.9148 9.9 -0.277164
endloop
endfacet
facet normal -0.170717 0 -0.56278
outer loop
vertex 2.68519 -0.0999994 -0.277164
vertex 2.68519 9.9 -0.277164
vertex 2.74147 9.9 -0.294236
endloop
endfacet
facet normal -0.170717 0 -0.56278
outer loop
vertex 2.68519 -0.0999994 -0.277164
vertex 2.74147 9.9 -0.294236
vertex 2.74147 -0.0999994 -0.294236
endloop
endfacet
facet normal -0.0576442 0 -0.58527
outer loop
vertex 2.74147 -0.0999994 -0.294236
vertex 2.74147 9.9 -0.294236
vertex 2.8 9.9 -0.3
endloop
endfacet
facet normal -0.0576442 0 -0.58527
outer loop
vertex 2.74147 -0.0999994 -0.294236
vertex 2.8 9.9 -0.3
vertex 2.8 -0.0999994 -0.3
endloop
endfacet
facet normal 0 -0.000674749 0
outer loop
vertex 2.74147 -0.0999994 -0.294236
vertex 2.8 -0.0999994 -0.3
vertex 2.85853 -0.0999994 -0.294236
endloop
endfacet
facet normal 0 -0.00067475 0
outer loop
vertex 2.85853 -0.0999994 -0.294236
vertex 2.9148 -0.0999994 -0.277164
vertex 2.96667 -0.0999994 -0.249441
endloop
endfacet
facet normal 0 -0.000674744 0
outer loop
vertex 2.96667 -0.0999994 -0.249441
vertex 3.01213 -0.0999994 -0.212132
vertex 3.04944 -0.0999994 -0.166671
endloop
endfacet
facet normal 0 -0.000674742 0
outer loop
vertex 3.04944 -0.0999994 -0.166671
vertex 3.07716 -0.0999994 -0.114805
vertex 3.09424 -0.0999994 -0.0585271
endloop
endfacet
facet normal 0 -0.000674757 0
outer loop
vertex 3.09424 -0.0999994 -0.0585271
vertex 3.1 -0.0999994 0
vertex 3.09424 -0.0999994 0.0585271
endloop
endfacet
facet normal 0 -0.000674741 0
outer loop
vertex 3.09424 -0.0999994 0.0585271
vertex 3.07716 -0.0999994 0.114805
vertex 3.04944 -0.0999994 0.166671
endloop
endfacet
facet normal 0 -0.000674744 0
outer loop
vertex 3.04944 -0.0999994 0.166671
vertex 3.01213 -0.0999994 0.212132
vertex 2.96667 -0.0999994 0.249441
endloop
endfacet
facet normal 0 -0.00067475 0
outer loop
vertex 2.96667 -0.0999994 0.249441
vertex 2.9148 -0.0999994 0.277164
vertex 2.85853 -0.0999994 0.294236
endloop
endfacet
facet normal 0 -0.000674749 0
outer loop
vertex 2.85853 -0.0999994 0.294236
vertex 2.8 -0.0999994 0.3
vertex 2.74147 -0.0999994 0.294236
endloop
endfacet
facet normal 0 -0.00067475 0
outer loop
vertex 2.74147 -0.0999994 0.294236
vertex 2.68519 -0.0999994 0.277164
vertex 2.63333 -0.0999994 0.249441
endloop
endfacet
facet normal 0 -0.000674744 0
outer loop
vertex 2.63333 -0.0999994 0.249441
vertex 2.58787 -0.0999994 0.212132
vertex 2.55056 -0.0999994 0.166671
endloop
endfacet
facet normal 0 -0.000674742 0
outer loop
vertex 2.55056 -0.0999994 0.166671
vertex 2.52284 -0.0999994 0.114805
vertex 2.50576 -0.0999994 0.0585271
endloop
endfacet
facet normal 0 -0.000674757 -0
outer loop
vertex 2.50576 -0.0999994 0.0585271
vertex 2.5 -0.0999994 0
vertex 2.50576 -0.0999994 -0.0585271
endloop
endfacet
facet normal 0 -0.000674741 0
outer loop
vertex 2.50576 -0.0999994 -0.0585271
vertex 2.52284 -0.0999994 -0.114805
vertex 2.55056 -0.0999994 -0.166671
endloop
endfacet
facet normal 0 -0.000674744 0
outer loop
vertex 2.55056 -0.0999994 -0.166671
vertex 2.58787 -0.0999994 -0.212132
vertex 2.63333 -0.0999994 -0.249441
endloop
endfacet
facet normal 0 -0.00067475 0
outer loop
vertex 2.63333 -0.0999994 -0.249441
vertex 2.68519 -0.0999994 -0.277164
vertex 2.74147 -0.0999994 -0.294236
endloop
endfacet
facet normal 0 -0.0052434 0
outer loop
vertex 2.74147 -0.0999994 -0.294236
vertex 2.85853 -0.0999994 -0.294236
vertex 2.96667 -0.0999994 -0.249441
endloop
endfacet
facet normal 0 -0.00524343 0
outer loop
vertex 2.96667 -0.0999994 -0.249441
vertex 3.04944 -0.0999994 -0.166671
vertex 3.09424 -0.0999994 -0.0585271
endloop
endfacet
facet normal 0 -0.00524339 0
outer loop
vertex 3.09424 -0.0999994 -0.0585271
vertex 3.09424 -0.0999994 0.0585271
vertex 3.04944 -0.0999994 0.166671
endloop
endfacet
facet normal 0 -0.00524341 0
outer loop
vertex 3.04944 -0.0999994 0.166671
vertex 2.96667 -0.0999994 0.249441
vertex 2.85853 -0.0999994 0.294236
endloop
endfacet
facet normal -0 -0.0052434 0
outer loop
vertex 2.85853 -0.0999994 0.294236
vertex 2.74147 -0.0999994 0.294236
vertex 2.63333 -0.0999994 0.249441
endloop
endfacet
facet normal 0 -0.00524343 0
outer loop
vertex 2.63333 -0.0999994 0.249441
vertex 2.55056 -0.0999994 0.166671
vertex 2.50576 -0.0999994 0.0585271
endloop
endfacet
facet normal 0 -0.00524339 0
outer loop
vertex 2.50576 -0.0999994 0.0585271
vertex 2.50576 -0.0999994 -0.0585271
vertex 2.55056 -0.0999994 -0.166671
endloop
endfacet
facet normal 0 -0.00524341 0
outer loop
vertex 2.55056 -0.0999994 -0.166671
vertex 2.63333 -0.0999994 -0.249441
vertex 2.74147 -0.0999994 -0.294236
endloop
endfacet
facet normal 0 -0.0372792 0
outer loop
vertex 2.74147 -0.0999994 -0.294236
vertex 2.96667 -0.0999994 -0.249441
vertex 3.09424 -0.0999994 -0.0585271
endloop
endfacet
facet normal 0 -0.0372793 0
outer loop
vertex 3.09424 -0.0999994 -0.0585271
vertex 3.04944 -0.0999994 0.166671
vertex 2.85853 -0.0999994 0.294236
endloop
endfacet
facet normal 0 -0.0372792 0
outer loop
vertex 2.85853 -0.0999994 0.294236
vertex 2.63333 -0.0999994 0.249441
vertex 2.50576 -0.0999994 0.0585271
endloop
endfacet
facet normal 0 -0.0372793 0
outer loop
vertex 2.50576 -0.0999994 0.0585271
vertex 2.55056 -0.0999994 -0.166671
vertex 2.74147 -0.0999994 -0.294236
endloop
endfacet
facet normal 0 -0.18 0
outer loop
vertex 2.74147 -0.0999994 -0.294236
vertex 3.09424 -0.0999994 -0.0585271
vertex 2.85853 -0.0999994 0.294236
endloop
endfacet
facet normal 0 -0.18 0
outer loop
vertex 2.85853 -0.0999994 0.294236
vertex 2.50576 -0.0999994 0.0585271
vertex 2.74147 -0.0999994 -0.294236
endloop
endfacet
facet normal 0 -0.015833 -0.160757
outer loop
vertex -0.815781 9.6 -0.2
vertex 3.30422 9.6 -0.2
vertex 3.30422 9.56098 -0.196157
endloop
endfacet
facet normal -3.66708e-09 -0.015833 -0.160753
outer loop
vertex -0.815781 9.6 -0.2
vertex 3.30422 9.56098 -0.196157
vertex -0.815781 9.56098 -0.196157
endloop
endfacet
facet normal -1.08539e-08 -0.0468903 -0.154576
outer loop
vertex -0.815781 9.56098 -0.196157
vertex 3.30422 9.56098 -0.196157
vertex 3.30422 9.52346 -0.184776
endloop
endfacet
facet normal -1.08557e-08 -0.0468903 -0.154576
outer loop
vertex -0.815781 9.56098 -0.196157
vertex 3.30422 9.52346 -0.184776
vertex -0.815781 9.52346 -0.184776
endloop
endfacet
facet normal -1.76258e-08 -0.0761458 -0.142459
outer loop
vertex -0.815781 9.52346 -0.184776
vertex 3.30422 9.52346 -0.184776
vertex 3.30422 9.48889 -0.166294
endloop
endfacet
facet normal -1.76369e-08 -0.0761458 -0.142459
outer loop
vertex -0.815781 9.52346 -0.184776
vertex 3.30422 9.48889 -0.166294
vertex -0.815781 9.48889 -0.166294
endloop
endfacet
facet normal -2.37203e-08 -0.102475 -0.124864
outer loop
vertex -0.815781 9.48889 -0.166294
vertex 3.30422 9.48889 -0.166294
vertex 3.30422 9.45858 -0.141421
endloop
endfacet
facet normal 0 -0.102475 -0.124868
outer loop
vertex -0.815781 9.48889 -0.166294
vertex 3.30422 9.45858 -0.141421
vertex -0.815781 9.45858 -0.141421
endloop
endfacet
facet normal 0 -0.124866 -0.102476
outer loop
vertex -0.815781 9.45858 -0.141421
vertex 3.30422 9.45858 -0.141421
vertex 3.30422 9.43371 -0.111114
endloop
endfacet
facet normal 0 -0.124866 -0.102476
outer loop
vertex -0.815781 9.45858 -0.141421
vertex 3.30422 9.43371 -0.111114
vertex -0.815781 9.43371 -0.111114
endloop
endfacet
facet normal 0 -0.142459 -0.0761467
outer loop
vertex -0.815781 9.43371 -0.111114
vertex 3.30422 9.43371 -0.111114
vertex 3.30422 9.41522 -0.0765367
endloop
endfacet
facet normal -3.29455e-08 -0.142459 -0.0761428
outer loop
vertex -0.815781 9.43371 -0.111114
vertex 3.30422 9.41522 -0.0765367
vertex -0.815781 9.41523 -0.0765367
endloop
endfacet
facet normal -3.57806e-08 -0.154577 -0.0468903
outer loop
vertex -0.815781 9.41523 -0.0765367
vertex 3.30422 9.41522 -0.0765367
vertex 3.30422 9.40384 -0.0390181
endloop
endfacet
facet normal -3.57686e-08 -0.154577 -0.0468903
outer loop
vertex -0.815781 9.41523 -0.0765367
vertex 3.30422 9.40384 -0.0390181
vertex -0.815781 9.40384 -0.0390181
endloop
endfacet
facet normal -3.72105e-08 -0.160754 -0.0158305
outer loop
vertex -0.815781 9.40384 -0.0390181
vertex 3.30422 9.40384 -0.0390181
vertex 3.30422 9.4 -4.79631e-10
endloop
endfacet
facet normal 0 -0.160754 -0.0158344
outer loop
vertex -0.815781 9.40384 -0.0390181
vertex 3.30422 9.4 -4.79631e-10
vertex -0.815781 9.4 4.79631e-10
endloop
endfacet
facet normal 3.68582e-12 -0.160754 0.0158305
outer loop
vertex -0.815781 9.4 4.79631e-10
vertex 3.30422 9.4 -4.79631e-10
vertex 3.30422 9.40384 0.0390181
endloop
endfacet
facet normal -3.72092e-08 -0.160754 0.0158344
outer loop
vertex -0.815781 9.4 4.79631e-10
vertex 3.30422 9.40384 0.0390181
vertex -0.815781 9.40384 0.0390181
endloop
endfacet
facet normal -3.57806e-08 -0.154577 0.0468903
outer loop
vertex -0.815781 9.40384 0.0390181
vertex 3.30422 9.40384 0.0390181
vertex 3.30422 9.41522 0.0765367
endloop
endfacet
facet normal -3.57977e-08 -0.154577 0.0468903
outer loop
vertex -0.815781 9.40384 0.0390181
vertex 3.30422 9.41522 0.0765367
vertex -0.815781 9.41523 0.0765367
endloop
endfacet
facet normal -3.29755e-08 -0.142459 0.0761467
outer loop
vertex -0.815781 9.41523 0.0765367
vertex 3.30422 9.41522 0.0765367
vertex 3.30422 9.43371 0.111114
endloop
endfacet
facet normal 0 -0.142459 0.0761428
outer loop
vertex -0.815781 9.41523 0.0765367
vertex 3.30422 9.43371 0.111114
vertex -0.815781 9.43371 0.111114
endloop
endfacet
facet normal 0 -0.124866 0.102476
outer loop
vertex -0.815781 9.43371 0.111114
vertex 3.30422 9.43371 0.111114
vertex 3.30422 9.45858 0.141421
endloop
endfacet
facet normal 0 -0.124866 0.102476
outer loop
vertex -0.815781 9.43371 0.111114
vertex 3.30422 9.45858 0.141421
vertex -0.815781 9.45858 0.141421
endloop
endfacet
facet normal 0 -0.102475 0.124864
outer loop
vertex -0.815781 9.45858 0.141421
vertex 3.30422 9.45858 0.141421
vertex 3.30422 9.48889 0.166294
endloop
endfacet
facet normal -2.36905e-08 -0.102475 0.124868
outer loop
vertex -0.815781 9.45858 0.141421
vertex 3.30422 9.48889 0.166294
vertex -0.815781 9.48889 0.166294
endloop
endfacet
facet normal -1.76258e-08 -0.0761458 0.142459
outer loop
vertex -0.815781 9.48889 0.166294
vertex 3.30422 9.48889 0.166294
vertex 3.30422 9.52346 0.184776
endloop
endfacet
facet normal -1.76369e-08 -0.0761458 0.142459
outer loop
vertex -0.815781 9.48889 0.166294
vertex 3.30422 9.52346 0.184776
vertex -0.815781 9.52346 0.184776
endloop
endfacet
facet normal -1.08539e-08 -0.0468903 0.154576
outer loop
vertex -0.815781 9.52346 0.184776
vertex 3.30422 9.52346 0.184776
vertex 3.30422 9.56098 0.196157
endloop
endfacet
facet normal -1.08557e-08 -0.0468903 0.154576
outer loop
vertex -0.815781 9.52346 0.184776
vertex 3.30422 9.56098 0.196157
vertex -0.815781 9.56098 0.196157
endloop
endfacet
facet normal -3.66492e-09 -0.015833 0.160757
outer loop
vertex -0.815781 9.56098 0.196157
vertex 3.30422 9.56098 0.196157
vertex 3.30422 9.6 0.2
endloop
endfacet
facet normal 0 -0.015833 0.160753
outer loop
vertex -0.815781 9.56098 0.196157
vertex 3.30422 9.6 0.2
vertex -0.815781 9.6 0.2
endloop
endfacet
facet normal -0 0.015833 0.160753
outer loop
vertex -0.815781 9.6 0.2
vertex 3.30422 9.6 0.2
vertex 3.30422 9.63902 0.196157
endloop
endfacet
facet normal 3.66708e-09 0.015833 0.160757
outer loop
vertex -0.815781 9.6 0.2
vertex 3.30422 9.63902 0.196157
vertex -0.815781 9.63902 0.196157
endloop
endfacet
facet normal 1.08539e-08 0.0468903 0.154576
outer loop
vertex -0.815781 9.63902 0.196157
vertex 3.30422 9.63902 0.196157
vertex 3.30422 9.67654 0.184776
endloop
endfacet
facet normal 1.08557e-08 0.0468903 0.154576
outer loop
vertex -0.815781 9.63902 0.196157
vertex 3.30422 9.67654 0.184776
vertex -0.815781 9.67654 0.184776
endloop
endfacet
facet normal 1.76258e-08 0.0761458 0.142459
outer loop
vertex -0.815781 9.67654 0.184776
vertex 3.30422 9.67654 0.184776
vertex 3.30422 9.71111 0.166294
endloop
endfacet
facet normal 1.76369e-08 0.0761458 0.142459
outer loop
vertex -0.815781 9.67654 0.184776
vertex 3.30422 9.71111 0.166294
vertex -0.815781 9.71111 0.166294
endloop
endfacet
facet normal 2.37203e-08 0.102475 0.124868
outer loop
vertex -0.815781 9.71111 0.166294
vertex 3.30422 9.71111 0.166294
vertex 3.30422 9.74142 0.141421
endloop
endfacet
facet normal 0 0.102475 0.124864
outer loop
vertex -0.815781 9.71111 0.166294
vertex 3.30422 9.74142 0.141421
vertex -0.815781 9.74142 0.141421
endloop
endfacet
facet normal -0 0.124866 0.102476
outer loop
vertex -0.815781 9.74142 0.141421
vertex 3.30422 9.74142 0.141421
vertex 3.30422 9.76629 0.111114
endloop
endfacet
facet normal 0 0.124866 0.102476
outer loop
vertex -0.815781 9.74142 0.141421
vertex 3.30422 9.76629 0.111114
vertex -0.815781 9.76629 0.111114
endloop
endfacet
facet normal -0 0.142459 0.0761428
outer loop
vertex -0.815781 9.76629 0.111114
vertex 3.30422 9.76629 0.111114
vertex 3.30422 9.78478 0.0765367
endloop
endfacet
facet normal 3.29455e-08 0.142459 0.0761467
outer loop
vertex -0.815781 9.76629 0.111114
vertex 3.30422 9.78478 0.0765367
vertex -0.815781 9.78478 0.0765367
endloop
endfacet
facet normal 3.57806e-08 0.154577 0.0468903
outer loop
vertex -0.815781 9.78478 0.0765367
vertex 3.30422 9.78478 0.0765367
vertex 3.30422 9.79616 0.0390181
endloop
endfacet
facet normal 3.57977e-08 0.154577 0.0468903
outer loop
vertex -0.815781 9.78478 0.0765367
vertex 3.30422 9.79616 0.0390181
vertex -0.815781 9.79616 0.0390181
endloop
endfacet
facet normal 3.72105e-08 0.160754 0.0158344
outer loop
vertex -0.815781 9.79616 0.0390181
vertex 3.30422 9.79616 0.0390181
vertex 3.30422 9.8 -4.79631e-10
endloop
endfacet
facet normal 0 0.160754 0.0158305
outer loop
vertex -0.815781 9.79616 0.0390181
vertex 3.30422 9.8 -4.79631e-10
vertex -0.815781 9.8 4.79631e-10
endloop
endfacet
facet normal -3.68674e-12 0.160754 -0.0158344
outer loop
vertex -0.815781 9.8 4.79631e-10
vertex 3.30422 9.8 -4.79631e-10
vertex 3.30422 9.79616 -0.0390181
endloop
endfacet
facet normal 3.72092e-08 0.160754 -0.0158305
outer loop
vertex -0.815781 9.8 4.79631e-10
vertex 3.30422 9.79616 -0.0390181
vertex -0.815781 9.79616 -0.0390181
endloop
endfacet
facet normal 3.57806e-08 0.154577 -0.0468903
outer loop
vertex -0.815781 9.79616 -0.0390181
vertex 3.30422 9.79616 -0.0390181
vertex 3.30422 9.78478 -0.0765367
endloop
endfacet
facet normal 3.57686e-08 0.154577 -0.0468903
outer loop
vertex -0.815781 9.79616 -0.0390181
vertex 3.30422 9.78478 -0.0765367
vertex -0.815781 9.78478 -0.0765367
endloop
endfacet
facet normal 3.29755e-08 0.142459 -0.0761428
outer loop
vertex -0.815781 9.78478 -0.0765367
vertex 3.30422 9.78478 -0.0765367
vertex 3.30422 9.76629 -0.111114
endloop
endfacet
facet normal 0 0.142459 -0.0761467
outer loop
vertex -0.815781 9.78478 -0.0765367
vertex 3.30422 9.76629 -0.111114
vertex -0.815781 9.76629 -0.111114
endloop
endfacet
facet normal 0 0.124866 -0.102476
outer loop
vertex -0.815781 9.76629 -0.111114
vertex 3.30422 9.76629 -0.111114
vertex 3.30422 9.74142 -0.141421
endloop
endfacet
facet normal 0 0.124866 -0.102476
outer loop
vertex -0.815781 9.76629 -0.111114
vertex 3.30422 9.74142 -0.141421
vertex -0.815781 9.74142 -0.141421
endloop
endfacet
facet normal 0 0.102475 -0.124868
outer loop
vertex -0.815781 9.74142 -0.141421
vertex 3.30422 9.74142 -0.141421
vertex 3.30422 9.71111 -0.166294
endloop
endfacet
facet normal 2.36905e-08 0.102475 -0.124864
outer loop
vertex -0.815781 9.74142 -0.141421
vertex 3.30422 9.71111 -0.166294
vertex -0.815781 9.71111 -0.166294
endloop
endfacet
facet normal 1.76258e-08 0.0761458 -0.142459
outer loop
vertex -0.815781 9.71111 -0.166294
vertex 3.30422 9.71111 -0.166294
vertex 3.30422 9.67654 -0.184776
endloop
endfacet
facet normal 1.76369e-08 0.0761458 -0.142459
outer loop
vertex -0.815781 9.71111 -0.166294
vertex 3.30422 9.67654 -0.184776
vertex -0.815781 9.67654 -0.184776
endloop
endfacet
facet normal 0.000299895 0 0
outer loop
vertex 3.30422 9.52346 -0.184776
vertex 3.30422 9.56098 -0.196157
vertex 3.30422 9.6 -0.2
endloop
endfacet
facet normal 0.000299884 0 0
outer loop
vertex 3.30422 9.6 -0.2
vertex 3.30422 9.63902 -0.196157
vertex 3.30422 9.67654 -0.184776
endloop
endfacet
facet normal 0.00029988 0 0
outer loop
vertex 3.30422 9.67654 -0.184776
vertex 3.30422 9.71111 -0.166294
vertex 3.30422 9.74142 -0.141421
endloop
endfacet
facet normal 0.000299918 0 0
outer loop
vertex 3.30422 9.74142 -0.141421
vertex 3.30422 9.76629 -0.111114
vertex 3.30422 9.78478 -0.0765367
endloop
endfacet
facet normal 0.000299875 0 0
outer loop
vertex 3.30422 9.78478 -0.0765367
vertex 3.30422 9.79616 -0.0390181
vertex 3.30422 9.8 -4.79631e-10
endloop
endfacet
facet normal 0.000299875 0 0
outer loop
vertex 3.30422 9.8 -4.79631e-10
vertex 3.30422 9.79616 0.0390181
vertex 3.30422 9.78478 0.0765367
endloop
endfacet
facet normal 0.000299918 0 0
outer loop
vertex 3.30422 9.78478 0.0765367
vertex 3.30422 9.76629 0.111114
vertex 3.30422 9.74142 0.141421
endloop
endfacet
facet normal 0.00029988 0 0
outer loop
vertex 3.30422 9.74142 0.141421
vertex 3.30422 9.71111 0.166294
vertex 3.30422 9.67654 0.184776
endloop
endfacet
facet normal 0.000299884 0 0
outer loop
vertex 3.30422 9.67654 0.184776
vertex 3.30422 9.63902 0.196157
vertex 3.30422 9.6 0.2
endloop
endfacet
facet normal 0.000299895 0 0
outer loop
vertex 3.30422 9.6 0.2
vertex 3.30422 9.56098 0.196157
vertex 3.30422 9.52346 0.184776
endloop
endfacet
facet normal 0.000299898 0 0
outer loop
vertex 3.30422 9.52346 0.184776
vertex 3.30422 9.48889 0.166294
vertex 3.30422 9.45858 0.141421
endloop
endfacet
facet normal 0.000299889 0 0
outer loop
vertex 3.30422 9.45858 0.141421
vertex 3.30422 9.43371 0.111114
vertex 3.30422 9.41522 0.0765367
endloop
endfacet
facet normal 0.000299911 0 0
outer loop
vertex 3.30422 9.41522 0.0765367
vertex 3.30422 9.40384 0.0390181
vertex 3.30422 9.4 -4.79631e-10
endloop
endfacet
facet normal 0.000299911 0 0
outer loop
vertex 3.30422 9.4 -4.79631e-10
vertex 3.30422 9.40384 -0.0390181
vertex 3.30422 9.41522 -0.0765367
endloop
endfacet
facet normal 0.000299889 0 0
outer loop
vertex 3.30422 9.41522 -0.0765367
vertex 3.30422 9.43371 -0.111114
vertex 3.30422 9.45858 -0.141421
endloop
endfacet
facet normal 0.000299898 0 0
outer loop
vertex 3.30422 9.45858 -0.141421
vertex 3.30422 9.48889 -0.166294
vertex 3.30422 9.52346 -0.184776
endloop
endfacet
facet normal 0.0023304 -0 0
outer loop
vertex 3.30422 9.52346 -0.184776
vertex 3.30422 9.6 -0.2
vertex 3.30422 9.67654 -0.184776
endloop
endfacet
facet normal 0.00233046 0 0
outer loop
vertex 3.30422 9.67654 -0.184776
vertex 3.30422 9.74142 -0.141421
vertex 3.30422 9.78478 -0.0765367
endloop
endfacet
facet normal 0.00233046 0 0
outer loop
vertex 3.30422 9.78478 -0.0765367
vertex 3.30422 9.8 -4.79631e-10
vertex 3.30422 9.78478 0.0765367
endloop
endfacet
facet normal 0.00233046 0 0
outer loop
vertex 3.30422 9.78478 0.0765367
vertex 3.30422 9.74142 0.141421
vertex 3.30422 9.67654 0.184776
endloop
endfacet
facet normal 0.0023304 0 0
outer loop
vertex 3.30422 9.67654 0.184776
vertex 3.30422 9.6 0.2
vertex 3.30422 9.52346 0.184776
endloop
endfacet
facet normal 0.00233035 0 0
outer loop
vertex 3.30422 9.52346 0.184776
vertex 3.30422 9.45858 0.141421
vertex 3.30422 9.41522 0.0765367
endloop
endfacet
facet normal 0.00233031 0 0
outer loop
vertex 3.30422 9.41522 0.0765367
vertex 3.30422 9.4 -4.79631e-10
vertex 3.30422 9.41522 -0.0765367
endloop
endfacet
facet normal 0.00233035 0 0
outer loop
vertex 3.30422 9.41522 -0.0765367
vertex 3.30422 9.45858 -0.141421
vertex 3.30422 9.52346 -0.184776
endloop
endfacet
facet normal 0.0165685 0 0
outer loop
vertex 3.30422 9.52346 -0.184776
vertex 3.30422 9.67654 -0.184776
vertex 3.30422 9.78478 -0.0765367
endloop
endfacet
facet normal 0.0165685 0 -0
outer loop
vertex 3.30422 9.78478 -0.0765367
vertex 3.30422 9.78478 0.0765367
vertex 3.30422 9.67654 0.184776
endloop
endfacet
facet normal 0.0165685 0 0
outer loop
vertex 3.30422 9.67654 0.184776
vertex 3.30422 9.52346 0.184776
vertex 3.30422 9.41522 0.0765367
endloop
endfacet
facet normal 0.0165685 0 0
outer loop
vertex 3.30422 9.41522 0.0765367
vertex 3.30422 9.41522 -0.0765367
vertex 3.30422 9.52346 -0.184776
endloop
endfacet
facet normal 0.08 0 0
outer loop
vertex 3.30422 9.52346 -0.184776
vertex 3.30422 9.78478 -0.0765367
vertex 3.30422 9.67654 0.184776
endloop
endfacet
facet normal 0.08 0 0
outer loop
vertex 3.30422 9.67654 0.184776
vertex 3.30422 9.41522 0.0765367
vertex 3.30422 9.52346 -0.184776
endloop
endfacet
facet normal 1.08539e-08 0.0468903 -0.154576
outer loop
vertex -0.815781 9.67654 -0.184776
vertex 3.30422 9.67654 -0.184776
vertex 3.30422 9.63902 -0.196157
endloop
endfacet
facet normal 1.08557e-08 0.0468903 -0.154576
outer loop
vertex -0.815781 9.67654 -0.184776
vertex 3.30422 9.63902 -0.196157
vertex -0.815781 9.63902 -0.196157
endloop
endfacet
facet normal 3.66492e-09 0.015833 -0.160753
outer loop
vertex -0.815781 9.63902 -0.196157
vertex 3.30422 9.63902 -0.196157
vertex 3.30422 9.6 -0.2
endloop
endfacet
facet normal 0 0.015833 -0.160757
outer loop
vertex -0.815781 9.63902 -0.196157
vertex 3.30422 9.6 -0.2
vertex -0.815781 9.6 -0.2
endloop
endfacet
facet normal -0.00029989 -0 0
outer loop
vertex -0.815781 9.63902 -0.196157
vertex -0.815781 9.6 -0.2
vertex -0.815781 9.56098 -0.196157
endloop
endfacet
facet normal -0.000299886 0 0
outer loop
vertex -0.815781 9.56098 -0.196157
vertex -0.815781 9.52346 -0.184776
vertex -0.815781 9.48889 -0.166294
endloop
endfacet
facet normal -0.000299898 0 0
outer loop
vertex -0.815781 9.48889 -0.166294
vertex -0.815781 9.45858 -0.141421
vertex -0.815781 9.43371 -0.111114
endloop
endfacet
facet normal -0.000299861 0 0
outer loop
vertex -0.815781 9.43371 -0.111114
vertex -0.815781 9.41523 -0.0765367
vertex -0.815781 9.40384 -0.0390181
endloop
endfacet
facet normal -0.000299917 0 0
outer loop
vertex -0.815781 9.40384 -0.0390181
vertex -0.815781 9.4 4.79631e-10
vertex -0.815781 9.40384 0.0390181
endloop
endfacet
facet normal -0.000299861 0 0
outer loop
vertex -0.815781 9.40384 0.0390181
vertex -0.815781 9.41523 0.0765367
vertex -0.815781 9.43371 0.111114
endloop
endfacet
facet normal -0.000299898 0 0
outer loop
vertex -0.815781 9.43371 0.111114
vertex -0.815781 9.45858 0.141421
vertex -0.815781 9.48889 0.166294
endloop
endfacet
facet normal -0.000299886 0 0
outer loop
vertex -0.815781 9.48889 0.166294
vertex -0.815781 9.52346 0.184776
vertex -0.815781 9.56098 0.196157
endloop
endfacet
facet normal -0.00029989 0 0
outer loop
vertex -0.815781 9.56098 0.196157
vertex -0.815781 9.6 0.2
vertex -0.815781 9.63902 0.196157
endloop
endfacet
facet normal -0.000299886 0 0
outer loop
vertex -0.815781 9.63902 0.196157
vertex -0.815781 9.67654 0.184776
vertex -0.815781 9.71111 0.166294
endloop
endfacet
facet normal -0.000299869 0 0
outer loop
vertex -0.815781 9.71111 0.166294
vertex -0.815781 9.74142 0.141421
vertex -0.815781 9.76629 0.111114
endloop
endfacet
facet normal -0.000299897 0 0
outer loop
vertex -0.815781 9.76629 0.111114
vertex -0.815781 9.78478 0.0765367
vertex -0.815781 9.79616 0.0390181
endloop
endfacet
facet normal -0.000299842 0 0
outer loop
vertex -0.815781 9.79616 0.0390181
vertex -0.815781 9.8 4.79631e-10
vertex -0.815781 9.79616 -0.0390181
endloop
endfacet
facet normal -0.000299897 0 0
outer loop
vertex -0.815781 9.79616 -0.0390181
vertex -0.815781 9.78478 -0.0765367
vertex -0.815781 9.76629 -0.111114
endloop
endfacet
facet normal -0.000299869 0 0
outer loop
vertex -0.815781 9.76629 -0.111114
vertex -0.815781 9.74142 -0.141421
vertex -0.815781 9.71111 -0.166294
endloop
endfacet
facet normal -0.000299886 0 0
outer loop
vertex -0.815781 9.71111 -0.166294
vertex -0.815781 9.67654 -0.184776
vertex -0.815781 9.63902 -0.196157
endloop
endfacet
facet normal -0.00233041 0 0
outer loop
vertex -0.815781 9.63902 -0.196157
vertex -0.815781 9.56098 -0.196157
vertex -0.815781 9.48889 -0.166294
endloop
endfacet
facet normal -0.00233049 0 0
outer loop
vertex -0.815781 9.48889 -0.166294
vertex -0.815781 9.43371 -0.111114
vertex -0.815781 9.40384 -0.0390181
endloop
endfacet
facet normal -0.00233035 0 0
outer loop
vertex -0.815781 9.40384 -0.0390181
vertex -0.815781 9.40384 0.0390181
vertex -0.815781 9.43371 0.111114
endloop
endfacet
facet normal -0.00233038 0 0
outer loop
vertex -0.815781 9.43371 0.111114
vertex -0.815781 9.48889 0.166294
vertex -0.815781 9.56098 0.196157
endloop
endfacet
facet normal -0.00233041 0 0
outer loop
vertex -0.815781 9.56098 0.196157
vertex -0.815781 9.63902 0.196157
vertex -0.815781 9.71111 0.166294
endloop
endfacet
facet normal -0.00233037 0 0
outer loop
vertex -0.815781 9.71111 0.166294
vertex -0.815781 9.76629 0.111114
vertex -0.815781 9.79616 0.0390181
endloop
endfacet
facet normal -0.00233042 0 -0
outer loop
vertex -0.815781 9.79616 0.0390181
vertex -0.815781 9.79616 -0.0390181
vertex -0.815781 9.76629 -0.111114
endloop
endfacet
facet normal -0.00233041 0 0
outer loop
vertex -0.815781 9.76629 -0.111114
vertex -0.815781 9.71111 -0.166294
vertex -0.815781 9.63902 -0.196157
endloop
endfacet
facet normal -0.0165686 0 0
outer loop
vertex -0.815781 9.63902 -0.196157
vertex -0.815781 9.48889 -0.166294
vertex -0.815781 9.40384 -0.0390181
endloop
endfacet
facet normal -0.0165687 0 0
outer loop
vertex -0.815781 9.40384 -0.0390181
vertex -0.815781 9.43371 0.111114
vertex -0.815781 9.56098 0.196157
endloop
endfacet
facet normal -0.0165686 0 0
outer loop
vertex -0.815781 9.56098 0.196157
vertex -0.815781 9.71111 0.166294
vertex -0.815781 9.79616 0.0390181
endloop
endfacet
facet normal -0.0165685 0 0
outer loop
vertex -0.815781 9.79616 0.0390181
vertex -0.815781 9.76629 -0.111114
vertex -0.815781 9.63902 -0.196157
endloop
endfacet
facet normal -0.08 0 0
outer loop
vertex -0.815781 9.63902 -0.196157
vertex -0.815781 9.40384 -0.0390181
vertex -0.815781 9.56098 0.196157
endloop
endfacet
facet normal -0.08 0 0
outer loop
vertex -0.815781 9.56098 0.196157
vertex -0.815781 9.79616 0.0390181
vertex -0.815781 9.63902 -0.196157
endloop
endfacet
facet normal -0.04 0 0
outer loop
vertex -0.01 7.41425 0.01
vertex -0.01 9.41425 0.01
vertex -0.01 9.41425 -0.01
endloop
endfacet
facet normal -0.04 0 0
outer loop
vertex -0.01 7.41425 0.01
vertex -0.01 9.41425 -0.01
vertex -0.01 7.41425 -0.01
endloop
endfacet
facet normal 0 0 -0.04
outer loop
vertex -0.01 7.41425 -0.01
vertex -0.01 9.41425 -0.01
vertex 0.01 9.41425 -0.01
endloop
endfacet
facet normal 0 0 -0.04
outer loop
vertex -0.01 7.41425 -0.01
vertex 0.01 9.41425 -0.01
vertex 0.01 7.41425 -0.01
endloop
endfacet
facet normal 0.04 0 0
outer loop
vertex 0.01 7.41425 -0.01
vertex 0.01 9.41425 -0.01
vertex 0.01 9.41425 0.01
endloop
endfacet
facet normal 0.04 0 0
outer loop
vertex 0.01 7.41425 -0.01
vertex 0.01 9.41425 0.01
vertex 0.01 7.41425 0.01
endloop
endfacet
facet normal 0 -0 0.04
outer loop
vertex 0.01 7.41425 0.01
vertex 0.01 9.41425 0.01
vertex -0.01 9.41425 0.01
endloop
endfacet
facet normal 0 0 0.04
outer loop
vertex 0.01 7.41425 0.01
vertex -0.01 9.41425 0.01
vertex -0.01 7.41425 0.01
endloop
endfacet
facet normal 0 -0.0004 0
outer loop
vertex -0.01 7.41425 -0.01
vertex 0.01 7.41425 -0.01
vertex 0.01 7.41425 0.01
endloop
endfacet
facet normal 0 -0.0004 0
outer loop
vertex -0.01 7.41425 -0.01
vertex 0.01 7.41425 0.01
vertex -0.01 7.41425 0.01
endloop
endfacet
facet normal 0 0.0004 0
outer loop
vertex 0.01 9.41425 -0.01
vertex -0.01 9.41425 -0.01
vertex -0.01 9.41425 0.01
endloop
endfacet
facet normal 0 0.0004 -0
outer loop
vertex 0.01 9.41425 -0.01
vertex -0.01 9.41425 0.01
vertex 0.01 9.41425 0.01
endloop
endfacet
facet normal 0.00278407 0.00278405 -0.00278407
outer loop
vertex 0.232764 7.92233 -0.18
vertex 0.18 7.92233 -0.232764
vertex 0.18 7.97509 -0.18
endloop
endfacet
facet normal 0.00633169 0.00292695 -0.00633169
outer loop
vertex 0.18 7.92233 -0.232764
vertex 0.232764 7.92233 -0.18
vertex 0.288236 7.80233 -0.18
endloop
endfacet
facet normal 0.0129884 0.00600414 -0.0129884
outer loop
vertex 0.18 7.92233 -0.232764
vertex 0.288236 7.80233 -0.18
vertex 0.18 7.80233 -0.288237
endloop
endfacet
facet normal 0.0129884 0 -0.0129884
outer loop
vertex 0.18 7.80233 -0.288237
vertex 0.288236 7.80233 -0.18
vertex 0.288236 7.68233 -0.18
endloop
endfacet
facet normal 0.0129884 0 -0.0129884
outer loop
vertex 0.18 7.80233 -0.288237
vertex 0.288236 7.68233 -0.18
vertex 0.18 7.68233 -0.288237
endloop
endfacet
facet normal 0.00251294 0 -0.00141162
outer loop
vertex 0.288236 7.68233 -0.18
vertex 0.288236 7.80233 -0.18
vertex 0.3 7.80233 -0.159059
endloop
endfacet
facet normal 0.00251294 0 -0.00141162
outer loop
vertex 0.288236 7.68233 -0.18
vertex 0.3 7.80233 -0.159059
vertex 0.3 7.68233 -0.159059
endloop
endfacet
facet normal 0.011887 0 -0.00414394
outer loop
vertex 0.3 7.80233 -0.159059
vertex 0.334533 7.80233 -0.06
vertex 0.334533 7.68233 -0.06
endloop
endfacet
facet normal 0.011887 0 -0.00414394
outer loop
vertex 0.3 7.80233 -0.159059
vertex 0.334533 7.68233 -0.06
vertex 0.3 7.68233 -0.159059
endloop
endfacet
facet normal 0.00981263 -0.00342078 -0.00342078
outer loop
vertex 0.3 7.68233 -0.159059
vertex 0.334533 7.68233 -0.06
vertex 0.3 7.58327 -0.06
endloop
endfacet
facet normal 0.011887 -0.00414394 0
outer loop
vertex 0.3 7.58327 -0.06
vertex 0.334533 7.68233 -0.06
vertex 0.334533 7.68233 0.06
endloop
endfacet
facet normal 0.011887 -0.00414394 0
outer loop
vertex 0.3 7.58327 -0.06
vertex 0.334533 7.68233 0.06
vertex 0.3 7.58327 0.06
endloop
endfacet
facet normal 0.00981263 -0.00342078 0.00342078
outer loop
vertex 0.334533 7.68233 0.06
vertex 0.3 7.68233 0.159059
vertex 0.3 7.58327 0.06
endloop
endfacet
facet normal 0.011887 -0 0.00414394
outer loop
vertex 0.334533 7.68233 0.06
vertex 0.334533 7.80233 0.06
vertex 0.3 7.80233 0.159059
endloop
endfacet
facet normal 0.011887 0 0.00414394
outer loop
vertex 0.334533 7.68233 0.06
vertex 0.3 7.80233 0.159059
vertex 0.3 7.68233 0.159059
endloop
endfacet
facet normal 0.00981263 0.00342078 0.00342078
outer loop
vertex 0.3 7.80233 0.159059
vertex 0.334533 7.80233 0.06
vertex 0.3 7.90139 0.06
endloop
endfacet
facet normal 0.011887 0.00414394 0
outer loop
vertex 0.334533 7.80233 0.06
vertex 0.334533 7.80233 -0.06
vertex 0.3 7.90139 -0.06
endloop
endfacet
facet normal 0.011887 0.00414394 0
outer loop
vertex 0.334533 7.80233 0.06
vertex 0.3 7.90139 -0.06
vertex 0.3 7.90139 0.06
endloop
endfacet
facet normal 0.00251295 0.00141162 0
outer loop
vertex 0.3 7.90139 -0.06
vertex 0.288236 7.92233 -0.06
vertex 0.288236 7.92233 0.06
endloop
endfacet
facet normal 0.00251295 0.00141162 -0
outer loop
vertex 0.3 7.90139 -0.06
vertex 0.288236 7.92233 0.06
vertex 0.3 7.90139 0.06
endloop
endfacet
facet normal 0.0129884 0.0129884 0
outer loop
vertex 0.288236 7.92233 0.06
vertex 0.288236 7.92233 -0.06
vertex 0.18 8.03056 -0.06
endloop
endfacet
facet normal 0.0129884 0.0129884 0
outer loop
vertex 0.288236 7.92233 0.06
vertex 0.18 8.03056 -0.06
vertex 0.18 8.03056 0.06
endloop
endfacet
facet normal 0.00141163 0.00251295 0
outer loop
vertex 0.18 8.03056 -0.06
vertex 0.159059 8.04233 -0.06
vertex 0.159059 8.04233 0.06
endloop
endfacet
facet normal 0.00141163 0.00251295 -0
outer loop
vertex 0.18 8.03056 -0.06
vertex 0.159059 8.04233 0.06
vertex 0.18 8.03056 0.06
endloop
endfacet
facet normal 0.00414402 0.0118871 0
outer loop
vertex 0.159059 8.04233 0.06
vertex 0.159059 8.04233 -0.06
vertex 0.06 8.07686 -0.06
endloop
endfacet
facet normal 0.00414402 0.0118871 0
outer loop
vertex 0.159059 8.04233 0.06
vertex 0.06 8.07686 -0.06
vertex 0.06 8.07686 0.06
endloop
endfacet
facet normal 0.00342085 0.00981264 0.00342085
outer loop
vertex 0.06 8.04233 0.159059
vertex 0.159059 8.04233 0.06
vertex 0.06 8.07686 0.06
endloop
endfacet
facet normal -0 0.0118871 0.00414402
outer loop
vertex -0.06 8.04233 0.159059
vertex 0.06 8.04233 0.159059
vertex 0.06 8.07686 0.06
endloop
endfacet
facet normal 0 0.0118871 0.00414402
outer loop
vertex -0.06 8.04233 0.159059
vertex 0.06 8.07686 0.06
vertex -0.06 8.07686 0.06
endloop
endfacet
facet normal 0 0.00251295 0.00141163
outer loop
vertex 0.06 8.03056 0.18
vertex 0.06 8.04233 0.159059
vertex -0.06 8.04233 0.159059
endloop
endfacet
facet normal 0 0.00251295 0.00141163
outer loop
vertex 0.06 8.03056 0.18
vertex -0.06 8.04233 0.159059
vertex -0.06 8.03056 0.18
endloop
endfacet
facet normal -0 0.0129884 0.0129884
outer loop
vertex -0.06 7.92233 0.288237
vertex 0.06 7.92233 0.288237
vertex 0.06 8.03056 0.18
endloop
endfacet
facet normal 0 0.0129884 0.0129884
outer loop
vertex -0.06 7.92233 0.288237
vertex 0.06 8.03056 0.18
vertex -0.06 8.03056 0.18
endloop
endfacet
facet normal 0 0.00141162 0.00251295
outer loop
vertex 0.06 7.90139 0.3
vertex 0.06 7.92233 0.288237
vertex -0.06 7.92233 0.288237
endloop
endfacet
facet normal 0 0.00141162 0.00251295
outer loop
vertex 0.06 7.90139 0.3
vertex -0.06 7.92233 0.288237
vertex -0.06 7.90139 0.3
endloop
endfacet
facet normal -0 0.00414394 0.011887
outer loop
vertex -0.06 7.80233 0.334533
vertex 0.06 7.80233 0.334533
vertex 0.06 7.90139 0.3
endloop
endfacet
facet normal 0 0.00414394 0.011887
outer loop
vertex -0.06 7.80233 0.334533
vertex 0.06 7.90139 0.3
vertex -0.06 7.90139 0.3
endloop
endfacet
facet normal 0 -0 0.0144
outer loop
vertex 0.06 7.68233 0.334533
vertex 0.06 7.80233 0.334533
vertex -0.06 7.80233 0.334533
endloop
endfacet
facet normal 0 0 0.0144
outer loop
vertex 0.06 7.68233 0.334533
vertex -0.06 7.80233 0.334533
vertex -0.06 7.68233 0.334533
endloop
endfacet
facet normal 0 -0.00414394 0.011887
outer loop
vertex 0.06 7.58327 0.3
vertex 0.06 7.68233 0.334533
vertex -0.06 7.68233 0.334533
endloop
endfacet
facet normal 0 -0.00414394 0.011887
outer loop
vertex 0.06 7.58327 0.3
vertex -0.06 7.68233 0.334533
vertex -0.06 7.58327 0.3
endloop
endfacet
facet normal 0 -0.00141162 0.00251295
outer loop
vertex -0.06 7.56233 0.288237
vertex 0.06 7.56233 0.288237
vertex 0.06 7.58327 0.3
endloop
endfacet
facet normal 0 -0.00141162 0.00251295
outer loop
vertex -0.06 7.56233 0.288237
vertex 0.06 7.58327 0.3
vertex -0.06 7.58327 0.3
endloop
endfacet
facet normal 0 -0.0129884 0.0129884
outer loop
vertex 0.06 7.45409 0.18
vertex 0.06 7.56233 0.288237
vertex -0.06 7.56233 0.288237
endloop
endfacet
facet normal 0 -0.0129884 0.0129884
outer loop
vertex 0.06 7.45409 0.18
vertex -0.06 7.56233 0.288237
vertex -0.06 7.45409 0.18
endloop
endfacet
facet normal 0 -0.00251295 0.00141163
outer loop
vertex -0.06 7.44233 0.159059
vertex 0.06 7.44233 0.159059
vertex 0.06 7.45409 0.18
endloop
endfacet
facet normal 0 -0.00251295 0.00141163
outer loop
vertex -0.06 7.44233 0.159059
vertex 0.06 7.45409 0.18
vertex -0.06 7.45409 0.18
endloop
endfacet
facet normal 0 -0.0118871 0.00414391
outer loop
vertex 0.06 7.40779 0.06
vertex 0.06 7.44233 0.159059
vertex -0.06 7.44233 0.159059
endloop
endfacet
facet normal 0 -0.0118871 0.00414391
outer loop
vertex 0.06 7.40779 0.06
vertex -0.06 7.44233 0.159059
vertex -0.06 7.40779 0.06
endloop
endfacet
facet normal 0 -0.0144 0
outer loop
vertex -0.06 7.40779 -0.06
vertex 0.06 7.40779 -0.06
vertex 0.06 7.40779 0.06
endloop
endfacet
facet normal 0 -0.0144 0
outer loop
vertex -0.06 7.40779 -0.06
vertex 0.06 7.40779 0.06
vertex -0.06 7.40779 0.06
endloop
endfacet
facet normal 0 -0.0118871 -0.00414391
outer loop
vertex -0.06 7.44233 -0.159059
vertex 0.06 7.44233 -0.159059
vertex 0.06 7.40779 -0.06
endloop
endfacet
facet normal 0 -0.0118871 -0.00414391
outer loop
vertex -0.06 7.44233 -0.159059
vertex 0.06 7.40779 -0.06
vertex -0.06 7.40779 -0.06
endloop
endfacet
facet normal 0 -0.00251295 -0.00141163
outer loop
vertex 0.06 7.45409 -0.18
vertex 0.06 7.44233 -0.159059
vertex -0.06 7.44233 -0.159059
endloop
endfacet
facet normal -0 -0.00251295 -0.00141163
outer loop
vertex 0.06 7.45409 -0.18
vertex -0.06 7.44233 -0.159059
vertex -0.06 7.45409 -0.18
endloop
endfacet
facet normal 0 -0.0129884 -0.0129884
outer loop
vertex -0.06 7.56233 -0.288237
vertex 0.06 7.56233 -0.288237
vertex 0.06 7.45409 -0.18
endloop
endfacet
facet normal 0 -0.0129884 -0.0129884
outer loop
vertex -0.06 7.56233 -0.288237
vertex 0.06 7.45409 -0.18
vertex -0.06 7.45409 -0.18
endloop
endfacet
facet normal 0 -0.00141162 -0.00251295
outer loop
vertex 0.06 7.58327 -0.3
vertex 0.06 7.56233 -0.288237
vertex -0.06 7.56233 -0.288237
endloop
endfacet
facet normal -0 -0.00141162 -0.00251295
outer loop
vertex 0.06 7.58327 -0.3
vertex -0.06 7.56233 -0.288237
vertex -0.06 7.58327 -0.3
endloop
endfacet
facet normal 0 -0.00414394 -0.011887
outer loop
vertex -0.06 7.68233 -0.334533
vertex 0.06 7.68233 -0.334533
vertex 0.06 7.58327 -0.3
endloop
endfacet
facet normal 0 -0.00414394 -0.011887
outer loop
vertex -0.06 7.68233 -0.334533
vertex 0.06 7.58327 -0.3
vertex -0.06 7.58327 -0.3
endloop
endfacet
facet normal 0 0 -0.0144
outer loop
vertex -0.06 7.80233 -0.334533
vertex 0.06 7.80233 -0.334533
vertex 0.06 7.68233 -0.334533
endloop
endfacet
facet normal 0 0 -0.0144
outer loop
vertex -0.06 7.80233 -0.334533
vertex 0.06 7.68233 -0.334533
vertex -0.06 7.68233 -0.334533
endloop
endfacet
facet normal 0 0.00414394 -0.011887
outer loop
vertex 0.06 7.90139 -0.3
vertex 0.06 7.80233 -0.334533
vertex -0.06 7.80233 -0.334533
endloop
endfacet
facet normal 0 0.00414394 -0.011887
outer loop
vertex 0.06 7.90139 -0.3
vertex -0.06 7.80233 -0.334533
vertex -0.06 7.90139 -0.3
endloop
endfacet
facet normal 0 0.00141162 -0.00251295
outer loop
vertex -0.06 7.92233 -0.288237
vertex 0.06 7.92233 -0.288237
vertex 0.06 7.90139 -0.3
endloop
endfacet
facet normal 0 0.00141162 -0.00251295
outer loop
vertex -0.06 7.92233 -0.288237
vertex 0.06 7.90139 -0.3
vertex -0.06 7.90139 -0.3
endloop
endfacet
facet normal 0 0.0129884 -0.0129884
outer loop
vertex 0.06 8.03056 -0.18
vertex 0.06 7.92233 -0.288237
vertex -0.06 7.92233 -0.288237
endloop
endfacet
facet normal 0 0.0129884 -0.0129884
outer loop
vertex 0.06 8.03056 -0.18
vertex -0.06 7.92233 -0.288237
vertex -0.06 8.03056 -0.18
endloop
endfacet
facet normal 0 0.00251295 -0.00141163
outer loop
vertex -0.06 8.04233 -0.159059
vertex 0.06 8.04233 -0.159059
vertex 0.06 8.03056 -0.18
endloop
endfacet
facet normal 0 0.00251295 -0.00141163
outer loop
vertex -0.06 8.04233 -0.159059
vertex 0.06 8.03056 -0.18
vertex -0.06 8.03056 -0.18
endloop
endfacet
facet normal 0 0.0118871 -0.00414402
outer loop
vertex 0.06 8.07686 -0.06
vertex 0.06 8.04233 -0.159059
vertex -0.06 8.04233 -0.159059
endloop
endfacet
facet normal 0 0.0118871 -0.00414402
outer loop
vertex 0.06 8.07686 -0.06
vertex -0.06 8.04233 -0.159059
vertex -0.06 8.07686 -0.06
endloop
endfacet
facet normal -0.00342085 0.00981264 -0.00342085
outer loop
vertex -0.06 8.04233 -0.159059
vertex -0.159059 8.04233 -0.06
vertex -0.06 8.07686 -0.06
endloop
endfacet
facet normal -0.00414402 0.0118871 0
outer loop
vertex -0.06 8.07686 -0.06
vertex -0.159059 8.04233 -0.06
vertex -0.159059 8.04233 0.06
endloop
endfacet
facet normal -0.00414402 0.0118871 0
outer loop
vertex -0.06 8.07686 -0.06
vertex -0.159059 8.04233 0.06
vertex -0.06 8.07686 0.06
endloop
endfacet
facet normal -0.00141163 0.00251295 0
outer loop
vertex -0.159059 8.04233 0.06
vertex -0.159059 8.04233 -0.06
vertex -0.18 8.03056 -0.06
endloop
endfacet
facet normal -0.00141163 0.00251295 0
outer loop
vertex -0.159059 8.04233 0.06
vertex -0.18 8.03056 -0.06
vertex -0.18 8.03056 0.06
endloop
endfacet
facet normal -0.0129884 0.0129884 0
outer loop
vertex -0.18 8.03056 -0.06
vertex -0.288236 7.92233 -0.06
vertex -0.288236 7.92233 0.06
endloop
endfacet
facet normal -0.0129884 0.0129884 0
outer loop
vertex -0.18 8.03056 -0.06
vertex -0.288236 7.92233 0.06
vertex -0.18 8.03056 0.06
endloop
endfacet
facet normal -0.00251295 0.00141162 0
outer loop
vertex -0.288236 7.92233 0.06
vertex -0.288236 7.92233 -0.06
vertex -0.3 7.90139 -0.06
endloop
endfacet
facet normal -0.00251295 0.00141162 0
outer loop
vertex -0.288236 7.92233 0.06
vertex -0.3 7.90139 -0.06
vertex -0.3 7.90139 0.06
endloop
endfacet
facet normal -0.00251294 0.00116166 -0.00141162
outer loop
vertex -0.232764 7.92233 -0.18
vertex -0.288236 7.80233 -0.18
vertex -0.3 7.80233 -0.159059
endloop
endfacet
facet normal -0.0139615 0.0066603 -0.00666029
outer loop
vertex -0.232764 7.92233 -0.18
vertex -0.3 7.80233 -0.159059
vertex -0.3 7.90139 -0.06
endloop
endfacet
facet normal -0.00251295 0.00141162 -0.00116166
outer loop
vertex -0.288236 7.92233 -0.06
vertex -0.232764 7.92233 -0.18
vertex -0.3 7.90139 -0.06
endloop
endfacet
facet normal -0.00251294 0 -0.00141162
outer loop
vertex -0.3 7.80233 -0.159059
vertex -0.288236 7.80233 -0.18
vertex -0.288236 7.68233 -0.18
endloop
endfacet
facet normal -0.00251294 -0 -0.00141162
outer loop
vertex -0.3 7.80233 -0.159059
vertex -0.288236 7.68233 -0.18
vertex -0.3 7.68233 -0.159059
endloop
endfacet
facet normal -0.0144 -0.00665668 -0.00665668
outer loop
vertex -0.288236 7.68233 -0.18
vertex -0.232764 7.56233 -0.18
vertex -0.288236 7.56233 -0.06
endloop
endfacet
facet normal -0.00251295 -0.00141162 -0.00141162
outer loop
vertex -0.288236 7.68233 -0.18
vertex -0.288236 7.56233 -0.06
vertex -0.3 7.58327 -0.06
endloop
endfacet
facet normal -0.00207441 -0.00116528 -0.00116527
outer loop
vertex -0.3 7.68233 -0.159059
vertex -0.288236 7.68233 -0.18
vertex -0.3 7.58327 -0.06
endloop
endfacet
facet normal -0.0129884 -0.00600414 -0.0129884
outer loop
vertex -0.232764 7.56233 -0.18
vertex -0.288236 7.68233 -0.18
vertex -0.18 7.68233 -0.288237
endloop
endfacet
facet normal -0.00633169 -0.00292695 -0.00633169
outer loop
vertex -0.232764 7.56233 -0.18
vertex -0.18 7.68233 -0.288237
vertex -0.18 7.56233 -0.232764
endloop
endfacet
facet normal -0.00278407 -0.00278405 -0.00278407
outer loop
vertex -0.232764 7.56233 -0.18
vertex -0.18 7.56233 -0.232764
vertex -0.18 7.50956 -0.18
endloop
endfacet
facet normal -0.00251295 -0.00141162 0
outer loop
vertex -0.3 7.58327 -0.06
vertex -0.288236 7.56233 -0.06
vertex -0.288236 7.56233 0.06
endloop
endfacet
facet normal -0.00251295 -0.00141162 0
outer loop
vertex -0.3 7.58327 -0.06
vertex -0.288236 7.56233 0.06
vertex -0.3 7.58327 0.06
endloop
endfacet
facet normal -0.0129884 -0.0129884 -0
outer loop
vertex -0.288236 7.56233 0.06
vertex -0.288236 7.56233 -0.06
vertex -0.18 7.45409 -0.06
endloop
endfacet
facet normal -0.0129884 -0.0129884 0
outer loop
vertex -0.288236 7.56233 0.06
vertex -0.18 7.45409 -0.06
vertex -0.18 7.45409 0.06
endloop
endfacet
facet normal -0.0129884 -0.0129884 0.00600415
outer loop
vertex -0.232764 7.56233 0.18
vertex -0.288236 7.56233 0.06
vertex -0.18 7.45409 0.06
endloop
endfacet
facet normal -0.00633173 -0.0063317 0.00292695
outer loop
vertex -0.232764 7.56233 0.18
vertex -0.18 7.45409 0.06
vertex -0.18 7.50956 0.18
endloop
endfacet
facet normal -0.00141163 -0.00251295 0
outer loop
vertex -0.18 7.45409 -0.06
vertex -0.159059 7.44233 -0.06
vertex -0.159059 7.44233 0.06
endloop
endfacet
facet normal -0.00141163 -0.00251295 0
outer loop
vertex -0.18 7.45409 -0.06
vertex -0.159059 7.44233 0.06
vertex -0.18 7.45409 0.06
endloop
endfacet
facet normal -0.00251294 -0.00116166 0.00141162
outer loop
vertex -0.232764 7.56233 0.18
vertex -0.288236 7.68233 0.18
vertex -0.3 7.68233 0.159059
endloop
endfacet
facet normal -0.0139615 -0.0066603 0.00666029
outer loop
vertex -0.232764 7.56233 0.18
vertex -0.3 7.68233 0.159059
vertex -0.3 7.58327 0.06
endloop
endfacet
facet normal -0.00251295 -0.00141162 0.00116166
outer loop
vertex -0.288236 7.56233 0.06
vertex -0.232764 7.56233 0.18
vertex -0.3 7.58327 0.06
endloop
endfacet
facet normal -0.00251294 0 0.00141162
outer loop
vertex -0.288236 7.68233 0.18
vertex -0.288236 7.80233 0.18
vertex -0.3 7.80233 0.159059
endloop
endfacet
facet normal -0.00251294 0 0.00141162
outer loop
vertex -0.288236 7.68233 0.18
vertex -0.3 7.80233 0.159059
vertex -0.3 7.68233 0.159059
endloop
endfacet
facet normal -0.0129884 0 0.0129884
outer loop
vertex -0.18 7.80233 0.288237
vertex -0.288236 7.80233 0.18
vertex -0.288236 7.68233 0.18
endloop
endfacet
facet normal -0.0129884 0 0.0129884
outer loop
vertex -0.18 7.80233 0.288237
vertex -0.288236 7.68233 0.18
vertex -0.18 7.68233 0.288237
endloop
endfacet
facet normal -0.00141162 0 0.00251294
outer loop
vertex -0.159059 7.68233 0.3
vertex -0.159059 7.80233 0.3
vertex -0.18 7.80233 0.288237
endloop
endfacet
facet normal -0.00141162 0 0.00251294
outer loop
vertex -0.159059 7.68233 0.3
vertex -0.18 7.80233 0.288237
vertex -0.18 7.68233 0.288237
endloop
endfacet
facet normal -0.011887 0 0.00414394
outer loop
vertex -0.3 7.80233 0.159059
vertex -0.334533 7.80233 0.06
vertex -0.334533 7.68233 0.06
endloop
endfacet
facet normal -0.011887 0 0.00414394
outer loop
vertex -0.3 7.80233 0.159059
vertex -0.334533 7.68233 0.06
vertex -0.3 7.68233 0.159059
endloop
endfacet
facet normal -0.00981263 0.00342078 0.00342078
outer loop
vertex -0.334533 7.80233 0.06
vertex -0.3 7.80233 0.159059
vertex -0.3 7.90139 0.06
endloop
endfacet
facet normal -0.0144 0 -0
outer loop
vertex -0.334533 7.80233 0.06
vertex -0.334533 7.80233 -0.06
vertex -0.334533 7.68233 -0.06
endloop
endfacet
facet normal -0.0144 -0 0
outer loop
vertex -0.334533 7.80233 0.06
vertex -0.334533 7.68233 -0.06
vertex -0.334533 7.68233 0.06
endloop
endfacet
facet normal -0.0129884 -0.00600414 0.0129884
outer loop
vertex -0.18 7.68233 0.288237
vertex -0.288236 7.68233 0.18
vertex -0.232764 7.56233 0.18
endloop
endfacet
facet normal -0.00633169 -0.00292695 0.00633169
outer loop
vertex -0.18 7.68233 0.288237
vertex -0.232764 7.56233 0.18
vertex -0.18 7.56233 0.232764
endloop
endfacet
facet normal -0.00981263 -0.00342078 0.00342078
outer loop
vertex -0.3 7.68233 0.159059
vertex -0.334533 7.68233 0.06
vertex -0.3 7.58327 0.06
endloop
endfacet
facet normal -0.011887 -0.00414394 -0
outer loop
vertex -0.334533 7.68233 0.06
vertex -0.334533 7.68233 -0.06
vertex -0.3 7.58327 -0.06
endloop
endfacet
facet normal -0.011887 -0.00414394 0
outer loop
vertex -0.334533 7.68233 0.06
vertex -0.3 7.58327 -0.06
vertex -0.3 7.58327 0.06
endloop
endfacet
facet normal -0.00981263 -0.00342078 -0.00342078
outer loop
vertex -0.334533 7.68233 -0.06
vertex -0.3 7.68233 -0.159059
vertex -0.3 7.58327 -0.06
endloop
endfacet
facet normal -0.0129884 0 -0.0129884
outer loop
vertex -0.288236 7.68233 -0.18
vertex -0.288236 7.80233 -0.18
vertex -0.18 7.80233 -0.288237
endloop
endfacet
facet normal -0.0129884 0 -0.0129884
outer loop
vertex -0.288236 7.68233 -0.18
vertex -0.18 7.80233 -0.288237
vertex -0.18 7.68233 -0.288237
endloop
endfacet
facet normal -0.00141162 0 -0.00251294
outer loop
vertex -0.18 7.80233 -0.288237
vertex -0.159059 7.80233 -0.3
vertex -0.159059 7.68233 -0.3
endloop
endfacet
facet normal -0.00141162 -0 -0.00251294
outer loop
vertex -0.18 7.80233 -0.288237
vertex -0.159059 7.68233 -0.3
vertex -0.18 7.68233 -0.288237
endloop
endfacet
facet normal -0.011887 0 -0.00414394
outer loop
vertex -0.334533 7.68233 -0.06
vertex -0.334533 7.80233 -0.06
vertex -0.3 7.80233 -0.159059
endloop
endfacet
facet normal -0.011887 0 -0.00414394
outer loop
vertex -0.334533 7.68233 -0.06
vertex -0.3 7.80233 -0.159059
vertex -0.3 7.68233 -0.159059
endloop
endfacet
facet normal -0.00633169 0.00292695 -0.00633169
outer loop
vertex -0.288236 7.80233 -0.18
vertex -0.232764 7.92233 -0.18
vertex -0.18 7.92233 -0.232764
endloop
endfacet
facet normal -0.0129884 0.00600414 -0.0129884
outer loop
vertex -0.288236 7.80233 -0.18
vertex -0.18 7.92233 -0.232764
vertex -0.18 7.80233 -0.288237
endloop
endfacet
facet normal -0.00278407 0.00278405 -0.00278407
outer loop
vertex -0.18 7.92233 -0.232764
vertex -0.232764 7.92233 -0.18
vertex -0.18 7.97509 -0.18
endloop
endfacet
facet normal -0.0144 0.00665668 0.00665668
outer loop
vertex -0.288236 7.80233 0.18
vertex -0.232764 7.92233 0.18
vertex -0.288236 7.92233 0.06
endloop
endfacet
facet normal -0.00251295 0.00141162 0.00141162
outer loop
vertex -0.288236 7.80233 0.18
vertex -0.288236 7.92233 0.06
vertex -0.3 7.90139 0.06
endloop
endfacet
facet normal -0.00207441 0.00116528 0.00116527
outer loop
vertex -0.3 7.80233 0.159059
vertex -0.288236 7.80233 0.18
vertex -0.3 7.90139 0.06
endloop
endfacet
facet normal -0.011887 0.00414394 0
outer loop
vertex -0.3 7.90139 -0.06
vertex -0.334533 7.80233 -0.06
vertex -0.334533 7.80233 0.06
endloop
endfacet
facet normal -0.011887 0.00414394 0
outer loop
vertex -0.3 7.90139 -0.06
vertex -0.334533 7.80233 0.06
vertex -0.3 7.90139 0.06
endloop
endfacet
facet normal -0.00633173 0.0063317 -0.00292697
outer loop
vertex -0.18 7.97509 -0.18
vertex -0.232764 7.92233 -0.18
vertex -0.288236 7.92233 -0.06
endloop
endfacet
facet normal -0.0129884 0.0129884 -0.00600408
outer loop
vertex -0.18 7.97509 -0.18
vertex -0.288236 7.92233 -0.06
vertex -0.18 8.03056 -0.06
endloop
endfacet
facet normal -0.0129884 0.0129884 0.00600413
outer loop
vertex -0.18 8.03056 0.06
vertex -0.288236 7.92233 0.06
vertex -0.232764 7.92233 0.18
endloop
endfacet
facet normal -0.00633173 0.0063317 0.00292693
outer loop
vertex -0.18 8.03056 0.06
vertex -0.232764 7.92233 0.18
vertex -0.18 7.97509 0.18
endloop
endfacet
facet normal -0.00278407 0.00278405 0.00278407
outer loop
vertex -0.232764 7.92233 0.18
vertex -0.18 7.92233 0.232764
vertex -0.18 7.97509 0.18
endloop
endfacet
facet normal -0.00342078 0.00342078 -0.00981263
outer loop
vertex -0.06 7.80233 -0.334533
vertex -0.159059 7.80233 -0.3
vertex -0.06 7.90139 -0.3
endloop
endfacet
facet normal 0.00414394 0 -0.011887
outer loop
vertex 0.06 7.80233 -0.334533
vertex 0.159059 7.80233 -0.3
vertex 0.159059 7.68233 -0.3
endloop
endfacet
facet normal 0.00414394 0 -0.011887
outer loop
vertex 0.06 7.80233 -0.334533
vertex 0.159059 7.68233 -0.3
vertex 0.06 7.68233 -0.334533
endloop
endfacet
facet normal -0.00414394 0 -0.011887
outer loop
vertex -0.159059 7.68233 -0.3
vertex -0.159059 7.80233 -0.3
vertex -0.06 7.80233 -0.334533
endloop
endfacet
facet normal -0.00414394 0 -0.011887
outer loop
vertex -0.159059 7.68233 -0.3
vertex -0.06 7.80233 -0.334533
vertex -0.06 7.68233 -0.334533
endloop
endfacet
facet normal 0.00342078 -0.00342078 -0.00981263
outer loop
vertex 0.06 7.68233 -0.334533
vertex 0.159059 7.68233 -0.3
vertex 0.06 7.58327 -0.3
endloop
endfacet
facet normal -0.00342078 -0.00342078 -0.00981263
outer loop
vertex -0.159059 7.68233 -0.3
vertex -0.06 7.68233 -0.334533
vertex -0.06 7.58327 -0.3
endloop
endfacet
facet normal 0.00292697 -0.00633169 -0.00633173
outer loop
vertex 0.06 7.56233 -0.288237
vertex 0.18 7.56233 -0.232764
vertex 0.18 7.50956 -0.18
endloop
endfacet
facet normal 0.00600414 -0.0129884 -0.0129884
outer loop
vertex 0.06 7.56233 -0.288237
vertex 0.18 7.50956 -0.18
vertex 0.06 7.45409 -0.18
endloop
endfacet
facet normal 0.00278407 -0.00278405 -0.00278407
outer loop
vertex 0.18 7.56233 -0.232764
vertex 0.232764 7.56233 -0.18
vertex 0.18 7.50956 -0.18
endloop
endfacet
facet normal 0.00633173 -0.0063317 -0.00292697
outer loop
vertex 0.18 7.50956 -0.18
vertex 0.232764 7.56233 -0.18
vertex 0.288236 7.56233 -0.06
endloop
endfacet
facet normal 0.0129884 -0.0129884 -0.00600414
outer loop
vertex 0.18 7.50956 -0.18
vertex 0.288236 7.56233 -0.06
vertex 0.18 7.45409 -0.06
endloop
endfacet
facet normal 0.0129884 -0.0129884 0
outer loop
vertex 0.18 7.45409 -0.06
vertex 0.288236 7.56233 -0.06
vertex 0.288236 7.56233 0.06
endloop
endfacet
facet normal 0.0129884 -0.0129884 0
outer loop
vertex 0.18 7.45409 -0.06
vertex 0.288236 7.56233 0.06
vertex 0.18 7.45409 0.06
endloop
endfacet
facet normal 0.0129884 -0.0129884 0.00600415
outer loop
vertex 0.18 7.45409 0.06
vertex 0.288236 7.56233 0.06
vertex 0.232764 7.56233 0.18
endloop
endfacet
facet normal 0.00633173 -0.0063317 0.00292695
outer loop
vertex 0.18 7.45409 0.06
vertex 0.232764 7.56233 0.18
vertex 0.18 7.50956 0.18
endloop
endfacet
facet normal 0.00278407 -0.00278405 0.00278407
outer loop
vertex 0.232764 7.56233 0.18
vertex 0.18 7.56233 0.232764
vertex 0.18 7.50956 0.18
endloop
endfacet
facet normal 0.0129884 -0.00600414 0.0129884
outer loop
vertex 0.232764 7.56233 0.18
vertex 0.288236 7.68233 0.18
vertex 0.18 7.68233 0.288237
endloop
endfacet
facet normal 0.00633169 -0.00292695 0.00633169
outer loop
vertex 0.232764 7.56233 0.18
vertex 0.18 7.68233 0.288237
vertex 0.18 7.56233 0.232764
endloop
endfacet
facet normal 0.0129884 -0 0.0129884
outer loop
vertex 0.288236 7.68233 0.18
vertex 0.288236 7.80233 0.18
vertex 0.18 7.80233 0.288237
endloop
endfacet
facet normal 0.0129884 0 0.0129884
outer loop
vertex 0.288236 7.68233 0.18
vertex 0.18 7.80233 0.288237
vertex 0.18 7.68233 0.288237
endloop
endfacet
facet normal 0.00633169 0.00292695 0.00633169
outer loop
vertex 0.288236 7.80233 0.18
vertex 0.232764 7.92233 0.18
vertex 0.18 7.92233 0.232764
endloop
endfacet
facet normal 0.0129884 0.00600414 0.0129884
outer loop
vertex 0.288236 7.80233 0.18
vertex 0.18 7.92233 0.232764
vertex 0.18 7.80233 0.288237
endloop
endfacet
facet normal 0.00278407 0.00278405 0.00278407
outer loop
vertex 0.18 7.92233 0.232764
vertex 0.232764 7.92233 0.18
vertex 0.18 7.97509 0.18
endloop
endfacet
facet normal 0.00141162 0 0.00251294
outer loop
vertex 0.18 7.80233 0.288237
vertex 0.159059 7.80233 0.3
vertex 0.159059 7.68233 0.3
endloop
endfacet
facet normal 0.00141162 0 0.00251294
outer loop
vertex 0.18 7.80233 0.288237
vertex 0.159059 7.68233 0.3
vertex 0.18 7.68233 0.288237
endloop
endfacet
facet normal 0.00141163 -0.00251295 0
outer loop
vertex 0.159059 7.44233 0.06
vertex 0.159059 7.44233 -0.06
vertex 0.18 7.45409 -0.06
endloop
endfacet
facet normal 0.00141163 -0.00251295 0
outer loop
vertex 0.159059 7.44233 0.06
vertex 0.18 7.45409 -0.06
vertex 0.18 7.45409 0.06
endloop
endfacet
facet normal -0.00600415 -0.0129884 -0.0129884
outer loop
vertex -0.18 7.56233 -0.232764
vertex -0.06 7.56233 -0.288237
vertex -0.06 7.45409 -0.18
endloop
endfacet
facet normal -0.00292695 -0.0063317 -0.00633173
outer loop
vertex -0.18 7.56233 -0.232764
vertex -0.06 7.45409 -0.18
vertex -0.18 7.50956 -0.18
endloop
endfacet
facet normal 0.00116529 -0.00207441 -0.00116528
outer loop
vertex 0.18 7.45409 -0.06
vertex 0.159059 7.44233 -0.06
vertex 0.06 7.44233 -0.159059
endloop
endfacet
facet normal 0.00141163 -0.00251295 -0.00141163
outer loop
vertex 0.18 7.45409 -0.06
vertex 0.06 7.44233 -0.159059
vertex 0.06 7.45409 -0.18
endloop
endfacet
facet normal 0.00665668 -0.0144 -0.00665668
outer loop
vertex 0.18 7.50956 -0.18
vertex 0.18 7.45409 -0.06
vertex 0.06 7.45409 -0.18
endloop
endfacet
facet normal -0.00116529 -0.00207441 -0.00116529
outer loop
vertex -0.06 7.45409 -0.18
vertex -0.06 7.44233 -0.159059
vertex -0.159059 7.44233 -0.06
endloop
endfacet
facet normal -0.00141163 -0.00251295 -0.00141163
outer loop
vertex -0.06 7.45409 -0.18
vertex -0.159059 7.44233 -0.06
vertex -0.18 7.45409 -0.06
endloop
endfacet
facet normal -0.00665668 -0.0144 -0.00665668
outer loop
vertex -0.18 7.50956 -0.18
vertex -0.06 7.45409 -0.18
vertex -0.18 7.45409 -0.06
endloop
endfacet
facet normal -0.00342075 -0.00981264 -0.00342075
outer loop
vertex -0.159059 7.44233 -0.06
vertex -0.06 7.44233 -0.159059
vertex -0.06 7.40779 -0.06
endloop
endfacet
facet normal 0.00414391 -0.0118871 0
outer loop
vertex 0.06 7.40779 -0.06
vertex 0.159059 7.44233 -0.06
vertex 0.159059 7.44233 0.06
endloop
endfacet
facet normal 0.00414391 -0.0118871 0
outer loop
vertex 0.06 7.40779 -0.06
vertex 0.159059 7.44233 0.06
vertex 0.06 7.40779 0.06
endloop
endfacet
facet normal -0.00414391 -0.0118871 -0
outer loop
vertex -0.159059 7.44233 0.06
vertex -0.159059 7.44233 -0.06
vertex -0.06 7.40779 -0.06
endloop
endfacet
facet normal -0.00414391 -0.0118871 0
outer loop
vertex -0.159059 7.44233 0.06
vertex -0.06 7.40779 -0.06
vertex -0.06 7.40779 0.06
endloop
endfacet
facet normal 0.00342075 -0.00981264 0.00342075
outer loop
vertex 0.159059 7.44233 0.06
vertex 0.06 7.44233 0.159059
vertex 0.06 7.40779 0.06
endloop
endfacet
facet normal -0.00342075 -0.00981264 0.00342075
outer loop
vertex -0.06 7.44233 0.159059
vertex -0.159059 7.44233 0.06
vertex -0.06 7.40779 0.06
endloop
endfacet
facet normal 0.00141163 -0.00251295 0.00116166
outer loop
vertex 0.159059 7.44233 0.06
vertex 0.18 7.45409 0.06
vertex 0.18 7.50956 0.18
endloop
endfacet
facet normal 0.00665668 -0.0144 0.00690665
outer loop
vertex 0.159059 7.44233 0.06
vertex 0.18 7.50956 0.18
vertex 0.06 7.45409 0.18
endloop
endfacet
facet normal 0.00116529 -0.00207441 0.00116529
outer loop
vertex 0.06 7.44233 0.159059
vertex 0.159059 7.44233 0.06
vertex 0.06 7.45409 0.18
endloop
endfacet
facet normal -0.00116529 -0.00207441 0.00116529
outer loop
vertex -0.159059 7.44233 0.06
vertex -0.06 7.44233 0.159059
vertex -0.06 7.45409 0.18
endloop
endfacet
facet normal -0.00665668 -0.0144 0.00690665
outer loop
vertex -0.159059 7.44233 0.06
vertex -0.06 7.45409 0.18
vertex -0.18 7.50956 0.18
endloop
endfacet
facet normal -0.00141163 -0.00251295 0.00116166
outer loop
vertex -0.18 7.45409 0.06
vertex -0.159059 7.44233 0.06
vertex -0.18 7.50956 0.18
endloop
endfacet
facet normal -0.00600415 -0.0129884 0.0129884
outer loop
vertex -0.06 7.45409 0.18
vertex -0.06 7.56233 0.288237
vertex -0.18 7.56233 0.232764
endloop
endfacet
facet normal -0.00292695 -0.0063317 0.00633173
outer loop
vertex -0.06 7.45409 0.18
vertex -0.18 7.56233 0.232764
vertex -0.18 7.50956 0.18
endloop
endfacet
facet normal 0.00141162 -0.00116166 0.00251294
outer loop
vertex 0.18 7.56233 0.232764
vertex 0.18 7.68233 0.288237
vertex 0.159059 7.68233 0.3
endloop
endfacet
facet normal 0.00666029 -0.0066603 0.0139614
outer loop
vertex 0.18 7.56233 0.232764
vertex 0.159059 7.68233 0.3
vertex 0.06 7.58327 0.3
endloop
endfacet
facet normal 0.00116166 -0.00141162 0.00251295
outer loop
vertex 0.06 7.56233 0.288237
vertex 0.18 7.56233 0.232764
vertex 0.06 7.58327 0.3
endloop
endfacet
facet normal -0.00116527 -0.00116528 0.00207441
outer loop
vertex -0.06 7.58327 0.3
vertex -0.159059 7.68233 0.3
vertex -0.18 7.68233 0.288237
endloop
endfacet
facet normal -0.00690664 -0.00665669 0.0144
outer loop
vertex -0.06 7.58327 0.3
vertex -0.18 7.68233 0.288237
vertex -0.18 7.56233 0.232764
endloop
endfacet
facet normal -0.00116166 -0.00141162 0.00251295
outer loop
vertex -0.06 7.56233 0.288237
vertex -0.06 7.58327 0.3
vertex -0.18 7.56233 0.232764
endloop
endfacet
facet normal 0.00342078 -0.00342078 0.00981263
outer loop
vertex 0.159059 7.68233 0.3
vertex 0.06 7.68233 0.334533
vertex 0.06 7.58327 0.3
endloop
endfacet
facet normal -0.00342078 -0.00342078 0.00981263
outer loop
vertex -0.06 7.68233 0.334533
vertex -0.159059 7.68233 0.3
vertex -0.06 7.58327 0.3
endloop
endfacet
facet normal 0.00414394 -0 0.011887
outer loop
vertex 0.159059 7.68233 0.3
vertex 0.159059 7.80233 0.3
vertex 0.06 7.80233 0.334533
endloop
endfacet
facet normal 0.00414394 0 0.011887
outer loop
vertex 0.159059 7.68233 0.3
vertex 0.06 7.80233 0.334533
vertex 0.06 7.68233 0.334533
endloop
endfacet
facet normal -0.00414394 0 0.011887
outer loop
vertex -0.06 7.80233 0.334533
vertex -0.159059 7.80233 0.3
vertex -0.159059 7.68233 0.3
endloop
endfacet
facet normal -0.00414394 0 0.011887
outer loop
vertex -0.06 7.80233 0.334533
vertex -0.159059 7.68233 0.3
vertex -0.06 7.68233 0.334533
endloop
endfacet
facet normal -0.00342078 0.00342078 0.00981263
outer loop
vertex -0.159059 7.80233 0.3
vertex -0.06 7.80233 0.334533
vertex -0.06 7.90139 0.3
endloop
endfacet
facet normal 0.00665668 0.00665669 0.0144
outer loop
vertex 0.18 7.80233 0.288237
vertex 0.18 7.92233 0.232764
vertex 0.06 7.92233 0.288237
endloop
endfacet
facet normal 0.00141162 0.00141162 0.00251295
outer loop
vertex 0.18 7.80233 0.288237
vertex 0.06 7.92233 0.288237
vertex 0.06 7.90139 0.3
endloop
endfacet
facet normal 0.00116527 0.00116528 0.00207441
outer loop
vertex 0.159059 7.80233 0.3
vertex 0.18 7.80233 0.288237
vertex 0.06 7.90139 0.3
endloop
endfacet
facet normal -0.00116166 0.00141162 0.00251295
outer loop
vertex -0.06 7.90139 0.3
vertex -0.06 7.92233 0.288237
vertex -0.18 7.92233 0.232764
endloop
endfacet
facet normal -0.00690664 0.00665669 0.0144
outer loop
vertex -0.06 7.90139 0.3
vertex -0.18 7.92233 0.232764
vertex -0.18 7.80233 0.288237
endloop
endfacet
facet normal -0.00116527 0.00116528 0.00207441
outer loop
vertex -0.159059 7.80233 0.3
vertex -0.06 7.90139 0.3
vertex -0.18 7.80233 0.288237
endloop
endfacet
facet normal 0.00292697 0.00633169 0.00633173
outer loop
vertex 0.06 7.92233 0.288237
vertex 0.18 7.92233 0.232764
vertex 0.18 7.97509 0.18
endloop
endfacet
facet normal 0.00600408 0.0129884 0.0129884
outer loop
vertex 0.06 7.92233 0.288237
vertex 0.18 7.97509 0.18
vertex 0.06 8.03056 0.18
endloop
endfacet
facet normal -0.00600413 0.0129884 0.0129884
outer loop
vertex -0.18 7.92233 0.232764
vertex -0.06 7.92233 0.288237
vertex -0.06 8.03056 0.18
endloop
endfacet
facet normal -0.00292693 0.0063317 0.00633173
outer loop
vertex -0.18 7.92233 0.232764
vertex -0.06 8.03056 0.18
vertex -0.18 7.97509 0.18
endloop
endfacet
facet normal -0.00342085 0.00981264 0.00342085
outer loop
vertex -0.159059 8.04233 0.06
vertex -0.06 8.04233 0.159059
vertex -0.06 8.07686 0.06
endloop
endfacet
facet normal 0 0.0144 0
outer loop
vertex 0.06 8.07686 0.06
vertex 0.06 8.07686 -0.06
vertex -0.06 8.07686 -0.06
endloop
endfacet
facet normal 0 0.0144 0
outer loop
vertex 0.06 8.07686 0.06
vertex -0.06 8.07686 -0.06
vertex -0.06 8.07686 0.06
endloop
endfacet
facet normal 0.00141163 0.00251295 -0.00116165
outer loop
vertex 0.159059 8.04233 -0.06
vertex 0.18 8.03056 -0.06
vertex 0.18 7.97509 -0.18
endloop
endfacet
facet normal 0.00665663 0.0144 -0.00690661
outer loop
vertex 0.159059 8.04233 -0.06
vertex 0.18 7.97509 -0.18
vertex 0.06 8.03056 -0.18
endloop
endfacet
facet normal 0.00116529 0.00207441 -0.00116529
outer loop
vertex 0.06 8.04233 -0.159059
vertex 0.159059 8.04233 -0.06
vertex 0.06 8.03056 -0.18
endloop
endfacet
facet normal 0.00251294 0 0.00141162
outer loop
vertex 0.3 7.80233 0.159059
vertex 0.288236 7.80233 0.18
vertex 0.288236 7.68233 0.18
endloop
endfacet
facet normal 0.00251294 0 0.00141162
outer loop
vertex 0.3 7.80233 0.159059
vertex 0.288236 7.68233 0.18
vertex 0.3 7.68233 0.159059
endloop
endfacet
facet normal 0.00251295 -0.00141162 0
outer loop
vertex 0.288236 7.56233 0.06
vertex 0.288236 7.56233 -0.06
vertex 0.3 7.58327 -0.06
endloop
endfacet
facet normal 0.00251295 -0.00141162 0
outer loop
vertex 0.288236 7.56233 0.06
vertex 0.3 7.58327 -0.06
vertex 0.3 7.58327 0.06
endloop
endfacet
facet normal 0.0144 0 0
outer loop
vertex 0.334533 7.68233 -0.06
vertex 0.334533 7.80233 -0.06
vertex 0.334533 7.80233 0.06
endloop
endfacet
facet normal 0.0144 0 0
outer loop
vertex 0.334533 7.68233 -0.06
vertex 0.334533 7.80233 0.06
vertex 0.334533 7.68233 0.06
endloop
endfacet
facet normal 0.00141162 0 -0.00251294
outer loop
vertex 0.159059 7.68233 -0.3
vertex 0.159059 7.80233 -0.3
vertex 0.18 7.80233 -0.288237
endloop
endfacet
facet normal 0.00141162 0 -0.00251294
outer loop
vertex 0.159059 7.68233 -0.3
vertex 0.18 7.80233 -0.288237
vertex 0.18 7.68233 -0.288237
endloop
endfacet
facet normal 0.0144 0.00665668 -0.00665668
outer loop
vertex 0.288236 7.80233 -0.18
vertex 0.232764 7.92233 -0.18
vertex 0.288236 7.92233 -0.06
endloop
endfacet
facet normal 0.00251295 0.00141162 -0.00141162
outer loop
vertex 0.288236 7.80233 -0.18
vertex 0.288236 7.92233 -0.06
vertex 0.3 7.90139 -0.06
endloop
endfacet
facet normal 0.00207441 0.00116528 -0.00116527
outer loop
vertex 0.3 7.80233 -0.159059
vertex 0.288236 7.80233 -0.18
vertex 0.3 7.90139 -0.06
endloop
endfacet
facet normal 0.00141162 0.00116166 -0.00251294
outer loop
vertex 0.18 7.92233 -0.232764
vertex 0.18 7.80233 -0.288237
vertex 0.159059 7.80233 -0.3
endloop
endfacet
facet normal 0.00666029 0.0066603 -0.0139614
outer loop
vertex 0.18 7.92233 -0.232764
vertex 0.159059 7.80233 -0.3
vertex 0.06 7.90139 -0.3
endloop
endfacet
facet normal 0.00116166 0.00141162 -0.00251295
outer loop
vertex 0.06 7.92233 -0.288237
vertex 0.18 7.92233 -0.232764
vertex 0.06 7.90139 -0.3
endloop
endfacet
facet normal 0.0129884 -0.00600414 -0.0129884
outer loop
vertex 0.18 7.68233 -0.288237
vertex 0.288236 7.68233 -0.18
vertex 0.232764 7.56233 -0.18
endloop
endfacet
facet normal 0.00633169 -0.00292695 -0.00633169
outer loop
vertex 0.18 7.68233 -0.288237
vertex 0.232764 7.56233 -0.18
vertex 0.18 7.56233 -0.232764
endloop
endfacet
facet normal 0.00633173 0.0063317 -0.00292697
outer loop
vertex 0.288236 7.92233 -0.06
vertex 0.232764 7.92233 -0.18
vertex 0.18 7.97509 -0.18
endloop
endfacet
facet normal 0.0129884 0.0129884 -0.00600408
outer loop
vertex 0.288236 7.92233 -0.06
vertex 0.18 7.97509 -0.18
vertex 0.18 8.03056 -0.06
endloop
endfacet
facet normal 0.00981263 0.00342078 -0.00342078
outer loop
vertex 0.334533 7.80233 -0.06
vertex 0.3 7.80233 -0.159059
vertex 0.3 7.90139 -0.06
endloop
endfacet
facet normal 0.00251294 -0.00116166 -0.00141162
outer loop
vertex 0.232764 7.56233 -0.18
vertex 0.288236 7.68233 -0.18
vertex 0.3 7.68233 -0.159059
endloop
endfacet
facet normal 0.0139615 -0.0066603 -0.00666029
outer loop
vertex 0.232764 7.56233 -0.18
vertex 0.3 7.68233 -0.159059
vertex 0.3 7.58327 -0.06
endloop
endfacet
facet normal 0.00251295 -0.00141162 -0.00116166
outer loop
vertex 0.288236 7.56233 -0.06
vertex 0.232764 7.56233 -0.18
vertex 0.3 7.58327 -0.06
endloop
endfacet
facet normal 0.0129884 0.0129884 0.00600413
outer loop
vertex 0.232764 7.92233 0.18
vertex 0.288236 7.92233 0.06
vertex 0.18 8.03056 0.06
endloop
endfacet
facet normal 0.00633173 0.0063317 0.00292693
outer loop
vertex 0.232764 7.92233 0.18
vertex 0.18 8.03056 0.06
vertex 0.18 7.97509 0.18
endloop
endfacet
facet normal 0.00251294 0.00116166 0.00141162
outer loop
vertex 0.232764 7.92233 0.18
vertex 0.288236 7.80233 0.18
vertex 0.3 7.80233 0.159059
endloop
endfacet
facet normal 0.0139615 0.0066603 0.00666029
outer loop
vertex 0.232764 7.92233 0.18
vertex 0.3 7.80233 0.159059
vertex 0.3 7.90139 0.06
endloop
endfacet
facet normal 0.00251295 0.00141162 0.00116166
outer loop
vertex 0.288236 7.92233 0.06
vertex 0.232764 7.92233 0.18
vertex 0.3 7.90139 0.06
endloop
endfacet
facet normal 0.0144 -0.00665668 0.00665668
outer loop
vertex 0.288236 7.68233 0.18
vertex 0.232764 7.56233 0.18
vertex 0.288236 7.56233 0.06
endloop
endfacet
facet normal 0.00251295 -0.00141162 0.00141162
outer loop
vertex 0.288236 7.68233 0.18
vertex 0.288236 7.56233 0.06
vertex 0.3 7.58327 0.06
endloop
endfacet
facet normal 0.00207441 -0.00116528 0.00116527
outer loop
vertex 0.3 7.68233 0.159059
vertex 0.288236 7.68233 0.18
vertex 0.3 7.58327 0.06
endloop
endfacet
facet normal 0.00292697 0.0063317 -0.00633173
outer loop
vertex 0.18 7.97509 -0.18
vertex 0.18 7.92233 -0.232764
vertex 0.06 7.92233 -0.288237
endloop
endfacet
facet normal 0.00600409 0.0129884 -0.0129884
outer loop
vertex 0.18 7.97509 -0.18
vertex 0.06 7.92233 -0.288237
vertex 0.06 8.03056 -0.18
endloop
endfacet
facet normal 0.00342078 0.00342078 -0.00981263
outer loop
vertex 0.159059 7.80233 -0.3
vertex 0.06 7.80233 -0.334533
vertex 0.06 7.90139 -0.3
endloop
endfacet
facet normal 0.00665668 -0.00665669 -0.0144
outer loop
vertex 0.18 7.68233 -0.288237
vertex 0.18 7.56233 -0.232764
vertex 0.06 7.56233 -0.288237
endloop
endfacet
facet normal 0.00141162 -0.00141162 -0.00251295
outer loop
vertex 0.18 7.68233 -0.288237
vertex 0.06 7.56233 -0.288237
vertex 0.06 7.58327 -0.3
endloop
endfacet
facet normal 0.00116527 -0.00116528 -0.00207441
outer loop
vertex 0.159059 7.68233 -0.3
vertex 0.18 7.68233 -0.288237
vertex 0.06 7.58327 -0.3
endloop
endfacet
facet normal 0.00342085 0.00981264 -0.00342085
outer loop
vertex 0.159059 8.04233 -0.06
vertex 0.06 8.04233 -0.159059
vertex 0.06 8.07686 -0.06
endloop
endfacet
facet normal 0.00342075 -0.00981264 -0.00342075
outer loop
vertex 0.06 7.44233 -0.159059
vertex 0.159059 7.44233 -0.06
vertex 0.06 7.40779 -0.06
endloop
endfacet
facet normal 0.00116529 0.00207441 0.00116528
outer loop
vertex 0.18 8.03056 0.06
vertex 0.159059 8.04233 0.06
vertex 0.06 8.04233 0.159059
endloop
endfacet
facet normal 0.00141163 0.00251295 0.00141163
outer loop
vertex 0.18 8.03056 0.06
vertex 0.06 8.04233 0.159059
vertex 0.06 8.03056 0.18
endloop
endfacet
facet normal 0.00665663 0.0144 0.00665663
outer loop
vertex 0.18 7.97509 0.18
vertex 0.18 8.03056 0.06
vertex 0.06 8.03056 0.18
endloop
endfacet
facet normal 0.00342078 0.00342078 0.00981263
outer loop
vertex 0.06 7.80233 0.334533
vertex 0.159059 7.80233 0.3
vertex 0.06 7.90139 0.3
endloop
endfacet
facet normal 0.00292697 -0.0063317 0.00633173
outer loop
vertex 0.18 7.50956 0.18
vertex 0.18 7.56233 0.232764
vertex 0.06 7.56233 0.288237
endloop
endfacet
facet normal 0.00600414 -0.0129884 0.0129884
outer loop
vertex 0.18 7.50956 0.18
vertex 0.06 7.56233 0.288237
vertex 0.06 7.45409 0.18
endloop
endfacet
facet normal -0.00600413 0.0129884 -0.0129884
outer loop
vertex -0.06 8.03056 -0.18
vertex -0.06 7.92233 -0.288237
vertex -0.18 7.92233 -0.232764
endloop
endfacet
facet normal -0.00292693 0.0063317 -0.00633173
outer loop
vertex -0.06 8.03056 -0.18
vertex -0.18 7.92233 -0.232764
vertex -0.18 7.97509 -0.18
endloop
endfacet
facet normal -0.00116527 0.00116528 -0.00207442
outer loop
vertex -0.06 7.92233 -0.288237
vertex -0.06 7.90139 -0.3
vertex -0.159059 7.80233 -0.3
endloop
endfacet
facet normal -0.00141162 0.00141162 -0.00251294
outer loop
vertex -0.06 7.92233 -0.288237
vertex -0.159059 7.80233 -0.3
vertex -0.18 7.80233 -0.288237
endloop
endfacet
facet normal -0.00665668 0.00665669 -0.0144
outer loop
vertex -0.18 7.92233 -0.232764
vertex -0.06 7.92233 -0.288237
vertex -0.18 7.80233 -0.288237
endloop
endfacet
facet normal -0.00116527 -0.00116528 -0.00207441
outer loop
vertex -0.159059 7.68233 -0.3
vertex -0.06 7.58327 -0.3
vertex -0.06 7.56233 -0.288237
endloop
endfacet
facet normal -0.00665668 -0.00690664 -0.0144
outer loop
vertex -0.159059 7.68233 -0.3
vertex -0.06 7.56233 -0.288237
vertex -0.18 7.56233 -0.232764
endloop
endfacet
facet normal -0.00141162 -0.00116166 -0.00251294
outer loop
vertex -0.18 7.68233 -0.288237
vertex -0.159059 7.68233 -0.3
vertex -0.18 7.56233 -0.232764
endloop
endfacet
facet normal -0.00116165 0.00251295 -0.00141163
outer loop
vertex -0.06 8.04233 -0.159059
vertex -0.06 8.03056 -0.18
vertex -0.18 7.97509 -0.18
endloop
endfacet
facet normal -0.00690661 0.0144 -0.00665663
outer loop
vertex -0.06 8.04233 -0.159059
vertex -0.18 7.97509 -0.18
vertex -0.18 8.03056 -0.06
endloop
endfacet
facet normal -0.00116529 0.00207441 -0.00116529
outer loop
vertex -0.159059 8.04233 -0.06
vertex -0.06 8.04233 -0.159059
vertex -0.18 8.03056 -0.06
endloop
endfacet
facet normal -0.00981263 0.00342078 -0.00342078
outer loop
vertex -0.3 7.80233 -0.159059
vertex -0.334533 7.80233 -0.06
vertex -0.3 7.90139 -0.06
endloop
endfacet
facet normal -0.00633173 -0.0063317 -0.00292697
outer loop
vertex -0.288236 7.56233 -0.06
vertex -0.232764 7.56233 -0.18
vertex -0.18 7.50956 -0.18
endloop
endfacet
facet normal -0.0129884 -0.0129884 -0.00600414
outer loop
vertex -0.288236 7.56233 -0.06
vertex -0.18 7.50956 -0.18
vertex -0.18 7.45409 -0.06
endloop
endfacet
facet normal -0.00116529 0.00207441 0.00116529
outer loop
vertex -0.06 8.04233 0.159059
vertex -0.159059 8.04233 0.06
vertex -0.18 8.03056 0.06
endloop
endfacet
facet normal -0.00690661 0.0144 0.00665663
outer loop
vertex -0.06 8.04233 0.159059
vertex -0.18 8.03056 0.06
vertex -0.18 7.97509 0.18
endloop
endfacet
facet normal -0.00116165 0.00251295 0.00141163
outer loop
vertex -0.06 8.03056 0.18
vertex -0.06 8.04233 0.159059
vertex -0.18 7.97509 0.18
endloop
endfacet
facet normal -0.00633169 0.00292695 0.00633169
outer loop
vertex -0.18 7.92233 0.232764
vertex -0.232764 7.92233 0.18
vertex -0.288236 7.80233 0.18
endloop
endfacet
facet normal -0.0129884 0.00600414 0.0129884
outer loop
vertex -0.18 7.92233 0.232764
vertex -0.288236 7.80233 0.18
vertex -0.18 7.80233 0.288237
endloop
endfacet
facet normal -0.00278407 -0.00278405 0.00278407
outer loop
vertex -0.18 7.56233 0.232764
vertex -0.232764 7.56233 0.18
vertex -0.18 7.50956 0.18
endloop
endfacet
endsolid 0
