solid Exported from Blender-3.4.1
facet normal 0.000000 -0.098019 0.995184
outer loop
vertex 0.815781 9.600000 0.200000
vertex -3.304218 9.600000 0.200000
vertex -3.304218 9.560982 0.196157
endloop
endfacet
facet normal 0.000000 -0.098015 0.995185
outer loop
vertex 0.815781 9.600000 0.200000
vertex -3.304218 9.560982 0.196157
vertex 0.815781 9.560983 0.196157
endloop
endfacet
facet normal 0.000000 -0.290294 0.956938
outer loop
vertex 0.815781 9.560983 0.196157
vertex -3.304218 9.560982 0.196157
vertex -3.304218 9.523463 0.184776
endloop
endfacet
facet normal 0.000000 -0.290294 0.956938
outer loop
vertex 0.815781 9.560983 0.196157
vertex -3.304218 9.523463 0.184776
vertex 0.815781 9.523464 0.184776
endloop
endfacet
facet normal 0.000000 -0.471384 0.881928
outer loop
vertex 0.815781 9.523464 0.184776
vertex -3.304218 9.523463 0.184776
vertex -3.304218 9.488886 0.166294
endloop
endfacet
facet normal 0.000000 -0.471384 0.881928
outer loop
vertex 0.815781 9.523464 0.184776
vertex -3.304218 9.488886 0.166294
vertex 0.815781 9.488887 0.166294
endloop
endfacet
facet normal 0.000000 -0.634403 0.773002
outer loop
vertex 0.815781 9.488887 0.166294
vertex -3.304218 9.488886 0.166294
vertex -3.304218 9.458579 0.141421
endloop
endfacet
facet normal 0.000000 -0.634404 0.773002
outer loop
vertex 0.815781 9.488887 0.166294
vertex -3.304218 9.458579 0.141421
vertex 0.815781 9.458579 0.141421
endloop
endfacet
facet normal 0.000000 -0.772978 0.634433
outer loop
vertex 0.815781 9.458579 0.141421
vertex -3.304218 9.458579 0.141421
vertex -3.304218 9.433706 0.111114
endloop
endfacet
facet normal 0.000000 -0.773024 0.634376
outer loop
vertex 0.815781 9.458579 0.141421
vertex -3.304218 9.433706 0.111114
vertex 0.815781 9.433706 0.111114
endloop
endfacet
facet normal 0.000000 -0.881933 0.471376
outer loop
vertex 0.815781 9.433706 0.111114
vertex -3.304218 9.433706 0.111114
vertex -3.304218 9.415224 0.076537
endloop
endfacet
facet normal 0.000000 -0.881913 0.471412
outer loop
vertex 0.815781 9.433706 0.111114
vertex -3.304218 9.415224 0.076537
vertex 0.815781 9.415225 0.076537
endloop
endfacet
facet normal 0.000000 -0.956954 0.290241
outer loop
vertex 0.815781 9.415225 0.076537
vertex -3.304218 9.415224 0.076537
vertex -3.304218 9.403843 0.039018
endloop
endfacet
facet normal 0.000000 -0.956927 0.290327
outer loop
vertex 0.815781 9.415225 0.076537
vertex -3.304218 9.403843 0.039018
vertex 0.815781 9.403844 0.039018
endloop
endfacet
facet normal 0.000000 -0.995186 0.098005
outer loop
vertex 0.815781 9.403844 0.039018
vertex -3.304218 9.403843 0.039018
vertex -3.304218 9.400001 0.000000
endloop
endfacet
facet normal 0.000000 -0.995186 0.098005
outer loop
vertex 0.815781 9.403844 0.039018
vertex -3.304218 9.400001 0.000000
vertex 0.815781 9.400001 -0.000000
endloop
endfacet
facet normal 0.000000 -0.995186 -0.098005
outer loop
vertex 0.815781 9.400001 -0.000000
vertex -3.304218 9.400001 0.000000
vertex -3.304218 9.403843 -0.039018
endloop
endfacet
facet normal 0.000000 -0.995186 -0.098005
outer loop
vertex 0.815781 9.400001 -0.000000
vertex -3.304218 9.403843 -0.039018
vertex 0.815781 9.403844 -0.039018
endloop
endfacet
facet normal 0.000000 -0.956927 -0.290328
outer loop
vertex 0.815781 9.403844 -0.039018
vertex -3.304218 9.403843 -0.039018
vertex -3.304218 9.415224 -0.076537
endloop
endfacet
facet normal 0.000000 -0.956954 -0.290241
outer loop
vertex 0.815781 9.403844 -0.039018
vertex -3.304218 9.415224 -0.076537
vertex 0.815781 9.415225 -0.076537
endloop
endfacet
facet normal 0.000000 -0.881913 -0.471412
outer loop
vertex 0.815781 9.415225 -0.076537
vertex -3.304218 9.415224 -0.076537
vertex -3.304218 9.433706 -0.111114
endloop
endfacet
facet normal 0.000000 -0.881933 -0.471376
outer loop
vertex 0.815781 9.415225 -0.076537
vertex -3.304218 9.433706 -0.111114
vertex 0.815781 9.433706 -0.111114
endloop
endfacet
facet normal 0.000000 -0.773024 -0.634376
outer loop
vertex 0.815781 9.433706 -0.111114
vertex -3.304218 9.433706 -0.111114
vertex -3.304218 9.458579 -0.141421
endloop
endfacet
facet normal 0.000000 -0.772978 -0.634433
outer loop
vertex 0.815781 9.433706 -0.111114
vertex -3.304218 9.458579 -0.141421
vertex 0.815781 9.458579 -0.141421
endloop
endfacet
facet normal 0.000000 -0.634427 -0.772983
outer loop
vertex 0.815781 9.458579 -0.141421
vertex -3.304218 9.458579 -0.141421
vertex -3.304218 9.488886 -0.166294
endloop
endfacet
facet normal 0.000000 -0.634380 -0.773021
outer loop
vertex 0.815781 9.458579 -0.141421
vertex -3.304218 9.488886 -0.166294
vertex 0.815781 9.488887 -0.166294
endloop
endfacet
facet normal 0.000000 -0.471384 -0.881928
outer loop
vertex 0.815781 9.488887 -0.166294
vertex -3.304218 9.488886 -0.166294
vertex -3.304218 9.523463 -0.184776
endloop
endfacet
facet normal 0.000000 -0.471384 -0.881928
outer loop
vertex 0.815781 9.488887 -0.166294
vertex -3.304218 9.523463 -0.184776
vertex 0.815781 9.523464 -0.184776
endloop
endfacet
facet normal 0.000000 -0.290294 -0.956938
outer loop
vertex 0.815781 9.523464 -0.184776
vertex -3.304218 9.523463 -0.184776
vertex -3.304218 9.560982 -0.196157
endloop
endfacet
facet normal 0.000000 -0.290294 -0.956938
outer loop
vertex 0.815781 9.523464 -0.184776
vertex -3.304218 9.560982 -0.196157
vertex 0.815781 9.560983 -0.196157
endloop
endfacet
facet normal 0.000000 -0.098010 -0.995185
outer loop
vertex 0.815781 9.560983 -0.196157
vertex -3.304218 9.560982 -0.196157
vertex -3.304218 9.600000 -0.200000
endloop
endfacet
facet normal 0.000000 -0.098024 -0.995184
outer loop
vertex 0.815781 9.560983 -0.196157
vertex -3.304218 9.600000 -0.200000
vertex 0.815781 9.600000 -0.200000
endloop
endfacet
facet normal 0.000000 0.098019 -0.995184
outer loop
vertex 0.815781 9.600000 -0.200000
vertex -3.304218 9.600000 -0.200000
vertex -3.304218 9.639018 -0.196157
endloop
endfacet
facet normal -0.000000 0.098010 -0.995185
outer loop
vertex 0.815781 9.600000 -0.200000
vertex -3.304218 9.639018 -0.196157
vertex 0.815781 9.639019 -0.196157
endloop
endfacet
facet normal -0.000000 0.290294 -0.956938
outer loop
vertex 0.815781 9.639019 -0.196157
vertex -3.304218 9.639018 -0.196157
vertex -3.304218 9.676537 -0.184776
endloop
endfacet
facet normal -0.000000 0.290294 -0.956938
outer loop
vertex 0.815781 9.639019 -0.196157
vertex -3.304218 9.676537 -0.184776
vertex 0.815781 9.676538 -0.184776
endloop
endfacet
facet normal -0.000000 0.471384 -0.881928
outer loop
vertex 0.815781 9.676538 -0.184776
vertex -3.304218 9.676537 -0.184776
vertex -3.304218 9.711114 -0.166294
endloop
endfacet
facet normal -0.000000 0.471384 -0.881928
outer loop
vertex 0.815781 9.676538 -0.184776
vertex -3.304218 9.711114 -0.166294
vertex 0.815781 9.711115 -0.166294
endloop
endfacet
facet normal -0.000000 0.634403 -0.773002
outer loop
vertex 0.815781 9.711115 -0.166294
vertex -3.304218 9.711114 -0.166294
vertex -3.304218 9.741422 -0.141421
endloop
endfacet
facet normal 0.000000 0.634404 -0.773002
outer loop
vertex 0.815781 9.711115 -0.166294
vertex -3.304218 9.741422 -0.141421
vertex 0.815781 9.741422 -0.141421
endloop
endfacet
facet normal 0.000000 0.773001 -0.634405
outer loop
vertex 0.815781 9.741422 -0.141421
vertex -3.304218 9.741422 -0.141421
vertex -3.304218 9.766294 -0.111114
endloop
endfacet
facet normal 0.000000 0.773001 -0.634405
outer loop
vertex 0.815781 9.741422 -0.141421
vertex -3.304218 9.766294 -0.111114
vertex 0.815781 9.766294 -0.111114
endloop
endfacet
facet normal 0.000000 0.881933 -0.471376
outer loop
vertex 0.815781 9.766294 -0.111114
vertex -3.304218 9.766294 -0.111114
vertex -3.304218 9.784776 -0.076537
endloop
endfacet
facet normal -0.000000 0.881913 -0.471412
outer loop
vertex 0.815781 9.766294 -0.111114
vertex -3.304218 9.784776 -0.076537
vertex 0.815781 9.784777 -0.076537
endloop
endfacet
facet normal -0.000000 0.956954 -0.290241
outer loop
vertex 0.815781 9.784777 -0.076537
vertex -3.304218 9.784776 -0.076537
vertex -3.304218 9.796157 -0.039018
endloop
endfacet
facet normal -0.000000 0.956927 -0.290327
outer loop
vertex 0.815781 9.784777 -0.076537
vertex -3.304218 9.796157 -0.039018
vertex 0.815781 9.796158 -0.039018
endloop
endfacet
facet normal -0.000000 0.995191 -0.097959
outer loop
vertex 0.815781 9.796158 -0.039018
vertex -3.304218 9.796157 -0.039018
vertex -3.304218 9.800000 0.000000
endloop
endfacet
facet normal 0.000000 0.995181 -0.098052
outer loop
vertex 0.815781 9.796158 -0.039018
vertex -3.304218 9.800000 0.000000
vertex 0.815781 9.800000 -0.000000
endloop
endfacet
facet normal 0.000000 0.995181 0.098052
outer loop
vertex 0.815781 9.800000 -0.000000
vertex -3.304218 9.800000 0.000000
vertex -3.304218 9.796157 0.039018
endloop
endfacet
facet normal -0.000000 0.995191 0.097959
outer loop
vertex 0.815781 9.800000 -0.000000
vertex -3.304218 9.796157 0.039018
vertex 0.815781 9.796158 0.039018
endloop
endfacet
facet normal -0.000000 0.956927 0.290328
outer loop
vertex 0.815781 9.796158 0.039018
vertex -3.304218 9.796157 0.039018
vertex -3.304218 9.784776 0.076537
endloop
endfacet
facet normal -0.000000 0.956954 0.290241
outer loop
vertex 0.815781 9.796158 0.039018
vertex -3.304218 9.784776 0.076537
vertex 0.815781 9.784777 0.076537
endloop
endfacet
facet normal -0.000000 0.881913 0.471412
outer loop
vertex 0.815781 9.784777 0.076537
vertex -3.304218 9.784776 0.076537
vertex -3.304218 9.766294 0.111114
endloop
endfacet
facet normal 0.000000 0.881933 0.471376
outer loop
vertex 0.815781 9.784777 0.076537
vertex -3.304218 9.766294 0.111114
vertex 0.815781 9.766294 0.111114
endloop
endfacet
facet normal 0.000000 0.773001 0.634405
outer loop
vertex 0.815781 9.766294 0.111114
vertex -3.304218 9.766294 0.111114
vertex -3.304218 9.741422 0.141421
endloop
endfacet
facet normal 0.000000 0.773001 0.634405
outer loop
vertex 0.815781 9.766294 0.111114
vertex -3.304218 9.741422 0.141421
vertex 0.815781 9.741422 0.141421
endloop
endfacet
facet normal 0.000000 0.634380 0.773021
outer loop
vertex 0.815781 9.741422 0.141421
vertex -3.304218 9.741422 0.141421
vertex -3.304218 9.711114 0.166294
endloop
endfacet
facet normal -0.000000 0.634427 0.772983
outer loop
vertex 0.815781 9.741422 0.141421
vertex -3.304218 9.711114 0.166294
vertex 0.815781 9.711115 0.166294
endloop
endfacet
facet normal -0.000000 0.471384 0.881928
outer loop
vertex 0.815781 9.711115 0.166294
vertex -3.304218 9.711114 0.166294
vertex -3.304218 9.676537 0.184776
endloop
endfacet
facet normal -0.000000 0.471384 0.881928
outer loop
vertex 0.815781 9.711115 0.166294
vertex -3.304218 9.676537 0.184776
vertex 0.815781 9.676538 0.184776
endloop
endfacet
facet normal -1.000000 0.000019 0.000000
outer loop
vertex -3.304218 9.523463 0.184776
vertex -3.304218 9.560982 0.196157
vertex -3.304218 9.600000 0.200000
endloop
endfacet
facet normal -1.000000 -0.000025 0.000000
outer loop
vertex -3.304218 9.600000 0.200000
vertex -3.304218 9.639018 0.196157
vertex -3.304218 9.676537 0.184776
endloop
endfacet
facet normal -1.000000 0.000000 0.000000
outer loop
vertex -3.304218 9.676537 0.184776
vertex -3.304218 9.711114 0.166294
vertex -3.304218 9.741422 0.141421
endloop
endfacet
facet normal -1.000000 -0.000050 0.000000
outer loop
vertex -3.304218 9.741422 0.141421
vertex -3.304218 9.766294 0.111114
vertex -3.304218 9.784776 0.076537
endloop
endfacet
facet normal -1.000000 0.000099 0.000000
outer loop
vertex -3.304218 9.784776 0.076537
vertex -3.304218 9.796157 0.039018
vertex -3.304218 9.800000 0.000000
endloop
endfacet
facet normal -1.000000 0.000099 0.000000
outer loop
vertex -3.304218 9.800000 0.000000
vertex -3.304218 9.796157 -0.039018
vertex -3.304218 9.784776 -0.076537
endloop
endfacet
facet normal -1.000000 -0.000050 0.000000
outer loop
vertex -3.304218 9.784776 -0.076537
vertex -3.304218 9.766294 -0.111114
vertex -3.304218 9.741422 -0.141421
endloop
endfacet
facet normal -1.000000 0.000000 0.000000
outer loop
vertex -3.304218 9.741422 -0.141421
vertex -3.304218 9.711114 -0.166294
vertex -3.304218 9.676537 -0.184776
endloop
endfacet
facet normal -1.000000 -0.000019 0.000000
outer loop
vertex -3.304218 9.676537 -0.184776
vertex -3.304218 9.639018 -0.196157
vertex -3.304218 9.600000 -0.200000
endloop
endfacet
facet normal -1.000000 0.000025 0.000000
outer loop
vertex -3.304218 9.600000 -0.200000
vertex -3.304218 9.560982 -0.196157
vertex -3.304218 9.523463 -0.184776
endloop
endfacet
facet normal -1.000000 0.000000 0.000000
outer loop
vertex -3.304218 9.523463 -0.184776
vertex -3.304218 9.488886 -0.166294
vertex -3.304218 9.458579 -0.141421
endloop
endfacet
facet normal -1.000000 0.000050 0.000000
outer loop
vertex -3.304218 9.458579 -0.141421
vertex -3.304218 9.433706 -0.111114
vertex -3.304218 9.415224 -0.076537
endloop
endfacet
facet normal -1.000000 -0.000099 0.000000
outer loop
vertex -3.304218 9.415224 -0.076537
vertex -3.304218 9.403843 -0.039018
vertex -3.304218 9.400001 0.000000
endloop
endfacet
facet normal -1.000000 -0.000099 0.000000
outer loop
vertex -3.304218 9.400001 0.000000
vertex -3.304218 9.403843 0.039018
vertex -3.304218 9.415224 0.076537
endloop
endfacet
facet normal -1.000000 0.000050 0.000000
outer loop
vertex -3.304218 9.415224 0.076537
vertex -3.304218 9.433706 0.111114
vertex -3.304218 9.458579 0.141421
endloop
endfacet
facet normal -1.000000 0.000000 0.000000
outer loop
vertex -3.304218 9.458579 0.141421
vertex -3.304218 9.488886 0.166294
vertex -3.304218 9.523463 0.184776
endloop
endfacet
facet normal -1.000000 0.000000 0.000000
outer loop
vertex -3.304218 9.523463 0.184776
vertex -3.304218 9.600000 0.200000
vertex -3.304218 9.676537 0.184776
endloop
endfacet
facet normal -1.000000 0.000013 0.000000
outer loop
vertex -3.304218 9.676537 0.184776
vertex -3.304218 9.741422 0.141421
vertex -3.304218 9.784776 0.076537
endloop
endfacet
facet normal -1.000000 0.000000 0.000000
outer loop
vertex -3.304218 9.784776 0.076537
vertex -3.304218 9.800000 0.000000
vertex -3.304218 9.784776 -0.076537
endloop
endfacet
facet normal -1.000000 0.000013 0.000000
outer loop
vertex -3.304218 9.784776 -0.076537
vertex -3.304218 9.741422 -0.141421
vertex -3.304218 9.676537 -0.184776
endloop
endfacet
facet normal -1.000000 0.000000 0.000000
outer loop
vertex -3.304218 9.676537 -0.184776
vertex -3.304218 9.600000 -0.200000
vertex -3.304218 9.523463 -0.184776
endloop
endfacet
facet normal -1.000000 -0.000013 0.000000
outer loop
vertex -3.304218 9.523463 -0.184776
vertex -3.304218 9.458579 -0.141421
vertex -3.304218 9.415224 -0.076537
endloop
endfacet
facet normal -1.000000 0.000000 0.000000
outer loop
vertex -3.304218 9.415224 -0.076537
vertex -3.304218 9.400001 0.000000
vertex -3.304218 9.415224 0.076537
endloop
endfacet
facet normal -1.000000 -0.000013 0.000000
outer loop
vertex -3.304218 9.415224 0.076537
vertex -3.304218 9.458579 0.141421
vertex -3.304218 9.523463 0.184776
endloop
endfacet
facet normal -1.000000 0.000000 0.000000
outer loop
vertex -3.304218 9.523463 0.184776
vertex -3.304218 9.676537 0.184776
vertex -3.304218 9.784776 0.076537
endloop
endfacet
facet normal -1.000000 0.000000 0.000000
outer loop
vertex -3.304218 9.784776 0.076537
vertex -3.304218 9.784776 -0.076537
vertex -3.304218 9.676537 -0.184776
endloop
endfacet
facet normal -1.000000 0.000000 0.000000
outer loop
vertex -3.304218 9.676537 -0.184776
vertex -3.304218 9.523463 -0.184776
vertex -3.304218 9.415224 -0.076537
endloop
endfacet
facet normal -1.000000 0.000000 0.000000
outer loop
vertex -3.304218 9.415224 -0.076537
vertex -3.304218 9.415224 0.076537
vertex -3.304218 9.523463 0.184776
endloop
endfacet
facet normal -1.000000 -0.000001 0.000000
outer loop
vertex -3.304218 9.523463 0.184776
vertex -3.304218 9.784776 0.076537
vertex -3.304218 9.676537 -0.184776
endloop
endfacet
facet normal -1.000000 0.000001 0.000000
outer loop
vertex -3.304218 9.676537 -0.184776
vertex -3.304218 9.415224 -0.076537
vertex -3.304218 9.523463 0.184776
endloop
endfacet
facet normal -0.000000 0.290294 0.956938
outer loop
vertex 0.815781 9.676538 0.184776
vertex -3.304218 9.676537 0.184776
vertex -3.304218 9.639018 0.196157
endloop
endfacet
facet normal -0.000000 0.290294 0.956938
outer loop
vertex 0.815781 9.676538 0.184776
vertex -3.304218 9.639018 0.196157
vertex 0.815781 9.639019 0.196157
endloop
endfacet
facet normal -0.000000 0.098015 0.995185
outer loop
vertex 0.815781 9.639019 0.196157
vertex -3.304218 9.639018 0.196157
vertex -3.304218 9.600000 0.200000
endloop
endfacet
facet normal 0.000000 0.098015 0.995185
outer loop
vertex 0.815781 9.639019 0.196157
vertex -3.304218 9.600000 0.200000
vertex 0.815781 9.600000 0.200000
endloop
endfacet
facet normal 1.000000 0.000000 0.000000
outer loop
vertex 0.815781 9.639019 0.196157
vertex 0.815781 9.600000 0.200000
vertex 0.815781 9.560983 0.196157
endloop
endfacet
facet normal 1.000000 0.000006 0.000000
outer loop
vertex 0.815781 9.560983 0.196157
vertex 0.815781 9.523464 0.184776
vertex 0.815781 9.488887 0.166294
endloop
endfacet
facet normal 1.000000 -0.000012 0.000000
outer loop
vertex 0.815781 9.488887 0.166294
vertex 0.815781 9.458579 0.141421
vertex 0.815781 9.433706 0.111114
endloop
endfacet
facet normal 1.000000 -0.000012 0.000000
outer loop
vertex 0.815781 9.433706 0.111114
vertex 0.815781 9.415225 0.076537
vertex 0.815781 9.403844 0.039018
endloop
endfacet
facet normal 1.000000 0.000000 0.000000
outer loop
vertex 0.815781 9.403844 0.039018
vertex 0.815781 9.400001 -0.000000
vertex 0.815781 9.403844 -0.039018
endloop
endfacet
facet normal 1.000000 -0.000012 0.000000
outer loop
vertex 0.815781 9.403844 -0.039018
vertex 0.815781 9.415225 -0.076537
vertex 0.815781 9.433706 -0.111114
endloop
endfacet
facet normal 1.000000 -0.000012 0.000000
outer loop
vertex 0.815781 9.433706 -0.111114
vertex 0.815781 9.458579 -0.141421
vertex 0.815781 9.488887 -0.166294
endloop
endfacet
facet normal 1.000000 0.000006 0.000000
outer loop
vertex 0.815781 9.488887 -0.166294
vertex 0.815781 9.523464 -0.184776
vertex 0.815781 9.560983 -0.196157
endloop
endfacet
facet normal 1.000000 0.000000 0.000000
outer loop
vertex 0.815781 9.560983 -0.196157
vertex 0.815781 9.600000 -0.200000
vertex 0.815781 9.639019 -0.196157
endloop
endfacet
facet normal 1.000000 -0.000006 0.000000
outer loop
vertex 0.815781 9.639019 -0.196157
vertex 0.815781 9.676538 -0.184776
vertex 0.815781 9.711115 -0.166294
endloop
endfacet
facet normal 1.000000 0.000012 0.000000
outer loop
vertex 0.815781 9.711115 -0.166294
vertex 0.815781 9.741422 -0.141421
vertex 0.815781 9.766294 -0.111114
endloop
endfacet
facet normal 1.000000 0.000012 0.000000
outer loop
vertex 0.815781 9.766294 -0.111114
vertex 0.815781 9.784777 -0.076537
vertex 0.815781 9.796158 -0.039018
endloop
endfacet
facet normal 1.000000 0.000000 0.000000
outer loop
vertex 0.815781 9.796158 -0.039018
vertex 0.815781 9.800000 -0.000000
vertex 0.815781 9.796158 0.039018
endloop
endfacet
facet normal 1.000000 0.000012 0.000000
outer loop
vertex 0.815781 9.796158 0.039018
vertex 0.815781 9.784777 0.076537
vertex 0.815781 9.766294 0.111114
endloop
endfacet
facet normal 1.000000 0.000012 0.000000
outer loop
vertex 0.815781 9.766294 0.111114
vertex 0.815781 9.741422 0.141421
vertex 0.815781 9.711115 0.166294
endloop
endfacet
facet normal 1.000000 -0.000006 0.000000
outer loop
vertex 0.815781 9.711115 0.166294
vertex 0.815781 9.676538 0.184776
vertex 0.815781 9.639019 0.196157
endloop
endfacet
facet normal 1.000000 0.000000 0.000000
outer loop
vertex 0.815781 9.639019 0.196157
vertex 0.815781 9.560983 0.196157
vertex 0.815781 9.488887 0.166294
endloop
endfacet
facet normal 1.000000 0.000000 0.000000
outer loop
vertex 0.815781 9.488887 0.166294
vertex 0.815781 9.433706 0.111114
vertex 0.815781 9.403844 0.039018
endloop
endfacet
facet normal 1.000000 -0.000003 0.000000
outer loop
vertex 0.815781 9.403844 0.039018
vertex 0.815781 9.403844 -0.039018
vertex 0.815781 9.433706 -0.111114
endloop
endfacet
facet normal 1.000000 -0.000002 0.000000
outer loop
vertex 0.815781 9.433706 -0.111114
vertex 0.815781 9.488887 -0.166294
vertex 0.815781 9.560983 -0.196157
endloop
endfacet
facet normal 1.000000 0.000000 0.000000
outer loop
vertex 0.815781 9.560983 -0.196157
vertex 0.815781 9.639019 -0.196157
vertex 0.815781 9.711115 -0.166294
endloop
endfacet
facet normal 1.000000 0.000000 0.000000
outer loop
vertex 0.815781 9.711115 -0.166294
vertex 0.815781 9.766294 -0.111114
vertex 0.815781 9.796158 -0.039018
endloop
endfacet
facet normal 1.000000 0.000003 0.000000
outer loop
vertex 0.815781 9.796158 -0.039018
vertex 0.815781 9.796158 0.039018
vertex 0.815781 9.766294 0.111114
endloop
endfacet
facet normal 1.000000 0.000002 0.000000
outer loop
vertex 0.815781 9.766294 0.111114
vertex 0.815781 9.711115 0.166294
vertex 0.815781 9.639019 0.196157
endloop
endfacet
facet normal 1.000000 0.000000 0.000000
outer loop
vertex 0.815781 9.639019 0.196157
vertex 0.815781 9.488887 0.166294
vertex 0.815781 9.403844 0.039018
endloop
endfacet
facet normal 1.000000 0.000001 0.000000
outer loop
vertex 0.815781 9.403844 0.039018
vertex 0.815781 9.433706 -0.111114
vertex 0.815781 9.560983 -0.196157
endloop
endfacet
facet normal 1.000000 0.000000 0.000000
outer loop
vertex 0.815781 9.560983 -0.196157
vertex 0.815781 9.711115 -0.166294
vertex 0.815781 9.796158 -0.039018
endloop
endfacet
facet normal 1.000000 -0.000001 0.000000
outer loop
vertex 0.815781 9.796158 -0.039018
vertex 0.815781 9.766294 0.111114
vertex 0.815781 9.639019 0.196157
endloop
endfacet
facet normal 1.000000 0.000000 0.000000
outer loop
vertex 0.815781 9.639019 0.196157
vertex 0.815781 9.403844 0.039018
vertex 0.815781 9.560983 -0.196157
endloop
endfacet
facet normal 1.000000 0.000000 0.000000
outer loop
vertex 0.815781 9.560983 -0.196157
vertex 0.815781 9.796158 -0.039018
vertex 0.815781 9.639019 0.196157
endloop
endfacet
endsolid Exported from Blender-3.4.1
