solid Exported from Blender-3.4.1
facet normal -0.098017 0.000000 0.995185
outer loop
vertex -2.800000 -0.099999 0.300000
vertex -2.800000 9.900001 0.300000
vertex -2.858527 9.900001 0.294236
endloop
endfacet
facet normal -0.098018 0.000000 0.995185
outer loop
vertex -2.800000 -0.099999 0.300000
vertex -2.858527 9.900001 0.294236
vertex -2.858527 -0.099999 0.294236
endloop
endfacet
facet normal -0.290284 0.000000 0.956940
outer loop
vertex -2.858527 -0.099999 0.294236
vertex -2.858527 9.900001 0.294236
vertex -2.914805 9.900001 0.277164
endloop
endfacet
facet normal -0.290284 0.000000 0.956940
outer loop
vertex -2.858527 -0.099999 0.294236
vertex -2.914805 9.900001 0.277164
vertex -2.914805 -0.099999 0.277164
endloop
endfacet
facet normal -0.471397 0.000000 0.881921
outer loop
vertex -2.914805 -0.099999 0.277164
vertex -2.914805 9.900001 0.277164
vertex -2.966671 9.900001 0.249441
endloop
endfacet
facet normal -0.471397 0.000000 0.881921
outer loop
vertex -2.914805 -0.099999 0.277164
vertex -2.966671 9.900001 0.249441
vertex -2.966671 -0.099999 0.249441
endloop
endfacet
facet normal -0.634393 0.000000 0.773010
outer loop
vertex -2.966671 -0.099999 0.249441
vertex -2.966671 9.900001 0.249441
vertex -3.012132 9.900001 0.212132
endloop
endfacet
facet normal -0.634394 0.000000 0.773010
outer loop
vertex -2.966671 -0.099999 0.249441
vertex -3.012132 9.900001 0.212132
vertex -3.012132 -0.099999 0.212132
endloop
endfacet
facet normal -0.773009 0.000000 0.634395
outer loop
vertex -3.012132 -0.099999 0.212132
vertex -3.012132 9.900001 0.212132
vertex -3.049441 9.900001 0.166671
endloop
endfacet
facet normal -0.773010 0.000000 0.634394
outer loop
vertex -3.012132 -0.099999 0.212132
vertex -3.049441 9.900001 0.166671
vertex -3.049441 -0.099999 0.166671
endloop
endfacet
facet normal -0.881922 0.000000 0.471395
outer loop
vertex -3.049441 -0.099999 0.166671
vertex -3.049441 9.900001 0.166671
vertex -3.077164 9.900001 0.114805
endloop
endfacet
facet normal -0.881922 0.000000 0.471395
outer loop
vertex -3.049441 -0.099999 0.166671
vertex -3.077164 9.900001 0.114805
vertex -3.077164 -0.099999 0.114805
endloop
endfacet
facet normal -0.956940 0.000000 0.290285
outer loop
vertex -3.077164 -0.099999 0.114805
vertex -3.077164 9.900001 0.114805
vertex -3.094235 9.900001 0.058527
endloop
endfacet
facet normal -0.956940 0.000000 0.290285
outer loop
vertex -3.077164 -0.099999 0.114805
vertex -3.094235 9.900001 0.058527
vertex -3.094235 -0.099999 0.058527
endloop
endfacet
facet normal -0.995185 0.000000 0.098018
outer loop
vertex -3.094235 -0.099999 0.058527
vertex -3.094235 9.900001 0.058527
vertex -3.100000 9.900001 0.000000
endloop
endfacet
facet normal -0.995185 0.000000 0.098018
outer loop
vertex -3.094235 -0.099999 0.058527
vertex -3.100000 9.900001 0.000000
vertex -3.100000 -0.099999 0.000000
endloop
endfacet
facet normal -0.995185 0.000000 -0.098018
outer loop
vertex -3.100000 -0.099999 0.000000
vertex -3.100000 9.900001 0.000000
vertex -3.094235 9.900001 -0.058527
endloop
endfacet
facet normal -0.995185 0.000000 -0.098018
outer loop
vertex -3.100000 -0.099999 0.000000
vertex -3.094235 9.900001 -0.058527
vertex -3.094235 -0.099999 -0.058527
endloop
endfacet
facet normal -0.956940 0.000000 -0.290285
outer loop
vertex -3.094235 -0.099999 -0.058527
vertex -3.094235 9.900001 -0.058527
vertex -3.077164 9.900001 -0.114805
endloop
endfacet
facet normal -0.956940 0.000000 -0.290285
outer loop
vertex -3.094235 -0.099999 -0.058527
vertex -3.077164 9.900001 -0.114805
vertex -3.077164 -0.099999 -0.114805
endloop
endfacet
facet normal -0.881922 0.000000 -0.471395
outer loop
vertex -3.077164 -0.099999 -0.114805
vertex -3.077164 9.900001 -0.114805
vertex -3.049441 9.900001 -0.166671
endloop
endfacet
facet normal -0.881922 0.000000 -0.471395
outer loop
vertex -3.077164 -0.099999 -0.114805
vertex -3.049441 9.900001 -0.166671
vertex -3.049441 -0.099999 -0.166671
endloop
endfacet
facet normal -0.773010 0.000000 -0.634394
outer loop
vertex -3.049441 -0.099999 -0.166671
vertex -3.049441 9.900001 -0.166671
vertex -3.012132 9.900001 -0.212132
endloop
endfacet
facet normal -0.773009 0.000000 -0.634395
outer loop
vertex -3.049441 -0.099999 -0.166671
vertex -3.012132 9.900001 -0.212132
vertex -3.012132 -0.099999 -0.212132
endloop
endfacet
facet normal -0.634394 0.000000 -0.773010
outer loop
vertex -3.012132 -0.099999 -0.212132
vertex -3.012132 9.900001 -0.212132
vertex -2.966671 9.900001 -0.249441
endloop
endfacet
facet normal -0.634393 0.000000 -0.773010
outer loop
vertex -3.012132 -0.099999 -0.212132
vertex -2.966671 9.900001 -0.249441
vertex -2.966671 -0.099999 -0.249441
endloop
endfacet
facet normal -0.471397 0.000000 -0.881921
outer loop
vertex -2.966671 -0.099999 -0.249441
vertex -2.966671 9.900001 -0.249441
vertex -2.914805 9.900001 -0.277164
endloop
endfacet
facet normal -0.471397 0.000000 -0.881921
outer loop
vertex -2.966671 -0.099999 -0.249441
vertex -2.914805 9.900001 -0.277164
vertex -2.914805 -0.099999 -0.277164
endloop
endfacet
facet normal -0.290284 0.000000 -0.956940
outer loop
vertex -2.914805 -0.099999 -0.277164
vertex -2.914805 9.900001 -0.277164
vertex -2.858527 9.900001 -0.294236
endloop
endfacet
facet normal -0.290284 0.000000 -0.956940
outer loop
vertex -2.914805 -0.099999 -0.277164
vertex -2.858527 9.900001 -0.294236
vertex -2.858527 -0.099999 -0.294236
endloop
endfacet
facet normal -0.098018 0.000000 -0.995185
outer loop
vertex -2.858527 -0.099999 -0.294236
vertex -2.858527 9.900001 -0.294236
vertex -2.800000 9.900001 -0.300000
endloop
endfacet
facet normal -0.098017 0.000000 -0.995185
outer loop
vertex -2.858527 -0.099999 -0.294236
vertex -2.800000 9.900001 -0.300000
vertex -2.800000 -0.099999 -0.300000
endloop
endfacet
facet normal 0.098017 0.000000 -0.995185
outer loop
vertex -2.800000 -0.099999 -0.300000
vertex -2.800000 9.900001 -0.300000
vertex -2.741473 9.900001 -0.294236
endloop
endfacet
facet normal 0.098018 0.000000 -0.995185
outer loop
vertex -2.800000 -0.099999 -0.300000
vertex -2.741473 9.900001 -0.294236
vertex -2.741473 -0.099999 -0.294236
endloop
endfacet
facet normal 0.290284 0.000000 -0.956940
outer loop
vertex -2.741473 -0.099999 -0.294236
vertex -2.741473 9.900001 -0.294236
vertex -2.685195 9.900001 -0.277164
endloop
endfacet
facet normal 0.290284 0.000000 -0.956940
outer loop
vertex -2.741473 -0.099999 -0.294236
vertex -2.685195 9.900001 -0.277164
vertex -2.685195 -0.099999 -0.277164
endloop
endfacet
facet normal 0.471397 0.000000 -0.881921
outer loop
vertex -2.685195 -0.099999 -0.277164
vertex -2.685195 9.900001 -0.277164
vertex -2.633329 9.900001 -0.249441
endloop
endfacet
facet normal 0.471397 0.000000 -0.881921
outer loop
vertex -2.685195 -0.099999 -0.277164
vertex -2.633329 9.900001 -0.249441
vertex -2.633329 -0.099999 -0.249441
endloop
endfacet
facet normal 0.634393 0.000000 -0.773010
outer loop
vertex -2.633329 -0.099999 -0.249441
vertex -2.633329 9.900001 -0.249441
vertex -2.587868 9.900001 -0.212132
endloop
endfacet
facet normal 0.634394 0.000000 -0.773010
outer loop
vertex -2.633329 -0.099999 -0.249441
vertex -2.587868 9.900001 -0.212132
vertex -2.587868 -0.099999 -0.212132
endloop
endfacet
facet normal 0.773009 0.000000 -0.634395
outer loop
vertex -2.587868 -0.099999 -0.212132
vertex -2.587868 9.900001 -0.212132
vertex -2.550559 9.900001 -0.166671
endloop
endfacet
facet normal 0.773010 0.000000 -0.634394
outer loop
vertex -2.587868 -0.099999 -0.212132
vertex -2.550559 9.900001 -0.166671
vertex -2.550559 -0.099999 -0.166671
endloop
endfacet
facet normal 0.881922 0.000000 -0.471395
outer loop
vertex -2.550559 -0.099999 -0.166671
vertex -2.550559 9.900001 -0.166671
vertex -2.522836 9.900001 -0.114805
endloop
endfacet
facet normal 0.881922 0.000000 -0.471395
outer loop
vertex -2.550559 -0.099999 -0.166671
vertex -2.522836 9.900001 -0.114805
vertex -2.522836 -0.099999 -0.114805
endloop
endfacet
facet normal 0.956940 0.000000 -0.290285
outer loop
vertex -2.522836 -0.099999 -0.114805
vertex -2.522836 9.900001 -0.114805
vertex -2.505764 9.900001 -0.058527
endloop
endfacet
facet normal 0.956940 0.000000 -0.290285
outer loop
vertex -2.522836 -0.099999 -0.114805
vertex -2.505764 9.900001 -0.058527
vertex -2.505764 -0.099999 -0.058527
endloop
endfacet
facet normal 0.995185 0.000000 -0.098018
outer loop
vertex -2.505764 -0.099999 -0.058527
vertex -2.505764 9.900001 -0.058527
vertex -2.500000 9.900001 0.000000
endloop
endfacet
facet normal 0.995185 0.000000 -0.098018
outer loop
vertex -2.505764 -0.099999 -0.058527
vertex -2.500000 9.900001 0.000000
vertex -2.500000 -0.099999 0.000000
endloop
endfacet
facet normal 0.995185 0.000000 0.098018
outer loop
vertex -2.500000 -0.099999 0.000000
vertex -2.500000 9.900001 0.000000
vertex -2.505764 9.900001 0.058527
endloop
endfacet
facet normal 0.995185 0.000000 0.098018
outer loop
vertex -2.500000 -0.099999 0.000000
vertex -2.505764 9.900001 0.058527
vertex -2.505764 -0.099999 0.058527
endloop
endfacet
facet normal 0.956940 0.000000 0.290285
outer loop
vertex -2.505764 -0.099999 0.058527
vertex -2.505764 9.900001 0.058527
vertex -2.522836 9.900001 0.114805
endloop
endfacet
facet normal 0.956940 0.000000 0.290285
outer loop
vertex -2.505764 -0.099999 0.058527
vertex -2.522836 9.900001 0.114805
vertex -2.522836 -0.099999 0.114805
endloop
endfacet
facet normal 0.881922 0.000000 0.471395
outer loop
vertex -2.522836 -0.099999 0.114805
vertex -2.522836 9.900001 0.114805
vertex -2.550559 9.900001 0.166671
endloop
endfacet
facet normal 0.881922 0.000000 0.471395
outer loop
vertex -2.522836 -0.099999 0.114805
vertex -2.550559 9.900001 0.166671
vertex -2.550559 -0.099999 0.166671
endloop
endfacet
facet normal 0.773010 0.000000 0.634394
outer loop
vertex -2.550559 -0.099999 0.166671
vertex -2.550559 9.900001 0.166671
vertex -2.587868 9.900001 0.212132
endloop
endfacet
facet normal 0.773009 0.000000 0.634395
outer loop
vertex -2.550559 -0.099999 0.166671
vertex -2.587868 9.900001 0.212132
vertex -2.587868 -0.099999 0.212132
endloop
endfacet
facet normal 0.634394 0.000000 0.773010
outer loop
vertex -2.587868 -0.099999 0.212132
vertex -2.587868 9.900001 0.212132
vertex -2.633329 9.900001 0.249441
endloop
endfacet
facet normal 0.634393 0.000000 0.773010
outer loop
vertex -2.587868 -0.099999 0.212132
vertex -2.633329 9.900001 0.249441
vertex -2.633329 -0.099999 0.249441
endloop
endfacet
facet normal 0.471397 0.000000 0.881921
outer loop
vertex -2.633329 -0.099999 0.249441
vertex -2.633329 9.900001 0.249441
vertex -2.685195 9.900001 0.277164
endloop
endfacet
facet normal 0.471397 0.000000 0.881921
outer loop
vertex -2.633329 -0.099999 0.249441
vertex -2.685195 9.900001 0.277164
vertex -2.685195 -0.099999 0.277164
endloop
endfacet
facet normal 0.000000 1.000000 -0.000177
outer loop
vertex -2.914805 9.900001 0.277164
vertex -2.858527 9.900001 0.294236
vertex -2.800000 9.900001 0.300000
endloop
endfacet
facet normal 0.000000 1.000000 -0.000177
outer loop
vertex -2.800000 9.900001 0.300000
vertex -2.741473 9.900001 0.294236
vertex -2.685195 9.900001 0.277164
endloop
endfacet
facet normal 0.000000 1.000000 -0.000088
outer loop
vertex -2.685195 9.900001 0.277164
vertex -2.633329 9.900001 0.249441
vertex -2.587868 9.900001 0.212132
endloop
endfacet
facet normal 0.000000 1.000000 -0.000088
outer loop
vertex -2.587868 9.900001 0.212132
vertex -2.550559 9.900001 0.166671
vertex -2.522836 9.900001 0.114805
endloop
endfacet
facet normal 0.000000 1.000000 0.000022
outer loop
vertex -2.522836 9.900001 0.114805
vertex -2.505764 9.900001 0.058527
vertex -2.500000 9.900001 0.000000
endloop
endfacet
facet normal 0.000000 1.000000 0.000000
outer loop
vertex -2.500000 9.900001 0.000000
vertex -2.505764 9.900001 -0.058527
vertex -2.522836 9.900001 -0.114805
endloop
endfacet
facet normal 0.000000 1.000000 0.000088
outer loop
vertex -2.522836 9.900001 -0.114805
vertex -2.550559 9.900001 -0.166671
vertex -2.587868 9.900001 -0.212132
endloop
endfacet
facet normal 0.000000 1.000000 0.000000
outer loop
vertex -2.587868 9.900001 -0.212132
vertex -2.633329 9.900001 -0.249441
vertex -2.685195 9.900001 -0.277164
endloop
endfacet
facet normal 0.000000 1.000000 0.000177
outer loop
vertex -2.685195 9.900001 -0.277164
vertex -2.741473 9.900001 -0.294236
vertex -2.800000 9.900001 -0.300000
endloop
endfacet
facet normal 0.000000 1.000000 0.000177
outer loop
vertex -2.800000 9.900001 -0.300000
vertex -2.858527 9.900001 -0.294236
vertex -2.914805 9.900001 -0.277164
endloop
endfacet
facet normal 0.000000 1.000000 0.000088
outer loop
vertex -2.914805 9.900001 -0.277164
vertex -2.966671 9.900001 -0.249441
vertex -3.012132 9.900001 -0.212132
endloop
endfacet
facet normal 0.000000 1.000000 0.000088
outer loop
vertex -3.012132 9.900001 -0.212132
vertex -3.049441 9.900001 -0.166671
vertex -3.077164 9.900001 -0.114805
endloop
endfacet
facet normal 0.000000 1.000000 -0.000022
outer loop
vertex -3.077164 9.900001 -0.114805
vertex -3.094235 9.900001 -0.058527
vertex -3.100000 9.900001 0.000000
endloop
endfacet
facet normal 0.000000 1.000000 0.000000
outer loop
vertex -3.100000 9.900001 0.000000
vertex -3.094235 9.900001 0.058527
vertex -3.077164 9.900001 0.114805
endloop
endfacet
facet normal 0.000000 1.000000 -0.000088
outer loop
vertex -3.077164 9.900001 0.114805
vertex -3.049441 9.900001 0.166671
vertex -3.012132 9.900001 0.212132
endloop
endfacet
facet normal 0.000000 1.000000 0.000000
outer loop
vertex -3.012132 9.900001 0.212132
vertex -2.966671 9.900001 0.249441
vertex -2.914805 9.900001 0.277164
endloop
endfacet
facet normal 0.000000 1.000000 0.000000
outer loop
vertex -2.914805 9.900001 0.277164
vertex -2.800000 9.900001 0.300000
vertex -2.685195 9.900001 0.277164
endloop
endfacet
facet normal 0.000000 1.000000 0.000000
outer loop
vertex -2.685195 9.900001 0.277164
vertex -2.587868 9.900001 0.212132
vertex -2.522836 9.900001 0.114805
endloop
endfacet
facet normal 0.000000 1.000000 0.000000
outer loop
vertex -2.522836 9.900001 0.114805
vertex -2.500000 9.900001 0.000000
vertex -2.522836 9.900001 -0.114805
endloop
endfacet
facet normal 0.000000 1.000000 0.000000
outer loop
vertex -2.522836 9.900001 -0.114805
vertex -2.587868 9.900001 -0.212132
vertex -2.685195 9.900001 -0.277164
endloop
endfacet
facet normal 0.000000 1.000000 0.000000
outer loop
vertex -2.685195 9.900001 -0.277164
vertex -2.800000 9.900001 -0.300000
vertex -2.914805 9.900001 -0.277164
endloop
endfacet
facet normal 0.000000 1.000000 0.000000
outer loop
vertex -2.914805 9.900001 -0.277164
vertex -3.012132 9.900001 -0.212132
vertex -3.077164 9.900001 -0.114805
endloop
endfacet
facet normal 0.000000 1.000000 0.000000
outer loop
vertex -3.077164 9.900001 -0.114805
vertex -3.100000 9.900001 0.000000
vertex -3.077164 9.900001 0.114805
endloop
endfacet
facet normal 0.000000 1.000000 0.000000
outer loop
vertex -3.077164 9.900001 0.114805
vertex -3.012132 9.900001 0.212132
vertex -2.914805 9.900001 0.277164
endloop
endfacet
facet normal 0.000000 1.000000 0.000000
outer loop
vertex -2.914805 9.900001 0.277164
vertex -2.685195 9.900001 0.277164
vertex -2.522836 9.900001 0.114805
endloop
endfacet
facet normal 0.000000 1.000000 0.000000
outer loop
vertex -2.522836 9.900001 0.114805
vertex -2.522836 9.900001 -0.114805
vertex -2.685195 9.900001 -0.277164
endloop
endfacet
facet normal 0.000000 1.000000 0.000000
outer loop
vertex -2.685195 9.900001 -0.277164
vertex -2.914805 9.900001 -0.277164
vertex -3.077164 9.900001 -0.114805
endloop
endfacet
facet normal 0.000000 1.000000 0.000000
outer loop
vertex -3.077164 9.900001 -0.114805
vertex -3.077164 9.900001 0.114805
vertex -2.914805 9.900001 0.277164
endloop
endfacet
facet normal 0.000000 1.000000 0.000000
outer loop
vertex -2.914805 9.900001 0.277164
vertex -2.522836 9.900001 0.114805
vertex -2.685195 9.900001 -0.277164
endloop
endfacet
facet normal 0.000000 1.000000 0.000000
outer loop
vertex -2.685195 9.900001 -0.277164
vertex -3.077164 9.900001 -0.114805
vertex -2.914805 9.900001 0.277164
endloop
endfacet
facet normal 0.290284 0.000000 0.956940
outer loop
vertex -2.685195 -0.099999 0.277164
vertex -2.685195 9.900001 0.277164
vertex -2.741473 9.900001 0.294236
endloop
endfacet
facet normal 0.290284 0.000000 0.956940
outer loop
vertex -2.685195 -0.099999 0.277164
vertex -2.741473 9.900001 0.294236
vertex -2.741473 -0.099999 0.294236
endloop
endfacet
facet normal 0.098018 0.000000 0.995185
outer loop
vertex -2.741473 -0.099999 0.294236
vertex -2.741473 9.900001 0.294236
vertex -2.800000 9.900001 0.300000
endloop
endfacet
facet normal 0.098017 0.000000 0.995185
outer loop
vertex -2.741473 -0.099999 0.294236
vertex -2.800000 9.900001 0.300000
vertex -2.800000 -0.099999 0.300000
endloop
endfacet
facet normal 0.000000 -1.000000 0.000000
outer loop
vertex -2.741473 -0.099999 0.294236
vertex -2.800000 -0.099999 0.300000
vertex -2.858527 -0.099999 0.294236
endloop
endfacet
facet normal 0.000000 -1.000000 0.000000
outer loop
vertex -2.858527 -0.099999 0.294236
vertex -2.914805 -0.099999 0.277164
vertex -2.966671 -0.099999 0.249441
endloop
endfacet
facet normal 0.000000 -1.000000 -0.000001
outer loop
vertex -2.966671 -0.099999 0.249441
vertex -3.012132 -0.099999 0.212132
vertex -3.049441 -0.099999 0.166671
endloop
endfacet
facet normal 0.000000 -1.000000 -0.000000
outer loop
vertex -3.049441 -0.099999 0.166671
vertex -3.077164 -0.099999 0.114805
vertex -3.094235 -0.099999 0.058527
endloop
endfacet
facet normal 0.000000 -1.000000 0.000000
outer loop
vertex -3.094235 -0.099999 0.058527
vertex -3.100000 -0.099999 0.000000
vertex -3.094235 -0.099999 -0.058527
endloop
endfacet
facet normal 0.000000 -1.000000 0.000001
outer loop
vertex -3.094235 -0.099999 -0.058527
vertex -3.077164 -0.099999 -0.114805
vertex -3.049441 -0.099999 -0.166671
endloop
endfacet
facet normal 0.000000 -1.000000 0.000001
outer loop
vertex -3.049441 -0.099999 -0.166671
vertex -3.012132 -0.099999 -0.212132
vertex -2.966671 -0.099999 -0.249441
endloop
endfacet
facet normal 0.000000 -1.000000 0.000000
outer loop
vertex -2.966671 -0.099999 -0.249441
vertex -2.914805 -0.099999 -0.277164
vertex -2.858527 -0.099999 -0.294236
endloop
endfacet
facet normal 0.000000 -1.000000 0.000000
outer loop
vertex -2.858527 -0.099999 -0.294236
vertex -2.800000 -0.099999 -0.300000
vertex -2.741473 -0.099999 -0.294236
endloop
endfacet
facet normal 0.000000 -1.000000 0.000000
outer loop
vertex -2.741473 -0.099999 -0.294236
vertex -2.685195 -0.099999 -0.277164
vertex -2.633329 -0.099999 -0.249441
endloop
endfacet
facet normal 0.000000 -1.000000 0.000001
outer loop
vertex -2.633329 -0.099999 -0.249441
vertex -2.587868 -0.099999 -0.212132
vertex -2.550559 -0.099999 -0.166671
endloop
endfacet
facet normal 0.000000 -1.000000 0.000000
outer loop
vertex -2.550559 -0.099999 -0.166671
vertex -2.522836 -0.099999 -0.114805
vertex -2.505764 -0.099999 -0.058527
endloop
endfacet
facet normal 0.000000 -1.000000 0.000000
outer loop
vertex -2.505764 -0.099999 -0.058527
vertex -2.500000 -0.099999 0.000000
vertex -2.505764 -0.099999 0.058527
endloop
endfacet
facet normal 0.000000 -1.000000 -0.000001
outer loop
vertex -2.505764 -0.099999 0.058527
vertex -2.522836 -0.099999 0.114805
vertex -2.550559 -0.099999 0.166671
endloop
endfacet
facet normal 0.000000 -1.000000 -0.000001
outer loop
vertex -2.550559 -0.099999 0.166671
vertex -2.587868 -0.099999 0.212132
vertex -2.633329 -0.099999 0.249441
endloop
endfacet
facet normal 0.000000 -1.000000 0.000000
outer loop
vertex -2.633329 -0.099999 0.249441
vertex -2.685195 -0.099999 0.277164
vertex -2.741473 -0.099999 0.294236
endloop
endfacet
facet normal 0.000000 -1.000000 0.000000
outer loop
vertex -2.741473 -0.099999 0.294236
vertex -2.858527 -0.099999 0.294236
vertex -2.966671 -0.099999 0.249441
endloop
endfacet
facet normal 0.000000 -1.000000 0.000000
outer loop
vertex -2.966671 -0.099999 0.249441
vertex -3.049441 -0.099999 0.166671
vertex -3.094235 -0.099999 0.058527
endloop
endfacet
facet normal 0.000000 -1.000000 0.000000
outer loop
vertex -3.094235 -0.099999 0.058527
vertex -3.094235 -0.099999 -0.058527
vertex -3.049441 -0.099999 -0.166671
endloop
endfacet
facet normal 0.000000 -1.000000 0.000000
outer loop
vertex -3.049441 -0.099999 -0.166671
vertex -2.966671 -0.099999 -0.249441
vertex -2.858527 -0.099999 -0.294236
endloop
endfacet
facet normal 0.000000 -1.000000 0.000000
outer loop
vertex -2.858527 -0.099999 -0.294236
vertex -2.741473 -0.099999 -0.294236
vertex -2.633329 -0.099999 -0.249441
endloop
endfacet
facet normal 0.000000 -1.000000 -0.000000
outer loop
vertex -2.633329 -0.099999 -0.249441
vertex -2.550559 -0.099999 -0.166671
vertex -2.505764 -0.099999 -0.058527
endloop
endfacet
facet normal 0.000000 -1.000000 0.000000
outer loop
vertex -2.505764 -0.099999 -0.058527
vertex -2.505764 -0.099999 0.058527
vertex -2.550559 -0.099999 0.166671
endloop
endfacet
facet normal 0.000000 -1.000000 0.000000
outer loop
vertex -2.550559 -0.099999 0.166671
vertex -2.633329 -0.099999 0.249441
vertex -2.741473 -0.099999 0.294236
endloop
endfacet
facet normal 0.000000 -1.000000 0.000000
outer loop
vertex -2.741473 -0.099999 0.294236
vertex -2.966671 -0.099999 0.249441
vertex -3.094235 -0.099999 0.058527
endloop
endfacet
facet normal 0.000000 -1.000000 0.000000
outer loop
vertex -3.094235 -0.099999 0.058527
vertex -3.049441 -0.099999 -0.166671
vertex -2.858527 -0.099999 -0.294236
endloop
endfacet
facet normal 0.000000 -1.000000 0.000000
outer loop
vertex -2.858527 -0.099999 -0.294236
vertex -2.633329 -0.099999 -0.249441
vertex -2.505764 -0.099999 -0.058527
endloop
endfacet
facet normal 0.000000 -1.000000 0.000000
outer loop
vertex -2.505764 -0.099999 -0.058527
vertex -2.550559 -0.099999 0.166671
vertex -2.741473 -0.099999 0.294236
endloop
endfacet
facet normal 0.000000 -1.000000 0.000000
outer loop
vertex -2.741473 -0.099999 0.294236
vertex -3.094235 -0.099999 0.058527
vertex -2.858527 -0.099999 -0.294236
endloop
endfacet
facet normal 0.000000 -1.000000 0.000000
outer loop
vertex -2.858527 -0.099999 -0.294236
vertex -2.505764 -0.099999 -0.058527
vertex -2.741473 -0.099999 0.294236
endloop
endfacet
endsolid Exported from Blender-3.4.1
